<?xml version="1.0" encoding="UTF-8" standalone="no"?>
<!DOCTYPE svg PUBLIC "-//W3C//DTD SVG 1.1//EN" "http://www.w3.org/Graphics/SVG/1.1/DTD/svg11.dtd">
<svg version="1.1" xmlns="http://www.w3.org/2000/svg" xmlns:xlink="http://www.w3.org/1999/xlink" preserveAspectRatio="xMidYMid meet" viewBox="0 0 500 500" width="500" height="500"><defs><path d="M76.63 50.36C76.68 50.27 76.93 49.85 77.38 49.08L82.3 57.03L75.29 54.72L75.31 53.98C75.87 52.11 76.31 50.9 76.63 50.36Z" id="aeNZilOqf"></path><path d="M66.84 62.3C66.88 62.3 67.07 62.29 67.4 62.27C67.62 62.6 67.75 62.79 67.77 62.82C68.76 64.38 69.8 65.88 70.88 67.29C70.81 67.38 70.43 67.82 69.74 68.61L62.72 64.41L63.84 63.61C65.13 62.78 66.13 62.34 66.84 62.3Z" id="bQg6A4wFl"></path><path d="M63.78 55.58C62.77 55.32 57.7 54.02 48.58 51.69L48.5 49.87L53.8 48.89L50.93 42.29L57.91 42.94L57.22 38.31L58.94 37.86L66.4 51.8L82.3 57.03L94.98 78.34C94.33 78.52 93.97 78.62 93.89 78.64C88.8 80.04 83.67 78.87 78.62 75.14C69.51 68.42 63.84 55.7 63.78 55.58Z" id="a2eVUnY782"></path><path d="M75.15 66.86C75.01 66.74 74.34 66.11 73.12 64.98C74.71 65.16 75.6 65.26 75.78 65.28C76.16 65.32 76.58 65.35 77.01 65.37C77.32 64.81 77.64 64.24 77.97 63.68C78.07 63.52 78.53 62.72 79.38 61.28C79.57 63.02 79.68 63.98 79.7 64.17C79.88 65.83 80.23 67.29 80.73 68.52C80.78 68.64 81.04 69.28 81.52 70.44C80.36 69.98 79.72 69.72 79.6 69.67C78.44 69.21 77.35 68.6 76.36 67.86C75.93 67.55 75.53 67.21 75.15 66.86Z" id="a1lhNjD8R9"></path><path d="M95.74 77.88C95.13 76.85 92.09 71.73 86.61 62.52L82.91 56.32C80.08 51.75 78.51 49.22 78.2 48.71C78.03 48.44 77.74 48.26 77.44 48.23C77.13 48.2 76.84 48.32 76.66 48.56C76.27 49.1 74.66 51.37 74.42 53.49C73.93 53.32 71.46 52.51 67 51.05C61.16 40.12 57.92 34.06 57.27 32.84C57.05 32.43 56.59 32.22 56.16 32.33C55.74 32.44 55.48 32.84 55.55 33.29C55.63 33.87 56.06 36.74 56.83 41.92C53.3 41.58 51.34 41.4 50.94 41.36C50.63 41.33 50.33 41.46 50.16 41.71C49.99 41.97 49.96 42.3 50.09 42.6C50.25 42.97 51.06 44.83 52.51 48.17C47.52 49.1 44.75 49.61 44.2 49.71C43.78 49.79 43.49 50.16 43.51 50.59C43.53 50.9 43.69 51.18 43.93 51.36C44.03 51.44 44.15 51.5 44.28 51.53C46.17 52.01 61.27 55.87 63.16 56.36C63.55 57.2 64.49 59.1 65.91 61.51C64.04 61.98 62.37 63.53 62.13 63.76C61.93 63.96 61.84 64.24 61.89 64.54C61.93 64.8 62.08 65.03 62.29 65.19C62.32 65.21 62.35 65.23 62.38 65.25C63.52 65.93 72.7 71.41 73.84 72.1C75.16 73.46 76.59 74.75 78.11 75.88C83.8 80.07 89.59 81.19 95.32 79.19C95.57 79.1 95.76 78.9 95.84 78.65C95.92 78.4 95.88 78.12 95.74 77.88ZM76.24 54.08C76.26 53.21 76.81 51.95 77.44 50.88C77.63 51.18 78.56 52.68 80.24 55.4C77.84 54.61 76.5 54.17 76.24 54.08ZM66.97 63.23C66.98 63.25 66.99 63.26 67 63.28C67.87 64.65 68.93 66.21 70.17 67.82C69.78 67.59 67.87 66.44 64.41 64.38C65.59 63.64 66.44 63.26 66.97 63.23ZM64.62 55.26C64.55 55.09 64.43 54.95 64.29 54.85C64.19 54.77 64.07 54.71 63.94 54.68C62.93 54.42 57.86 53.12 48.74 50.79C51.92 50.2 53.68 49.87 54.03 49.81C54.3 49.76 54.52 49.6 54.63 49.36C54.75 49.12 54.75 48.84 54.64 48.58C54.49 48.23 53.73 46.49 52.37 43.35C55.69 43.66 57.53 43.83 57.9 43.87C58.17 43.9 58.43 43.8 58.61 43.61C58.79 43.42 58.86 43.15 58.82 42.88C58.78 42.57 58.55 41.03 58.14 38.25C62.61 46.61 65.09 51.26 65.59 52.19C65.71 52.42 65.92 52.6 66.17 52.68C67.21 53.02 72.39 54.73 81.72 57.79C88.84 69.76 92.79 76.41 93.58 77.74C88.78 79.07 83.92 77.95 79.13 74.41C70.31 67.89 64.68 55.38 64.62 55.26Z" id="h9oZ3My0Hs"></path><path d="M80.47 61.18C80.47 60.77 80.19 60.38 79.79 60.23C79.39 60.09 78.96 60.22 78.75 60.56C77.95 61.82 77.18 63.11 76.45 64.41C75.35 64.34 74.37 64.15 73.52 63.85C73.14 63.71 72.73 63.83 72.51 64.14C72.29 64.45 72.3 64.88 72.53 65.22C73.45 66.51 74.56 67.65 75.86 68.61C76.7 69.23 77.62 69.76 78.57 70.21C79.53 70.65 80.54 71 81.56 71.24C81.93 71.32 82.29 71.18 82.49 70.88C82.68 70.57 82.66 70.16 82.44 69.84C81.14 67.96 80.46 64.97 80.47 61.18ZM77.06 66.3C77.38 66.31 77.68 66.14 77.83 65.87C78.14 65.31 78.45 64.76 78.78 64.2C78.97 65.95 79.34 67.49 79.88 68.81C78.34 68.19 76.93 67.3 75.75 66.2C76.17 66.25 76.61 66.28 77.06 66.3Z" id="b32HbbLApo"></path><path d="M443.18 75.12C443.27 75.17 443.71 75.38 444.5 75.78L436.91 81.24L438.73 74.09L439.47 74.06C441.38 74.49 442.61 74.84 443.18 75.12Z" id="a2JRF9qZNJ"></path><path d="M430.59 66.18C430.59 66.22 430.61 66.4 430.66 66.74C430.34 66.98 430.16 67.12 430.13 67.14C428.64 68.23 427.22 69.38 425.89 70.56C425.8 70.49 425.33 70.14 424.49 69.51L428.2 62.22L429.07 63.27C429.99 64.5 430.49 65.47 430.59 66.18Z" id="c4VOMIuAqG"></path><path d="M437.08 62.66C437.27 61.64 438.21 56.49 439.91 47.23L441.71 47.03L443.06 52.24L449.45 48.93L449.28 55.93L453.85 54.92L454.42 56.61L441.03 65.01L436.91 81.24L416.53 95.36C416.31 94.72 416.19 94.37 416.16 94.3C414.4 89.32 415.22 84.11 418.59 78.82C424.67 69.27 436.96 62.73 437.08 62.66Z" id="e1cHaoGUCi"></path><path d="M426.61 74.79C426.72 74.64 427.31 73.92 428.35 72.62C428.28 74.23 428.24 75.12 428.23 75.3C428.21 75.69 428.21 76.1 428.23 76.54C428.81 76.81 429.4 77.09 429.98 77.38C430.14 77.46 430.97 77.87 432.47 78.62C430.75 78.93 429.8 79.1 429.61 79.14C427.97 79.43 426.53 79.88 425.35 80.46C425.22 80.53 424.6 80.83 423.48 81.38C423.86 80.2 424.08 79.55 424.12 79.41C424.5 78.23 425.03 77.1 425.7 76.06C425.98 75.61 426.28 75.19 426.61 74.79Z" id="a16HvZO954"></path><path d="M417.05 96.09C418.03 95.41 422.92 92.02 431.73 85.92L437.66 81.8C442.02 78.66 444.44 76.92 444.93 76.57C445.19 76.38 445.35 76.09 445.36 75.78C445.37 75.47 445.22 75.19 444.97 75.03C444.41 74.67 442.03 73.22 439.9 73.14C440.03 72.63 440.67 70.11 441.82 65.56C452.32 58.98 458.15 55.33 459.31 54.59C459.7 54.35 459.89 53.87 459.75 53.45C459.61 53.04 459.19 52.81 458.74 52.91C458.18 53.03 455.34 53.66 450.23 54.79C450.32 51.24 450.37 49.27 450.38 48.87C450.38 48.55 450.23 48.27 449.97 48.11C449.71 47.96 449.37 47.96 449.08 48.11C448.72 48.29 446.92 49.22 443.69 50.9C442.42 45.99 441.72 43.27 441.58 42.72C441.47 42.31 441.08 42.05 440.65 42.1C440.35 42.13 440.07 42.31 439.91 42.57C439.84 42.67 439.79 42.8 439.77 42.93C439.42 44.84 436.61 60.18 436.26 62.09C435.45 62.55 433.61 63.61 431.31 65.2C430.72 63.36 429.05 61.81 428.8 61.59C428.59 61.4 428.3 61.33 428.01 61.39C427.76 61.46 427.53 61.62 427.39 61.84C427.37 61.87 427.35 61.9 427.34 61.93C426.73 63.12 421.9 72.65 421.29 73.84C420.03 75.25 418.84 76.76 417.82 78.36C414.03 84.32 413.32 90.18 415.71 95.76C415.82 96 416.02 96.18 416.28 96.24C416.54 96.3 416.82 96.25 417.05 96.09ZM439.44 74.99C440.3 74.95 441.6 75.41 442.72 75.96C442.43 76.17 440.99 77.21 438.4 79.07C439.02 76.62 439.37 75.26 439.44 74.99ZM429.67 66.37C429.65 66.38 429.64 66.4 429.62 66.41C428.32 67.37 426.83 68.54 425.31 69.88C425.51 69.48 426.52 67.49 428.34 63.9C429.16 65.02 429.6 65.85 429.67 66.37ZM437.46 63.48C437.62 63.4 437.75 63.27 437.85 63.12C437.92 63.01 437.97 62.89 437.99 62.76C438.18 61.73 439.12 56.59 440.82 47.33C441.62 50.46 442.07 52.19 442.16 52.54C442.23 52.8 442.41 53.01 442.65 53.1C442.89 53.21 443.18 53.19 443.43 53.06C443.76 52.88 445.45 52.01 448.49 50.43C448.41 53.76 448.36 55.61 448.35 55.98C448.35 56.26 448.46 56.51 448.66 56.67C448.86 56.84 449.14 56.9 449.4 56.84C449.71 56.77 451.23 56.44 453.98 55.83C445.94 60.87 441.48 63.67 440.59 64.23C440.36 64.37 440.2 64.59 440.13 64.85C439.86 65.91 438.53 71.19 436.11 80.71C424.67 88.64 418.31 93.04 417.04 93.93C415.38 89.23 416.16 84.3 419.36 79.27C425.25 70.02 437.34 63.55 437.46 63.48Z" id="a7Gz4J8MZ1"></path><path d="M432.64 79.7C433.06 79.67 433.43 79.36 433.54 78.96C433.66 78.55 433.5 78.13 433.14 77.94C431.84 77.23 430.49 76.55 429.14 75.91C429.14 74.81 429.26 73.82 429.5 72.95C429.61 72.56 429.47 72.16 429.15 71.96C428.82 71.76 428.39 71.8 428.07 72.06C426.84 73.06 425.79 74.26 424.92 75.61C424.36 76.5 423.88 77.45 423.51 78.43C423.13 79.42 422.86 80.44 422.69 81.48C422.63 81.85 422.8 82.21 423.11 82.38C423.43 82.55 423.84 82.51 424.14 82.27C425.93 80.84 428.87 79.95 432.64 79.7ZM427.31 76.65C427.32 76.97 427.5 77.25 427.79 77.39C428.36 77.66 428.94 77.94 429.51 78.22C427.78 78.53 426.27 79.01 425 79.64C425.5 78.06 426.3 76.59 427.31 75.33C427.29 75.76 427.29 76.2 427.31 76.65Z" id="f2vyvY3W89"></path><path d="M161.89 450.29C161.79 450.27 161.31 450.17 160.44 450L166.32 442.74L166.45 450.11L165.74 450.34C163.79 450.43 162.51 450.41 161.89 450.29Z" id="b1PtosHnoy"></path><path d="M176.39 455.6C176.37 455.57 176.3 455.39 176.17 455.08C176.42 454.76 176.55 454.59 176.58 454.55C177.72 453.11 178.8 451.62 179.77 450.14C179.88 450.19 180.42 450.4 181.39 450.78L179.74 458.8L178.61 458.01C177.4 457.06 176.66 456.26 176.39 455.6Z" id="a1oR7xqL1C"></path><path d="M171.04 460.7C171.13 461.74 171.58 466.95 172.38 476.33L170.69 477.01L168.02 472.33L162.73 477.21L161.05 470.41L156.9 472.58L155.91 471.1L166.62 459.48L166.32 442.73L182.27 423.75C182.65 424.31 182.87 424.62 182.91 424.68C185.91 429.02 186.49 434.26 184.64 440.25C181.28 451.06 171.15 460.61 171.04 460.7Z" id="f3iFroosTV"></path><path d="M177.96 446.25C177.89 446.42 177.52 447.27 176.85 448.79C176.5 447.23 176.3 446.36 176.26 446.18C176.18 445.8 176.07 445.4 175.94 444.99C175.31 444.88 174.67 444.76 174.03 444.64C173.85 444.6 172.94 444.42 171.3 444.1C172.88 443.35 173.75 442.93 173.93 442.84C175.43 442.13 176.7 441.32 177.69 440.44C177.79 440.35 178.31 439.89 179.24 439.07C179.18 440.3 179.15 440.99 179.15 441.13C179.09 442.37 178.87 443.6 178.51 444.79C178.35 445.29 178.17 445.78 177.96 446.25Z" id="a3GlVeAFLd"></path><path d="M181.58 423.18C180.82 424.1 176.99 428.65 170.09 436.86L165.45 442.39C162.07 446.57 160.19 448.89 159.82 449.35C159.62 449.6 159.54 449.93 159.61 450.23C159.69 450.53 159.9 450.76 160.18 450.85C160.82 451.05 163.5 451.81 165.57 451.34C165.58 451.86 165.62 454.46 165.71 459.15C157.32 468.26 152.65 473.32 151.72 474.33C151.41 474.68 151.36 475.19 151.6 475.55C151.84 475.91 152.31 476.02 152.71 475.81C153.23 475.54 155.8 474.19 160.43 471.76C161.28 475.21 161.75 477.12 161.85 477.5C161.92 477.81 162.15 478.05 162.44 478.13C162.73 478.21 163.06 478.12 163.3 477.9C163.6 477.63 165.09 476.26 167.77 473.79C170.28 478.19 171.68 480.64 171.96 481.13C172.17 481.5 172.61 481.65 173.01 481.48C173.3 481.37 173.51 481.12 173.6 480.84C173.64 480.71 173.65 480.58 173.64 480.45C173.48 478.51 172.15 462.98 171.99 461.04C172.65 460.38 174.14 458.87 175.94 456.74C177 458.35 179.02 459.41 179.32 459.56C179.57 459.69 179.87 459.68 180.13 459.54C180.36 459.41 180.54 459.2 180.61 458.94C180.62 458.91 180.63 458.88 180.64 458.85C180.91 457.54 183.07 447.07 183.34 445.76C184.19 444.08 184.93 442.3 185.5 440.49C187.59 433.74 186.73 427.91 182.96 423.15C182.79 422.94 182.55 422.83 182.28 422.84C182.02 422.84 181.76 422.97 181.58 423.18ZM165.53 449.43C164.71 449.7 163.33 449.59 162.11 449.35C162.34 449.08 163.45 447.7 165.46 445.22C165.5 447.75 165.53 449.15 165.53 449.43ZM177.22 455.17C177.23 455.16 177.25 455.14 177.26 455.13C178.26 453.86 179.39 452.34 180.5 450.64C180.41 451.08 179.96 453.27 179.15 457.21C178.07 456.34 177.43 455.66 177.22 455.17ZM170.47 460.01C170.34 460.14 170.24 460.29 170.19 460.46C170.15 460.59 170.13 460.72 170.14 460.85C170.23 461.89 170.68 467.1 171.48 476.48C169.88 473.67 168.99 472.12 168.81 471.81C168.68 471.57 168.45 471.42 168.19 471.39C167.93 471.36 167.66 471.45 167.45 471.64C167.17 471.89 165.77 473.18 163.25 475.5C162.46 472.27 162.02 470.47 161.93 470.11C161.86 469.85 161.69 469.63 161.45 469.53C161.21 469.42 160.93 469.43 160.69 469.56C160.41 469.71 159.03 470.43 156.54 471.74C162.97 464.76 166.54 460.89 167.25 460.11C167.43 459.92 167.53 459.66 167.53 459.4C167.51 458.31 167.41 452.85 167.23 443.04C176.19 432.38 181.17 426.45 182.16 425.27C185 429.37 185.54 434.32 183.78 440.01C180.53 450.49 170.57 459.92 170.47 460.01Z" id="i1ZPcyyufz"></path><path d="M170.85 443.1C170.45 443.24 170.18 443.63 170.17 444.05C170.17 444.48 170.44 444.84 170.83 444.93C172.28 445.27 173.75 445.57 175.22 445.83C175.52 446.89 175.66 447.88 175.65 448.78C175.65 449.19 175.89 449.53 176.26 449.64C176.62 449.75 177.03 449.6 177.27 449.26C178.19 447.98 178.9 446.55 179.37 445.01C179.68 444.01 179.89 442.97 179.99 441.92C180.09 440.87 180.09 439.81 179.98 438.76C179.94 438.38 179.69 438.09 179.34 438C178.98 437.92 178.61 438.07 178.38 438.39C177.03 440.23 174.42 441.86 170.85 443.1ZM176.8 444.64C176.7 444.33 176.45 444.1 176.14 444.05C175.51 443.94 174.88 443.83 174.25 443.7C175.85 442.94 177.18 442.09 178.24 441.15C178.17 442.8 177.79 444.43 177.14 445.91C177.05 445.49 176.93 445.07 176.8 444.64Z" id="aaqJlJUPE"></path><path d="M108.36 356.93C108.41 356.85 108.69 356.44 109.19 355.7L113.58 363.95L106.74 361.2L106.81 360.46C107.49 358.63 108.01 357.45 108.36 356.93Z" id="e1LntBSQs5"></path><path d="M97.81 368.21C97.85 368.21 98.04 368.21 98.37 368.21C98.57 368.56 98.68 368.75 98.7 368.79C99.59 370.41 100.53 371.98 101.52 373.45C101.44 373.53 101.03 373.95 100.3 374.69L93.56 370.05L94.73 369.32C96.07 368.57 97.1 368.2 97.81 368.21Z" id="c10068DkcY"></path><path d="M95.2 361.3C94.2 360.97 89.23 359.35 80.28 356.43L80.32 354.62L85.67 353.98L83.24 347.2L90.16 348.31L89.77 343.65L91.52 343.31L98.05 357.7L113.58 363.95L124.84 386.04C124.18 386.18 123.82 386.25 123.75 386.27C118.58 387.34 113.52 385.84 108.73 381.79C100.08 374.48 95.25 361.43 95.2 361.3Z" id="b2W3S7vGxG"></path><path d="M105.81 373.3C105.68 373.17 105.04 372.5 103.9 371.29C105.48 371.57 106.36 371.73 106.53 371.76C106.92 371.83 107.33 371.89 107.76 371.93C108.11 371.39 108.47 370.85 108.83 370.31C108.93 370.16 109.45 369.39 110.39 368.01C110.47 369.75 110.51 370.72 110.52 370.91C110.59 372.58 110.85 374.06 111.27 375.31C111.31 375.44 111.53 376.1 111.93 377.28C110.81 376.75 110.19 376.45 110.06 376.39C108.94 375.85 107.89 375.18 106.94 374.38C106.54 374.04 106.16 373.68 105.81 373.3Z" id="dlRltZoKO"></path><path d="M125.64 385.63C125.1 384.57 122.39 379.26 117.52 369.72L114.24 363.29C111.71 358.55 110.31 355.91 110.03 355.39C109.88 355.1 109.6 354.91 109.3 354.86C109 354.81 108.7 354.91 108.51 355.14C108.08 355.65 106.33 357.81 105.95 359.91C105.47 359.71 103.05 358.74 98.71 356.99C93.59 345.71 90.75 339.44 90.18 338.19C89.99 337.77 89.54 337.52 89.11 337.6C88.68 337.69 88.39 338.08 88.43 338.53C88.48 339.11 88.72 342 89.15 347.22C85.65 346.65 83.7 346.34 83.31 346.28C83 346.23 82.69 346.34 82.5 346.58C82.31 346.82 82.27 347.15 82.38 347.46C82.51 347.84 83.2 349.75 84.43 353.18C79.39 353.78 76.59 354.11 76.03 354.18C75.61 354.23 75.3 354.57 75.29 355.01C75.29 355.32 75.43 355.61 75.66 355.8C75.76 355.89 75.87 355.95 76 355.99C77.85 356.6 92.67 361.43 94.52 362.04C94.86 362.9 95.67 364.87 96.94 367.36C95.04 367.7 93.27 369.14 93.02 369.36C92.8 369.54 92.7 369.82 92.72 370.12C92.75 370.38 92.88 370.62 93.09 370.8C93.11 370.82 93.14 370.84 93.17 370.86C94.27 371.62 103.06 377.68 104.16 378.44C105.38 379.88 106.73 381.26 108.18 382.49C113.57 387.05 119.28 388.53 125.13 386.91C125.39 386.84 125.59 386.66 125.69 386.41C125.78 386.17 125.76 385.88 125.64 385.63ZM107.72 360.62C107.8 359.75 108.44 358.53 109.13 357.5C109.3 357.81 110.13 359.37 111.63 362.19C109.29 361.25 107.98 360.72 107.72 360.62ZM97.88 369.14C97.89 369.16 97.9 369.18 97.91 369.19C98.68 370.62 99.64 372.25 100.77 373.93C100.4 373.68 98.56 372.41 95.25 370.13C96.47 369.47 97.35 369.14 97.88 369.14ZM96.06 361.04C96 360.87 95.89 360.72 95.75 360.6C95.65 360.52 95.54 360.45 95.42 360.41C94.42 360.09 89.45 358.47 80.5 355.54C83.71 355.16 85.49 354.95 85.84 354.91C86.11 354.88 86.34 354.73 86.47 354.5C86.6 354.27 86.62 353.99 86.53 353.73C86.4 353.37 85.76 351.58 84.61 348.36C87.89 348.88 89.72 349.18 90.09 349.23C90.36 349.28 90.62 349.2 90.81 349.02C91 348.84 91.1 348.58 91.07 348.31C91.05 348 90.92 346.44 90.69 343.64C94.61 352.28 96.78 357.08 97.22 358.04C97.33 358.28 97.53 358.47 97.77 358.57C98.78 358.98 103.84 361.01 112.95 364.68C119.28 377.08 122.79 383.97 123.49 385.35C118.61 386.37 113.84 384.94 109.28 381.09C100.91 374.02 96.1 361.17 96.06 361.04Z" id="e4VDGais8"></path><path d="M111.48 367.98C111.51 367.56 111.26 367.16 110.87 366.99C110.48 366.82 110.04 366.92 109.81 367.25C108.93 368.45 108.08 369.69 107.26 370.94C106.17 370.8 105.2 370.55 104.38 370.19C104.01 370.03 103.59 370.12 103.35 370.41C103.11 370.7 103.09 371.14 103.3 371.49C104.13 372.84 105.17 374.05 106.4 375.09C107.2 375.76 108.08 376.36 109.01 376.86C109.93 377.37 110.91 377.78 111.92 378.08C112.28 378.19 112.65 378.07 112.87 377.78C113.08 377.49 113.09 377.08 112.89 376.75C111.72 374.79 111.23 371.75 111.48 367.98ZM107.75 372.86C108.07 372.89 108.37 372.75 108.54 372.48C108.89 371.95 109.24 371.41 109.6 370.88C109.68 372.64 109.95 374.2 110.4 375.55C108.91 374.84 107.55 373.85 106.44 372.68C106.86 372.76 107.3 372.82 107.75 372.86Z" id="gXpjmMUOu"></path><path d="M111.07 204.74C110.98 204.71 110.51 204.57 109.66 204.32L116.22 197.66L115.63 205.02L114.9 205.17C112.95 205.07 111.68 204.92 111.07 204.74Z" id="cXMrtOH78"></path><path d="M124.98 211.45C124.97 211.41 124.92 211.23 124.82 210.91C125.09 210.62 125.24 210.46 125.27 210.42C126.55 209.1 127.77 207.73 128.88 206.35C128.98 206.4 129.5 206.67 130.43 207.14L128 214.96L126.96 214.06C125.85 213 125.19 212.13 124.98 211.45Z" id="d1RtMaMyu"></path><path d="M119.16 216C119.15 217.05 119.08 222.28 118.96 231.69L117.22 232.19L115.02 227.28L109.27 231.62L108.27 224.68L103.93 226.44L103.09 224.87L114.88 214.35L116.22 197.66L133.95 180.33C134.28 180.92 134.46 181.25 134.5 181.31C137.06 185.93 137.13 191.2 134.69 196.98C130.3 207.41 119.28 215.92 119.16 216Z" id="ansjM80zo"></path><path d="M127.46 202.3C127.37 202.46 126.92 203.27 126.11 204.72C125.91 203.13 125.8 202.24 125.78 202.06C125.73 201.68 125.66 201.27 125.57 200.84C124.96 200.67 124.33 200.49 123.71 200.31C123.53 200.25 122.64 199.99 121.04 199.5C122.68 198.91 123.6 198.58 123.78 198.51C125.35 197.95 126.68 197.26 127.76 196.49C127.87 196.41 128.43 196 129.44 195.27C129.26 196.5 129.16 197.18 129.14 197.32C128.96 198.55 128.63 199.75 128.15 200.89C127.95 201.38 127.71 201.85 127.46 202.3Z" id="a1z0GtgN8s"></path><path d="M133.32 179.7C132.47 180.53 128.21 184.69 120.55 192.18L115.39 197.23C111.62 201.06 109.52 203.18 109.1 203.61C108.88 203.84 108.77 204.16 108.81 204.46C108.86 204.77 109.04 205.02 109.32 205.13C109.93 205.39 112.52 206.42 114.63 206.15C114.59 206.67 114.38 209.27 114.01 213.94C104.76 222.18 99.63 226.76 98.6 227.68C98.25 227.99 98.15 228.49 98.36 228.88C98.57 229.26 99.02 229.42 99.44 229.25C99.98 229.03 102.67 227.94 107.52 225.97C108.03 229.48 108.31 231.43 108.37 231.83C108.41 232.14 108.61 232.4 108.9 232.51C109.18 232.61 109.51 232.56 109.77 232.37C110.09 232.12 111.71 230.9 114.62 228.7C116.69 233.33 117.84 235.9 118.07 236.42C118.25 236.81 118.67 237 119.09 236.88C119.38 236.79 119.62 236.57 119.74 236.29C119.79 236.17 119.82 236.05 119.82 235.91C119.84 233.96 120.05 218.38 120.07 216.43C120.8 215.85 122.43 214.49 124.43 212.54C125.32 214.25 127.23 215.5 127.51 215.68C127.75 215.83 128.05 215.85 128.32 215.74C128.56 215.63 128.76 215.43 128.86 215.19C128.87 215.16 128.89 215.13 128.9 215.09C129.29 213.82 132.46 203.61 132.86 202.34C133.87 200.74 134.79 199.05 135.52 197.3C138.27 190.79 137.99 184.9 134.69 179.8C134.55 179.58 134.32 179.44 134.05 179.42C133.79 179.4 133.52 179.5 133.32 179.7ZM114.78 204.25C113.93 204.43 112.57 204.19 111.38 203.83C111.63 203.58 112.88 202.32 115.12 200.05C114.92 202.57 114.8 203.97 114.78 204.25ZM125.85 211.11C125.87 211.09 125.88 211.08 125.89 211.06C127.02 209.9 128.29 208.5 129.56 206.92C129.43 207.35 128.77 209.48 127.57 213.32C126.58 212.35 126.01 211.61 125.85 211.11ZM118.66 215.26C118.51 215.37 118.4 215.52 118.34 215.68C118.28 215.8 118.26 215.93 118.25 216.06C118.24 217.11 118.17 222.33 118.05 231.75C116.73 228.8 116 227.16 115.85 226.83C115.74 226.59 115.53 226.42 115.28 226.36C115.02 226.3 114.74 226.37 114.52 226.53C114.21 226.76 112.7 227.91 109.96 229.97C109.49 226.67 109.22 224.84 109.17 224.48C109.13 224.21 108.98 223.98 108.75 223.85C108.53 223.72 108.25 223.71 107.99 223.81C107.7 223.93 106.26 224.51 103.65 225.57C110.73 219.25 114.66 215.75 115.45 215.05C115.65 214.87 115.77 214.62 115.79 214.36C115.88 213.27 116.31 207.84 117.1 198.05C127.06 188.32 132.59 182.91 133.7 181.83C136.12 186.18 136.17 191.17 133.86 196.66C129.6 206.77 118.77 215.18 118.66 215.26Z" id="aigd1DLoD"></path><path d="M120.69 198.47C120.29 198.57 119.97 198.93 119.93 199.35C119.88 199.77 120.11 200.16 120.49 200.28C121.9 200.76 123.34 201.21 124.78 201.62C124.96 202.7 125.01 203.7 124.92 204.59C124.87 205 125.08 205.36 125.43 205.51C125.79 205.65 126.21 205.54 126.48 205.23C127.52 204.04 128.36 202.68 128.99 201.2C129.39 200.24 129.7 199.22 129.91 198.19C130.11 197.15 130.21 196.09 130.2 195.04C130.2 194.66 129.98 194.34 129.64 194.23C129.3 194.11 128.9 194.22 128.64 194.51C127.12 196.22 124.37 197.58 120.69 198.47ZM126.46 200.58C126.4 200.26 126.17 200.01 125.87 199.93C125.25 199.76 124.64 199.58 124.02 199.4C125.68 198.8 127.09 198.08 128.24 197.25C128 198.88 127.47 200.47 126.68 201.88C126.63 201.45 126.55 201.02 126.46 200.58Z" id="f4l0uf2FdT"></path><path d="M416.9 376.95C416.84 377.03 416.52 377.4 415.96 378.09L412.38 369.45L418.92 372.86L418.79 373.59C417.93 375.34 417.3 376.46 416.9 376.95Z" id="jfKuBMPys"></path><path d="M428.49 366.74C428.45 366.73 428.26 366.71 427.93 366.68C427.76 366.31 427.67 366.11 427.65 366.07C426.93 364.38 426.14 362.72 425.3 361.16C425.39 361.09 425.83 360.72 426.63 360.05L432.89 365.32L431.66 365.93C430.25 366.54 429.19 366.81 428.49 366.74Z" id="a22YklvN8"></path><path d="M430.42 373.87C431.38 374.28 436.17 376.38 444.8 380.15L444.58 381.95L439.2 382.07L440.97 389.05L434.19 387.28L434.12 391.96L432.35 392.13L427.24 377.17L412.38 369.45L403.3 346.38C403.97 346.31 404.34 346.27 404.41 346.26C409.66 345.69 414.54 347.68 418.93 352.17C426.83 360.27 430.39 373.73 430.42 373.87Z" id="c2sa6qRR4"></path><path d="M421.02 360.9C421.13 361.04 421.7 361.77 422.72 363.09C421.18 362.65 420.32 362.41 420.15 362.36C419.77 362.25 419.37 362.16 418.94 362.07C418.55 362.58 418.14 363.08 417.72 363.58C417.6 363.73 417.01 364.44 415.95 365.73C416.04 363.98 416.09 363.01 416.1 362.82C416.18 361.15 416.08 359.66 415.78 358.37C415.75 358.24 415.59 357.56 415.31 356.35C416.37 356.99 416.96 357.34 417.08 357.41C418.15 358.06 419.12 358.83 419.99 359.72C420.36 360.09 420.7 360.49 421.02 360.9Z" id="c4AlJWJBO8"></path><path d="M402.47 346.72C402.9 347.82 405.08 353.37 409.01 363.34L411.66 370.05C413.72 375.02 414.86 377.77 415.09 378.32C415.21 378.62 415.47 378.84 415.76 378.92C416.06 379 416.37 378.92 416.58 378.72C417.06 378.25 419.01 376.26 419.58 374.22C420.05 374.46 422.36 375.66 426.51 377.82C430.52 389.54 432.75 396.05 433.19 397.35C433.34 397.79 433.77 398.08 434.2 398.04C434.64 398 434.96 397.64 434.96 397.18C434.97 396.6 435.01 393.7 435.08 388.47C438.52 389.36 440.43 389.86 440.81 389.96C441.11 390.04 441.43 389.96 441.64 389.74C441.85 389.52 441.93 389.19 441.85 388.88C441.75 388.49 441.25 386.52 440.36 382.99C445.43 382.88 448.25 382.81 448.81 382.8C449.24 382.79 449.58 382.48 449.63 382.04C449.66 381.74 449.55 381.43 449.34 381.22C449.25 381.13 449.14 381.05 449.02 381C447.24 380.22 432.95 373.98 431.17 373.2C430.91 372.3 430.29 370.27 429.27 367.67C431.2 367.51 433.09 366.24 433.37 366.05C433.6 365.89 433.73 365.62 433.73 365.33C433.73 365.06 433.62 364.81 433.44 364.62C433.41 364.59 433.39 364.57 433.36 364.55C432.34 363.69 424.17 356.8 423.15 355.94C422.07 354.39 420.87 352.88 419.54 351.53C414.61 346.47 409.07 344.44 403.09 345.49C402.83 345.54 402.61 345.7 402.49 345.93C402.37 346.17 402.36 346.46 402.47 346.72ZM417.89 373.34C417.73 374.19 416.98 375.35 416.19 376.31C416.05 375.98 415.37 374.34 414.15 371.4C416.39 372.56 417.64 373.21 417.89 373.34ZM428.51 365.8C428.5 365.78 428.49 365.77 428.48 365.75C427.85 364.26 427.05 362.54 426.09 360.76C426.43 361.04 428.14 362.48 431.22 365.08C429.94 365.61 429.04 365.85 428.51 365.8ZM429.54 374.04C429.59 374.22 429.68 374.38 429.8 374.51C429.89 374.6 430 374.67 430.12 374.73C431.08 375.15 435.87 377.24 444.5 381.01C441.27 381.08 439.47 381.12 439.12 381.13C438.85 381.13 438.61 381.26 438.45 381.47C438.3 381.69 438.25 381.97 438.32 382.24C438.41 382.61 438.88 384.45 439.72 387.77C436.5 386.93 434.71 386.46 434.35 386.37C434.08 386.3 433.81 386.35 433.61 386.51C433.4 386.67 433.28 386.92 433.27 387.19C433.27 387.51 433.25 389.07 433.21 391.87C430.14 382.9 428.44 377.92 428.1 376.92C428.01 376.67 427.83 376.46 427.6 376.34C426.63 375.83 421.79 373.32 413.08 368.8C407.98 355.84 405.14 348.64 404.58 347.2C409.53 346.66 414.14 348.54 418.31 352.81C425.96 360.66 429.51 373.91 429.54 374.04Z" id="d1sBmznXbt"></path><path d="M414.86 365.65C414.79 366.06 415 366.49 415.37 366.69C415.74 366.9 416.19 366.84 416.45 366.54C417.44 365.43 418.41 364.27 419.34 363.11C420.41 363.35 421.35 363.7 422.14 364.14C422.5 364.33 422.92 364.28 423.18 364.01C423.45 363.74 423.51 363.31 423.33 362.94C422.64 361.52 421.72 360.22 420.6 359.06C419.87 358.31 419.05 357.64 418.18 357.05C417.3 356.46 416.37 355.95 415.4 355.55C415.05 355.41 414.66 355.49 414.42 355.76C414.18 356.03 414.13 356.43 414.3 356.78C415.28 358.85 415.47 361.92 414.86 365.65ZM419.04 361.15C418.72 361.09 418.41 361.2 418.22 361.45C417.82 361.95 417.42 362.45 417.01 362.94C417.1 361.18 416.99 359.6 416.67 358.22C418.08 359.07 419.33 360.18 420.32 361.45C419.91 361.34 419.49 361.24 419.04 361.15Z" id="f6XMj1ZDyc"></path><path d="M305.46 199.05C305.5 199.14 305.72 199.58 306.11 200.37L296.76 200.07L302.57 195.51L303.18 195.94C304.42 197.44 305.18 198.48 305.46 199.05Z" id="ayQp6G4PZ"></path><path d="M300.95 184.28C300.93 184.31 300.84 184.47 300.67 184.76C300.27 184.76 300.04 184.76 300 184.76C298.16 184.72 296.33 184.76 294.56 184.87C294.53 184.76 294.37 184.2 294.09 183.2L301.48 179.68L301.53 181.05C301.5 182.59 301.31 183.66 300.95 184.28Z" id="h13p7qHmEo"></path><path d="M308.24 185.46C309.02 184.76 312.91 181.26 319.9 174.97L321.46 175.91L319.34 180.85L326.43 182.13L322.01 187.58L326.25 189.57L325.67 191.25L309.93 189.73L296.76 200.07L272 198.8C272.22 198.16 272.33 197.8 272.36 197.73C274.01 192.72 277.83 189.09 283.73 186.96C294.38 183.11 308.1 185.44 308.24 185.46Z" id="a7kfdMrdMi"></path><path d="M292.55 188.66C292.73 188.62 293.62 188.4 295.24 188.01C294.21 189.24 293.63 189.92 293.52 190.06C293.27 190.36 293.01 190.69 292.76 191.04C293.05 191.61 293.34 192.19 293.63 192.77C293.71 192.94 294.12 193.77 294.85 195.27C293.3 194.47 292.43 194.03 292.26 193.94C290.78 193.17 289.37 192.65 288.08 192.39C287.94 192.36 287.26 192.22 286.04 191.98C287.06 191.28 287.63 190.89 287.75 190.81C288.77 190.1 289.88 189.53 291.05 189.11C291.54 188.93 292.04 188.78 292.55 188.66Z" id="c8d32uo97N"></path><path d="M271.96 199.69C273.15 199.75 279.1 200.06 289.8 200.61L297.02 200.97C302.38 201.14 305.37 201.24 305.96 201.26C306.28 201.27 306.59 201.14 306.79 200.9C306.98 200.66 307.04 200.35 306.94 200.07C306.71 199.44 305.71 196.84 304.08 195.48C304.49 195.15 306.54 193.55 310.22 190.65C322.55 191.85 329.4 192.51 330.77 192.64C331.23 192.69 331.67 192.42 331.81 192.01C331.96 191.6 331.76 191.16 331.35 190.96C330.83 190.72 328.2 189.48 323.46 187.25C325.7 184.49 326.94 182.96 327.19 182.66C327.39 182.41 327.44 182.09 327.33 181.81C327.22 181.52 326.96 181.32 326.64 181.26C326.24 181.19 324.24 180.83 320.65 180.18C322.65 175.52 323.76 172.93 323.98 172.41C324.15 172.02 324 171.58 323.63 171.35C323.37 171.19 323.04 171.17 322.76 171.27C322.64 171.32 322.52 171.38 322.42 171.47C320.98 172.77 309.39 183.2 307.94 184.51C307.02 184.37 304.91 184.09 302.12 183.95C302.77 182.13 302.4 179.88 302.34 179.55C302.29 179.27 302.11 179.04 301.84 178.92C301.59 178.81 301.32 178.8 301.07 178.89C301.03 178.9 301 178.91 300.97 178.93C299.77 179.5 290.12 184.1 288.91 184.67C287.05 185.01 285.19 185.49 283.4 186.13C276.76 188.53 272.62 192.74 271.11 198.62C271.04 198.87 271.1 199.14 271.26 199.34C271.43 199.55 271.68 199.68 271.96 199.69ZM302.58 196.65C303.29 197.15 304.04 198.32 304.58 199.43C304.23 199.42 302.45 199.36 299.26 199.26C301.25 197.7 302.36 196.83 302.58 196.65ZM300.11 183.87C300.09 183.87 300.07 183.87 300.05 183.87C298.43 183.83 296.54 183.85 294.51 183.99C294.92 183.79 296.93 182.83 300.57 181.1C300.53 182.49 300.37 183.41 300.11 183.87ZM308.04 186.34C308.22 186.37 308.4 186.35 308.57 186.29C308.69 186.24 308.8 186.18 308.9 186.09C309.68 185.39 313.57 181.89 320.56 175.6C319.29 178.57 318.59 180.21 318.45 180.54C318.34 180.79 318.36 181.06 318.49 181.29C318.62 181.52 318.86 181.68 319.13 181.73C319.51 181.8 321.38 182.13 324.74 182.74C322.65 185.33 321.48 186.77 321.25 187.05C321.08 187.26 321.01 187.53 321.07 187.79C321.13 188.04 321.31 188.25 321.56 188.37C321.84 188.5 323.25 189.17 325.79 190.37C316.35 189.45 311.11 188.94 310.06 188.84C309.8 188.81 309.53 188.89 309.32 189.05C308.46 189.73 304.18 193.1 296.45 199.16C282.55 198.45 274.82 198.05 273.28 197.97C274.83 193.24 278.46 189.82 284.06 187.79C294.37 184.06 307.9 186.31 308.04 186.34Z" id="lolSpWHtz"></path><path d="M294.33 196.24C294.67 196.47 295.15 196.45 295.49 196.2C295.83 195.95 295.96 195.52 295.79 195.15C295.19 193.79 294.54 192.43 293.87 191.1C294.53 190.23 295.23 189.52 295.96 188.98C296.28 188.74 296.41 188.33 296.28 187.98C296.14 187.62 295.78 187.39 295.37 187.4C293.79 187.44 292.22 187.74 290.7 188.29C289.72 188.64 288.76 189.11 287.86 189.66C286.96 190.21 286.12 190.85 285.35 191.57C285.08 191.83 284.99 192.21 285.14 192.54C285.28 192.87 285.63 193.08 286.02 193.08C288.31 193.04 291.18 194.13 294.33 196.24ZM291.96 190.56C291.77 190.83 291.74 191.16 291.89 191.44C292.18 192.01 292.47 192.58 292.75 193.16C291.18 192.35 289.7 191.8 288.31 191.52C289.67 190.58 291.2 189.9 292.76 189.52C292.49 189.85 292.22 190.2 291.96 190.56Z" id="b1Zql9E9J8"></path></defs><g><g><g><use xlink:href="#aeNZilOqf" opacity="1" fill="#f4a026" fill-opacity="1"></use><g><use xlink:href="#aeNZilOqf" opacity="1" fill-opacity="0" stroke="#000000" stroke-width="1" stroke-opacity="0"></use></g></g><g><use xlink:href="#bQg6A4wFl" opacity="1" fill="#f4a026" fill-opacity="1"></use><g><use xlink:href="#bQg6A4wFl" opacity="1" fill-opacity="0" stroke="#000000" stroke-width="1" stroke-opacity="0"></use></g></g><g><use xlink:href="#a2eVUnY782" opacity="1" fill="#a57659" fill-opacity="1"></use><g><use xlink:href="#a2eVUnY782" opacity="1" fill-opacity="0" stroke="#000000" stroke-width="1" stroke-opacity="0"></use></g></g><g><use xlink:href="#a1lhNjD8R9" opacity="1" fill="#f4a026" fill-opacity="1"></use><g><use xlink:href="#a1lhNjD8R9" opacity="1" fill-opacity="0" stroke="#000000" stroke-width="1" stroke-opacity="0"></use></g></g><g><use xlink:href="#h9oZ3My0Hs" opacity="1" fill="#9b735a" fill-opacity="1"></use><g><use xlink:href="#h9oZ3My0Hs" opacity="1" fill-opacity="0" stroke="#000000" stroke-width="1" stroke-opacity="0"></use></g></g><g><use xlink:href="#b32HbbLApo" opacity="1" fill="#9b735a" fill-opacity="1"></use><g><use xlink:href="#b32HbbLApo" opacity="1" fill-opacity="0" stroke="#000000" stroke-width="1" stroke-opacity="0"></use></g></g><g><use xlink:href="#a2JRF9qZNJ" opacity="1" fill="#f4a026" fill-opacity="1"></use><g><use xlink:href="#a2JRF9qZNJ" opacity="1" fill-opacity="0" stroke="#000000" stroke-width="1" stroke-opacity="0"></use></g></g><g><use xlink:href="#c4VOMIuAqG" opacity="1" fill="#f4a026" fill-opacity="1"></use><g><use xlink:href="#c4VOMIuAqG" opacity="1" fill-opacity="0" stroke="#000000" stroke-width="1" stroke-opacity="0"></use></g></g><g><use xlink:href="#e1cHaoGUCi" opacity="1" fill="#a57659" fill-opacity="1"></use><g><use xlink:href="#e1cHaoGUCi" opacity="1" fill-opacity="0" stroke="#000000" stroke-width="1" stroke-opacity="0"></use></g></g><g><use xlink:href="#a16HvZO954" opacity="1" fill="#f4a026" fill-opacity="1"></use><g><use xlink:href="#a16HvZO954" opacity="1" fill-opacity="0" stroke="#000000" stroke-width="1" stroke-opacity="0"></use></g></g><g><use xlink:href="#a7Gz4J8MZ1" opacity="1" fill="#9b735a" fill-opacity="1"></use><g><use xlink:href="#a7Gz4J8MZ1" opacity="1" fill-opacity="0" stroke="#000000" stroke-width="1" stroke-opacity="0"></use></g></g><g><use xlink:href="#f2vyvY3W89" opacity="1" fill="#9b735a" fill-opacity="1"></use><g><use xlink:href="#f2vyvY3W89" opacity="1" fill-opacity="0" stroke="#000000" stroke-width="1" stroke-opacity="0"></use></g></g><g><use xlink:href="#b1PtosHnoy" opacity="1" fill="#f4a026" fill-opacity="1"></use><g><use xlink:href="#b1PtosHnoy" opacity="1" fill-opacity="0" stroke="#000000" stroke-width="1" stroke-opacity="0"></use></g></g><g><use xlink:href="#a1oR7xqL1C" opacity="1" fill="#f4a026" fill-opacity="1"></use><g><use xlink:href="#a1oR7xqL1C" opacity="1" fill-opacity="0" stroke="#000000" stroke-width="1" stroke-opacity="0"></use></g></g><g><use xlink:href="#f3iFroosTV" opacity="1" fill="#a57659" fill-opacity="1"></use><g><use xlink:href="#f3iFroosTV" opacity="1" fill-opacity="0" stroke="#000000" stroke-width="1" stroke-opacity="0"></use></g></g><g><use xlink:href="#a3GlVeAFLd" opacity="1" fill="#f4a026" fill-opacity="1"></use><g><use xlink:href="#a3GlVeAFLd" opacity="1" fill-opacity="0" stroke="#000000" stroke-width="1" stroke-opacity="0"></use></g></g><g><use xlink:href="#i1ZPcyyufz" opacity="1" fill="#9b735a" fill-opacity="1"></use><g><use xlink:href="#i1ZPcyyufz" opacity="1" fill-opacity="0" stroke="#000000" stroke-width="1" stroke-opacity="0"></use></g></g><g><use xlink:href="#aaqJlJUPE" opacity="1" fill="#9b735a" fill-opacity="1"></use><g><use xlink:href="#aaqJlJUPE" opacity="1" fill-opacity="0" stroke="#000000" stroke-width="1" stroke-opacity="0"></use></g></g><g><use xlink:href="#e1LntBSQs5" opacity="1" fill="#f4a026" fill-opacity="1"></use><g><use xlink:href="#e1LntBSQs5" opacity="1" fill-opacity="0" stroke="#000000" stroke-width="1" stroke-opacity="0"></use></g></g><g><use xlink:href="#c10068DkcY" opacity="1" fill="#f4a026" fill-opacity="1"></use><g><use xlink:href="#c10068DkcY" opacity="1" fill-opacity="0" stroke="#000000" stroke-width="1" stroke-opacity="0"></use></g></g><g><use xlink:href="#b2W3S7vGxG" opacity="1" fill="#a57659" fill-opacity="1"></use><g><use xlink:href="#b2W3S7vGxG" opacity="1" fill-opacity="0" stroke="#000000" stroke-width="1" stroke-opacity="0"></use></g></g><g><use xlink:href="#dlRltZoKO" opacity="1" fill="#f4a026" fill-opacity="1"></use><g><use xlink:href="#dlRltZoKO" opacity="1" fill-opacity="0" stroke="#000000" stroke-width="1" stroke-opacity="0"></use></g></g><g><use xlink:href="#e4VDGais8" opacity="1" fill="#9b735a" fill-opacity="1"></use><g><use xlink:href="#e4VDGais8" opacity="1" fill-opacity="0" stroke="#000000" stroke-width="1" stroke-opacity="0"></use></g></g><g><use xlink:href="#gXpjmMUOu" opacity="1" fill="#9b735a" fill-opacity="1"></use><g><use xlink:href="#gXpjmMUOu" opacity="1" fill-opacity="0" stroke="#000000" stroke-width="1" stroke-opacity="0"></use></g></g><g><use xlink:href="#cXMrtOH78" opacity="1" fill="#f4a026" fill-opacity="1"></use><g><use xlink:href="#cXMrtOH78" opacity="1" fill-opacity="0" stroke="#000000" stroke-width="1" stroke-opacity="0"></use></g></g><g><use xlink:href="#d1RtMaMyu" opacity="1" fill="#f4a026" fill-opacity="1"></use><g><use xlink:href="#d1RtMaMyu" opacity="1" fill-opacity="0" stroke="#000000" stroke-width="1" stroke-opacity="0"></use></g></g><g><use xlink:href="#ansjM80zo" opacity="1" fill="#a57659" fill-opacity="1"></use><g><use xlink:href="#ansjM80zo" opacity="1" fill-opacity="0" stroke="#000000" stroke-width="1" stroke-opacity="0"></use></g></g><g><use xlink:href="#a1z0GtgN8s" opacity="1" fill="#f4a026" fill-opacity="1"></use><g><use xlink:href="#a1z0GtgN8s" opacity="1" fill-opacity="0" stroke="#000000" stroke-width="1" stroke-opacity="0"></use></g></g><g><use xlink:href="#aigd1DLoD" opacity="1" fill="#9b735a" fill-opacity="1"></use><g><use xlink:href="#aigd1DLoD" opacity="1" fill-opacity="0" stroke="#000000" stroke-width="1" stroke-opacity="0"></use></g></g><g><use xlink:href="#f4l0uf2FdT" opacity="1" fill="#9b735a" fill-opacity="1"></use><g><use xlink:href="#f4l0uf2FdT" opacity="1" fill-opacity="0" stroke="#000000" stroke-width="1" stroke-opacity="0"></use></g></g><g><use xlink:href="#jfKuBMPys" opacity="1" fill="#f4a026" fill-opacity="1"></use><g><use xlink:href="#jfKuBMPys" opacity="1" fill-opacity="0" stroke="#000000" stroke-width="1" stroke-opacity="0"></use></g></g><g><use xlink:href="#a22YklvN8" opacity="1" fill="#f4a026" fill-opacity="1"></use><g><use xlink:href="#a22YklvN8" opacity="1" fill-opacity="0" stroke="#000000" stroke-width="1" stroke-opacity="0"></use></g></g><g><use xlink:href="#c2sa6qRR4" opacity="1" fill="#a57659" fill-opacity="1"></use><g><use xlink:href="#c2sa6qRR4" opacity="1" fill-opacity="0" stroke="#000000" stroke-width="1" stroke-opacity="0"></use></g></g><g><use xlink:href="#c4AlJWJBO8" opacity="1" fill="#f4a026" fill-opacity="1"></use><g><use xlink:href="#c4AlJWJBO8" opacity="1" fill-opacity="0" stroke="#000000" stroke-width="1" stroke-opacity="0"></use></g></g><g><use xlink:href="#d1sBmznXbt" opacity="1" fill="#9b735a" fill-opacity="1"></use><g><use xlink:href="#d1sBmznXbt" opacity="1" fill-opacity="0" stroke="#000000" stroke-width="1" stroke-opacity="0"></use></g></g><g><use xlink:href="#f6XMj1ZDyc" opacity="1" fill="#9b735a" fill-opacity="1"></use><g><use xlink:href="#f6XMj1ZDyc" opacity="1" fill-opacity="0" stroke="#000000" stroke-width="1" stroke-opacity="0"></use></g></g><g><use xlink:href="#ayQp6G4PZ" opacity="1" fill="#f4a026" fill-opacity="1"></use><g><use xlink:href="#ayQp6G4PZ" opacity="1" fill-opacity="0" stroke="#000000" stroke-width="1" stroke-opacity="0"></use></g></g><g><use xlink:href="#h13p7qHmEo" opacity="1" fill="#f4a026" fill-opacity="1"></use><g><use xlink:href="#h13p7qHmEo" opacity="1" fill-opacity="0" stroke="#000000" stroke-width="1" stroke-opacity="0"></use></g></g><g><use xlink:href="#a7kfdMrdMi" opacity="1" fill="#a57659" fill-opacity="1"></use><g><use xlink:href="#a7kfdMrdMi" opacity="1" fill-opacity="0" stroke="#000000" stroke-width="1" stroke-opacity="0"></use></g></g><g><use xlink:href="#c8d32uo97N" opacity="1" fill="#f4a026" fill-opacity="1"></use><g><use xlink:href="#c8d32uo97N" opacity="1" fill-opacity="0" stroke="#000000" stroke-width="1" stroke-opacity="0"></use></g></g><g><use xlink:href="#lolSpWHtz" opacity="1" fill="#9b735a" fill-opacity="1"></use><g><use xlink:href="#lolSpWHtz" opacity="1" fill-opacity="0" stroke="#000000" stroke-width="1" stroke-opacity="0"></use></g></g><g><use xlink:href="#b1Zql9E9J8" opacity="1" fill="#9b735a" fill-opacity="1"></use><g><use xlink:href="#b1Zql9E9J8" opacity="1" fill-opacity="0" stroke="#000000" stroke-width="1" stroke-opacity="0"></use></g></g></g></g></svg>