<?xml version="1.0" encoding="UTF-8" standalone="no"?>
<!DOCTYPE svg PUBLIC "-//W3C//DTD SVG 1.1//EN" "http://www.w3.org/Graphics/SVG/1.1/DTD/svg11.dtd">
<svg version="1.1" xmlns="http://www.w3.org/2000/svg" xmlns:xlink="http://www.w3.org/1999/xlink" preserveAspectRatio="xMidYMid meet" viewBox="0 0 500 500" width="500" height="500"><defs><path d="M79.46 63.72C79.67 63.88 79.78 63.97 79.81 63.99C83.69 67.01 84.73 68.87 86.38 71.95C88.52 75.93 91.26 80.92 98.74 86.73C106.23 92.54 111.71 93.95 116.09 95.02C119.46 95.84 121.46 96.33 125.4 99.39C129.29 102.41 130.09 104.09 131.74 107.17C133.88 111.16 136.79 116.17 143.59 121.56C143.24 122.02 141.48 124.31 138.31 128.45C136.85 130.36 136.04 131.42 135.87 131.63C128.45 125.86 126.05 121.14 123.85 117.11C122.2 114.03 121.39 112.35 117.51 109.33C113.62 106.32 111.69 105.87 108.31 105.04C103.88 103.93 98.51 102.61 91.02 96.8C83.54 90.99 80.63 85.87 78.49 81.88C76.79 78.87 75.12 76.52 71.69 73.86C72.73 72.51 75.32 69.13 79.46 63.72Z" id="b32mvCPeSt"></path><path d="M89.06 51.2C96.49 56.97 99.46 62.13 101.6 66.11C103.25 69.19 104.34 71.1 108.23 74.12C112.11 77.13 114.22 77.71 117.54 78.49C121.97 79.61 127.4 80.97 134.94 86.83C142.48 92.68 144.83 97.36 146.97 101.34C148.62 104.42 149.14 105.88 153.14 108.99C152.98 109.2 152.18 110.23 150.75 112.1L145.87 118.46C144.44 120.33 143.64 121.37 143.49 121.58C136.68 116.19 133.77 111.07 131.63 107.2C129.98 104.12 129.12 102.39 125.18 99.33C121.24 96.27 119.3 95.82 115.92 94.99C111.55 93.92 106.06 92.52 98.58 86.71C91.09 80.89 88.46 75.89 86.26 71.86C84.61 68.78 83.64 66.96 79.75 63.94C79.73 63.93 79.64 63.86 79.46 63.72L79.46 63.72C85.22 56.21 88.42 52.03 89.06 51.2Z" id="f1NsTYWWfy"></path><path d="M123.36 118.11C123.32 118.02 122.97 117.33 122.93 117.24C121.41 114.47 120.55 112.86 116.95 110.06C113.24 107.18 111.47 106.75 108.2 105.91C108.16 105.9 107.9 105.87 107.87 105.86C103.43 104.75 97.95 103.34 90.47 97.53C82.69 91.49 79.88 86.25 77.75 82.37C76.16 79.33 74.5 77.1 71.19 74.52C70.84 74.26 70.82 73.81 71.12 73.42C72.86 71.15 86.76 53.02 88.49 50.76C88.8 50.36 89.23 50.27 89.57 50.54C97.34 56.57 100.33 62.06 102.29 65.7C103.82 68.58 104.91 70.48 108.79 73.5C112.62 76.47 114.62 76.96 117.88 77.81C122.32 78.92 127.91 80.31 135.51 86.21C142.76 91.84 145.21 96.38 147.4 100.41C147.48 100.56 148.07 101.69 148.14 101.83C149.49 104.36 150.16 105.73 153.71 108.48C154.05 108.75 154.08 109.19 153.77 109.59C152.03 111.85 138.14 129.98 136.4 132.25C136.14 132.47 135.66 132.62 135.31 132.36C128.06 126.72 125.49 121.98 123.36 118.11ZM79.11 81.42C81.18 85.14 83.99 90.28 91.47 96.09C98.79 101.77 104.16 103.09 108.42 104.18C108.46 104.19 108.72 104.22 108.75 104.23C112.02 105.07 114.02 105.56 117.96 108.63C121.79 111.6 122.71 113.37 124.29 116.18C124.33 116.27 124.68 116.96 124.72 117.05C126.8 120.88 129.12 125.22 135.7 130.43C137.33 128.3 150.41 111.23 152.05 109.1C148.79 106.46 147.99 105 146.71 102.51C146.63 102.37 146.04 101.24 145.97 101.1C143.84 97.22 141.46 92.84 134.37 87.33C126.94 81.57 121.57 80.25 117.25 79.11C113.93 78.33 111.71 77.77 107.66 74.62C103.77 71.61 102.57 69.61 100.85 66.38C99.02 62.95 96.21 57.81 89.01 52.11C87.91 53.53 82.44 60.67 72.6 73.51L72.77 73.64C75.9 76.85 78.02 79.44 79.11 81.42Z" id="ckhY5V4az"></path><path d="M88.03 69.32C86.38 66.35 85.41 64.53 81.64 61.6C81.29 61.34 81.27 60.89 81.57 60.5C81.88 60.1 82.31 60.01 82.65 60.28C86.65 63.38 87.69 65.24 89.39 68.37C91.53 72.35 94.16 77.25 101.59 83.02C107.3 87.45 111.71 89.19 114.54 90.01C114.93 90.1 115.12 90.57 114.98 90.99C114.84 91.41 114.37 91.67 113.98 91.58C111.03 90.67 106.46 88.91 100.57 84.34C92.97 78.44 90.22 73.35 88.03 69.32Z" id="aHMZY7f2K"></path><path d="M133.37 105.05C133.32 104.98 132.98 104.38 132.94 104.3C131.54 101.73 130.55 99.8 127.13 97.14C124.67 95.23 122.83 94.54 120.77 93.9C120.39 93.81 120.19 93.34 120.39 92.86C120.58 92.37 121 92.17 121.45 92.31C123.56 93 125.62 93.75 128.19 95.75C131.85 98.59 132.95 100.61 134.41 103.33C134.45 103.4 134.75 103.97 134.78 104.04C136.8 107.72 139.11 111.95 145.92 118.29C145.97 118.33 146.03 118.38 146.03 118.38C146.27 118.66 146.29 119.11 145.99 119.5C145.83 119.7 145.37 120.19 144.8 119.75C137.77 113.23 135.44 108.88 133.37 105.05Z" id="bjkn0UzO"></path><path d="M142.31 122.04C142.31 122.04 142.31 122.04 142.31 122.04C135.86 117.03 133.77 112.97 131.93 109.43C131.68 108.92 131.43 108.41 131.13 107.97C131.11 107.94 130.97 107.75 130.95 107.72C129.37 104.8 128.4 103.1 124.74 100.26C120.91 97.28 118.92 96.79 115.71 95.99C111.28 94.87 105.74 93.53 98.08 87.59C90.48 81.69 87.79 76.64 85.54 72.56C83.89 69.48 82.7 67.71 78.93 64.78C78.58 64.52 78.56 64.07 78.86 63.68C79.17 63.28 79.6 63.19 79.94 63.46C84.05 66.65 85.32 68.69 86.9 71.61C89.04 75.6 91.67 80.5 99.1 86.26C106.53 92.03 111.9 93.35 116.22 94.49C119.49 95.33 121.65 95.85 125.7 99C129.59 102.01 130.63 103.99 132.22 106.91C132.24 106.93 132.38 107.13 132.4 107.15C132.64 107.66 132.94 108.11 133.19 108.61C134.97 112.11 137.06 116.06 143.34 120.94C143.34 120.94 143.34 120.94 143.34 120.94C143.68 121.2 143.71 121.65 143.4 122.04C143.1 122.44 142.77 122.4 142.48 122.17C142.46 122.16 142.4 122.11 142.31 122.04Z" id="bXgSwqnQ"></path><path d="M137.4 128.8C131.92 124.54 130.31 121.29 128.71 118.14C127.97 116.61 127.17 115.04 125.98 113.38C125.75 113.09 125.82 112.51 126.19 112.27C126.5 111.99 127.05 111.99 127.23 112.34C128.54 114.09 129.34 115.77 130.08 117.3C131.68 120.45 133.11 123.46 138.43 127.59C139 128.03 138.65 128.6 138.6 128.67C138.4 129.05 137.92 129.2 137.58 129.04C137.58 128.93 137.52 128.89 137.52 128.89C137.46 128.84 137.46 128.84 137.4 128.8Z" id="b5NPSryxN"></path><path d="M107.76 100.29C107.9 99.87 108.38 99.6 108.77 99.69C111.81 100.47 115.49 101.74 120.63 105.73C122.23 106.98 123.61 108.15 124.78 109.48C125.01 109.77 124.99 110.28 124.73 110.61C124.42 110.9 123.93 110.94 123.65 110.72C122.49 109.5 121.11 108.32 119.57 107.13C114.6 103.27 111.09 102.13 108.15 101.33C108.04 101.24 107.98 101.19 107.92 101.15C107.69 100.97 107.62 100.6 107.76 100.29Z" id="a15bANkSIy"></path><path d="M85.16 86.01C84.98 85.66 85.06 85.19 85.43 84.84C85.79 84.6 86.23 84.62 86.52 84.95C87.73 86.95 89.74 89.67 93.97 92.96C97.11 95.4 99.93 96.95 102.94 98.02C103.33 98.11 103.52 98.57 103.27 99.02C103.13 99.44 102.65 99.7 102.26 99.5C99.04 98.48 96.16 96.88 92.9 94.35C88.5 90.93 86.43 88.05 85.16 86.01Z" id="b3sXIw6HEB"></path><path d="M82.07 80.54C80.56 77.99 78.54 75.16 74.02 71.65C73.68 71.39 73.66 70.94 73.96 70.55C74.27 70.15 74.7 70.06 75.04 70.33C79.72 73.97 81.81 76.96 83.37 79.55C83.56 79.9 83.48 80.37 83.06 80.68C82.8 80.9 82.42 80.92 82.19 80.74C82.13 80.7 82.07 80.65 82.07 80.54Z" id="b2ZVPqtzoA"></path><path d="M150.18 112.72C144.69 108.35 142.97 105.01 141.26 101.77C140.15 99.65 139.11 97.68 137.12 95.28C136.88 94.99 136.91 94.49 137.27 94.13C137.58 93.85 138.07 93.8 138.36 94.13C140.47 96.62 141.58 98.74 142.68 100.87C144.34 104.17 145.99 107.25 151.26 111.44C151.26 111.44 151.26 111.44 151.31 111.48C151.66 111.75 151.74 112.24 151.43 112.64C151.13 113.03 150.7 113.12 150.35 112.85C150.35 112.85 150.35 112.85 150.35 112.85C150.3 112.81 150.24 112.77 150.24 112.77C150.23 112.76 150.19 112.73 150.18 112.72Z" id="a2EcuBSDR"></path><path d="M125.88 85.81C126.07 85.44 126.61 85.22 126.94 85.37C128.91 86.37 130.95 87.64 133.12 89.32C134.09 90.08 134.95 90.85 135.76 91.58C136.1 91.85 136.08 92.36 135.72 92.71C135.35 93.07 134.92 93.15 134.63 92.82C133.82 92.09 133.02 91.36 132.1 90.65C130.05 89.05 128.07 87.83 126.16 86.87C126.1 86.83 126.1 86.83 126.04 86.79C125.76 86.56 125.68 86.19 125.88 85.81Z" id="b3WUmY8HsD"></path><path d="M95.83 66.39C95.65 66.04 95.41 65.64 95.22 65.28C95.04 64.93 95.17 64.4 95.54 64.16C95.91 63.91 96.4 63.98 96.59 64.33C96.83 64.73 97.01 65.09 97.25 65.49C99.14 68.96 100.97 72.29 106.57 76.63C111.71 80.63 115.16 81.72 118.93 82.63C119.31 82.72 119.5 83.19 119.36 83.61C119.22 84.03 118.75 84.29 118.36 84.2C114.38 83.33 110.76 82.11 105.45 77.98C99.62 73.46 97.72 69.87 95.83 66.39Z" id="ak7qetlYc"></path><path d="M92.71 61.43C91.11 59.35 89.15 57.39 86.52 55.35C86.18 55.09 86.15 54.64 86.45 54.25C86.76 53.85 87.19 53.76 87.53 54.03C90.28 56.16 92.3 58.15 93.96 60.39C94.19 60.68 94.12 61.25 93.75 61.5C93.49 61.72 93.11 61.74 92.82 61.52C92.76 61.47 92.73 61.45 92.71 61.43Z" id="c4DEbrGn2y"></path><path d="M392.81 95.5C392.67 95.79 392.59 95.96 392.58 95.99C389.95 101.52 388.26 103.09 385.45 105.59C381.8 108.83 377.26 112.98 372.21 123.64C367.16 134.31 366.15 141.88 365.4 147.92C364.82 152.58 364.47 155.33 361.81 160.94C359.19 166.48 357.65 167.72 354.84 170.22C351.2 173.46 346.64 177.84 341.95 187.54C341.49 187.1 339.22 184.9 335.12 180.94C333.23 179.11 332.18 178.1 331.97 177.89C336.98 167.31 341.3 163.65 344.98 160.33C347.79 157.82 349.33 156.59 351.96 151.05C354.58 145.52 354.88 142.85 355.46 138.19C356.26 132.07 357.18 124.66 362.23 113.99C367.28 103.33 371.95 98.94 375.59 95.7C378.33 93.13 380.45 90.67 382.77 85.79C384.1 87.08 387.45 90.32 392.81 95.5Z" id="a2vwgcBV57"></path><path d="M405.21 107.5C400.2 118.08 395.5 122.55 391.86 125.79C389.05 128.3 387.31 129.94 384.69 135.48C382.07 141.01 381.64 143.93 381.1 148.5C380.31 154.62 379.35 162.12 374.26 172.86C369.17 183.61 364.89 187.18 361.25 190.43C358.44 192.93 357.09 193.76 354.39 199.46C354.18 199.26 353.16 198.26 351.31 196.47L345.01 190.38C343.15 188.59 342.13 187.6 341.92 187.4C346.61 177.69 351.28 173.3 354.81 170.08C357.62 167.57 359.21 166.25 361.86 160.64C364.52 155.02 364.83 152.35 365.41 147.69C366.17 141.65 367.17 134.08 372.22 123.42C377.27 112.75 381.84 108.75 385.52 105.43C388.33 102.92 389.99 101.44 392.61 95.91C392.63 95.88 392.69 95.74 392.81 95.5L392.81 95.5C400.25 102.7 404.38 106.7 405.21 107.5Z" id="b6P1V4hQp"></path><path d="M344.01 159.75C344.09 159.68 344.72 159.15 344.8 159.09C347.33 156.78 348.8 155.48 351.23 150.35C353.74 145.06 354.03 142.62 354.64 138.1C354.64 138.06 354.66 137.7 354.67 137.65C355.46 131.53 356.46 123.96 361.51 113.3C366.75 102.22 371.55 97.96 375.08 94.74C377.86 92.31 379.87 89.87 382.11 85.15C382.34 84.66 382.76 84.59 383.15 84.97C385.4 87.14 403.35 104.51 405.6 106.68C405.99 107.06 406.1 107.64 405.87 108.13C400.62 119.2 395.61 123.73 392.29 126.69C389.66 129.01 387.93 130.66 385.31 136.19C382.72 141.65 382.38 144.4 381.77 148.91C380.98 155.03 380 162.75 374.87 173.58C369.98 183.91 365.83 187.62 362.15 190.94C362.02 191.06 360.99 191.95 360.86 192.06C358.55 194.11 357.29 195.14 354.9 200.19C354.67 200.68 354.26 200.75 353.86 200.37C351.62 198.2 333.66 180.83 331.42 178.66C331.19 178.33 331.02 177.68 331.25 177.19C336.15 166.86 340.47 162.97 344.01 159.75ZM376.06 96.51C372.67 99.64 367.98 103.88 362.93 114.55C357.99 124.97 357.07 132.38 356.29 138.27C356.28 138.31 356.27 138.68 356.26 138.72C355.66 143.24 355.31 145.99 352.65 151.61C350.07 157.06 348.45 158.46 345.88 160.84C345.8 160.91 345.17 161.44 345.09 161.5C341.59 164.65 337.63 168.17 333.09 177.55C335.2 179.59 352.11 195.95 354.22 197.99C356.52 193.33 357.86 192.13 360.13 190.17C360.26 190.06 361.29 189.16 361.42 189.05C364.96 185.82 368.96 182.22 373.74 172.13C378.75 161.54 379.68 154.13 380.5 148.16C381.04 143.58 381.44 140.52 384.17 134.74C386.8 129.21 388.61 127.4 391.56 124.8C394.7 122.02 399.39 117.77 404.35 107.5C402.94 106.13 395.87 99.29 383.15 86.99L383.04 87.24C380.19 91.76 377.87 94.85 376.06 96.51Z" id="b3MD7XYRRQ"></path><path d="M388.03 107.61C390.74 105.13 392.39 103.65 394.94 98.27C395.17 97.78 395.59 97.71 395.98 98.09C396.37 98.47 396.48 99.05 396.25 99.54C393.55 105.24 391.86 106.8 389.01 109.39C385.36 112.63 380.89 116.61 375.88 127.2C372.03 135.34 370.65 141.48 370.04 145.4C369.98 145.93 369.55 146.23 369.14 146.08C368.74 145.92 368.46 145.3 368.52 144.76C369.21 140.68 370.6 134.31 374.57 125.93C379.7 115.1 384.35 110.94 388.03 107.61Z" id="aKThM5rGF"></path><path d="M356.94 172.25C357.01 172.19 357.56 171.67 357.63 171.61C359.97 169.49 361.73 167.99 364.05 163.1C365.7 159.6 366.25 157.04 366.74 154.19C366.8 153.66 367.22 153.36 367.7 153.58C368.17 153.8 368.38 154.36 368.28 154.97C367.75 157.9 367.16 160.77 365.42 164.44C362.96 169.65 361.12 171.31 358.63 173.53C358.56 173.59 358.05 174.03 357.98 174.09C354.63 177.14 350.77 180.64 345.18 190.43C345.14 190.51 345.1 190.59 345.1 190.59C344.84 190.93 344.42 191 344.03 190.62C343.83 190.43 343.35 189.84 343.73 189.03C349.48 178.92 353.44 175.4 356.94 172.25Z" id="c1odBTQxgY"></path><path d="M341.41 185.84C341.41 185.84 341.41 185.84 341.41 185.84C345.77 176.64 349.48 173.46 352.72 170.66C353.18 170.28 353.65 169.9 354.05 169.46C354.07 169.43 354.25 169.22 354.27 169.2C356.94 166.79 358.49 165.33 360.96 160.12C363.54 154.67 363.89 151.91 364.46 147.48C365.25 141.36 366.19 133.72 371.35 122.82C376.48 111.99 381.09 107.91 384.81 104.5C387.62 102 389.23 100.23 391.77 94.85C392 94.37 392.42 94.29 392.81 94.68C393.21 95.06 393.32 95.64 393.09 96.12C390.31 101.99 388.46 103.87 385.79 106.28C382.15 109.52 377.68 113.5 372.67 124.09C367.66 134.67 366.73 142.08 365.91 148.05C365.3 152.57 364.95 155.55 362.21 161.33C359.59 166.86 357.79 168.44 355.12 170.85C355.1 170.87 354.92 171.08 354.9 171.11C354.43 171.49 354.03 171.93 353.56 172.31C350.36 175.03 346.76 178.19 342.52 187.14C342.52 187.14 342.52 187.14 342.52 187.14C342.29 187.63 341.87 187.7 341.48 187.32C341.08 186.94 341.11 186.49 341.3 186.08C341.31 186.05 341.35 185.97 341.41 185.84Z" id="cAl0ULUug"></path><path d="M334.74 179.73C338.44 171.92 341.42 169.46 344.3 167.02C345.7 165.89 347.13 164.67 348.63 162.91C348.89 162.57 349.44 162.63 349.69 163.11C349.98 163.5 350.01 164.25 349.69 164.53C348.11 166.44 346.57 167.68 345.17 168.82C342.29 171.26 339.53 173.45 335.94 181.02C335.56 181.84 335 181.41 334.93 181.35C334.56 181.11 334.39 180.47 334.52 180C334.62 179.98 334.66 179.9 334.66 179.9C334.7 179.82 334.7 179.82 334.74 179.73Z" id="a7724ru7al"></path><path d="M359.93 137.04C360.33 137.2 360.61 137.82 360.55 138.36C359.99 142.57 359.01 147.67 355.54 155C354.46 157.28 353.43 159.25 352.25 160.95C351.99 161.29 351.5 161.3 351.18 160.98C350.89 160.58 350.82 159.92 351.01 159.51C352.09 157.83 353.12 155.86 354.16 153.66C357.52 146.58 358.38 141.72 358.97 137.66C359.04 137.5 359.08 137.41 359.12 137.33C359.28 137.01 359.63 136.87 359.93 137.04Z" id="k5S2jydl02"></path><path d="M372.08 105.12C372.4 104.84 372.85 104.91 373.2 105.38C373.45 105.86 373.46 106.45 373.16 106.88C371.35 108.69 368.89 111.65 366.04 117.68C363.92 122.15 362.62 126.11 361.78 130.3C361.72 130.83 361.3 131.13 360.86 130.83C360.46 130.67 360.18 130.05 360.35 129.5C361.12 125.03 362.46 120.98 364.66 116.34C367.63 110.07 370.23 107.01 372.08 105.12Z" id="cDabE9ikR"></path><path d="M377.07 100.45C379.38 98.18 381.94 95.2 384.99 88.77C385.22 88.28 385.64 88.21 386.03 88.59C386.43 88.97 386.53 89.55 386.3 90.04C383.14 96.71 380.44 99.8 378.08 102.15C377.76 102.43 377.31 102.35 377 101.81C376.77 101.47 376.73 100.96 376.88 100.63C376.92 100.55 376.96 100.47 377.07 100.45Z" id="h2FV777aT"></path><path d="M350.69 195.76C354.49 187.92 357.55 185.31 360.51 182.7C362.45 181.02 364.25 179.44 366.39 176.53C366.65 176.19 367.14 176.18 367.49 176.64C367.78 177.04 367.85 177.7 367.55 178.13C365.33 181.2 363.39 182.88 361.44 184.56C358.42 187.1 355.61 189.6 351.96 197.11C351.96 197.11 351.96 197.11 351.92 197.19C351.69 197.68 351.24 197.83 350.84 197.45C350.45 197.07 350.34 196.49 350.57 196C350.57 196 350.57 196 350.57 196C350.61 195.92 350.65 195.84 350.65 195.84C350.66 195.82 350.68 195.77 350.69 195.76Z" id="d2OllbyCsk"></path><path d="M374.68 160.45C375.05 160.69 375.29 161.39 375.16 161.86C374.33 164.62 373.26 167.5 371.79 170.59C371.13 171.98 370.45 173.22 369.81 174.37C369.58 174.86 369.1 174.87 368.74 174.41C368.38 173.95 368.28 173.37 368.57 172.94C369.22 171.78 369.86 170.63 370.48 169.32C371.87 166.39 372.9 163.6 373.69 160.92C373.73 160.84 373.73 160.84 373.77 160.76C373.96 160.35 374.31 160.22 374.68 160.45Z" id="c3T3v7OIpy"></path><path d="M391.26 117.97C391.58 117.69 391.94 117.33 392.27 117.05C392.59 116.77 393.1 116.91 393.35 117.39C393.6 117.87 393.57 118.55 393.24 118.83C392.88 119.19 392.56 119.47 392.19 119.83C389.02 122.69 385.99 125.46 382.21 133.44C378.74 140.76 377.91 145.54 377.27 150.73C377.21 151.27 376.78 151.57 376.38 151.41C375.97 151.26 375.69 150.63 375.75 150.1C376.34 144.61 377.29 139.59 380.87 132.02C384.8 123.72 388.08 120.84 391.26 117.97Z" id="a1ohrLYIsK"></path><path d="M395.76 113.31C397.63 110.97 399.36 108.13 401.13 104.38C401.37 103.9 401.78 103.82 402.18 104.21C402.57 104.59 402.68 105.17 402.45 105.65C400.6 109.56 398.83 112.48 396.81 114.92C396.56 115.27 396.01 115.21 395.76 114.73C395.53 114.4 395.49 113.88 395.68 113.47C395.72 113.39 395.74 113.34 395.76 113.31Z" id="g9jWKx5gI"></path><path d="M91.26 297.4C91.54 297.57 91.7 297.66 91.73 297.68C96.98 300.83 98.37 302.67 100.59 305.71C103.46 309.65 107.14 314.59 117.26 320.65C127.38 326.72 134.82 328.46 140.75 329.79C145.34 330.83 148.04 331.44 153.37 334.64C158.62 337.78 159.7 339.44 161.92 342.48C164.79 346.42 168.7 351.39 177.9 357C177.42 357.41 175.01 359.46 170.67 363.15C168.66 364.85 167.55 365.8 167.33 365.99C157.28 359.97 154.06 355.32 151.11 351.33C148.9 348.29 147.82 346.63 142.56 343.48C137.31 340.33 134.68 339.77 130.1 338.73C124.09 337.35 116.8 335.7 106.68 329.64C96.57 323.57 92.65 318.5 89.78 314.56C87.49 311.58 85.25 309.23 80.62 306.45C82.04 305.24 85.59 302.23 91.26 297.4Z" id="j1tBsPYON0"></path><path d="M104.41 286.23C114.46 292.25 118.45 297.37 121.32 301.31C123.54 304.35 125 306.24 130.26 309.39C135.51 312.53 138.37 313.24 142.87 314.23C148.88 315.61 156.25 317.3 166.44 323.42C176.64 329.53 179.78 334.13 182.66 338.07C184.87 341.12 185.57 342.54 190.97 345.78C190.76 345.97 189.67 346.89 187.7 348.56L181.02 354.24C179.06 355.9 177.97 356.83 177.75 357.02C168.55 351.4 164.64 346.33 161.77 342.5C159.56 339.45 158.4 337.75 153.07 334.56C147.74 331.36 145.11 330.79 140.53 329.76C134.6 328.42 127.16 326.68 117.04 320.62C106.92 314.55 103.38 309.61 100.43 305.62C98.21 302.58 96.9 300.78 91.65 297.64C91.62 297.62 91.49 297.54 91.26 297.4L91.26 297.4C99.15 290.7 103.54 286.98 104.41 286.23Z" id="h49Saem5Mw"></path><path d="M150.44 352.24C150.38 352.15 149.92 351.47 149.86 351.39C147.82 348.65 146.66 347.05 141.8 344.13C136.78 341.12 134.37 340.59 129.94 339.54C129.89 339.54 129.54 339.48 129.49 339.48C123.48 338.09 116.04 336.35 105.92 330.29C95.41 323.99 91.64 318.8 88.77 314.97C86.63 311.97 84.4 309.73 79.92 307.04C79.46 306.76 79.43 306.34 79.84 305.99C82.22 303.96 101.26 287.79 103.64 285.77C104.06 285.41 104.65 285.36 105.11 285.64C115.61 291.94 119.63 297.37 122.26 300.96C124.31 303.8 125.78 305.69 131.03 308.84C136.21 311.94 138.91 312.56 143.34 313.6C149.36 314.99 156.94 316.71 167.22 322.87C177.03 328.75 180.31 333.24 183.26 337.23C183.36 337.37 184.15 338.49 184.25 338.63C186.05 341.12 186.97 342.47 191.76 345.34C192.22 345.62 192.25 346.04 191.83 346.4C189.45 348.42 170.42 364.59 168.04 366.62C167.68 366.81 167.02 366.92 166.56 366.64C156.75 360.76 153.31 356.07 150.44 352.24ZM90.64 314.17C93.42 317.85 97.18 322.93 107.3 329C117.19 334.93 124.48 336.57 130.26 337.92C130.31 337.93 130.67 337.98 130.71 337.99C135.15 339.04 137.85 339.65 143.18 342.84C148.36 345.95 149.59 347.7 151.72 350.48C151.77 350.57 152.24 351.25 152.3 351.33C155.08 355.12 158.2 359.41 167.09 364.84C169.33 362.94 187.26 347.71 189.5 345.81C185.09 343.06 184.02 341.62 182.29 339.17C182.19 339.03 181.4 337.91 181.3 337.77C178.44 333.93 175.24 329.6 165.66 323.85C155.62 317.83 148.34 316.19 142.47 314.79C137.97 313.81 134.96 313.11 129.48 309.82C124.22 306.68 122.6 304.7 120.3 301.5C117.84 298.11 114.07 293.03 104.33 287.09C102.83 288.36 95.34 294.72 81.85 306.18L82.09 306.32C86.31 309.59 89.16 312.21 90.64 314.17Z" id="bcbsGA0Hu"></path><path d="M102.85 303.34C100.64 300.4 99.33 298.61 94.23 295.55C93.77 295.28 93.74 294.85 94.15 294.5C94.57 294.14 95.16 294.09 95.62 294.37C101.03 297.61 102.42 299.45 104.71 302.54C107.59 306.48 111.11 311.32 121.16 317.34C128.88 321.97 134.86 323.94 138.7 324.93C139.23 325.05 139.48 325.5 139.29 325.89C139.1 326.28 138.45 326.49 137.92 326.38C133.93 325.3 127.72 323.29 119.77 318.52C109.49 312.36 105.8 307.33 102.85 303.34Z" id="bnUPp0Ln8"></path><path d="M164.15 340.59C164.09 340.52 163.63 339.92 163.58 339.85C161.69 337.3 160.37 335.4 155.74 332.63C152.42 330.63 149.92 329.84 147.13 329.08C146.6 328.97 146.35 328.51 146.61 328.06C146.88 327.62 147.46 327.46 148.06 327.62C150.92 328.43 153.72 329.3 157.2 331.38C162.14 334.35 163.62 336.34 165.59 339.03C165.64 339.1 166.03 339.66 166.08 339.73C168.78 343.37 171.89 347.55 181.09 354.07C181.16 354.12 181.24 354.17 181.24 354.17C181.56 354.46 181.59 354.88 181.17 355.23C180.96 355.41 180.33 355.84 179.56 355.37C170.05 348.67 166.94 344.38 164.15 340.59Z" id="axdoJNYBS"></path><path d="M176.15 357.37C176.15 357.37 176.15 357.37 176.15 357.37C167.43 352.13 164.62 348.14 162.15 344.64C161.82 344.14 161.49 343.63 161.09 343.19C161.06 343.17 160.87 342.97 160.85 342.95C158.72 340.06 157.41 338.37 152.47 335.4C147.29 332.3 144.59 331.69 140.23 330.69C134.22 329.3 126.71 327.63 116.36 321.42C106.08 315.26 102.47 310.27 99.44 306.24C97.23 303.2 95.62 301.43 90.52 298.37C90.06 298.09 90.03 297.67 90.44 297.32C90.86 296.96 91.45 296.91 91.91 297.19C97.47 300.52 99.17 302.55 101.3 305.44C104.18 309.38 107.71 314.22 117.75 320.24C127.79 326.26 135.08 327.9 140.94 329.3C145.38 330.35 148.3 330.99 153.79 334.28C159.04 337.43 160.44 339.38 162.57 342.27C162.59 342.29 162.79 342.49 162.81 342.51C163.14 343.01 163.54 343.46 163.88 343.96C166.27 347.41 169.06 351.3 177.56 356.4C177.56 356.4 177.56 356.4 177.56 356.4C178.03 356.67 178.06 357.1 177.64 357.45C177.22 357.8 176.77 357.74 176.39 357.51C176.36 357.49 176.28 357.44 176.15 357.37Z" id="k3femMio48"></path><path d="M169.43 363.42C162.01 358.97 159.86 355.77 157.71 352.66C156.72 351.16 155.64 349.61 154.04 347.94C153.73 347.65 153.84 347.11 154.34 346.91C154.76 346.66 155.51 346.7 155.75 347.05C157.51 348.81 158.59 350.47 159.58 351.97C161.73 355.07 163.64 358.03 170.83 362.34C171.6 362.8 171.12 363.32 171.05 363.38C170.78 363.72 170.12 363.84 169.67 363.66C169.66 363.56 169.58 363.51 169.58 363.51C169.51 363.46 169.51 363.46 169.43 363.42Z" id="aBq8eX13g"></path><path d="M129.4 334.18C129.59 333.79 130.24 333.58 130.77 333.69C134.9 334.66 139.89 336.13 146.84 340.3C149 341.59 150.86 342.81 152.44 344.16C152.76 344.45 152.72 344.93 152.37 345.23C151.94 345.48 151.28 345.48 150.89 345.25C149.32 344.01 147.46 342.79 145.38 341.54C138.66 337.51 133.9 336.17 129.92 335.2C129.76 335.1 129.69 335.06 129.61 335.01C129.3 334.83 129.2 334.46 129.4 334.18Z" id="b3AHkMiV1t"></path><path d="M98.82 318.97C98.57 318.62 98.69 318.19 99.18 317.88C99.68 317.68 100.28 317.73 100.67 318.07C102.29 320.05 105 322.78 110.72 326.21C114.97 328.76 118.79 330.44 122.86 331.67C123.39 331.79 123.64 332.24 123.3 332.64C123.11 333.03 122.46 333.25 121.93 333.03C117.56 331.82 113.66 330.09 109.26 327.45C103.31 323.88 100.52 321 98.82 318.97Z" id="c1en95eyYJ"></path><path d="M94.65 313.55C92.62 311.02 89.9 308.18 83.8 304.53C83.34 304.25 83.31 303.83 83.73 303.47C84.14 303.12 84.73 303.07 85.19 303.34C91.53 307.14 94.33 310.13 96.44 312.71C96.69 313.06 96.57 313.49 96 313.75C95.64 313.94 95.13 313.94 94.82 313.75C94.74 313.7 94.66 313.66 94.65 313.55Z" id="a4JLWUg9uL"></path><path d="M186.93 349.11C179.51 344.56 177.2 341.26 174.9 338.06C173.42 335.96 172.02 334.02 169.33 331.6C169.01 331.31 169.05 330.83 169.55 330.52C169.97 330.27 170.64 330.26 171.03 330.6C173.87 333.11 175.36 335.21 176.84 337.31C179.07 340.56 181.29 343.6 188.4 347.97C188.4 347.97 188.4 347.97 188.48 348.02C188.94 348.29 189.05 348.76 188.63 349.12C188.21 349.47 187.63 349.52 187.16 349.25C187.16 349.25 187.16 349.25 187.16 349.25C187.09 349.2 187.01 349.15 187.01 349.15C186.99 349.14 186.94 349.11 186.93 349.11Z" id="b1ZQacf7dg"></path><path d="M154.14 321.78C154.41 321.44 155.13 321.27 155.59 321.44C158.25 322.54 161.01 323.89 163.95 325.65C165.26 326.44 166.43 327.24 167.52 327.99C167.98 328.27 167.94 328.75 167.45 329.06C166.95 329.37 166.36 329.42 165.97 329.08C164.88 328.33 163.79 327.57 162.56 326.83C159.77 325.16 157.09 323.86 154.51 322.81C154.43 322.77 154.43 322.77 154.35 322.72C153.96 322.49 153.86 322.13 154.14 321.78Z" id="bDtPV4mRV"></path><path d="M113.48 301.14C113.23 300.79 112.91 300.4 112.66 300.05C112.41 299.7 112.6 299.2 113.1 299C113.6 298.8 114.27 298.9 114.52 299.25C114.85 299.64 115.09 299.99 115.42 300.39C117.96 303.83 120.41 307.11 127.98 311.65C134.94 315.82 139.61 317.11 144.72 318.26C145.24 318.37 145.5 318.82 145.3 319.21C145.11 319.6 144.46 319.82 143.94 319.7C138.54 318.58 133.63 317.15 126.45 312.85C118.57 308.12 116.02 304.58 113.48 301.14Z" id="bq7EktcAt"></path><path d="M109.28 296.2C107.13 294.11 104.47 292.11 100.92 289.98C100.45 289.71 100.42 289.28 100.84 288.93C101.26 288.57 101.85 288.52 102.31 288.8C106.02 291.02 108.75 293.07 110.98 295.31C111.3 295.6 111.19 296.14 110.69 296.35C110.33 296.54 109.82 296.53 109.43 296.3C109.35 296.25 109.31 296.22 109.28 296.2Z" id="a2tpPIwjWK"></path><path d="M382.16 402.64C382.3 402.44 382.38 402.33 382.39 402.31C385.01 398.51 386.48 397.54 388.9 395.99C392.05 393.99 395.98 391.41 401.02 384.1C406.05 376.78 407.65 371.31 408.89 366.94C409.85 363.57 410.41 361.59 413.06 357.73C415.68 353.93 417 353.18 419.42 351.64C422.57 349.64 426.54 346.9 431.19 340.25C431.49 340.62 432.99 342.48 435.69 345.83C436.94 347.37 437.63 348.23 437.77 348.4C432.77 355.66 429.07 357.9 425.89 359.96C423.46 361.51 422.14 362.26 419.53 366.05C416.92 369.85 416.39 371.79 415.43 375.16C414.15 379.58 412.63 384.93 407.6 392.25C402.56 399.57 398.51 402.31 395.37 404.31C392.98 405.91 391.09 407.5 388.78 410.85C387.9 409.76 385.69 407.02 382.16 402.64Z" id="b6SrshnPx"></path><path d="M373.98 392.5C378.98 385.24 383.07 382.45 386.21 380.44C388.64 378.9 390.15 377.87 392.76 374.07C395.37 370.27 396.02 368.17 396.93 364.86C398.21 360.44 399.77 355.02 404.85 347.65C409.92 340.27 413.59 338.09 416.73 336.09C419.16 334.54 420.28 334.07 422.97 330.16C423.11 330.33 423.79 331.17 425.01 332.68L429.16 337.84C430.38 339.35 431.06 340.19 431.2 340.36C426.54 347.01 422.49 349.75 419.43 351.75C417 353.29 415.65 354.1 412.99 357.95C410.34 361.81 409.81 363.74 408.86 367.11C407.62 371.47 406.02 376.94 400.98 384.26C395.95 391.58 392.01 394.04 388.83 396.1C386.4 397.65 384.97 398.57 382.35 402.36C382.34 402.38 382.28 402.48 382.16 402.64L382.16 402.64C377.25 396.56 374.53 393.18 373.98 392.5Z" id="b1Ky47jBHc"></path><path d="M426.56 360.49C426.5 360.53 425.95 360.85 425.89 360.89C423.7 362.32 422.43 363.12 420.01 366.64C417.51 370.27 417.01 372.04 416.05 375.3C416.05 375.34 415.99 375.6 415.99 375.63C414.71 380.05 413.11 385.52 408.07 392.84C402.85 400.44 398.71 403.07 395.65 405.07C393.26 406.56 391.45 408.15 389.22 411.39C388.99 411.72 388.66 411.73 388.4 411.41C386.92 409.58 375.08 394.9 373.6 393.06C373.34 392.74 373.32 392.3 373.55 391.97C378.78 384.37 383.11 381.57 385.97 379.74C388.24 378.3 389.75 377.28 392.37 373.48C394.94 369.73 395.51 367.75 396.47 364.49C397.74 360.07 399.34 354.49 404.45 347.06C409.33 339.96 412.91 337.67 416.09 335.61C416.21 335.54 417.1 334.99 417.21 334.92C419.2 333.66 420.28 333.03 422.66 329.57C422.89 329.23 423.22 329.22 423.48 329.55C424.96 331.38 436.8 346.06 438.28 347.89C438.42 348.16 438.48 348.66 438.25 348.99C433.37 356.09 429.63 358.49 426.56 360.49ZM395.09 403.66C398.03 401.72 402.09 399.09 407.13 391.77C412.05 384.62 413.57 379.26 414.81 375.01C414.82 374.97 414.87 374.71 414.88 374.68C415.84 371.42 416.41 369.43 419.06 365.57C421.63 361.83 423.03 360.97 425.25 359.48C425.32 359.44 425.86 359.12 425.93 359.08C428.95 357.14 432.37 354.96 436.88 348.54C435.48 346.81 424.33 332.99 422.94 331.26C420.67 334.45 419.51 335.19 417.56 336.39C417.45 336.46 416.56 337.01 416.45 337.08C413.38 339.08 409.92 341.32 405.16 348.24C400.16 355.5 398.64 360.86 397.36 365.17C396.44 368.49 395.8 370.7 393.07 374.66C390.46 378.46 388.87 379.6 386.33 381.21C383.62 382.92 379.56 385.56 374.64 392.6C375.57 393.75 380.23 399.53 388.62 409.92L388.74 409.76C391.41 406.72 393.53 404.69 395.09 403.66Z" id="b969IEQp68"></path><path d="M387.15 394.23C384.8 395.77 383.37 396.69 380.83 400.38C380.6 400.71 380.28 400.72 380.02 400.4C379.76 400.08 379.74 399.64 379.97 399.3C382.66 395.39 384.13 394.42 386.59 392.82C389.74 390.82 393.6 388.35 398.59 381.09C402.44 375.51 404.17 371.13 405.06 368.31C405.17 367.92 405.53 367.75 405.82 367.9C406.12 368.06 406.26 368.55 406.16 368.94C405.18 371.87 403.42 376.41 399.46 382.17C394.35 389.6 390.33 392.17 387.15 394.23Z" id="d8vim308C"></path><path d="M418.04 349.92C417.98 349.96 417.5 350.28 417.44 350.32C415.41 351.64 413.9 352.56 411.59 355.91C409.94 358.31 409.24 360.14 408.56 362.18C408.45 362.57 408.09 362.75 407.75 362.54C407.42 362.33 407.32 361.89 407.46 361.45C408.19 359.34 408.95 357.29 410.68 354.78C413.14 351.21 414.73 350.18 416.88 348.8C416.94 348.77 417.39 348.49 417.44 348.46C420.34 346.57 423.68 344.4 429.04 337.78C429.08 337.73 429.11 337.67 429.11 337.67C429.35 337.45 429.68 337.44 429.94 337.76C430.07 337.92 430.37 338.41 429.99 338.96C424.48 345.8 421.06 347.98 418.04 349.92Z" id="a4zwi75cVr"></path><path d="M431.41 341.56C431.41 341.56 431.41 341.56 431.41 341.56C427.07 347.87 423.88 349.82 421.1 351.54C420.7 351.77 420.3 352 419.94 352.28C419.92 352.3 419.76 352.44 419.75 352.45C417.44 353.94 416.09 354.85 413.63 358.43C411.05 362.17 410.49 364.16 409.56 367.37C408.29 371.79 406.73 377.31 401.58 384.79C396.47 392.22 392.49 394.74 389.27 396.86C386.84 398.41 385.42 399.54 382.88 403.23C382.65 403.56 382.33 403.57 382.07 403.25C381.81 402.93 381.79 402.49 382.02 402.15C384.78 398.13 386.41 396.94 388.72 395.45C391.86 393.45 395.72 390.98 400.72 383.72C405.71 376.46 407.23 371.1 408.52 366.79C409.48 363.53 410.08 361.38 412.81 357.41C415.42 353.61 416.97 352.64 419.28 351.15C419.3 351.13 419.46 351 419.48 350.98C419.87 350.75 420.23 350.47 420.63 350.24C423.38 348.57 426.48 346.62 430.71 340.48C430.71 340.48 430.71 340.48 430.71 340.48C430.94 340.14 431.27 340.14 431.53 340.46C431.79 340.78 431.72 341.11 431.53 341.39C431.51 341.41 431.47 341.47 431.41 341.56Z" id="l2SfUy5GXd"></path><path d="M435.86 346.75C432.17 352.12 429.61 353.61 427.14 355.1C425.95 355.79 424.71 356.54 423.37 357.67C423.14 357.9 422.72 357.8 422.58 357.42C422.41 357.1 422.46 356.55 422.74 356.37C424.16 355.13 425.48 354.38 426.67 353.69C429.14 352.2 431.5 350.87 435.07 345.68C435.46 345.12 435.84 345.49 435.89 345.55C436.14 345.76 436.2 346.25 436.05 346.58C435.97 346.59 435.93 346.64 435.93 346.64C435.9 346.7 435.9 346.7 435.86 346.75Z" id="acsb0fhMo"></path><path d="M411.89 375.53C411.6 375.37 411.45 374.88 411.56 374.49C412.45 371.45 413.76 367.8 417.22 362.77C418.29 361.21 419.3 359.87 420.39 358.74C420.63 358.51 421 358.56 421.21 358.83C421.39 359.15 421.37 359.64 421.18 359.92C420.17 361.05 419.16 362.39 418.12 363.9C414.78 368.76 413.58 372.24 412.69 375.17C412.61 375.29 412.58 375.34 412.54 375.4C412.38 375.62 412.1 375.68 411.89 375.53Z" id="dqRiy9WOY"></path><path d="M399.09 397.74C398.81 397.92 398.48 397.82 398.25 397.44C398.11 397.06 398.18 396.62 398.45 396.34C400.04 395.2 402.24 393.27 405.09 389.14C407.2 386.07 408.63 383.29 409.73 380.3C409.83 379.91 410.19 379.74 410.49 380C410.79 380.16 410.93 380.65 410.74 381.04C409.66 384.25 408.19 387.08 406 390.27C403.04 394.57 400.71 396.55 399.09 397.74Z" id="aw9phGsVv"></path><path d="M394.76 400.66C392.73 402.08 390.45 404.01 387.41 408.42C387.18 408.76 386.85 408.77 386.59 408.44C386.33 408.12 386.31 407.68 386.54 407.35C389.69 402.77 392.1 400.78 394.16 399.3C394.44 399.13 394.77 399.23 394.96 399.67C395.09 399.94 395.07 400.32 394.91 400.54C394.88 400.6 394.84 400.66 394.76 400.66Z" id="dQrUIGWum"></path><path d="M425.4 333.28C421.63 338.64 419 340.25 416.45 341.85C414.78 342.88 413.23 343.86 411.27 345.77C411.03 346 410.66 345.96 410.44 345.58C410.26 345.25 410.28 344.76 410.56 344.48C412.59 342.45 414.27 341.42 415.94 340.39C418.53 338.84 420.96 337.29 424.57 332.15C424.57 332.15 424.57 332.15 424.61 332.09C424.84 331.76 425.21 331.69 425.47 332.01C425.73 332.34 425.75 332.77 425.52 333.11C425.52 333.11 425.52 333.11 425.52 333.11C425.48 333.17 425.44 333.22 425.44 333.22C425.43 333.23 425.4 333.27 425.4 333.28Z" id="bc1e5NdRz"></path><path d="M403.16 356.74C402.91 356.53 402.8 355.98 402.95 355.65C403.89 353.7 405.02 351.7 406.49 349.58C407.14 348.63 407.8 347.79 408.42 347C408.65 346.67 409.02 346.71 409.24 347.09C409.46 347.47 409.48 347.91 409.21 348.19C408.59 348.97 407.97 349.76 407.35 350.65C405.97 352.66 404.87 354.61 403.97 356.5C403.93 356.55 403.93 356.55 403.89 356.61C403.7 356.89 403.42 356.95 403.16 356.74Z" id="b2a318pePL"></path><path d="M385.81 386.26C385.53 386.44 385.22 386.66 384.94 386.83C384.66 387.01 384.29 386.85 384.15 386.47C384.01 386.09 384.11 385.6 384.39 385.42C384.7 385.2 384.98 385.02 385.3 384.8C388.04 383.02 390.67 381.31 394.43 375.83C397.89 370.81 399.05 367.38 400.11 363.62C400.22 363.23 400.58 363.06 400.87 363.21C401.16 363.37 401.31 363.86 401.2 364.25C400.15 368.22 398.88 371.82 395.3 377.02C391.38 382.71 388.56 384.49 385.81 386.26Z" id="e6mU5U8kU"></path><path d="M381.85 389.22C380.16 390.75 378.53 392.65 376.76 395.22C376.53 395.56 376.2 395.57 375.94 395.25C375.68 394.92 375.66 394.49 375.89 394.15C377.74 391.47 379.41 389.51 381.22 387.92C381.46 387.7 381.87 387.8 382.01 388.18C382.15 388.45 382.12 388.83 381.93 389.11C381.89 389.17 381.87 389.2 381.85 389.22Z" id="b2LCpAc8w"></path><path d="M217.11 279.95C217.29 279.77 217.39 279.66 217.41 279.64C220.81 276.09 222.76 275.25 226 273.92C230.18 272.21 235.42 269.99 241.97 263.15C248.52 256.3 250.49 250.99 252 246.75C253.17 243.47 253.86 241.54 257.32 237.93C260.72 234.38 262.47 233.75 265.71 232.43C269.89 230.71 275.17 228.33 281.23 222.12C281.65 222.51 283.76 224.5 287.54 228.08C289.29 229.73 290.26 230.65 290.46 230.83C283.95 237.63 279.02 239.53 274.78 241.3C271.55 242.62 269.79 243.25 266.39 246.81C262.99 250.36 262.35 252.24 261.18 255.51C259.61 259.81 257.75 265.01 251.2 271.86C244.65 278.71 239.26 281.08 235.07 282.8C231.9 284.18 229.39 285.59 226.39 288.73C225.15 287.56 222.06 284.63 217.11 279.95Z" id="a59a3m3Sb8"></path><path d="M205.64 269.12C212.14 262.32 217.58 259.9 221.76 258.18C225 256.86 227 255.97 230.4 252.41C233.8 248.86 234.6 246.82 235.72 243.6C237.28 239.31 239.19 234.05 245.8 227.15C252.4 220.25 257.29 218.4 261.47 216.68C264.7 215.36 266.21 214.99 269.71 211.33C269.9 211.51 270.85 212.41 272.56 214.03L278.39 219.53C280.1 221.15 281.05 222.05 281.24 222.23C275.18 228.44 269.79 230.81 265.72 232.54C262.48 233.86 260.68 234.54 257.23 238.15C253.78 241.75 253.13 243.63 251.96 246.91C250.45 251.15 248.49 256.46 241.93 263.31C235.38 270.15 230.13 272.26 225.9 274.03C222.66 275.35 220.76 276.14 217.36 279.69C217.34 279.71 217.26 279.8 217.11 279.95L217.11 279.95C210.23 273.45 206.4 269.84 205.64 269.12Z" id="c4FAwWOm6d"></path><path d="M275.72 241.89C275.63 241.92 274.91 242.19 274.82 242.23C271.9 243.46 270.21 244.14 267.06 247.44C263.81 250.83 263.2 252.55 262.02 255.72C262.02 255.75 261.95 256.01 261.94 256.04C260.38 260.33 258.42 265.64 251.87 272.49C245.06 279.6 239.55 281.86 235.48 283.58C232.3 284.85 229.9 286.27 227 289.3C226.7 289.61 226.26 289.59 225.89 289.25C223.82 287.29 207.21 271.6 205.14 269.64C204.77 269.3 204.73 268.86 205.03 268.54C211.83 261.44 217.6 259.03 221.42 257.46C224.44 256.23 226.45 255.34 229.85 251.79C233.2 248.29 233.89 246.35 235.07 243.19C236.64 238.9 238.59 233.47 245.24 226.52C251.59 219.89 256.36 217.92 260.59 216.15C260.74 216.09 261.93 215.62 262.08 215.57C264.73 214.49 266.17 213.95 269.27 210.71C269.57 210.4 270.01 210.42 270.37 210.76C272.45 212.72 289.05 228.41 291.13 230.37C291.32 230.65 291.42 231.15 291.12 231.46C284.77 238.1 279.79 240.16 275.72 241.89ZM234.68 282.12C238.59 280.45 243.99 278.19 250.54 271.34C256.94 264.65 258.8 259.44 260.33 255.31C260.34 255.28 260.4 255.02 260.41 254.99C261.59 251.82 262.28 249.89 265.73 246.28C269.08 242.78 270.94 242.05 273.9 240.77C273.99 240.73 274.71 240.46 274.8 240.43C278.83 238.76 283.39 236.89 289.25 230.89C287.29 229.04 271.66 214.27 269.71 212.42C266.75 215.4 265.21 216.04 262.61 217.06C262.46 217.12 261.27 217.59 261.13 217.65C257.05 219.37 252.44 221.29 246.24 227.77C239.74 234.56 237.88 239.77 236.3 243.95C235.18 247.18 234.4 249.32 230.85 253.03C227.45 256.59 225.34 257.58 221.95 258.95C218.35 260.43 212.95 262.69 206.53 269.27C207.84 270.5 214.37 276.68 226.14 287.79L226.29 287.63C229.8 284.85 232.59 283.01 234.68 282.12Z" id="b1Tb7ooUzy"></path><path d="M223.55 272.01C220.43 273.34 218.52 274.13 215.22 277.58C214.92 277.89 214.48 277.87 214.12 277.53C213.75 277.18 213.71 276.74 214.01 276.43C217.51 272.77 219.47 271.93 222.75 270.56C226.93 268.84 232.07 266.73 238.58 259.93C243.58 254.71 245.76 250.5 246.87 247.77C247 247.39 247.48 247.25 247.88 247.43C248.29 247.61 248.5 248.11 248.37 248.49C247.16 251.33 244.94 255.7 239.79 261.08C233.14 268.03 227.79 270.24 223.55 272.01Z" id="d1DaAl2Q6"></path><path d="M263.76 230.59C263.68 230.63 263.05 230.9 262.97 230.94C260.27 232.07 258.25 232.85 255.25 235.98C253.1 238.23 252.23 239.99 251.37 241.97C251.24 242.35 250.76 242.49 250.3 242.25C249.83 242.01 249.68 241.57 249.86 241.14C250.76 239.11 251.73 237.13 253.98 234.78C257.18 231.43 259.3 230.55 262.16 229.37C262.23 229.34 262.83 229.11 262.9 229.08C266.76 227.46 271.21 225.59 278.22 219.47C278.27 219.42 278.32 219.36 278.32 219.36C278.63 219.16 279.07 219.18 279.44 219.52C279.62 219.7 280.05 220.21 279.55 220.73C272.35 227.06 267.79 228.92 263.76 230.59Z" id="e3UWaF10mu"></path><path d="M281.58 223.44C281.58 223.44 281.58 223.44 281.58 223.44C275.93 229.35 271.68 231.01 267.97 232.47C267.44 232.67 266.91 232.86 266.43 233.11C266.41 233.13 266.2 233.25 266.17 233.27C263.1 234.54 261.31 235.33 258.1 238.68C254.75 242.18 254.06 244.11 252.93 247.23C251.37 251.52 249.46 256.89 242.76 263.89C236.11 270.84 230.81 273 226.53 274.82C223.29 276.15 221.41 277.15 218.11 280.6C217.81 280.91 217.36 280.89 217 280.55C216.64 280.21 216.59 279.77 216.89 279.45C220.49 275.69 222.65 274.64 225.72 273.37C229.91 271.65 235.05 269.54 241.55 262.74C248.05 255.95 249.91 250.74 251.49 246.56C252.67 243.39 253.4 241.3 256.95 237.59C260.35 234.04 262.42 233.2 265.49 231.92C265.52 231.91 265.73 231.79 265.75 231.77C266.28 231.58 266.76 231.33 267.29 231.13C270.95 229.72 275.09 228.05 280.59 222.31C280.59 222.31 280.59 222.31 280.59 222.31C280.89 221.99 281.33 222.01 281.7 222.36C282.06 222.7 281.98 223.02 281.73 223.29C281.71 223.31 281.66 223.36 281.58 223.44Z" id="f27XD5fdzz"></path><path d="M287.8 229.02C283 234.04 279.6 235.3 276.3 236.57C274.71 237.15 273.06 237.78 271.28 238.79C270.97 239 270.41 238.86 270.21 238.47C269.95 238.13 270.01 237.59 270.38 237.44C272.26 236.33 274.01 235.7 275.61 235.12C278.9 233.85 282.05 232.74 286.7 227.88C287.2 227.35 287.73 227.76 287.79 227.82C288.15 228.05 288.25 228.55 288.06 228.87C287.95 228.86 287.9 228.91 287.9 228.91C287.85 228.97 287.85 228.97 287.8 229.02Z" id="a3lW4vMAx4"></path><path d="M256.39 255.57C255.98 255.39 255.77 254.88 255.9 254.51C256.99 251.56 258.63 248.03 263.13 243.33C264.53 241.86 265.84 240.62 267.28 239.59C267.6 239.39 268.1 239.46 268.4 239.75C268.66 240.09 268.65 240.58 268.4 240.84C267.07 241.87 265.76 243.12 264.41 244.53C260.05 249.08 258.56 252.45 257.46 255.29C257.36 255.39 257.31 255.45 257.26 255.5C257.06 255.71 256.68 255.74 256.39 255.57Z" id="d2a4W2S0tP"></path><path d="M239.87 276.58C239.49 276.73 239.04 276.6 238.73 276.2C238.52 275.81 238.59 275.37 238.95 275.12C241.06 274.12 243.98 272.4 247.68 268.53C250.43 265.66 252.26 263.02 253.64 260.13C253.77 259.76 254.25 259.62 254.66 259.91C255.07 260.09 255.28 260.59 255.04 260.96C253.69 264.06 251.8 266.76 248.95 269.74C245.1 273.76 242.02 275.53 239.87 276.58Z" id="a626BB7sIQ"></path><path d="M234.1 279.1C231.42 280.34 228.39 282.05 224.44 286.18C224.14 286.5 223.69 286.48 223.33 286.13C222.96 285.79 222.92 285.35 223.22 285.04C227.32 280.75 230.51 278.99 233.25 277.69C233.62 277.55 234.08 277.68 234.34 278.13C234.53 278.41 234.52 278.79 234.32 279C234.27 279.05 234.22 279.1 234.1 279.1Z" id="cFno3WnbA"></path><path d="M273.12 214.65C268.21 219.67 264.71 221.03 261.31 222.4C259.08 223.28 257.02 224.12 254.43 225.85C254.12 226.06 253.62 225.98 253.3 225.58C253.05 225.24 253.06 224.75 253.42 224.5C256.1 222.66 258.33 221.78 260.56 220.9C264.01 219.58 267.25 218.26 271.96 213.45C271.96 213.45 271.96 213.45 272.01 213.4C272.31 213.09 272.8 213.06 273.16 213.4C273.53 213.74 273.57 214.18 273.27 214.5C273.27 214.5 273.27 214.5 273.27 214.5C273.22 214.55 273.17 214.6 273.17 214.6C273.16 214.61 273.13 214.65 273.12 214.65Z" id="aliiq658Q"></path><path d="M243.85 236.06C243.5 235.83 243.34 235.27 243.53 234.96C244.72 233.1 246.19 231.2 248.09 229.22C248.94 228.33 249.8 227.55 250.61 226.82C250.91 226.51 251.42 226.59 251.73 226.98C252.05 227.38 252.09 227.82 251.73 228.08C250.92 228.8 250.11 229.53 249.31 230.36C247.5 232.25 246.09 234.09 244.94 235.89C244.89 235.95 244.89 235.95 244.84 236C244.59 236.26 244.21 236.3 243.85 236.06Z" id="b10iBnwgrZ"></path><path d="M221.44 263.95C221.07 264.1 220.65 264.3 220.28 264.44C219.91 264.59 219.39 264.4 219.19 264.01C218.99 263.62 219.11 263.13 219.48 262.99C219.9 262.79 220.27 262.64 220.69 262.44C224.34 260.92 227.84 259.44 232.74 254.32C237.24 249.62 238.68 246.3 239.98 242.65C240.11 242.27 240.59 242.13 240.99 242.31C241.4 242.5 241.61 243 241.48 243.37C240.2 247.24 238.61 250.72 233.96 255.58C228.86 260.91 225.1 262.43 221.44 263.95Z" id="hPDmMbMYI"></path><path d="M216.19 266.55C213.95 267.92 211.81 269.67 209.51 272.08C209.21 272.39 208.76 272.37 208.4 272.03C208.04 271.68 207.99 271.24 208.29 270.93C210.69 268.42 212.89 266.61 215.28 265.2C215.59 264.99 216.16 265.13 216.36 265.52C216.55 265.8 216.54 266.18 216.29 266.44C216.24 266.49 216.21 266.53 216.19 266.55Z" id="bj5RqSAV1"></path><path d="M24.49 472.11C24.67 471.92 24.77 471.82 24.79 471.8C28.19 468.24 30.14 467.4 33.38 466.08C37.56 464.36 42.8 462.15 49.35 455.3C55.9 448.45 57.87 443.14 59.38 438.9C60.55 435.63 61.24 433.69 64.69 430.09C68.09 426.53 69.85 425.9 73.08 424.58C77.27 422.86 82.55 420.48 88.61 414.27C89.03 414.67 91.13 416.66 94.92 420.23C96.67 421.88 97.64 422.8 97.83 422.99C91.33 429.78 86.39 431.68 82.16 433.45C78.93 434.78 77.17 435.41 73.77 438.96C70.37 442.51 69.72 444.39 68.56 447.67C66.99 451.96 65.13 457.17 58.58 464.01C52.02 470.86 46.64 473.23 42.45 474.95C39.28 476.33 36.77 477.75 33.77 480.88C32.53 479.71 29.44 476.79 24.49 472.11Z" id="dQez0D2o"></path><path d="M13.02 461.27C19.52 454.48 24.96 452.05 29.14 450.34C32.37 449.01 34.38 448.12 37.78 444.57C41.18 441.01 41.98 438.98 43.1 435.75C44.66 431.46 46.57 426.2 53.17 419.3C59.78 412.4 64.67 410.55 68.85 408.84C72.08 407.51 73.59 407.14 77.09 403.49C77.28 403.67 78.23 404.56 79.94 406.18L85.77 411.69C87.48 413.3 88.43 414.2 88.62 414.38C82.56 420.59 77.17 422.97 73.09 424.69C69.86 426.01 68.06 426.7 64.6 430.3C61.15 433.91 60.51 435.79 59.34 439.06C57.83 443.3 55.86 448.61 49.31 455.46C42.76 462.31 37.51 464.41 33.28 466.18C30.04 467.51 28.14 468.29 24.74 471.85C24.72 471.86 24.64 471.95 24.49 472.11L24.49 472.11C17.6 465.61 13.78 461.99 13.02 461.27Z" id="a5AuhJp8a"></path><path d="M83.1 434.04C83.01 434.07 82.28 434.35 82.19 434.38C79.28 435.61 77.59 436.3 74.44 439.59C71.19 442.99 70.58 444.71 69.4 447.87C69.39 447.9 69.33 448.16 69.32 448.19C67.76 452.49 65.8 457.8 59.24 464.64C52.44 471.75 46.93 474.01 42.86 475.73C39.67 477.01 37.28 478.42 34.38 481.45C34.08 481.77 33.63 481.75 33.27 481.4C31.19 479.44 14.59 463.76 12.52 461.79C12.15 461.45 12.11 461.01 12.41 460.7C19.21 453.59 24.98 451.18 28.8 449.61C31.82 448.39 33.83 447.49 37.23 443.94C40.58 440.44 41.27 438.51 42.45 435.34C44.01 431.05 45.97 425.63 52.62 418.68C58.97 412.04 63.74 410.08 67.97 408.31C68.12 408.25 69.31 407.78 69.46 407.72C72.11 406.64 73.54 406.11 76.64 402.87C76.94 402.55 77.39 402.57 77.75 402.92C79.83 404.88 96.43 420.56 98.51 422.53C98.7 422.81 98.8 423.3 98.5 423.62C92.15 430.25 87.17 432.32 83.1 434.04ZM42.05 474.28C45.97 472.6 51.37 470.34 57.92 463.49C64.32 456.8 66.18 451.6 67.71 447.47C67.72 447.43 67.78 447.17 67.79 447.14C68.97 443.98 69.66 442.04 73.11 438.44C76.46 434.94 78.32 434.2 81.28 432.92C81.37 432.89 82.09 432.61 82.18 432.58C86.21 430.91 90.77 429.05 96.63 423.04C94.67 421.19 79.04 406.42 77.09 404.58C74.13 407.55 72.59 408.19 69.99 409.22C69.84 409.28 68.65 409.74 68.5 409.8C64.43 411.53 59.82 413.44 53.62 419.92C47.12 426.72 45.26 431.92 43.68 436.11C42.56 439.33 41.78 441.48 38.23 445.19C34.83 448.74 32.72 449.74 29.33 451.11C25.72 452.58 20.32 454.84 13.91 461.42C15.22 462.66 21.75 468.83 33.51 479.94L33.66 479.79C37.18 477 39.97 475.16 42.05 474.28Z" id="cRYOjjaWz"></path><path d="M30.93 464.17C27.81 465.5 25.9 466.28 22.6 469.73C22.3 470.04 21.86 470.02 21.49 469.68C21.13 469.34 21.09 468.9 21.39 468.58C24.89 464.93 26.85 464.09 30.13 462.71C34.31 460.99 39.45 458.88 45.95 452.09C50.95 446.86 53.13 442.65 54.25 439.92C54.37 439.54 54.86 439.4 55.26 439.58C55.66 439.77 55.88 440.27 55.75 440.64C54.54 443.48 52.32 447.85 47.17 453.23C40.52 460.19 35.17 462.4 30.93 464.17Z" id="d1ujcREBTs"></path><path d="M71.14 422.74C71.06 422.78 70.43 423.06 70.35 423.09C67.65 424.22 65.63 425 62.63 428.14C60.48 430.39 59.61 432.15 58.75 434.12C58.62 434.5 58.14 434.64 57.68 434.4C57.21 434.16 57.06 433.72 57.24 433.29C58.14 431.26 59.11 429.29 61.36 426.93C64.56 423.59 66.68 422.7 69.54 421.53C69.61 421.5 70.2 421.26 70.28 421.23C74.14 419.61 78.59 417.74 85.6 411.62C85.65 411.57 85.7 411.52 85.7 411.52C86.01 411.31 86.45 411.33 86.82 411.68C87 411.85 87.43 412.36 86.93 412.88C79.72 419.21 75.17 421.07 71.14 422.74Z" id="c3Zo24OFtB"></path><path d="M88.96 415.6C88.96 415.6 88.96 415.6 88.96 415.6C83.31 421.5 79.06 423.16 75.35 424.63C74.82 424.82 74.28 425.02 73.81 425.27C73.79 425.28 73.58 425.4 73.55 425.42C70.48 426.7 68.68 427.49 65.48 430.83C62.13 434.33 61.44 436.27 60.31 439.38C58.74 443.67 56.84 449.04 50.14 456.04C43.49 463 38.19 465.15 33.9 466.98C30.67 468.3 28.79 469.31 25.49 472.75C25.19 473.07 24.74 473.05 24.38 472.7C24.01 472.36 23.97 471.92 24.27 471.61C27.87 467.84 30.03 466.8 33.1 465.52C37.29 463.8 42.43 461.69 48.93 454.9C55.43 448.1 57.29 442.9 58.87 438.71C60.05 435.55 60.78 433.45 64.33 429.74C67.73 426.19 69.8 425.36 72.87 424.08C72.9 424.06 73.1 423.94 73.13 423.93C73.66 423.73 74.13 423.48 74.67 423.29C78.33 421.87 82.47 420.21 87.97 414.46C87.97 414.46 87.97 414.46 87.97 414.46C88.27 414.15 88.71 414.17 89.07 414.51C89.44 414.85 89.36 415.18 89.11 415.44C89.09 415.46 89.04 415.51 88.96 415.6Z" id="a1A15cYsG2"></path><path d="M95.18 421.17C90.38 426.19 86.97 427.45 83.68 428.72C82.08 429.3 80.44 429.94 78.66 430.95C78.35 431.15 77.79 431.01 77.58 430.62C77.33 430.28 77.39 429.74 77.76 429.59C79.64 428.48 81.39 427.85 82.99 427.27C86.28 426 89.42 424.89 94.08 420.03C94.58 419.51 95.11 419.91 95.17 419.97C95.53 420.21 95.63 420.7 95.44 421.02C95.33 421.02 95.28 421.07 95.28 421.07C95.23 421.12 95.23 421.12 95.18 421.17Z" id="a3dqyh0Gb"></path><path d="M63.77 447.72C63.36 447.54 63.15 447.04 63.28 446.66C64.37 443.71 66.01 440.19 70.51 435.48C71.91 434.02 73.22 432.77 74.66 431.74C74.97 431.54 75.48 431.62 75.78 431.9C76.03 432.24 76.03 432.73 75.78 433C74.44 434.03 73.13 435.27 71.78 436.69C67.43 441.23 65.94 444.6 64.84 447.44C64.74 447.55 64.69 447.6 64.64 447.65C64.44 447.86 64.06 447.9 63.77 447.72Z" id="a15avcpX4c"></path><path d="M47.24 468.73C46.87 468.88 46.42 468.75 46.11 468.35C45.9 467.96 45.97 467.53 46.33 467.27C48.44 466.28 51.36 464.56 55.06 460.69C57.81 457.81 59.64 455.17 61.02 452.29C61.14 451.91 61.63 451.77 62.04 452.06C62.44 452.24 62.66 452.74 62.42 453.12C61.07 456.22 59.18 458.91 56.33 461.89C52.48 465.92 49.4 467.69 47.24 468.73Z" id="eNzHSH5A"></path><path d="M41.48 471.25C38.79 472.49 35.77 474.21 31.81 478.34C31.51 478.65 31.07 478.63 30.71 478.29C30.34 477.94 30.3 477.5 30.6 477.19C34.7 472.9 37.89 471.14 40.63 469.85C41 469.7 41.46 469.83 41.72 470.28C41.91 470.56 41.89 470.94 41.69 471.15C41.64 471.2 41.59 471.26 41.48 471.25Z" id="a4ZOHhDoxW"></path><path d="M80.5 406.81C75.59 411.82 72.08 413.19 68.69 414.56C66.46 415.44 64.4 416.27 61.81 418.01C61.5 418.21 61 418.13 60.68 417.74C60.43 417.4 60.44 416.91 60.8 416.65C63.48 414.81 65.71 413.93 67.94 413.05C71.39 411.74 74.62 410.41 79.34 405.61C79.34 405.61 79.34 405.61 79.39 405.56C79.69 405.24 80.18 405.21 80.54 405.55C80.91 405.9 80.95 406.34 80.65 406.65C80.65 406.65 80.65 406.65 80.65 406.65C80.6 406.7 80.55 406.75 80.55 406.75C80.54 406.76 80.51 406.8 80.5 406.81Z" id="cjN5FlIoL"></path><path d="M51.23 428.22C50.88 427.98 50.72 427.43 50.9 427.11C52.1 425.25 53.57 423.36 55.47 421.37C56.32 420.48 57.18 419.7 57.99 418.98C58.29 418.66 58.8 418.74 59.11 419.14C59.42 419.53 59.47 419.97 59.11 420.23C58.29 420.96 57.48 421.68 56.68 422.52C54.88 424.4 53.47 426.24 52.32 428.05C52.27 428.1 52.27 428.1 52.22 428.15C51.97 428.41 51.59 428.45 51.23 428.22Z" id="c7uAKjw9GW"></path><path d="M28.82 456.1C28.45 456.25 28.03 456.45 27.66 456.6C27.29 456.74 26.77 456.56 26.57 456.16C26.37 455.77 26.48 455.29 26.86 455.14C27.28 454.94 27.65 454.8 28.07 454.6C31.72 453.07 35.22 451.6 40.12 446.47C44.62 441.77 46.06 438.45 47.36 434.8C47.48 434.43 47.97 434.29 48.37 434.47C48.77 434.65 48.99 435.15 48.86 435.53C47.58 439.4 45.99 442.87 41.34 447.73C36.24 453.06 32.48 454.58 28.82 456.1Z" id="boQTZIZ7q"></path><path d="M23.57 458.7C21.33 460.07 19.19 461.83 16.89 464.23C16.59 464.55 16.14 464.52 15.78 464.18C15.41 463.84 15.37 463.4 15.67 463.08C18.07 460.58 20.27 458.77 22.66 457.35C22.97 457.15 23.54 457.28 23.74 457.67C23.93 457.95 23.92 458.33 23.67 458.6C23.62 458.65 23.59 458.68 23.57 458.7Z" id="cRVFLLUWm"></path><path d="M294.54 496.27C294.49 496.01 294.46 495.87 294.46 495.84C293.55 491.01 294.02 488.93 294.82 485.53C295.87 481.13 297.12 475.58 295.38 466.26C293.64 456.95 290.47 452.26 287.91 448.55C285.93 445.7 284.76 444.01 283.84 439.1C282.94 434.26 283.45 432.47 284.26 429.07C285.31 424.67 286.45 419 284.94 410.45C285.51 410.34 288.35 409.79 293.46 408.8C295.82 408.34 297.14 408.09 297.4 408.04C299.13 417.28 297.79 422.4 296.76 426.87C295.95 430.27 295.44 432.07 296.34 436.9C297.25 441.74 298.4 443.35 300.38 446.21C302.95 449.99 306.1 454.54 307.84 463.85C309.58 473.17 308.37 478.93 307.32 483.33C306.6 486.71 306.28 489.57 307.08 493.84C305.41 494.16 301.23 494.97 294.54 496.27Z" id="a6gbr1r9z"></path><path d="M279.05 499.27C277.32 490.02 278.52 484.19 279.57 479.79C280.37 476.39 280.82 474.24 279.92 469.41C279.01 464.57 277.82 462.74 275.85 459.95C273.28 456.18 270.12 451.56 268.37 442.17C266.61 432.78 267.96 427.73 269 423.33C269.81 419.93 270.39 418.5 269.46 413.52C269.72 413.47 271 413.22 273.31 412.77L281.18 411.25C283.49 410.8 284.78 410.55 285.03 410.5C286.55 419.05 285.33 424.81 284.36 429.13C283.55 432.53 283.05 434.39 283.97 439.3C284.88 444.2 286.04 445.82 288.01 448.68C290.58 452.38 293.75 457.08 295.49 466.39C297.23 475.71 295.88 481.2 294.85 485.67C294.04 489.07 293.57 491.08 294.47 495.91C294.48 495.94 294.5 496.05 294.54 496.27L294.54 496.27C285.24 498.07 280.08 499.07 279.05 499.27Z" id="b23RdIjFbZ"></path><path d="M297.79 426.45C297.76 426.55 297.56 427.29 297.54 427.39C296.84 430.47 296.41 432.25 297.24 436.73C298.11 441.35 299.15 442.84 301.04 445.64C301.06 445.67 301.23 445.87 301.25 445.9C303.83 449.67 307 454.36 308.74 463.68C310.55 473.35 309.17 479.14 308.2 483.46C307.37 486.78 307.13 489.56 307.9 493.68C307.98 494.11 307.7 494.46 307.21 494.55C304.41 495.09 281.98 499.44 279.18 499.98C278.69 500.07 278.31 499.85 278.23 499.43C276.42 489.76 277.83 483.66 278.77 479.65C279.54 476.48 279.99 474.33 279.08 469.49C278.19 464.73 277.03 463.04 275.14 460.24C272.57 456.46 269.3 451.71 267.53 442.26C265.84 433.23 267.03 428.21 268.06 423.74C268.1 423.58 268.41 422.34 268.45 422.19C269.12 419.41 269.52 417.93 268.7 413.52C268.62 413.09 268.89 412.74 269.38 412.65C272.19 412.11 294.61 407.76 297.41 407.22C297.76 407.23 298.22 407.43 298.3 407.86C299.99 416.89 298.76 422.14 297.79 426.45ZM306.54 483.26C307.47 479.1 308.78 473.4 307.03 464.08C305.33 454.98 302.19 450.43 299.72 446.78C299.7 446.76 299.52 446.56 299.5 446.53C297.62 443.73 296.45 442.04 295.54 437.13C294.65 432.37 295.13 430.43 295.82 427.28C295.84 427.18 296.04 426.44 296.07 426.34C297.06 422.1 298.2 417.31 296.74 409.05C294.1 409.56 272.98 413.65 270.34 414.16C271.03 418.3 270.66 419.92 269.98 422.63C269.94 422.78 269.63 424.02 269.59 424.18C268.61 428.49 267.48 433.35 269.13 442.17C270.86 451.41 274 455.96 276.48 459.68C278.45 462.47 279.74 464.36 280.68 469.41C281.59 474.24 281.16 476.53 280.3 480.09C279.4 483.87 278.08 489.58 279.69 498.63C281.46 498.28 290.28 496.58 306.17 493.5L306.13 493.29C305.91 488.81 306.05 485.47 306.54 483.26Z" id="g1BKlqK3tc"></path><path d="M291.84 486.4C291.1 489.71 290.63 491.72 291.51 496.41C291.59 496.84 291.31 497.19 290.82 497.28C290.33 497.38 289.95 497.16 289.87 496.73C288.94 491.75 289.4 489.67 290.19 486.2C291.24 481.8 292.52 476.4 290.79 467.15C289.46 460.04 287.31 455.82 285.74 453.32C285.51 453 285.68 452.52 286.06 452.3C286.44 452.08 286.97 452.2 287.2 452.52C288.8 455.16 291.06 459.51 292.43 466.84C294.2 476.29 292.88 481.93 291.84 486.4Z" id="aDWRsJMrq"></path><path d="M281.64 429.58C281.62 429.66 281.47 430.34 281.46 430.43C280.8 433.28 280.26 435.37 281.06 439.64C281.63 442.7 282.55 444.43 283.66 446.28C283.89 446.61 283.72 447.08 283.26 447.32C282.79 447.56 282.34 447.42 282.1 447.03C280.98 445.11 279.93 443.17 279.34 439.97C278.48 435.42 279 433.19 279.71 430.17C279.73 430.1 279.89 429.48 279.91 429.4C280.84 425.31 281.91 420.61 281.03 411.35C281.02 411.28 281 411.21 281 411.21C281.02 410.84 281.29 410.49 281.79 410.39C282.03 410.35 282.7 410.29 282.83 411C283.77 420.55 282.63 425.34 281.64 429.58Z" id="a2qQnXkNLK"></path><path d="M286.22 410.94C286.22 410.94 286.22 410.94 286.22 410.94C287.72 418.97 286.6 423.39 285.62 427.26C285.47 427.81 285.32 428.35 285.24 428.88C285.24 428.91 285.22 429.15 285.22 429.18C284.46 432.42 284.06 434.34 284.91 438.89C285.8 443.66 286.97 445.35 288.84 448.08C291.41 451.85 294.66 456.53 296.45 466.06C298.22 475.51 296.88 481.08 295.86 485.62C295.05 489.02 294.77 491.14 295.65 495.83C295.73 496.26 295.45 496.61 294.96 496.7C294.47 496.8 294.09 496.58 294.01 496.15C293.05 491.03 293.46 488.67 294.21 485.43C295.25 481.02 296.54 475.62 294.81 466.38C293.08 457.13 289.93 452.58 287.45 448.86C285.57 446.06 284.3 444.24 283.35 439.2C282.45 434.36 282.98 432.19 283.73 428.95C283.73 428.92 283.76 428.68 283.76 428.65C283.91 428.11 283.98 427.58 284.13 427.03C285.12 423.23 286.18 418.9 284.72 411.08C284.72 411.08 284.72 411.08 284.72 411.08C284.64 410.65 284.91 410.31 285.4 410.21C285.9 410.11 286.11 410.37 286.18 410.72C286.18 410.75 286.2 410.82 286.22 410.94Z" id="b1lMWzMNt4"></path><path d="M294.38 409.14C295.65 415.96 294.69 419.46 293.8 422.88C293.35 424.51 292.9 426.22 292.69 428.25C292.67 428.62 292.23 429 291.8 428.94C291.37 428.95 290.96 428.58 291.06 428.2C291.25 426.02 291.76 424.23 292.22 422.59C293.11 419.18 294.04 415.98 292.81 409.37C292.67 408.66 293.31 408.46 293.4 408.44C293.79 408.29 294.26 408.5 294.4 408.84C294.34 408.92 294.35 408.99 294.35 408.99C294.36 409.06 294.36 409.06 294.38 409.14Z" id="ajarrry3"></path><path d="M297.63 450.13C297.25 450.36 296.71 450.24 296.48 449.91C294.72 447.31 292.81 443.92 291.62 437.52C291.24 435.53 290.99 433.74 291 431.97C291.02 431.6 291.38 431.23 291.78 431.15C292.21 431.14 292.6 431.44 292.67 431.79C292.73 433.47 292.98 435.27 293.34 437.19C294.5 443.37 296.36 446.55 298.03 449.1C298.06 449.24 298.07 449.31 298.08 449.38C298.14 449.67 297.94 450 297.63 450.13Z" id="a1hjClbCJJ"></path><path d="M305.07 475.81C304.97 476.2 304.6 476.49 304.09 476.51C303.66 476.45 303.34 476.14 303.35 475.7C303.77 473.41 304.07 470.03 303.09 464.77C302.35 460.86 301.28 457.83 299.73 455.03C299.5 454.71 299.67 454.23 300.15 454.07C300.53 453.85 301.06 453.96 301.23 454.38C302.96 457.28 304.05 460.39 304.81 464.44C305.83 469.91 305.47 473.45 305.07 475.81Z" id="b3V33pYqvs"></path><path d="M303.75 481.96C303.19 484.87 302.82 488.33 303.87 493.94C303.95 494.37 303.68 494.72 303.19 494.81C302.69 494.91 302.31 494.69 302.23 494.26C301.14 488.43 301.57 484.81 302.12 481.83C302.21 481.45 302.58 481.15 303.1 481.2C303.44 481.21 303.74 481.44 303.8 481.73C303.81 481.8 303.82 481.87 303.75 481.96Z" id="bHpYSrGxF"></path><path d="M274.15 412.68C275.35 419.6 274.42 423.24 273.56 426.8C272.97 429.12 272.44 431.29 272.35 434.4C272.33 434.77 271.98 435.14 271.47 435.16C271.05 435.17 270.65 434.88 270.66 434.43C270.73 431.18 271.31 428.85 271.89 426.53C272.84 422.96 273.65 419.56 272.49 412.93C272.49 412.93 272.49 412.93 272.48 412.86C272.4 412.43 272.66 412.01 273.15 411.92C273.64 411.82 274.03 412.04 274.11 412.47C274.11 412.47 274.11 412.47 274.11 412.47C274.12 412.54 274.13 412.61 274.13 412.61C274.14 412.63 274.14 412.68 274.15 412.68Z" id="a30UDqP6Ir"></path><path d="M274.47 448.95C274.08 449.1 273.53 448.91 273.38 448.57C272.58 446.51 271.89 444.21 271.39 441.51C271.16 440.3 271.03 439.15 270.91 438.07C270.83 437.64 271.19 437.28 271.69 437.25C272.2 437.23 272.58 437.45 272.58 437.89C272.69 438.97 272.81 440.06 273.02 441.19C273.5 443.75 274.18 445.98 274.97 447.96C274.98 448.04 274.98 448.04 275 448.11C275.06 448.46 274.87 448.79 274.47 448.95Z" id="fOojlGpJu"></path><path d="M284.07 483.41C283.97 483.8 283.88 484.26 283.79 484.65C283.69 485.03 283.24 485.34 282.8 485.28C282.36 485.22 282.04 484.84 282.14 484.45C282.22 483.99 282.32 483.6 282.4 483.14C283.29 479.29 284.13 475.59 282.83 468.62C281.63 462.22 279.78 459.12 277.57 455.94C277.34 455.61 277.5 455.14 277.88 454.92C278.27 454.69 278.8 454.81 279.03 455.14C281.43 458.43 283.32 461.75 284.56 468.36C285.92 475.61 284.96 479.56 284.07 483.41Z" id="gMMTOudqO"></path><path d="M283.11 489.2C282.92 491.81 283.1 494.58 283.71 497.85C283.79 498.28 283.51 498.62 283.02 498.72C282.53 498.81 282.15 498.59 282.07 498.17C281.43 494.75 281.24 491.92 281.49 489.14C281.5 488.77 281.94 488.39 282.38 488.45C282.72 488.46 283.02 488.7 283.08 489.05C283.1 489.13 283.1 489.17 283.11 489.2Z" id="dNJzQIs2T"></path><path d="M284.13 -27.52C283.99 -27.23 283.91 -27.07 283.9 -27.04C281.28 -21.5 279.58 -19.94 276.77 -17.44C273.13 -14.19 268.58 -10.04 263.53 0.62C258.48 11.28 257.48 18.86 256.72 24.89C256.14 29.55 255.8 32.3 253.14 37.92C250.52 43.46 248.97 44.69 246.16 47.2C242.52 50.44 237.96 54.81 233.27 64.52C232.82 64.08 230.54 61.88 226.44 57.92C224.55 56.09 223.5 55.07 223.29 54.87C228.31 44.29 232.62 40.63 236.3 37.3C239.11 34.8 240.66 33.56 243.28 28.03C245.9 22.49 246.21 19.82 246.79 15.16C247.58 9.05 248.5 1.63 253.55 -9.03C258.6 -19.69 263.27 -24.08 266.91 -27.33C269.65 -29.89 271.78 -32.35 274.09 -37.24C275.43 -35.94 278.77 -32.7 284.13 -27.52Z" id="a26VDyW7c0"></path><path d="M296.53 -15.53C291.52 -4.95 286.82 -0.47 283.18 2.77C280.37 5.27 278.63 6.92 276.01 12.45C273.39 17.99 272.97 20.9 272.42 25.48C271.63 31.6 270.67 39.09 265.58 49.84C260.49 60.58 256.21 64.16 252.57 67.4C249.76 69.9 248.41 70.74 245.71 76.43C245.51 76.23 244.48 75.24 242.63 73.45L236.33 67.36C234.48 65.57 233.45 64.57 233.24 64.37C237.93 54.67 242.6 50.28 246.13 47.05C248.95 44.55 250.53 43.23 253.19 37.61C255.85 32 256.15 29.33 256.73 24.67C257.49 18.63 258.49 11.06 263.54 0.39C268.59 -10.27 273.17 -14.27 276.85 -17.6C279.66 -20.1 281.32 -21.58 283.94 -27.12C283.95 -27.14 284.01 -27.28 284.13 -27.52L284.13 -27.52C291.57 -20.33 295.71 -16.33 296.53 -15.53Z" id="anjqUqRos"></path><path d="M235.33 36.72C235.41 36.66 236.04 36.13 236.12 36.06C238.65 33.76 240.13 32.46 242.56 27.33C245.06 22.04 245.36 19.6 245.96 15.08C245.97 15.03 245.99 14.67 245.99 14.63C246.78 8.51 247.78 0.94 252.83 -9.73C258.08 -20.8 262.87 -25.06 266.41 -28.29C269.18 -30.71 271.2 -33.15 273.43 -37.87C273.66 -38.36 274.08 -38.43 274.47 -38.05C276.72 -35.88 294.67 -18.51 296.92 -16.34C297.31 -15.96 297.42 -15.38 297.19 -14.89C291.95 -3.82 286.93 0.7 283.62 3.67C280.99 5.99 279.25 7.63 276.63 13.17C274.05 18.62 273.7 21.37 273.09 25.89C272.3 32.01 271.32 39.73 266.2 50.55C261.3 60.89 257.16 64.6 253.48 67.92C253.35 68.03 252.31 68.93 252.18 69.04C249.87 71.08 248.62 72.12 246.23 77.17C245.99 77.66 245.58 77.73 245.18 77.35C242.94 75.18 224.98 57.81 222.74 55.64C222.52 55.3 222.34 54.66 222.57 54.17C227.47 43.83 231.8 39.95 235.33 36.72ZM267.38 -26.51C263.99 -23.39 259.3 -19.14 254.25 -8.48C249.32 1.94 248.39 9.35 247.61 15.25C247.61 15.29 247.59 15.65 247.59 15.7C246.98 20.21 246.63 22.97 243.97 28.58C241.39 34.04 239.77 35.44 237.2 37.82C237.13 37.89 236.49 38.41 236.41 38.48C232.92 41.62 228.95 45.15 224.41 54.53C226.53 56.57 243.43 72.92 245.55 74.97C247.85 70.31 249.18 69.11 251.45 67.15C251.58 67.03 252.62 66.14 252.75 66.03C256.28 62.8 260.29 59.2 265.07 49.1C270.08 38.52 271 31.11 271.82 25.14C272.36 20.56 272.76 17.5 275.5 11.72C278.12 6.18 279.93 4.38 282.89 1.77C286.02 -1.01 290.71 -5.25 295.67 -15.53C294.26 -16.9 287.19 -23.73 274.47 -36.03L274.36 -35.79C271.51 -31.26 269.19 -28.17 267.38 -26.51Z" id="b23dqeCO2h"></path><path d="M279.35 -15.41C282.06 -17.9 283.72 -19.38 286.26 -24.75C286.49 -25.24 286.91 -25.31 287.3 -24.93C287.7 -24.55 287.8 -23.97 287.57 -23.48C284.88 -17.78 283.18 -16.22 280.33 -13.64C276.69 -10.39 272.22 -6.41 267.21 4.17C263.35 12.31 261.97 18.46 261.36 22.38C261.3 22.91 260.87 23.21 260.47 23.05C260.06 22.9 259.78 22.27 259.84 21.74C260.53 17.66 261.92 11.29 265.89 2.9C271.02 -7.92 275.67 -12.09 279.35 -15.41Z" id="a3kxM1jxF"></path><path d="M248.26 49.23C248.33 49.16 248.88 48.65 248.95 48.59C251.29 46.46 253.06 44.96 255.37 40.08C257.03 36.58 257.57 34.02 258.06 31.17C258.12 30.63 258.55 30.34 259.02 30.55C259.49 30.77 259.7 31.33 259.6 31.95C259.07 34.88 258.48 37.75 256.75 41.41C254.28 46.62 252.44 48.28 249.95 50.51C249.89 50.56 249.37 51.01 249.3 51.07C245.95 54.11 242.09 57.62 236.5 67.4C236.46 67.48 236.42 67.56 236.42 67.56C236.16 67.91 235.75 67.98 235.35 67.6C235.15 67.41 234.67 66.82 235.05 66C240.8 55.89 244.76 52.37 248.26 49.23Z" id="eSXWcX93o"></path><path d="M232.74 62.81C232.74 62.81 232.74 62.81 232.74 62.81C237.09 53.62 240.8 50.44 244.04 47.64C244.51 47.26 244.97 46.88 245.37 46.43C245.4 46.41 245.57 46.2 245.59 46.17C248.26 43.77 249.82 42.31 252.28 37.1C254.87 31.64 255.21 28.89 255.78 24.46C256.57 18.34 257.51 10.7 262.68 -0.21C267.8 -11.03 272.42 -15.12 276.13 -18.52C278.95 -21.02 280.55 -22.8 283.1 -28.17C283.33 -28.66 283.74 -28.73 284.14 -28.35C284.53 -27.97 284.64 -27.39 284.41 -26.9C281.63 -21.04 279.78 -19.15 277.11 -16.75C273.47 -13.5 269 -9.52 263.99 1.06C258.98 11.64 258.05 19.06 257.23 25.03C256.63 29.55 256.27 32.52 253.53 38.3C250.91 43.84 249.11 45.42 246.44 47.82C246.42 47.85 246.24 48.06 246.22 48.08C245.75 48.46 245.35 48.91 244.89 49.29C241.68 52 238.08 55.17 233.84 64.12C233.84 64.12 233.84 64.12 233.84 64.12C233.61 64.61 233.19 64.68 232.8 64.3C232.41 63.92 232.43 63.47 232.62 63.06C232.64 63.03 232.68 62.94 232.74 62.81Z" id="bAIfvMBNb"></path><path d="M226.06 56.71C229.76 48.9 232.74 46.44 235.62 44C237.02 42.86 238.46 41.64 239.96 39.89C240.22 39.55 240.76 39.6 241.01 40.08C241.3 40.48 241.34 41.22 241.01 41.5C239.43 43.42 237.89 44.66 236.49 45.79C233.61 48.23 230.85 50.43 227.27 58C226.88 58.81 226.32 58.39 226.25 58.32C225.89 58.09 225.71 57.44 225.84 56.97C225.94 56.96 225.98 56.87 225.98 56.87C226.02 56.79 226.02 56.79 226.06 56.71Z" id="c1mXG7JCJS"></path><path d="M251.25 14.02C251.66 14.18 251.93 14.8 251.87 15.33C251.31 19.54 250.33 24.65 246.86 31.97C245.78 34.25 244.76 36.22 243.57 37.92C243.31 38.27 242.83 38.27 242.5 37.96C242.21 37.56 242.14 36.9 242.33 36.49C243.42 34.81 244.45 32.84 245.49 30.64C248.84 23.56 249.71 18.7 250.29 14.63C250.37 14.47 250.41 14.39 250.44 14.31C250.6 13.98 250.95 13.85 251.25 14.02Z" id="b7I9xz9Z5"></path><path d="M263.4 -17.9C263.73 -18.18 264.17 -18.11 264.52 -17.65C264.78 -17.17 264.78 -16.57 264.48 -16.14C262.67 -14.34 260.21 -11.37 257.36 -5.35C255.24 -0.87 253.94 3.09 253.11 7.27C253.05 7.81 252.62 8.1 252.19 7.8C251.78 7.65 251.5 7.02 251.67 6.47C252.44 2 253.79 -2.04 255.98 -6.68C258.95 -12.95 261.55 -16.01 263.4 -17.9Z" id="ePbKPNh4p"></path><path d="M268.39 -22.57C270.71 -24.84 273.27 -27.82 276.31 -34.25C276.54 -34.74 276.96 -34.81 277.35 -34.43C277.75 -34.05 277.86 -33.47 277.63 -32.98C274.46 -26.31 271.76 -23.23 269.4 -20.88C269.08 -20.6 268.64 -20.67 268.32 -21.22C268.1 -21.55 268.05 -22.07 268.21 -22.39C268.25 -22.47 268.28 -22.56 268.39 -22.57Z" id="c4dKupVyQ"></path><path d="M242.01 72.73C245.81 64.9 248.87 62.28 251.83 59.68C253.77 58 255.57 56.42 257.72 53.51C257.98 53.16 258.46 53.16 258.81 53.62C259.1 54.02 259.17 54.68 258.88 55.1C256.65 58.18 254.71 59.86 252.77 61.54C249.75 64.08 246.93 66.58 243.28 74.08C243.28 74.08 243.28 74.08 243.25 74.17C243.01 74.65 242.56 74.81 242.17 74.43C241.77 74.05 241.66 73.47 241.89 72.98C241.89 72.98 241.89 72.98 241.89 72.98C241.93 72.9 241.97 72.81 241.97 72.81C241.98 72.8 242.01 72.74 242.01 72.73Z" id="d183UhrxNL"></path><path d="M266 37.43C266.37 37.66 266.61 38.37 266.48 38.84C265.65 41.6 264.58 44.48 263.11 47.57C262.46 48.95 261.77 50.19 261.13 51.35C260.9 51.84 260.42 51.85 260.06 51.38C259.71 50.92 259.6 50.34 259.9 49.92C260.54 48.76 261.18 47.6 261.8 46.3C263.19 43.37 264.22 40.57 265.01 37.9C265.05 37.82 265.05 37.82 265.09 37.73C265.28 37.33 265.64 37.19 266 37.43Z" id="c3AocKPy6F"></path><path d="M282.58 -5.05C282.9 -5.33 283.26 -5.69 283.59 -5.97C283.91 -6.25 284.42 -6.12 284.67 -5.64C284.92 -5.16 284.89 -4.48 284.57 -4.2C284.2 -3.84 283.88 -3.56 283.52 -3.19C280.34 -0.33 277.31 2.43 273.53 10.41C270.06 17.74 269.24 22.52 268.59 27.71C268.53 28.24 268.1 28.54 267.7 28.39C267.29 28.23 267.02 27.61 267.08 27.07C267.66 21.59 268.61 16.57 272.19 9C276.12 0.69 279.4 -2.19 282.58 -5.05Z" id="a3Ii5AEGX"></path><path d="M287.08 -9.71C288.96 -12.06 290.68 -14.89 292.46 -18.64C292.69 -19.13 293.1 -19.2 293.5 -18.82C293.89 -18.44 294 -17.86 293.77 -17.37C291.92 -13.46 290.15 -10.54 288.14 -8.1C287.88 -7.76 287.33 -7.81 287.08 -8.29C286.86 -8.63 286.81 -9.14 287.01 -9.55C287.04 -9.63 287.07 -9.68 287.08 -9.71Z" id="b1iZZEXql"></path></defs><g><g><g><use xlink:href="#b32mvCPeSt" opacity="1" fill="#ff8a65" fill-opacity="1"></use><g><use xlink:href="#b32mvCPeSt" opacity="1" fill-opacity="0" stroke="#000000" stroke-width="1" stroke-opacity="0"></use></g></g><g><use xlink:href="#f1NsTYWWfy" opacity="1" fill="#ff8a65" fill-opacity="1"></use><g><use xlink:href="#f1NsTYWWfy" opacity="1" fill-opacity="0" stroke="#000000" stroke-width="1" stroke-opacity="0"></use></g></g><g><use xlink:href="#ckhY5V4az" opacity="1" fill="#000000" fill-opacity="1"></use><g><use xlink:href="#ckhY5V4az" opacity="1" fill-opacity="0" stroke="#000000" stroke-width="1" stroke-opacity="0"></use></g></g><g><use xlink:href="#aHMZY7f2K" opacity="1" fill="#000000" fill-opacity="1"></use><g><use xlink:href="#aHMZY7f2K" opacity="1" fill-opacity="0" stroke="#000000" stroke-width="1" stroke-opacity="0"></use></g></g><g><use xlink:href="#bjkn0UzO" opacity="1" fill="#000000" fill-opacity="1"></use><g><use xlink:href="#bjkn0UzO" opacity="1" fill-opacity="0" stroke="#000000" stroke-width="1" stroke-opacity="0"></use></g></g><g><use xlink:href="#bXgSwqnQ" opacity="1" fill="#000000" fill-opacity="1"></use><g><use xlink:href="#bXgSwqnQ" opacity="1" fill-opacity="0" stroke="#000000" stroke-width="1" stroke-opacity="0"></use></g></g><g><use xlink:href="#b5NPSryxN" opacity="1" fill="#000000" fill-opacity="1"></use><g><use xlink:href="#b5NPSryxN" opacity="1" fill-opacity="0" stroke="#000000" stroke-width="1" stroke-opacity="0"></use></g></g><g><use xlink:href="#a15bANkSIy" opacity="1" fill="#000000" fill-opacity="1"></use><g><use xlink:href="#a15bANkSIy" opacity="1" fill-opacity="0" stroke="#000000" stroke-width="1" stroke-opacity="0"></use></g></g><g><use xlink:href="#b3sXIw6HEB" opacity="1" fill="#000000" fill-opacity="1"></use><g><use xlink:href="#b3sXIw6HEB" opacity="1" fill-opacity="0" stroke="#000000" stroke-width="1" stroke-opacity="0"></use></g></g><g><use xlink:href="#b2ZVPqtzoA" opacity="1" fill="#000000" fill-opacity="1"></use><g><use xlink:href="#b2ZVPqtzoA" opacity="1" fill-opacity="0" stroke="#000000" stroke-width="1" stroke-opacity="0"></use></g></g><g><use xlink:href="#a2EcuBSDR" opacity="1" fill="#000000" fill-opacity="1"></use><g><use xlink:href="#a2EcuBSDR" opacity="1" fill-opacity="0" stroke="#000000" stroke-width="1" stroke-opacity="0"></use></g></g><g><use xlink:href="#b3WUmY8HsD" opacity="1" fill="#000000" fill-opacity="1"></use><g><use xlink:href="#b3WUmY8HsD" opacity="1" fill-opacity="0" stroke="#000000" stroke-width="1" stroke-opacity="0"></use></g></g><g><use xlink:href="#ak7qetlYc" opacity="1" fill="#000000" fill-opacity="1"></use><g><use xlink:href="#ak7qetlYc" opacity="1" fill-opacity="0" stroke="#000000" stroke-width="1" stroke-opacity="0"></use></g></g><g><use xlink:href="#c4DEbrGn2y" opacity="1" fill="#000000" fill-opacity="1"></use><g><use xlink:href="#c4DEbrGn2y" opacity="1" fill-opacity="0" stroke="#000000" stroke-width="1" stroke-opacity="0"></use></g></g><g><use xlink:href="#a2vwgcBV57" opacity="1" fill="#ff8a65" fill-opacity="1"></use><g><use xlink:href="#a2vwgcBV57" opacity="1" fill-opacity="0" stroke="#000000" stroke-width="1" stroke-opacity="0"></use></g></g><g><use xlink:href="#b6P1V4hQp" opacity="1" fill="#ff8a65" fill-opacity="1"></use><g><use xlink:href="#b6P1V4hQp" opacity="1" fill-opacity="0" stroke="#000000" stroke-width="1" stroke-opacity="0"></use></g></g><g><use xlink:href="#b3MD7XYRRQ" opacity="1" fill="#000000" fill-opacity="1"></use><g><use xlink:href="#b3MD7XYRRQ" opacity="1" fill-opacity="0" stroke="#000000" stroke-width="1" stroke-opacity="0"></use></g></g><g><use xlink:href="#aKThM5rGF" opacity="1" fill="#000000" fill-opacity="1"></use><g><use xlink:href="#aKThM5rGF" opacity="1" fill-opacity="0" stroke="#000000" stroke-width="1" stroke-opacity="0"></use></g></g><g><use xlink:href="#c1odBTQxgY" opacity="1" fill="#000000" fill-opacity="1"></use><g><use xlink:href="#c1odBTQxgY" opacity="1" fill-opacity="0" stroke="#000000" stroke-width="1" stroke-opacity="0"></use></g></g><g><use xlink:href="#cAl0ULUug" opacity="1" fill="#000000" fill-opacity="1"></use><g><use xlink:href="#cAl0ULUug" opacity="1" fill-opacity="0" stroke="#000000" stroke-width="1" stroke-opacity="0"></use></g></g><g><use xlink:href="#a7724ru7al" opacity="1" fill="#000000" fill-opacity="1"></use><g><use xlink:href="#a7724ru7al" opacity="1" fill-opacity="0" stroke="#000000" stroke-width="1" stroke-opacity="0"></use></g></g><g><use xlink:href="#k5S2jydl02" opacity="1" fill="#000000" fill-opacity="1"></use><g><use xlink:href="#k5S2jydl02" opacity="1" fill-opacity="0" stroke="#000000" stroke-width="1" stroke-opacity="0"></use></g></g><g><use xlink:href="#cDabE9ikR" opacity="1" fill="#000000" fill-opacity="1"></use><g><use xlink:href="#cDabE9ikR" opacity="1" fill-opacity="0" stroke="#000000" stroke-width="1" stroke-opacity="0"></use></g></g><g><use xlink:href="#h2FV777aT" opacity="1" fill="#000000" fill-opacity="1"></use><g><use xlink:href="#h2FV777aT" opacity="1" fill-opacity="0" stroke="#000000" stroke-width="1" stroke-opacity="0"></use></g></g><g><use xlink:href="#d2OllbyCsk" opacity="1" fill="#000000" fill-opacity="1"></use><g><use xlink:href="#d2OllbyCsk" opacity="1" fill-opacity="0" stroke="#000000" stroke-width="1" stroke-opacity="0"></use></g></g><g><use xlink:href="#c3T3v7OIpy" opacity="1" fill="#000000" fill-opacity="1"></use><g><use xlink:href="#c3T3v7OIpy" opacity="1" fill-opacity="0" stroke="#000000" stroke-width="1" stroke-opacity="0"></use></g></g><g><use xlink:href="#a1ohrLYIsK" opacity="1" fill="#000000" fill-opacity="1"></use><g><use xlink:href="#a1ohrLYIsK" opacity="1" fill-opacity="0" stroke="#000000" stroke-width="1" stroke-opacity="0"></use></g></g><g><use xlink:href="#g9jWKx5gI" opacity="1" fill="#000000" fill-opacity="1"></use><g><use xlink:href="#g9jWKx5gI" opacity="1" fill-opacity="0" stroke="#000000" stroke-width="1" stroke-opacity="0"></use></g></g><g><use xlink:href="#j1tBsPYON0" opacity="1" fill="#ff8a65" fill-opacity="1"></use><g><use xlink:href="#j1tBsPYON0" opacity="1" fill-opacity="0" stroke="#000000" stroke-width="1" stroke-opacity="0"></use></g></g><g><use xlink:href="#h49Saem5Mw" opacity="1" fill="#ff8a65" fill-opacity="1"></use><g><use xlink:href="#h49Saem5Mw" opacity="1" fill-opacity="0" stroke="#000000" stroke-width="1" stroke-opacity="0"></use></g></g><g><use xlink:href="#bcbsGA0Hu" opacity="1" fill="#000000" fill-opacity="1"></use><g><use xlink:href="#bcbsGA0Hu" opacity="1" fill-opacity="0" stroke="#000000" stroke-width="1" stroke-opacity="0"></use></g></g><g><use xlink:href="#bnUPp0Ln8" opacity="1" fill="#000000" fill-opacity="1"></use><g><use xlink:href="#bnUPp0Ln8" opacity="1" fill-opacity="0" stroke="#000000" stroke-width="1" stroke-opacity="0"></use></g></g><g><use xlink:href="#axdoJNYBS" opacity="1" fill="#000000" fill-opacity="1"></use><g><use xlink:href="#axdoJNYBS" opacity="1" fill-opacity="0" stroke="#000000" stroke-width="1" stroke-opacity="0"></use></g></g><g><use xlink:href="#k3femMio48" opacity="1" fill="#000000" fill-opacity="1"></use><g><use xlink:href="#k3femMio48" opacity="1" fill-opacity="0" stroke="#000000" stroke-width="1" stroke-opacity="0"></use></g></g><g><use xlink:href="#aBq8eX13g" opacity="1" fill="#000000" fill-opacity="1"></use><g><use xlink:href="#aBq8eX13g" opacity="1" fill-opacity="0" stroke="#000000" stroke-width="1" stroke-opacity="0"></use></g></g><g><use xlink:href="#b3AHkMiV1t" opacity="1" fill="#000000" fill-opacity="1"></use><g><use xlink:href="#b3AHkMiV1t" opacity="1" fill-opacity="0" stroke="#000000" stroke-width="1" stroke-opacity="0"></use></g></g><g><use xlink:href="#c1en95eyYJ" opacity="1" fill="#000000" fill-opacity="1"></use><g><use xlink:href="#c1en95eyYJ" opacity="1" fill-opacity="0" stroke="#000000" stroke-width="1" stroke-opacity="0"></use></g></g><g><use xlink:href="#a4JLWUg9uL" opacity="1" fill="#000000" fill-opacity="1"></use><g><use xlink:href="#a4JLWUg9uL" opacity="1" fill-opacity="0" stroke="#000000" stroke-width="1" stroke-opacity="0"></use></g></g><g><use xlink:href="#b1ZQacf7dg" opacity="1" fill="#000000" fill-opacity="1"></use><g><use xlink:href="#b1ZQacf7dg" opacity="1" fill-opacity="0" stroke="#000000" stroke-width="1" stroke-opacity="0"></use></g></g><g><use xlink:href="#bDtPV4mRV" opacity="1" fill="#000000" fill-opacity="1"></use><g><use xlink:href="#bDtPV4mRV" opacity="1" fill-opacity="0" stroke="#000000" stroke-width="1" stroke-opacity="0"></use></g></g><g><use xlink:href="#bq7EktcAt" opacity="1" fill="#000000" fill-opacity="1"></use><g><use xlink:href="#bq7EktcAt" opacity="1" fill-opacity="0" stroke="#000000" stroke-width="1" stroke-opacity="0"></use></g></g><g><use xlink:href="#a2tpPIwjWK" opacity="1" fill="#000000" fill-opacity="1"></use><g><use xlink:href="#a2tpPIwjWK" opacity="1" fill-opacity="0" stroke="#000000" stroke-width="1" stroke-opacity="0"></use></g></g><g><use xlink:href="#b6SrshnPx" opacity="1" fill="#ff8a65" fill-opacity="1"></use><g><use xlink:href="#b6SrshnPx" opacity="1" fill-opacity="0" stroke="#000000" stroke-width="1" stroke-opacity="0"></use></g></g><g><use xlink:href="#b1Ky47jBHc" opacity="1" fill="#ff8a65" fill-opacity="1"></use><g><use xlink:href="#b1Ky47jBHc" opacity="1" fill-opacity="0" stroke="#000000" stroke-width="1" stroke-opacity="0"></use></g></g><g><use xlink:href="#b969IEQp68" opacity="1" fill="#000000" fill-opacity="1"></use><g><use xlink:href="#b969IEQp68" opacity="1" fill-opacity="0" stroke="#000000" stroke-width="1" stroke-opacity="0"></use></g></g><g><use xlink:href="#d8vim308C" opacity="1" fill="#000000" fill-opacity="1"></use><g><use xlink:href="#d8vim308C" opacity="1" fill-opacity="0" stroke="#000000" stroke-width="1" stroke-opacity="0"></use></g></g><g><use xlink:href="#a4zwi75cVr" opacity="1" fill="#000000" fill-opacity="1"></use><g><use xlink:href="#a4zwi75cVr" opacity="1" fill-opacity="0" stroke="#000000" stroke-width="1" stroke-opacity="0"></use></g></g><g><use xlink:href="#l2SfUy5GXd" opacity="1" fill="#000000" fill-opacity="1"></use><g><use xlink:href="#l2SfUy5GXd" opacity="1" fill-opacity="0" stroke="#000000" stroke-width="1" stroke-opacity="0"></use></g></g><g><use xlink:href="#acsb0fhMo" opacity="1" fill="#000000" fill-opacity="1"></use><g><use xlink:href="#acsb0fhMo" opacity="1" fill-opacity="0" stroke="#000000" stroke-width="1" stroke-opacity="0"></use></g></g><g><use xlink:href="#dqRiy9WOY" opacity="1" fill="#000000" fill-opacity="1"></use><g><use xlink:href="#dqRiy9WOY" opacity="1" fill-opacity="0" stroke="#000000" stroke-width="1" stroke-opacity="0"></use></g></g><g><use xlink:href="#aw9phGsVv" opacity="1" fill="#000000" fill-opacity="1"></use><g><use xlink:href="#aw9phGsVv" opacity="1" fill-opacity="0" stroke="#000000" stroke-width="1" stroke-opacity="0"></use></g></g><g><use xlink:href="#dQrUIGWum" opacity="1" fill="#000000" fill-opacity="1"></use><g><use xlink:href="#dQrUIGWum" opacity="1" fill-opacity="0" stroke="#000000" stroke-width="1" stroke-opacity="0"></use></g></g><g><use xlink:href="#bc1e5NdRz" opacity="1" fill="#000000" fill-opacity="1"></use><g><use xlink:href="#bc1e5NdRz" opacity="1" fill-opacity="0" stroke="#000000" stroke-width="1" stroke-opacity="0"></use></g></g><g><use xlink:href="#b2a318pePL" opacity="1" fill="#000000" fill-opacity="1"></use><g><use xlink:href="#b2a318pePL" opacity="1" fill-opacity="0" stroke="#000000" stroke-width="1" stroke-opacity="0"></use></g></g><g><use xlink:href="#e6mU5U8kU" opacity="1" fill="#000000" fill-opacity="1"></use><g><use xlink:href="#e6mU5U8kU" opacity="1" fill-opacity="0" stroke="#000000" stroke-width="1" stroke-opacity="0"></use></g></g><g><use xlink:href="#b2LCpAc8w" opacity="1" fill="#000000" fill-opacity="1"></use><g><use xlink:href="#b2LCpAc8w" opacity="1" fill-opacity="0" stroke="#000000" stroke-width="1" stroke-opacity="0"></use></g></g><g><use xlink:href="#a59a3m3Sb8" opacity="1" fill="#ff8a65" fill-opacity="1"></use><g><use xlink:href="#a59a3m3Sb8" opacity="1" fill-opacity="0" stroke="#000000" stroke-width="1" stroke-opacity="0"></use></g></g><g><use xlink:href="#c4FAwWOm6d" opacity="1" fill="#ff8a65" fill-opacity="1"></use><g><use xlink:href="#c4FAwWOm6d" opacity="1" fill-opacity="0" stroke="#000000" stroke-width="1" stroke-opacity="0"></use></g></g><g><use xlink:href="#b1Tb7ooUzy" opacity="1" fill="#000000" fill-opacity="1"></use><g><use xlink:href="#b1Tb7ooUzy" opacity="1" fill-opacity="0" stroke="#000000" stroke-width="1" stroke-opacity="0"></use></g></g><g><use xlink:href="#d1DaAl2Q6" opacity="1" fill="#000000" fill-opacity="1"></use><g><use xlink:href="#d1DaAl2Q6" opacity="1" fill-opacity="0" stroke="#000000" stroke-width="1" stroke-opacity="0"></use></g></g><g><use xlink:href="#e3UWaF10mu" opacity="1" fill="#000000" fill-opacity="1"></use><g><use xlink:href="#e3UWaF10mu" opacity="1" fill-opacity="0" stroke="#000000" stroke-width="1" stroke-opacity="0"></use></g></g><g><use xlink:href="#f27XD5fdzz" opacity="1" fill="#000000" fill-opacity="1"></use><g><use xlink:href="#f27XD5fdzz" opacity="1" fill-opacity="0" stroke="#000000" stroke-width="1" stroke-opacity="0"></use></g></g><g><use xlink:href="#a3lW4vMAx4" opacity="1" fill="#000000" fill-opacity="1"></use><g><use xlink:href="#a3lW4vMAx4" opacity="1" fill-opacity="0" stroke="#000000" stroke-width="1" stroke-opacity="0"></use></g></g><g><use xlink:href="#d2a4W2S0tP" opacity="1" fill="#000000" fill-opacity="1"></use><g><use xlink:href="#d2a4W2S0tP" opacity="1" fill-opacity="0" stroke="#000000" stroke-width="1" stroke-opacity="0"></use></g></g><g><use xlink:href="#a626BB7sIQ" opacity="1" fill="#000000" fill-opacity="1"></use><g><use xlink:href="#a626BB7sIQ" opacity="1" fill-opacity="0" stroke="#000000" stroke-width="1" stroke-opacity="0"></use></g></g><g><use xlink:href="#cFno3WnbA" opacity="1" fill="#000000" fill-opacity="1"></use><g><use xlink:href="#cFno3WnbA" opacity="1" fill-opacity="0" stroke="#000000" stroke-width="1" stroke-opacity="0"></use></g></g><g><use xlink:href="#aliiq658Q" opacity="1" fill="#000000" fill-opacity="1"></use><g><use xlink:href="#aliiq658Q" opacity="1" fill-opacity="0" stroke="#000000" stroke-width="1" stroke-opacity="0"></use></g></g><g><use xlink:href="#b10iBnwgrZ" opacity="1" fill="#000000" fill-opacity="1"></use><g><use xlink:href="#b10iBnwgrZ" opacity="1" fill-opacity="0" stroke="#000000" stroke-width="1" stroke-opacity="0"></use></g></g><g><use xlink:href="#hPDmMbMYI" opacity="1" fill="#000000" fill-opacity="1"></use><g><use xlink:href="#hPDmMbMYI" opacity="1" fill-opacity="0" stroke="#000000" stroke-width="1" stroke-opacity="0"></use></g></g><g><use xlink:href="#bj5RqSAV1" opacity="1" fill="#000000" fill-opacity="1"></use><g><use xlink:href="#bj5RqSAV1" opacity="1" fill-opacity="0" stroke="#000000" stroke-width="1" stroke-opacity="0"></use></g></g><g><use xlink:href="#dQez0D2o" opacity="1" fill="#ff8a65" fill-opacity="1"></use><g><use xlink:href="#dQez0D2o" opacity="1" fill-opacity="0" stroke="#000000" stroke-width="1" stroke-opacity="0"></use></g></g><g><use xlink:href="#a5AuhJp8a" opacity="1" fill="#ff8a65" fill-opacity="1"></use><g><use xlink:href="#a5AuhJp8a" opacity="1" fill-opacity="0" stroke="#000000" stroke-width="1" stroke-opacity="0"></use></g></g><g><use xlink:href="#cRYOjjaWz" opacity="1" fill="#000000" fill-opacity="1"></use><g><use xlink:href="#cRYOjjaWz" opacity="1" fill-opacity="0" stroke="#000000" stroke-width="1" stroke-opacity="0"></use></g></g><g><use xlink:href="#d1ujcREBTs" opacity="1" fill="#000000" fill-opacity="1"></use><g><use xlink:href="#d1ujcREBTs" opacity="1" fill-opacity="0" stroke="#000000" stroke-width="1" stroke-opacity="0"></use></g></g><g><use xlink:href="#c3Zo24OFtB" opacity="1" fill="#000000" fill-opacity="1"></use><g><use xlink:href="#c3Zo24OFtB" opacity="1" fill-opacity="0" stroke="#000000" stroke-width="1" stroke-opacity="0"></use></g></g><g><use xlink:href="#a1A15cYsG2" opacity="1" fill="#000000" fill-opacity="1"></use><g><use xlink:href="#a1A15cYsG2" opacity="1" fill-opacity="0" stroke="#000000" stroke-width="1" stroke-opacity="0"></use></g></g><g><use xlink:href="#a3dqyh0Gb" opacity="1" fill="#000000" fill-opacity="1"></use><g><use xlink:href="#a3dqyh0Gb" opacity="1" fill-opacity="0" stroke="#000000" stroke-width="1" stroke-opacity="0"></use></g></g><g><use xlink:href="#a15avcpX4c" opacity="1" fill="#000000" fill-opacity="1"></use><g><use xlink:href="#a15avcpX4c" opacity="1" fill-opacity="0" stroke="#000000" stroke-width="1" stroke-opacity="0"></use></g></g><g><use xlink:href="#eNzHSH5A" opacity="1" fill="#000000" fill-opacity="1"></use><g><use xlink:href="#eNzHSH5A" opacity="1" fill-opacity="0" stroke="#000000" stroke-width="1" stroke-opacity="0"></use></g></g><g><use xlink:href="#a4ZOHhDoxW" opacity="1" fill="#000000" fill-opacity="1"></use><g><use xlink:href="#a4ZOHhDoxW" opacity="1" fill-opacity="0" stroke="#000000" stroke-width="1" stroke-opacity="0"></use></g></g><g><use xlink:href="#cjN5FlIoL" opacity="1" fill="#000000" fill-opacity="1"></use><g><use xlink:href="#cjN5FlIoL" opacity="1" fill-opacity="0" stroke="#000000" stroke-width="1" stroke-opacity="0"></use></g></g><g><use xlink:href="#c7uAKjw9GW" opacity="1" fill="#000000" fill-opacity="1"></use><g><use xlink:href="#c7uAKjw9GW" opacity="1" fill-opacity="0" stroke="#000000" stroke-width="1" stroke-opacity="0"></use></g></g><g><use xlink:href="#boQTZIZ7q" opacity="1" fill="#000000" fill-opacity="1"></use><g><use xlink:href="#boQTZIZ7q" opacity="1" fill-opacity="0" stroke="#000000" stroke-width="1" stroke-opacity="0"></use></g></g><g><use xlink:href="#cRVFLLUWm" opacity="1" fill="#000000" fill-opacity="1"></use><g><use xlink:href="#cRVFLLUWm" opacity="1" fill-opacity="0" stroke="#000000" stroke-width="1" stroke-opacity="0"></use></g></g><g><use xlink:href="#a6gbr1r9z" opacity="1" fill="#ff8a65" fill-opacity="1"></use><g><use xlink:href="#a6gbr1r9z" opacity="1" fill-opacity="0" stroke="#000000" stroke-width="1" stroke-opacity="0"></use></g></g><g><use xlink:href="#b23RdIjFbZ" opacity="1" fill="#ff8a65" fill-opacity="1"></use><g><use xlink:href="#b23RdIjFbZ" opacity="1" fill-opacity="0" stroke="#000000" stroke-width="1" stroke-opacity="0"></use></g></g><g><use xlink:href="#g1BKlqK3tc" opacity="1" fill="#000000" fill-opacity="1"></use><g><use xlink:href="#g1BKlqK3tc" opacity="1" fill-opacity="0" stroke="#000000" stroke-width="1" stroke-opacity="0"></use></g></g><g><use xlink:href="#aDWRsJMrq" opacity="1" fill="#000000" fill-opacity="1"></use><g><use xlink:href="#aDWRsJMrq" opacity="1" fill-opacity="0" stroke="#000000" stroke-width="1" stroke-opacity="0"></use></g></g><g><use xlink:href="#a2qQnXkNLK" opacity="1" fill="#000000" fill-opacity="1"></use><g><use xlink:href="#a2qQnXkNLK" opacity="1" fill-opacity="0" stroke="#000000" stroke-width="1" stroke-opacity="0"></use></g></g><g><use xlink:href="#b1lMWzMNt4" opacity="1" fill="#000000" fill-opacity="1"></use><g><use xlink:href="#b1lMWzMNt4" opacity="1" fill-opacity="0" stroke="#000000" stroke-width="1" stroke-opacity="0"></use></g></g><g><use xlink:href="#ajarrry3" opacity="1" fill="#000000" fill-opacity="1"></use><g><use xlink:href="#ajarrry3" opacity="1" fill-opacity="0" stroke="#000000" stroke-width="1" stroke-opacity="0"></use></g></g><g><use xlink:href="#a1hjClbCJJ" opacity="1" fill="#000000" fill-opacity="1"></use><g><use xlink:href="#a1hjClbCJJ" opacity="1" fill-opacity="0" stroke="#000000" stroke-width="1" stroke-opacity="0"></use></g></g><g><use xlink:href="#b3V33pYqvs" opacity="1" fill="#000000" fill-opacity="1"></use><g><use xlink:href="#b3V33pYqvs" opacity="1" fill-opacity="0" stroke="#000000" stroke-width="1" stroke-opacity="0"></use></g></g><g><use xlink:href="#bHpYSrGxF" opacity="1" fill="#000000" fill-opacity="1"></use><g><use xlink:href="#bHpYSrGxF" opacity="1" fill-opacity="0" stroke="#000000" stroke-width="1" stroke-opacity="0"></use></g></g><g><use xlink:href="#a30UDqP6Ir" opacity="1" fill="#000000" fill-opacity="1"></use><g><use xlink:href="#a30UDqP6Ir" opacity="1" fill-opacity="0" stroke="#000000" stroke-width="1" stroke-opacity="0"></use></g></g><g><use xlink:href="#fOojlGpJu" opacity="1" fill="#000000" fill-opacity="1"></use><g><use xlink:href="#fOojlGpJu" opacity="1" fill-opacity="0" stroke="#000000" stroke-width="1" stroke-opacity="0"></use></g></g><g><use xlink:href="#gMMTOudqO" opacity="1" fill="#000000" fill-opacity="1"></use><g><use xlink:href="#gMMTOudqO" opacity="1" fill-opacity="0" stroke="#000000" stroke-width="1" stroke-opacity="0"></use></g></g><g><use xlink:href="#dNJzQIs2T" opacity="1" fill="#000000" fill-opacity="1"></use><g><use xlink:href="#dNJzQIs2T" opacity="1" fill-opacity="0" stroke="#000000" stroke-width="1" stroke-opacity="0"></use></g></g><g><use xlink:href="#a26VDyW7c0" opacity="1" fill="#ff8a65" fill-opacity="1"></use><g><use xlink:href="#a26VDyW7c0" opacity="1" fill-opacity="0" stroke="#000000" stroke-width="1" stroke-opacity="0"></use></g></g><g><use xlink:href="#anjqUqRos" opacity="1" fill="#ff8a65" fill-opacity="1"></use><g><use xlink:href="#anjqUqRos" opacity="1" fill-opacity="0" stroke="#000000" stroke-width="1" stroke-opacity="0"></use></g></g><g><use xlink:href="#b23dqeCO2h" opacity="1" fill="#000000" fill-opacity="1"></use><g><use xlink:href="#b23dqeCO2h" opacity="1" fill-opacity="0" stroke="#000000" stroke-width="1" stroke-opacity="0"></use></g></g><g><use xlink:href="#a3kxM1jxF" opacity="1" fill="#000000" fill-opacity="1"></use><g><use xlink:href="#a3kxM1jxF" opacity="1" fill-opacity="0" stroke="#000000" stroke-width="1" stroke-opacity="0"></use></g></g><g><use xlink:href="#eSXWcX93o" opacity="1" fill="#000000" fill-opacity="1"></use><g><use xlink:href="#eSXWcX93o" opacity="1" fill-opacity="0" stroke="#000000" stroke-width="1" stroke-opacity="0"></use></g></g><g><use xlink:href="#bAIfvMBNb" opacity="1" fill="#000000" fill-opacity="1"></use><g><use xlink:href="#bAIfvMBNb" opacity="1" fill-opacity="0" stroke="#000000" stroke-width="1" stroke-opacity="0"></use></g></g><g><use xlink:href="#c1mXG7JCJS" opacity="1" fill="#000000" fill-opacity="1"></use><g><use xlink:href="#c1mXG7JCJS" opacity="1" fill-opacity="0" stroke="#000000" stroke-width="1" stroke-opacity="0"></use></g></g><g><use xlink:href="#b7I9xz9Z5" opacity="1" fill="#000000" fill-opacity="1"></use><g><use xlink:href="#b7I9xz9Z5" opacity="1" fill-opacity="0" stroke="#000000" stroke-width="1" stroke-opacity="0"></use></g></g><g><use xlink:href="#ePbKPNh4p" opacity="1" fill="#000000" fill-opacity="1"></use><g><use xlink:href="#ePbKPNh4p" opacity="1" fill-opacity="0" stroke="#000000" stroke-width="1" stroke-opacity="0"></use></g></g><g><use xlink:href="#c4dKupVyQ" opacity="1" fill="#000000" fill-opacity="1"></use><g><use xlink:href="#c4dKupVyQ" opacity="1" fill-opacity="0" stroke="#000000" stroke-width="1" stroke-opacity="0"></use></g></g><g><use xlink:href="#d183UhrxNL" opacity="1" fill="#000000" fill-opacity="1"></use><g><use xlink:href="#d183UhrxNL" opacity="1" fill-opacity="0" stroke="#000000" stroke-width="1" stroke-opacity="0"></use></g></g><g><use xlink:href="#c3AocKPy6F" opacity="1" fill="#000000" fill-opacity="1"></use><g><use xlink:href="#c3AocKPy6F" opacity="1" fill-opacity="0" stroke="#000000" stroke-width="1" stroke-opacity="0"></use></g></g><g><use xlink:href="#a3Ii5AEGX" opacity="1" fill="#000000" fill-opacity="1"></use><g><use xlink:href="#a3Ii5AEGX" opacity="1" fill-opacity="0" stroke="#000000" stroke-width="1" stroke-opacity="0"></use></g></g><g><use xlink:href="#b1iZZEXql" opacity="1" fill="#000000" fill-opacity="1"></use><g><use xlink:href="#b1iZZEXql" opacity="1" fill-opacity="0" stroke="#000000" stroke-width="1" stroke-opacity="0"></use></g></g></g></g></svg>