<?xml version="1.0" encoding="UTF-8" standalone="no"?>
<!DOCTYPE svg PUBLIC "-//W3C//DTD SVG 1.1//EN" "http://www.w3.org/Graphics/SVG/1.1/DTD/svg11.dtd">
<svg version="1.1" xmlns="http://www.w3.org/2000/svg" xmlns:xlink="http://www.w3.org/1999/xlink" preserveAspectRatio="xMidYMid meet" viewBox="0 0 500 500" width="500" height="500"><defs><path d="M94.27 120.13C90.85 122.56 85.74 121.22 82.85 117.15C81.04 114.61 80.53 111.59 81.24 109.09C78.65 108.94 75.97 107.46 74.16 104.92C71.27 100.84 71.7 95.57 75.12 93.15C78.54 90.72 83.65 92.06 86.54 96.13C86.6 96.21 86.66 96.3 86.72 96.39C87.19 96.05 89.52 94.4 93.73 91.41L102.05 103.13C97.85 106.12 95.51 107.78 95.04 108.11C95.1 108.19 95.17 108.28 95.23 108.36C98.12 112.43 97.69 117.7 94.27 120.13Z" id="aXCOW0UBC"></path><path d="M91.01 102.42C91.07 102.51 91.13 102.6 91.19 102.68C91.66 102.35 93.99 100.69 98.2 97.71L93.73 91.41C89.52 94.4 87.19 96.05 86.72 96.39C86.66 96.3 86.6 96.21 86.54 96.13C83.65 92.05 78.54 90.72 75.12 93.15C71.7 95.57 71.27 100.84 74.16 104.92C74.96 106.04 75.93 106.96 76.99 107.64C76.21 104.44 77.12 101.2 79.59 99.44C83.01 97.02 88.12 98.35 91.01 102.42Z" id="a2QEwqCsl2"></path><path d="M132.34 98.39C129.1 100.64 125.22 101.44 121.32 100.96C113.94 100.05 106.9 101.81 101.26 105.81C101.26 105.81 101.21 105.85 101.2 105.85C100.92 106.05 100.49 105.94 100.26 105.61C100.19 105.51 99.85 105.04 99.24 104.18L91.82 93.72C91.21 92.86 90.87 92.39 90.8 92.29C90.56 91.95 90.6 91.52 90.88 91.32C90.88 91.32 90.88 91.32 90.88 91.32C96.53 87.31 100.57 81.28 102.13 74C102.97 70.08 105.05 66.62 108.33 64.29C116.28 58.65 128.21 61.82 134.85 71.41C141.35 80.79 140.22 92.92 132.34 98.39Z" id="d2jhuNfg2h"></path><path d="M115.3 74.11C112.02 76.44 109.4 79.14 107.65 81.79C104.41 86.69 99.5 91.51 93.86 95.51C93.83 95.54 93.66 95.66 93.35 95.88C91.82 93.73 90.97 92.53 90.8 92.29C90.57 91.95 90.6 91.52 90.88 91.32C90.88 91.32 90.88 91.32 90.88 91.32C96.53 87.31 100.57 81.28 102.13 74C102.97 70.08 105.05 66.62 108.33 64.29C116.21 58.7 128.01 61.77 134.68 71.16C131.86 67.19 123.18 68.52 115.3 74.11Z" id="f1E0BepYZH"></path><path d="M356.86 124.63C353.35 122.33 352.72 117.08 355.46 112.9C357.17 110.29 359.79 108.72 362.38 108.47C361.57 106 361.97 102.96 363.68 100.35C366.42 96.17 371.48 94.65 374.99 96.95C378.5 99.25 379.12 104.49 376.38 108.67C376.32 108.76 376.27 108.85 376.21 108.93C376.69 109.25 379.08 110.82 383.4 113.64L375.52 125.67C371.21 122.84 368.81 121.27 368.33 120.96C368.27 121.05 368.22 121.13 368.16 121.22C365.43 125.4 360.37 126.93 356.86 124.63Z" id="a3cBuSKgHl"></path><path d="M372.15 115.13C372.09 115.22 372.03 115.31 371.98 115.39C372.46 115.71 374.85 117.27 379.16 120.1L383.4 113.64C379.08 110.82 376.69 109.25 376.21 108.93C376.27 108.85 376.32 108.76 376.38 108.67C379.12 104.49 378.5 99.25 374.99 96.95C371.48 94.65 366.42 96.17 363.68 100.35C362.92 101.51 362.43 102.75 362.17 103.98C364.87 102.08 368.22 101.75 370.76 103.41C374.27 105.71 374.89 110.95 372.15 115.13Z" id="czC6vD5Pa"></path><path d="M390.99 152.14C387.72 149.94 385.56 146.62 384.57 142.81C382.73 135.61 378.53 129.7 372.74 125.91C372.74 125.91 372.68 125.87 372.68 125.87C372.39 125.68 372.34 125.24 372.56 124.9C372.63 124.8 372.95 124.31 373.52 123.44L380.55 112.7C381.13 111.82 381.45 111.34 381.51 111.24C381.74 110.89 382.15 110.77 382.45 110.96C382.45 110.96 382.45 110.96 382.45 110.96C388.23 114.75 395.33 116.31 402.67 115.11C406.63 114.46 410.61 115.14 413.97 117.34C422.13 122.68 423.53 134.95 417.03 144.62C410.66 154.1 398.96 157.47 390.99 152.14Z" id="c13ymXD7d"></path><path d="M407.37 127.41C404.01 125.21 400.54 123.75 397.44 123.09C391.69 121.87 385.41 119.05 379.62 115.26C379.59 115.24 379.41 115.13 379.1 114.92C380.55 112.71 381.35 111.48 381.51 111.24C381.74 110.89 382.16 110.77 382.45 110.96C382.45 110.96 382.45 110.96 382.45 110.96C388.23 114.75 395.33 116.31 402.67 115.11C406.63 114.46 410.61 115.14 413.97 117.34C422.06 122.64 423.5 134.74 417.19 144.37C419.86 140.3 415.46 132.71 407.37 127.41Z" id="b1gZXPV9jy"></path><path d="M295.14 359.34C294.91 355.15 298.77 351.53 303.75 351.26C306.87 351.09 309.7 352.26 311.43 354.19C312.94 352.08 315.62 350.6 318.73 350.43C323.72 350.15 327.95 353.33 328.18 357.51C328.41 361.7 324.56 365.31 319.57 365.59C319.47 365.6 319.36 365.6 319.26 365.6C319.29 366.18 319.45 369.04 319.73 374.18L305.38 374.98C305.1 369.83 304.94 366.97 304.91 366.4C304.8 366.41 304.7 366.41 304.59 366.42C299.61 366.69 295.38 363.53 295.14 359.34Z" id="b11CrUVyE3"></path><path d="M311.86 366.02C311.76 366.02 311.65 366.03 311.55 366.03C311.58 366.6 311.74 369.46 312.02 374.61L319.73 374.18C319.45 369.04 319.29 366.18 319.26 365.6C319.36 365.6 319.47 365.6 319.57 365.59C324.56 365.31 328.42 361.7 328.18 357.51C327.95 353.33 323.72 350.15 318.73 350.43C317.36 350.51 316.06 350.84 314.92 351.37C318.05 352.41 320.31 354.91 320.47 357.94C320.71 362.13 316.85 365.74 311.86 366.02Z" id="g58Yw9pCpM"></path><path d="M293.25 403.14C293.08 399.2 294.46 395.49 296.95 392.44C301.65 386.68 303.92 379.79 303.54 372.89C303.54 372.88 303.53 372.82 303.53 372.81C303.51 372.46 303.83 372.17 304.24 372.14C304.36 372.14 304.94 372.1 305.99 372.05L318.8 371.34C319.85 371.28 320.43 371.25 320.55 371.24C320.96 371.22 321.31 371.48 321.33 371.83C321.33 371.83 321.33 371.83 321.33 371.83C321.71 378.74 324.66 385.37 329.99 390.57C332.86 393.37 334.68 396.98 334.9 400.99C335.44 410.73 326.39 419.13 314.75 419.64C303.34 420.14 293.68 412.72 293.25 403.14Z" id="d2bVHAxR8k"></path><path d="M322.88 401.66C322.65 397.64 321.77 393.98 320.46 391.09C318.04 385.74 316.57 379.02 316.19 372.11C316.19 372.07 316.18 371.86 316.16 371.48C318.79 371.34 320.26 371.26 320.55 371.24C320.96 371.22 321.31 371.48 321.33 371.83C321.33 371.83 321.33 371.83 321.33 371.83C321.71 378.74 324.66 385.37 329.99 390.57C332.86 393.37 334.68 396.98 334.9 400.99C335.43 410.64 326.55 418.99 315.05 419.62C319.91 419.35 323.41 411.31 322.88 401.66Z" id="bGZdL1Wp3"></path><path d="M190.56 213.25C193.95 210.79 199.08 212.07 202.01 216.11C203.85 218.64 204.39 221.65 203.71 224.15C206.3 224.28 208.99 225.73 210.83 228.26C213.76 232.3 213.38 237.57 209.99 240.04C206.6 242.5 201.47 241.22 198.54 237.17C198.47 237.09 198.41 237 198.36 236.92C197.89 237.25 195.57 238.94 191.4 241.96L182.96 230.33C187.13 227.3 189.45 225.62 189.91 225.28C189.85 225.2 189.79 225.11 189.72 225.03C186.79 220.99 187.16 215.71 190.56 213.25Z" id="e158QvKZGP"></path><path d="M194 230.92C193.94 230.84 193.88 230.75 193.82 230.67C193.36 231 191.04 232.69 186.87 235.71L191.4 241.96C195.57 238.94 197.89 237.25 198.36 236.92C198.41 237 198.47 237.09 198.54 237.17C201.47 241.22 206.6 242.5 209.99 240.04C213.38 237.57 213.76 232.3 210.83 228.26C210.02 227.14 209.04 226.23 207.97 225.56C208.79 228.75 207.91 232 205.46 233.79C202.06 236.25 196.93 234.96 194 230.92Z" id="a62efNtFpc"></path><path d="M152.72 235.39C155.93 233.11 159.8 232.26 163.71 232.7C171.1 233.53 178.12 231.71 183.72 227.64C183.72 227.64 183.77 227.6 183.78 227.6C184.06 227.4 184.48 227.5 184.73 227.84C184.79 227.93 185.14 228.4 185.75 229.25L193.29 239.64C193.9 240.49 194.25 240.96 194.32 241.05C194.56 241.39 194.53 241.82 194.25 242.03C194.25 242.03 194.25 242.03 194.25 242.03C188.65 246.09 184.66 252.17 183.18 259.46C182.38 263.39 180.33 266.87 177.08 269.23C169.19 274.96 157.22 271.91 150.49 262.39C143.9 253.07 144.9 240.93 152.72 235.39Z" id="f6on5YWwR4"></path><path d="M170.01 259.48C173.26 257.12 175.86 254.4 177.58 251.73C180.76 246.79 185.62 241.92 191.22 237.86C191.26 237.84 191.43 237.71 191.73 237.49C193.28 239.63 194.14 240.82 194.32 241.05C194.56 241.39 194.53 241.82 194.25 242.03C194.25 242.03 194.25 242.03 194.25 242.03C188.65 246.09 184.66 252.17 183.18 259.46C182.38 263.39 180.33 266.87 177.08 269.23C169.25 274.91 157.43 271.96 150.66 262.64C153.52 266.58 162.18 265.16 170.01 259.48Z" id="eFAdiLFnX"></path><path d="M155.09 355.23C159.28 355.35 162.56 359.5 162.41 364.49C162.31 367.62 160.9 370.33 158.83 371.89C160.8 373.58 162.05 376.37 161.95 379.49C161.8 384.48 158.28 388.43 154.09 388.3C149.9 388.18 146.62 384.02 146.78 379.03C146.78 378.93 146.78 378.82 146.79 378.72C146.22 378.7 143.35 378.62 138.2 378.46L138.64 364.09C143.79 364.25 146.65 364.33 147.22 364.35C147.23 364.25 147.23 364.14 147.23 364.03C147.38 359.04 150.9 355.1 155.09 355.23Z" id="bZxwTdlfO"></path><path d="M147.01 371.31C147.01 371.21 147.02 371.1 147.02 371C146.45 370.98 143.59 370.9 138.43 370.74L138.2 378.46C143.35 378.62 146.22 378.7 146.79 378.72C146.78 378.82 146.78 378.93 146.78 379.03C146.62 384.03 149.9 388.18 154.09 388.3C158.28 388.43 161.8 384.48 161.95 379.49C161.99 378.11 161.77 376.8 161.34 375.61C160.03 378.64 157.35 380.68 154.32 380.58C150.13 380.46 146.86 376.31 147.01 371.31Z" id="d8fQ6oHTyA"></path><path d="M111.61 349.6C115.55 349.76 119.13 351.46 121.96 354.2C127.29 359.37 133.96 362.22 140.88 362.43C140.88 362.43 140.94 362.43 140.95 362.43C141.3 362.44 141.57 362.79 141.56 363.2C141.55 363.32 141.54 363.9 141.5 364.95L141.12 377.78C141.08 378.82 141.07 379.41 141.06 379.52C141.05 379.94 140.76 380.26 140.41 380.25C140.41 380.25 140.41 380.25 140.41 380.25C133.5 380.04 126.63 382.41 121 387.28C117.96 389.9 114.21 391.4 110.2 391.28C100.45 390.98 92.85 381.25 93.34 369.61C93.82 358.2 102.03 349.21 111.61 349.6Z" id="a26jHl8HVA"></path><path d="M110.56 379.24C114.58 379.37 118.3 378.8 121.29 377.74C126.83 375.78 133.65 374.9 140.57 375.11C140.61 375.11 140.82 375.11 141.2 375.13C141.12 377.76 141.07 379.23 141.06 379.52C141.05 379.94 140.76 380.26 140.41 380.25C140.41 380.25 140.41 380.25 140.41 380.25C133.5 380.04 126.63 382.41 121 387.28C117.96 389.9 114.21 391.4 110.19 391.28C100.53 390.99 92.98 381.42 93.33 369.91C93.18 374.77 100.9 378.95 110.56 379.24Z" id="b1qpG4Jm0z"></path><path d="M359.05 252.84C357.56 248.92 360.14 244.31 364.81 242.54C367.73 241.44 370.78 241.7 373.02 243.02C373.82 240.55 375.93 238.33 378.85 237.23C383.52 235.46 388.51 237.21 389.99 241.13C391.48 245.05 388.89 249.66 384.22 251.43C384.12 251.47 384.02 251.5 383.93 251.54C384.13 252.07 385.14 254.75 386.97 259.57L373.52 264.66C371.7 259.84 370.68 257.16 370.48 256.63C370.39 256.66 370.29 256.7 370.19 256.74C365.52 258.51 360.53 256.77 359.05 252.84Z" id="b3ExzaMKrc"></path><path d="M377 254.16C376.9 254.2 376.8 254.24 376.71 254.27C376.91 254.81 377.92 257.48 379.75 262.31L386.97 259.57C385.14 254.75 384.13 252.07 383.93 251.54C384.02 251.5 384.12 251.47 384.22 251.43C388.89 249.66 391.48 245.05 389.99 241.13C388.51 237.21 383.52 235.46 378.85 237.23C377.55 237.72 376.42 238.43 375.49 239.27C378.79 239.33 381.7 241.03 382.77 243.86C384.26 247.78 381.67 252.39 377 254.16Z" id="e2hGk4utSU"></path><path d="M370.46 295.17C369.11 291.47 369.31 287.51 370.76 283.85C373.5 276.95 373.58 269.69 371.14 263.23C371.13 263.22 371.11 263.16 371.11 263.15C370.99 262.83 371.2 262.45 371.59 262.3C371.69 262.26 372.24 262.05 373.22 261.68L385.22 257.14C386.2 256.77 386.75 256.56 386.86 256.52C387.24 256.37 387.66 256.52 387.78 256.84C387.78 256.84 387.78 256.84 387.78 256.84C390.23 263.31 395.04 268.75 401.69 272.1C405.28 273.9 408.1 276.79 409.52 280.55C412.97 289.67 406.89 300.41 395.94 304.41C385.21 308.33 373.76 304.17 370.46 295.17Z" id="cNdvLfqXc"></path><path d="M398.26 284.81C396.83 281.05 394.89 277.83 392.77 275.47C388.84 271.1 385.42 265.14 382.97 258.67C382.95 258.63 382.88 258.43 382.74 258.08C385.21 257.14 386.58 256.62 386.86 256.52C387.24 256.37 387.66 256.52 387.78 256.84C387.78 256.84 387.78 256.84 387.78 256.84C390.23 263.31 395.05 268.75 401.69 272.1C405.28 273.9 408.1 276.79 409.52 280.55C412.94 289.59 406.99 300.23 396.22 304.31C400.77 302.58 401.68 293.86 398.26 284.81Z" id="dCm2yIQX9"></path></defs><g><g><g><use xlink:href="#aXCOW0UBC" opacity="1" fill="#f2f2f2" fill-opacity="1"></use><g><use xlink:href="#aXCOW0UBC" opacity="1" fill-opacity="0" stroke="#000000" stroke-width="1" stroke-opacity="0"></use></g></g><g><use xlink:href="#a2QEwqCsl2" opacity="1" fill="#e6e6e6" fill-opacity="1"></use><g><use xlink:href="#a2QEwqCsl2" opacity="1" fill-opacity="0" stroke="#000000" stroke-width="1" stroke-opacity="0"></use></g></g><g><use xlink:href="#d2jhuNfg2h" opacity="1" fill="#f7b239" fill-opacity="1"></use><g><use xlink:href="#d2jhuNfg2h" opacity="1" fill-opacity="0" stroke="#000000" stroke-width="1" stroke-opacity="0"></use></g></g><g><use xlink:href="#f1E0BepYZH" opacity="1" fill="#e09b2d" fill-opacity="1"></use><g><use xlink:href="#f1E0BepYZH" opacity="1" fill-opacity="0" stroke="#000000" stroke-width="1" stroke-opacity="0"></use></g></g><g><use xlink:href="#a3cBuSKgHl" opacity="1" fill="#f2f2f2" fill-opacity="1"></use><g><use xlink:href="#a3cBuSKgHl" opacity="1" fill-opacity="0" stroke="#000000" stroke-width="1" stroke-opacity="0"></use></g></g><g><use xlink:href="#czC6vD5Pa" opacity="1" fill="#e6e6e6" fill-opacity="1"></use><g><use xlink:href="#czC6vD5Pa" opacity="1" fill-opacity="0" stroke="#000000" stroke-width="1" stroke-opacity="0"></use></g></g><g><use xlink:href="#c13ymXD7d" opacity="1" fill="#f7b239" fill-opacity="1"></use><g><use xlink:href="#c13ymXD7d" opacity="1" fill-opacity="0" stroke="#000000" stroke-width="1" stroke-opacity="0"></use></g></g><g><use xlink:href="#b1gZXPV9jy" opacity="1" fill="#e09b2d" fill-opacity="1"></use><g><use xlink:href="#b1gZXPV9jy" opacity="1" fill-opacity="0" stroke="#000000" stroke-width="1" stroke-opacity="0"></use></g></g><g><use xlink:href="#b11CrUVyE3" opacity="1" fill="#f2f2f2" fill-opacity="1"></use><g><use xlink:href="#b11CrUVyE3" opacity="1" fill-opacity="0" stroke="#000000" stroke-width="1" stroke-opacity="0"></use></g></g><g><use xlink:href="#g58Yw9pCpM" opacity="1" fill="#e6e6e6" fill-opacity="1"></use><g><use xlink:href="#g58Yw9pCpM" opacity="1" fill-opacity="0" stroke="#000000" stroke-width="1" stroke-opacity="0"></use></g></g><g><use xlink:href="#d2bVHAxR8k" opacity="1" fill="#f7b239" fill-opacity="1"></use><g><use xlink:href="#d2bVHAxR8k" opacity="1" fill-opacity="0" stroke="#000000" stroke-width="1" stroke-opacity="0"></use></g></g><g><use xlink:href="#bGZdL1Wp3" opacity="1" fill="#e09b2d" fill-opacity="1"></use><g><use xlink:href="#bGZdL1Wp3" opacity="1" fill-opacity="0" stroke="#000000" stroke-width="1" stroke-opacity="0"></use></g></g><g><use xlink:href="#e158QvKZGP" opacity="1" fill="#f2f2f2" fill-opacity="1"></use><g><use xlink:href="#e158QvKZGP" opacity="1" fill-opacity="0" stroke="#000000" stroke-width="1" stroke-opacity="0"></use></g></g><g><use xlink:href="#a62efNtFpc" opacity="1" fill="#e6e6e6" fill-opacity="1"></use><g><use xlink:href="#a62efNtFpc" opacity="1" fill-opacity="0" stroke="#000000" stroke-width="1" stroke-opacity="0"></use></g></g><g><use xlink:href="#f6on5YWwR4" opacity="1" fill="#f7b239" fill-opacity="1"></use><g><use xlink:href="#f6on5YWwR4" opacity="1" fill-opacity="0" stroke="#000000" stroke-width="1" stroke-opacity="0"></use></g></g><g><use xlink:href="#eFAdiLFnX" opacity="1" fill="#e09b2d" fill-opacity="1"></use><g><use xlink:href="#eFAdiLFnX" opacity="1" fill-opacity="0" stroke="#000000" stroke-width="1" stroke-opacity="0"></use></g></g><g><use xlink:href="#bZxwTdlfO" opacity="1" fill="#f2f2f2" fill-opacity="1"></use><g><use xlink:href="#bZxwTdlfO" opacity="1" fill-opacity="0" stroke="#000000" stroke-width="1" stroke-opacity="0"></use></g></g><g><use xlink:href="#d8fQ6oHTyA" opacity="1" fill="#e6e6e6" fill-opacity="1"></use><g><use xlink:href="#d8fQ6oHTyA" opacity="1" fill-opacity="0" stroke="#000000" stroke-width="1" stroke-opacity="0"></use></g></g><g><use xlink:href="#a26jHl8HVA" opacity="1" fill="#f7b239" fill-opacity="1"></use><g><use xlink:href="#a26jHl8HVA" opacity="1" fill-opacity="0" stroke="#000000" stroke-width="1" stroke-opacity="0"></use></g></g><g><use xlink:href="#b1qpG4Jm0z" opacity="1" fill="#e09b2d" fill-opacity="1"></use><g><use xlink:href="#b1qpG4Jm0z" opacity="1" fill-opacity="0" stroke="#000000" stroke-width="1" stroke-opacity="0"></use></g></g><g><use xlink:href="#b3ExzaMKrc" opacity="1" fill="#f2f2f2" fill-opacity="1"></use><g><use xlink:href="#b3ExzaMKrc" opacity="1" fill-opacity="0" stroke="#000000" stroke-width="1" stroke-opacity="0"></use></g></g><g><use xlink:href="#e2hGk4utSU" opacity="1" fill="#e6e6e6" fill-opacity="1"></use><g><use xlink:href="#e2hGk4utSU" opacity="1" fill-opacity="0" stroke="#000000" stroke-width="1" stroke-opacity="0"></use></g></g><g><use xlink:href="#cNdvLfqXc" opacity="1" fill="#f7b239" fill-opacity="1"></use><g><use xlink:href="#cNdvLfqXc" opacity="1" fill-opacity="0" stroke="#000000" stroke-width="1" stroke-opacity="0"></use></g></g><g><use xlink:href="#dCm2yIQX9" opacity="1" fill="#e09b2d" fill-opacity="1"></use><g><use xlink:href="#dCm2yIQX9" opacity="1" fill-opacity="0" stroke="#000000" stroke-width="1" stroke-opacity="0"></use></g></g></g></g></svg>