<?xml version="1.0" encoding="UTF-8" standalone="no"?>
<!DOCTYPE svg PUBLIC "-//W3C//DTD SVG 1.1//EN" "http://www.w3.org/Graphics/SVG/1.1/DTD/svg11.dtd">
<svg version="1.1" xmlns="http://www.w3.org/2000/svg" xmlns:xlink="http://www.w3.org/1999/xlink" preserveAspectRatio="xMidYMid meet" viewBox="0 0 500 500" width="500" height="500"><defs><path d="M336.91 149.53C338.17 150.42 338.46 152.17 337.57 153.42C336.59 154.79 335.3 156.61 334.32 157.97C333.43 159.23 331.68 159.52 330.43 158.62C323.44 153.64 304.77 140.32 297.78 135.33C296.53 134.44 296.23 132.69 297.13 131.44C298.1 130.07 299.4 128.25 300.38 126.89C301.27 125.63 303.02 125.34 304.27 126.24C311.25 131.22 329.93 144.55 336.91 149.53Z" id="cVzNb77Sf"></path><path d="M162.96 256.75C164.18 257.68 164.42 259.44 163.48 260.66C162.46 261.99 161.11 263.77 160.09 265.1C159.15 266.33 157.4 266.56 156.17 265.62C149.36 260.42 131.13 246.49 124.31 241.28C123.08 240.35 122.85 238.59 123.78 237.37C124.8 236.03 126.16 234.26 127.18 232.93C128.11 231.7 129.86 231.47 131.09 232.4C137.91 237.61 156.14 251.54 162.96 256.75Z" id="d4QlOlMa8u"></path><path d="M261.91 246.76C260.61 245.92 260.24 244.2 261.07 242.9C261.98 241.49 263.19 239.61 264.1 238.2C264.93 236.91 266.66 236.54 267.96 237.37C275.17 242.02 294.45 254.45 301.66 259.1C302.96 259.94 303.33 261.67 302.49 262.96C301.59 264.37 300.38 266.25 299.47 267.66C298.63 268.95 296.9 269.33 295.61 268.49C288.4 263.84 269.11 251.41 261.91 246.76Z" id="a19Is3jwd5"></path><path d="M164.75 386.76C163.21 386.6 162.1 385.23 162.26 383.69C162.44 382.03 162.67 379.8 162.84 378.14C163 376.6 164.38 375.49 165.91 375.65C174.44 376.55 197.26 378.94 205.79 379.83C207.33 379.99 208.44 381.37 208.28 382.9C208.11 384.57 207.87 386.79 207.7 388.46C207.54 389.99 206.16 391.1 204.63 390.94C196.1 390.05 173.28 387.66 164.75 386.76Z" id="gyYgzbsUa"></path><path d="M357.9 351.31C357.24 349.91 357.85 348.25 359.24 347.59C360.76 346.88 362.78 345.93 364.3 345.22C365.7 344.57 367.36 345.17 368.01 346.57C371.66 354.33 381.4 375.1 385.04 382.87C385.7 384.27 385.1 385.93 383.7 386.59C382.18 387.3 380.16 388.25 378.64 388.96C377.25 389.61 375.58 389.01 374.93 387.61C371.28 379.85 361.54 359.08 357.9 351.31Z" id="c3TGKcZsIN"></path><path d="M82.83 288.36C81.7 287.3 81.65 285.54 82.71 284.41C83.86 283.19 85.39 281.57 86.54 280.35C87.59 279.22 89.36 279.17 90.49 280.23C96.73 286.11 113.44 301.83 119.68 307.71C120.81 308.77 120.86 310.54 119.8 311.66C118.65 312.88 117.12 314.51 115.97 315.73C114.92 316.85 113.15 316.9 112.02 315.85C105.78 309.97 89.07 294.24 82.83 288.36Z" id="aziDupKEG"></path><path d="M144.54 126.06C143.21 125.28 142.76 123.57 143.54 122.23C144.39 120.79 145.52 118.86 146.36 117.41C147.14 116.08 148.85 115.63 150.18 116.41C157.59 120.75 177.39 132.33 184.79 136.67C186.13 137.44 186.57 139.16 185.79 140.49C184.95 141.93 183.82 143.86 182.97 145.31C182.19 146.64 180.48 147.09 179.15 146.31C171.75 141.98 151.95 130.39 144.54 126.06Z" id="a1SzBQVQQ"></path><path d="M384.55 173.46C383.01 173.3 381.9 171.93 382.06 170.39C382.24 168.72 382.47 166.5 382.64 164.84C382.8 163.3 384.18 162.19 385.71 162.35C394.24 163.24 417.06 165.63 425.59 166.53C427.13 166.69 428.24 168.06 428.08 169.6C427.91 171.26 427.67 173.49 427.5 175.15C427.34 176.69 425.96 177.8 424.43 177.64C415.9 176.75 393.08 174.35 384.55 173.46Z" id="a58okzHjdq"></path><path d="M442.48 274.6C444.02 274.66 445.23 275.96 445.17 277.5C445.11 279.17 445.03 281.4 444.97 283.08C444.91 284.62 443.62 285.83 442.08 285.77C433.51 285.46 410.58 284.64 402.01 284.33C400.46 284.27 399.26 282.98 399.31 281.44C399.37 279.76 399.45 277.53 399.52 275.85C399.57 274.31 400.87 273.11 402.41 273.16C410.98 273.47 433.91 274.3 442.48 274.6Z" id="j1BBZ9ifi4"></path><path d="M278.72 98.09C277.73 99.27 275.97 99.43 274.78 98.44C273.5 97.37 271.78 95.93 270.49 94.86C269.31 93.87 269.15 92.11 270.14 90.92C275.64 84.34 290.35 66.74 295.85 60.15C296.84 58.97 298.6 58.81 299.79 59.8C301.07 60.88 302.79 62.31 304.08 63.38C305.26 64.37 305.42 66.13 304.43 67.32C298.93 73.9 284.22 91.51 278.72 98.09Z" id="at5uk8gB"></path><path d="M56.81 225.39C57 226.92 55.92 228.32 54.39 228.51C52.73 228.73 50.51 229.01 48.85 229.22C47.32 229.41 45.92 228.33 45.73 226.8C44.64 218.29 41.74 195.53 40.66 187.02C40.46 185.49 41.55 184.09 43.08 183.9C44.74 183.69 46.96 183.41 48.62 183.19C50.15 183 51.55 184.08 51.74 185.61C52.83 194.12 55.72 216.88 56.81 225.39Z" id="bhZUkDPwI"></path><path d="M270.07 401.07C268.72 400.32 268.24 398.62 268.99 397.27C269.8 395.81 270.89 393.86 271.71 392.39C272.46 391.04 274.16 390.56 275.5 391.31C283 395.48 303.04 406.65 310.54 410.82C311.89 411.57 312.37 413.27 311.62 414.62C310.8 416.08 309.72 418.03 308.9 419.5C308.15 420.85 306.45 421.33 305.1 420.58C297.61 416.41 277.56 405.25 270.07 401.07Z" id="dMGQ9wbRe"></path><path d="M243.68 353.92C243.84 355.46 242.72 356.83 241.18 356.98C239.51 357.15 237.29 357.37 235.62 357.54C234.09 357.69 232.72 356.57 232.56 355.03C231.71 346.5 229.43 323.67 228.57 315.13C228.42 313.6 229.54 312.23 231.08 312.08C232.74 311.91 234.97 311.69 236.63 311.52C238.17 311.37 239.54 312.49 239.69 314.02C240.54 322.56 242.83 345.39 243.68 353.92Z" id="c1lzoqG61"></path><path d="M394.29 86.1C395.77 85.69 397.31 86.56 397.72 88.05C398.17 89.66 398.76 91.82 399.21 93.43C399.62 94.92 398.75 96.46 397.26 96.87C388.99 99.15 366.88 105.26 358.61 107.54C357.12 107.95 355.58 107.08 355.17 105.6C354.73 103.98 354.13 101.83 353.69 100.21C353.28 98.72 354.15 97.19 355.64 96.77C363.9 94.49 386.02 88.38 394.29 86.1Z" id="agHtx0hv3"></path><path d="M394.7 203.4C396.21 203.06 397.7 204.01 398.04 205.52C398.4 207.16 398.88 209.34 399.25 210.97C399.58 212.48 398.63 213.97 397.12 214.31C388.75 216.16 366.35 221.13 357.98 222.99C356.47 223.33 354.98 222.38 354.64 220.87C354.28 219.23 353.8 217.05 353.43 215.42C353.1 213.91 354.05 212.42 355.56 212.08C363.93 210.23 386.33 205.26 394.7 203.4Z" id="b1HKVCXR6Y"></path><path d="M218.07 105.44C217.33 104.08 215.64 103.58 214.28 104.32C212.81 105.12 210.85 106.19 209.37 106.99C208.02 107.72 207.52 109.42 208.25 110.78C212.35 118.31 223.32 138.47 227.42 146C228.15 147.36 229.85 147.86 231.21 147.12C232.68 146.32 234.64 145.25 236.11 144.45C237.47 143.71 237.97 142.02 237.23 140.66C233.13 133.13 222.17 112.97 218.07 105.44Z" id="ap1KwmYkV"></path><path d="M125.24 70.62C125.97 69.26 127.67 68.76 129.02 69.5C130.5 70.3 132.46 71.37 133.93 72.17C135.29 72.91 135.79 74.6 135.05 75.96C130.95 83.49 119.99 103.65 115.89 111.18C115.15 112.54 113.45 113.04 112.1 112.3C110.63 111.5 108.66 110.43 107.19 109.63C105.84 108.9 105.34 107.2 106.07 105.84C110.17 98.31 121.14 78.16 125.24 70.62Z" id="a3XpxZ0lR"></path><path d="M275.39 316.4C273.96 316.98 272.33 316.29 271.76 314.85C271.13 313.3 270.3 311.23 269.68 309.67C269.1 308.24 269.79 306.61 271.23 306.04C279.19 302.84 300.47 294.28 308.43 291.08C309.86 290.51 311.49 291.2 312.07 292.63C312.69 294.19 313.52 296.26 314.15 297.82C314.72 299.25 314.03 300.88 312.6 301.45C304.64 304.65 283.35 313.21 275.39 316.4Z" id="aIhBfeGHL"></path><path d="M100.68 354.79C99.39 353.96 99.01 352.23 99.85 350.93C100.76 349.52 101.97 347.65 102.88 346.24C103.71 344.94 105.44 344.57 106.74 345.4C113.95 350.05 133.23 362.49 140.44 367.14C141.74 367.97 142.11 369.7 141.27 371C140.36 372.4 139.15 374.28 138.25 375.69C137.41 376.99 135.68 377.36 134.38 376.52C127.17 371.88 107.89 359.44 100.68 354.79Z" id="a4OyX5RDwQ"></path><path d="M412.62 328.2C411.33 329.04 410.95 330.77 411.79 332.06C412.7 333.47 413.91 335.35 414.82 336.76C415.65 338.05 417.38 338.43 418.68 337.59C425.89 332.94 445.17 320.51 452.38 315.86C453.68 315.02 454.05 313.3 453.21 312C452.31 310.59 451.09 308.71 450.19 307.3C449.35 306.01 447.62 305.63 446.32 306.47C439.12 311.12 419.83 323.55 412.62 328.2Z" id="aZK047em8"></path><path d="M202.47 200.86C201.68 199.53 199.97 199.1 198.64 199.89C197.2 200.74 195.28 201.88 193.84 202.74C192.51 203.53 192.08 205.24 192.87 206.57C197.25 213.94 208.98 233.66 213.36 241.03C214.15 242.36 215.86 242.8 217.19 242.01C218.63 241.15 220.55 240.01 221.99 239.15C223.32 238.36 223.75 236.65 222.96 235.32C218.58 227.95 206.85 208.23 202.47 200.86Z" id="c22CrDMeQl"></path><path d="M229.12 435.19C228.33 436.52 226.61 436.95 225.29 436.16C223.85 435.31 221.93 434.16 220.49 433.31C219.16 432.52 218.72 430.81 219.51 429.48C223.9 422.11 235.62 402.39 240.01 395.01C240.8 393.69 242.51 393.25 243.84 394.04C245.28 394.9 247.2 396.04 248.64 396.9C249.96 397.68 250.4 399.4 249.61 400.72C245.23 408.1 233.5 427.82 229.12 435.19Z" id="a345WIFXU9"></path><path d="M223.11 289.03C222.32 290.35 220.61 290.79 219.29 290C217.84 289.14 215.92 288 214.48 287.14C213.16 286.36 212.72 284.64 213.51 283.32C217.9 275.94 229.62 256.22 234.01 248.85C234.79 247.52 236.51 247.09 237.83 247.88C239.27 248.73 241.2 249.88 242.64 250.73C243.96 251.52 244.4 253.23 243.61 254.56C239.22 261.93 227.5 281.65 223.11 289.03Z" id="cMaAowwrJ"></path><path d="M142.15 215.17C141.29 216.45 139.56 216.8 138.28 215.94C136.88 215.01 135.02 213.78 133.63 212.85C132.34 211.99 131.99 210.26 132.85 208.97C137.6 201.83 150.32 182.74 155.07 175.6C155.93 174.31 157.66 173.97 158.95 174.82C160.34 175.75 162.2 176.99 163.6 177.92C164.88 178.77 165.23 180.51 164.37 181.79C159.62 188.93 146.9 208.03 142.15 215.17Z" id="b26IYmnWGw"></path><path d="M194.16 82.26C192.63 82.49 191.2 81.45 190.97 79.92C190.71 78.27 190.37 76.06 190.12 74.4C189.88 72.88 190.93 71.45 192.45 71.22C200.93 69.91 223.6 66.4 232.08 65.09C233.6 64.86 235.03 65.9 235.27 67.43C235.52 69.08 235.86 71.29 236.12 72.95C236.35 74.47 235.31 75.9 233.79 76.13C225.31 77.44 202.63 80.95 194.16 82.26Z" id="b5wXUemVhr"></path><path d="M299.63 225.84C298.84 227.17 297.13 227.6 295.8 226.81C294.36 225.96 292.44 224.81 291 223.96C289.68 223.17 289.24 221.46 290.03 220.13C294.41 212.76 306.14 193.04 310.52 185.66C311.31 184.34 313.03 183.9 314.35 184.69C315.79 185.55 317.71 186.69 319.15 187.55C320.48 188.33 320.92 190.05 320.13 191.37C315.74 198.75 304.02 218.47 299.63 225.84Z" id="a1ggCsN2ai"></path><path d="M421.34 243.15C420.55 244.47 418.84 244.91 417.51 244.12C416.07 243.26 414.15 242.12 412.71 241.26C411.38 240.48 410.95 238.76 411.74 237.44C416.12 230.06 427.85 210.34 432.23 202.97C433.02 201.64 434.74 201.21 436.06 202C437.5 202.85 439.42 204 440.86 204.85C442.19 205.64 442.62 207.35 441.84 208.68C437.45 216.05 425.72 235.77 421.34 243.15Z" id="gQK6Sf1S5"></path><path d="M164.38 339.58C163.59 340.9 161.88 341.34 160.55 340.55C159.11 339.7 157.19 338.55 155.75 337.7C154.43 336.91 153.99 335.19 154.78 333.87C159.16 326.5 170.89 306.78 175.27 299.4C176.06 298.08 177.78 297.64 179.1 298.43C180.54 299.29 182.46 300.43 183.9 301.28C185.23 302.07 185.67 303.79 184.88 305.11C180.49 312.49 168.77 332.21 164.38 339.58Z" id="gkBaF0lpL"></path><path d="M364.42 289.03C363.63 290.35 361.92 290.79 360.59 290C359.15 289.14 357.23 288 355.79 287.14C354.46 286.36 354.03 284.64 354.82 283.32C359.2 275.94 370.93 256.22 375.31 248.85C376.1 247.52 377.81 247.09 379.14 247.88C380.58 248.73 382.5 249.88 383.94 250.73C385.27 251.52 385.7 253.23 384.91 254.56C380.53 261.93 368.8 281.65 364.42 289.03Z" id="b3ybpslsS"></path><path d="M51.38 299.55C50.6 300.88 48.88 301.32 47.56 300.53C46.12 299.67 44.2 298.53 42.75 297.67C41.43 296.88 40.99 295.17 41.78 293.84C46.17 286.47 57.89 266.75 62.28 259.38C63.07 258.05 64.78 257.62 66.11 258.41C67.55 259.26 69.47 260.4 70.91 261.26C72.23 262.05 72.67 263.76 71.88 265.09C67.5 272.46 55.77 292.18 51.38 299.55Z" id="bRWgLAspV"></path><path d="M103.29 178.78C102.5 180.11 100.79 180.55 99.46 179.76C98.02 178.9 96.1 177.76 94.66 176.9C93.34 176.11 92.9 174.4 93.69 173.07C98.07 165.7 109.8 145.98 114.19 138.61C114.97 137.28 116.69 136.85 118.01 137.63C119.45 138.49 121.37 139.63 122.82 140.49C124.14 141.28 124.58 142.99 123.79 144.32C119.4 151.69 107.68 171.41 103.29 178.78Z" id="aPiG9K86"></path><path d="M318.03 337.46C317.24 336.14 315.53 335.7 314.2 336.49C312.76 337.34 310.84 338.49 309.4 339.34C308.08 340.13 307.64 341.85 308.43 343.17C312.81 350.55 324.54 370.26 328.93 377.64C329.71 378.96 331.43 379.4 332.75 378.61C334.19 377.75 336.11 376.61 337.56 375.76C338.88 374.97 339.32 373.25 338.53 371.93C334.14 364.55 322.42 344.83 318.03 337.46Z" id="dam4tPdpG"></path><path d="M228.88 189.46C227.42 189.97 225.83 189.19 225.33 187.73C224.78 186.15 224.06 184.04 223.51 182.45C223.01 180.99 223.78 179.4 225.24 178.9C233.35 176.11 255.05 168.64 263.16 165.85C264.62 165.34 266.2 166.12 266.71 167.58C267.25 169.16 267.98 171.28 268.53 172.86C269.03 174.32 268.25 175.91 266.79 176.41C258.68 179.2 236.99 186.67 228.88 189.46Z" id="h9Z0Esdg2"></path><path d="M172.24 55.09C171.45 56.42 169.74 56.86 168.41 56.07C166.97 55.21 165.05 54.07 163.61 53.21C162.29 52.42 161.85 50.71 162.64 49.38C167.02 42.01 178.75 22.29 183.13 14.92C183.92 13.59 185.64 13.16 186.96 13.94C188.4 14.8 190.32 15.94 191.76 16.8C193.09 17.59 193.53 19.3 192.74 20.63C188.35 28 176.63 47.72 172.24 55.09Z" id="dE1dcPAWO"></path><path d="M51.38 138.36C50.6 139.69 48.88 140.12 47.56 139.34C46.12 138.48 44.2 137.34 42.75 136.48C41.43 135.69 40.99 133.98 41.78 132.65C46.17 125.28 57.89 105.56 62.28 98.19C63.07 96.86 64.78 96.43 66.11 97.21C67.55 98.07 69.47 99.21 70.91 100.07C72.23 100.86 72.67 102.57 71.88 103.9C67.5 111.27 55.77 130.99 51.38 138.36Z" id="adNoAcCk"></path><path d="M271.02 367.76C270.24 369.09 268.52 369.52 267.2 368.73C265.75 367.88 263.83 366.73 262.39 365.88C261.07 365.09 260.63 363.37 261.42 362.05C265.81 354.68 277.53 334.96 281.92 327.58C282.7 326.26 284.42 325.82 285.74 326.61C287.19 327.47 289.11 328.61 290.55 329.47C291.87 330.25 292.31 331.97 291.52 333.29C287.13 340.67 275.41 360.39 271.02 367.76Z" id="b12dJeqOD4"></path><path d="M327.34 72.31C326.56 73.63 324.84 74.07 323.52 73.28C322.08 72.42 320.15 71.28 318.71 70.43C317.39 69.64 316.95 67.92 317.74 66.6C322.13 59.22 333.85 39.51 338.24 32.13C339.03 30.81 340.74 30.37 342.07 31.16C343.51 32.02 345.43 33.16 346.87 34.01C348.19 34.8 348.63 36.52 347.84 37.84C343.46 45.22 331.73 64.94 327.34 72.31Z" id="byXwAujPY"></path><path d="M119.16 195.48C120.64 195.07 122.18 195.94 122.59 197.43C123.04 199.05 123.63 201.2 124.08 202.82C124.49 204.3 123.62 205.84 122.13 206.25C113.86 208.54 91.75 214.65 83.48 216.93C81.99 217.34 80.45 216.47 80.04 214.98C79.6 213.37 79 211.21 78.56 209.6C78.14 208.11 79.02 206.57 80.5 206.16C88.77 203.88 110.89 197.77 119.16 195.48Z" id="d2dAGoefuT"></path><path d="M76.92 325.37C78.41 324.96 79.95 325.83 80.36 327.32C80.81 328.94 81.4 331.09 81.85 332.71C82.26 334.19 81.39 335.73 79.9 336.14C71.63 338.43 49.52 344.53 41.25 346.82C39.76 347.23 38.22 346.36 37.81 344.87C37.36 343.25 36.77 341.1 36.32 339.49C35.91 338 36.78 336.46 38.27 336.05C46.54 333.77 68.65 327.66 76.92 325.37Z" id="d31XqSbuda"></path><path d="M143.17 419.14C142.38 417.81 140.66 417.38 139.34 418.17C137.9 419.02 135.98 420.16 134.54 421.02C133.21 421.81 132.77 423.52 133.56 424.85C137.95 432.22 149.67 451.94 154.06 459.31C154.85 460.64 156.56 461.08 157.89 460.29C159.33 459.43 161.25 458.29 162.69 457.43C164.01 456.64 164.45 454.93 163.66 453.6C159.28 446.23 147.55 426.51 143.17 419.14Z" id="a3IURt9Xj9"></path><path d="M268.32 474.87C266.8 475.11 265.37 474.06 265.14 472.54C264.88 470.88 264.54 468.67 264.28 467.02C264.05 465.49 265.09 464.07 266.62 463.83C275.1 462.52 297.77 459.02 306.25 457.71C307.77 457.47 309.2 458.52 309.43 460.04C309.69 461.7 310.03 463.91 310.29 465.56C310.52 467.09 309.48 468.51 307.95 468.75C299.47 470.06 276.8 473.56 268.32 474.87Z" id="m5og7fOw0"></path><path d="M267.08 50.55C267.14 52.1 265.95 53.4 264.41 53.47C262.73 53.54 260.5 53.64 258.83 53.71C257.28 53.78 255.98 52.58 255.91 51.04C255.54 42.47 254.55 19.55 254.17 10.98C254.11 9.44 255.3 8.13 256.84 8.07C258.52 7.99 260.75 7.9 262.43 7.82C263.97 7.76 265.27 8.95 265.34 10.49C265.71 19.06 266.7 41.98 267.08 50.55Z" id="cWQvE31FZ"></path><path d="M344.66 264.88C344.98 266.38 344.02 267.87 342.51 268.19C340.87 268.54 338.69 269.01 337.05 269.36C335.54 269.68 334.05 268.72 333.73 267.21C331.94 258.82 327.13 236.39 325.34 228C325.02 226.49 325.98 225.01 327.49 224.69C329.12 224.34 331.31 223.87 332.95 223.52C334.46 223.19 335.94 224.16 336.26 225.66C338.06 234.05 342.86 256.49 344.66 264.88Z" id="c1PqJbftn"></path><path d="M349.73 441.68C348.38 442.43 346.68 441.96 345.93 440.61C345.1 439.15 344.01 437.2 343.19 435.74C342.43 434.4 342.91 432.7 344.25 431.94C351.73 427.73 371.72 416.48 379.2 412.28C380.54 411.52 382.25 412 383 413.34C383.82 414.8 384.92 416.75 385.74 418.21C386.5 419.55 386.02 421.26 384.68 422.01C377.2 426.22 357.21 437.47 349.73 441.68Z" id="b14ius5c9O"></path><path d="M153.66 269.5C155.16 269.15 156.66 270.08 157.01 271.59C157.39 273.22 157.89 275.39 158.27 277.03C158.62 278.53 157.69 280.03 156.18 280.38C147.83 282.32 125.48 287.5 117.12 289.44C115.62 289.79 114.12 288.85 113.77 287.35C113.39 285.72 112.88 283.54 112.51 281.91C112.16 280.4 113.09 278.9 114.6 278.55C122.95 276.62 145.3 271.43 153.66 269.5Z" id="f1UuAlg09G"></path><path d="M413.02 142.46C411.81 143.41 410.05 143.2 409.1 141.98C408.07 140.66 406.7 138.9 405.66 137.58C404.71 136.36 404.93 134.61 406.15 133.66C412.91 128.38 430.99 114.26 437.75 108.97C438.96 108.02 440.72 108.24 441.67 109.46C442.7 110.78 444.07 112.54 445.11 113.86C446.06 115.07 445.84 116.83 444.62 117.78C437.86 123.06 419.78 137.18 413.02 142.46Z" id="o7tJWF1en"></path><path d="M450.92 241.88C449.39 241.72 448.27 240.34 448.43 238.81C448.61 237.14 448.84 234.92 449.01 233.25C449.17 231.72 450.54 230.6 452.08 230.76C460.61 231.65 483.43 234.02 491.96 234.9C493.5 235.06 494.61 236.43 494.45 237.97C494.28 239.64 494.05 241.86 493.88 243.53C493.72 245.06 492.34 246.17 490.81 246.02C482.28 245.13 459.46 242.76 450.92 241.88Z" id="gDVjQP0oB"></path><path d="M218.45 462.22C219.29 463.52 218.92 465.25 217.62 466.09C216.21 467 214.34 468.21 212.93 469.12C211.64 469.96 209.91 469.59 209.07 468.3C204.41 461.1 191.94 441.84 187.27 434.64C186.44 433.34 186.81 431.61 188.1 430.77C189.51 429.86 191.38 428.65 192.79 427.74C194.08 426.9 195.81 427.27 196.65 428.56C201.32 435.76 213.78 455.02 218.45 462.22Z" id="a1jzH8THHR"></path><path d="M217.3 149.19C216.51 150.51 214.79 150.95 213.47 150.16C212.03 149.3 210.11 148.16 208.67 147.31C207.34 146.52 206.91 144.8 207.69 143.48C212.08 136.1 223.8 116.38 228.19 109.01C228.98 107.69 230.69 107.25 232.02 108.04C233.46 108.89 235.38 110.04 236.82 110.89C238.15 111.68 238.58 113.4 237.79 114.72C233.41 122.1 221.68 141.81 217.3 149.19Z" id="iDqbUnksM"></path><path d="M392.04 200.68C391.25 202.01 389.54 202.45 388.21 201.66C386.77 200.8 384.85 199.66 383.41 198.8C382.09 198.01 381.65 196.3 382.44 194.97C386.82 187.6 398.55 167.88 402.93 160.51C403.72 159.18 405.44 158.75 406.76 159.54C408.2 160.39 410.12 161.53 411.56 162.39C412.89 163.18 413.33 164.89 412.54 166.22C408.15 173.59 396.43 193.31 392.04 200.68Z" id="a18P5Qg0gz"></path><path d="M104.85 241.03C105.64 242.36 107.35 242.8 108.68 242.01C110.12 241.15 112.04 240.01 113.48 239.15C114.81 238.36 115.24 236.65 114.45 235.32C110.07 227.95 98.34 208.23 93.96 200.86C93.17 199.53 91.46 199.1 90.13 199.89C88.69 200.74 86.77 201.88 85.33 202.74C84 203.53 83.57 205.24 84.35 206.57C88.74 213.94 100.47 233.66 104.85 241.03Z" id="h1DUQNAucG"></path><path d="M346.03 99.91C347.48 100.44 348.23 102.04 347.71 103.49C347.13 105.07 346.37 107.17 345.8 108.74C345.28 110.19 343.68 110.94 342.23 110.42C334.16 107.5 312.59 99.68 304.52 96.76C303.07 96.24 302.32 94.64 302.85 93.19C303.42 91.61 304.18 89.51 304.75 87.93C305.28 86.48 306.88 85.73 308.33 86.26C316.39 89.18 337.96 96.99 346.03 99.91Z" id="g3B5veKLlb"></path><path d="M371.2 157.99C370.91 159.5 369.44 160.49 367.93 160.2C366.28 159.88 364.09 159.45 362.44 159.14C360.93 158.84 359.94 157.38 360.23 155.86C361.86 147.44 366.23 124.92 367.86 116.5C368.15 114.98 369.62 113.99 371.13 114.28C372.78 114.6 374.97 115.03 376.62 115.35C378.13 115.64 379.12 117.11 378.83 118.62C377.2 127.04 372.83 149.57 371.2 157.99Z" id="a8iuVSCVoz"></path><path d="M275.79 207.19C277.29 206.84 278.79 207.78 279.14 209.28C279.52 210.91 280.02 213.09 280.4 214.72C280.75 216.23 279.81 217.73 278.31 218.07C269.96 220.01 247.61 225.2 239.25 227.13C237.75 227.48 236.25 226.55 235.9 225.04C235.52 223.41 235.01 221.23 234.64 219.6C234.29 218.1 235.22 216.6 236.73 216.25C245.08 214.31 267.43 209.13 275.79 207.19Z" id="aWF7Ywi2x"></path><path d="M368.79 331.55C367.36 332.12 365.73 331.43 365.15 330C364.53 328.44 363.7 326.37 363.07 324.81C362.5 323.38 363.19 321.76 364.62 321.18C372.58 317.98 393.87 309.43 401.83 306.23C403.26 305.65 404.89 306.35 405.46 307.78C406.09 309.33 406.92 311.41 407.54 312.96C408.12 314.39 407.43 316.02 405.99 316.59C398.03 319.79 376.75 328.35 368.79 331.55Z" id="clXHwCb0h"></path><path d="M84.23 374C83.57 372.61 84.17 370.94 85.57 370.29C87.09 369.58 89.11 368.63 90.63 367.92C92.02 367.26 93.69 367.86 94.34 369.26C97.98 377.03 107.73 397.8 111.37 405.56C112.02 406.96 111.42 408.62 110.03 409.28C108.51 409.99 106.49 410.94 104.97 411.65C103.57 412.31 101.91 411.71 101.25 410.31C97.61 402.54 87.87 381.77 84.23 374Z" id="d1dqx339yb"></path><path d="M46.53 244.61C48.02 244.2 49.56 245.08 49.97 246.56C50.41 248.18 51.01 250.33 51.45 251.95C51.87 253.43 50.99 254.97 49.51 255.38C41.24 257.67 19.12 263.78 10.85 266.06C9.37 266.47 7.83 265.6 7.42 264.11C6.97 262.5 6.38 260.34 5.93 258.73C5.52 257.24 6.39 255.7 7.88 255.29C16.15 253.01 38.26 246.9 46.53 244.61Z" id="cm94NvUpm"></path><path d="M177.96 269.66C176.95 270.83 175.19 270.96 174.02 269.95C172.75 268.86 171.06 267.4 169.79 266.3C168.62 265.3 168.49 263.53 169.5 262.36C175.1 255.87 190.09 238.5 195.69 232C196.7 230.83 198.46 230.7 199.63 231.71C200.9 232.8 202.59 234.26 203.86 235.36C205.03 236.37 205.16 238.13 204.15 239.3C198.55 245.79 183.56 263.17 177.96 269.66Z" id="b1wGPRLdrl"></path><path d="M290.74 144.34C292 145.23 292.29 146.98 291.39 148.23C290.42 149.6 289.12 151.42 288.15 152.78C287.25 154.04 285.51 154.33 284.25 153.43C277.27 148.45 258.59 135.13 251.61 130.14C250.35 129.25 250.06 127.5 250.96 126.25C251.93 124.88 253.23 123.07 254.2 121.7C255.1 120.45 256.84 120.15 258.1 121.05C265.08 126.03 283.76 139.36 290.74 144.34Z" id="bNI4Psjpw"></path><path d="M97.99 151.41C99.25 152.31 99.53 154.06 98.63 155.31C97.65 156.67 96.35 158.48 95.37 159.84C94.47 161.1 92.72 161.38 91.47 160.48C84.51 155.47 65.88 142.08 58.91 137.07C57.66 136.17 57.38 134.42 58.28 133.17C59.26 131.81 60.56 130 61.54 128.64C62.44 127.38 64.19 127.1 65.44 128C72.4 133.01 91.03 146.4 97.99 151.41Z" id="hjignU2y8"></path><path d="M319.22 292.12C318.56 290.73 319.17 289.06 320.56 288.41C322.08 287.7 324.1 286.75 325.62 286.04C327.02 285.38 328.68 285.98 329.33 287.38C332.98 295.15 342.72 315.92 346.36 323.68C347.02 325.08 346.42 326.74 345.02 327.4C343.5 328.11 341.48 329.06 339.96 329.77C338.56 330.43 336.9 329.83 336.25 328.43C332.6 320.66 322.86 299.89 319.22 292.12Z" id="c2WRdPSq63"></path><path d="M434.34 398.4C434.49 399.93 433.37 401.3 431.84 401.46C430.17 401.62 427.95 401.84 426.28 402.01C424.75 402.17 423.38 401.05 423.22 399.51C422.37 390.97 420.09 368.15 419.23 359.61C419.08 358.07 420.2 356.71 421.73 356.55C423.4 356.39 425.62 356.16 427.29 356C428.83 355.84 430.2 356.96 430.35 358.5C431.2 367.03 433.49 389.86 434.34 398.4Z" id="f14vS11M7M"></path><path d="M186.66 335.39C185.31 334.64 184.82 332.93 185.57 331.59C186.39 330.12 187.48 328.17 188.29 326.71C189.04 325.36 190.74 324.87 192.09 325.62C199.59 329.8 219.63 340.96 227.12 345.13C228.47 345.88 228.96 347.58 228.21 348.93C227.39 350.4 226.3 352.35 225.49 353.81C224.74 355.16 223.04 355.64 221.69 354.89C214.19 350.72 194.15 339.56 186.66 335.39Z" id="baGa7mmKo"></path><path d="M187.83 88.18C189.27 88.74 189.98 90.36 189.42 91.8C188.81 93.36 188 95.44 187.39 97C186.83 98.44 185.21 99.15 183.77 98.59C175.78 95.47 154.41 87.12 146.42 84C144.98 83.44 144.27 81.82 144.83 80.38C145.44 78.82 146.26 76.74 146.87 75.18C147.43 73.74 149.05 73.03 150.48 73.59C158.47 76.71 179.84 85.06 187.83 88.18Z" id="al4c7PoTe"></path><path d="M243.46 277.55C241.95 277.2 241.02 275.7 241.37 274.2C241.75 272.57 242.25 270.39 242.63 268.76C242.98 267.26 244.48 266.32 245.98 266.67C254.34 268.61 276.69 273.8 285.04 275.74C286.55 276.09 287.48 277.59 287.13 279.1C286.75 280.73 286.25 282.9 285.87 284.54C285.52 286.04 284.02 286.97 282.52 286.63C274.16 284.68 251.81 279.49 243.46 277.55Z" id="c30a8cEQpY"></path><path d="M362.31 174.88C363.63 174.07 365.35 174.47 366.16 175.78C367.05 177.21 368.23 179.1 369.11 180.53C369.92 181.84 369.52 183.56 368.21 184.37C360.92 188.9 341.44 201.01 334.15 205.54C332.84 206.35 331.12 205.95 330.3 204.64C329.42 203.22 328.24 201.32 327.36 199.89C326.54 198.58 326.94 196.86 328.25 196.05C335.54 191.52 355.03 179.41 362.31 174.88Z" id="czVFoTBA7"></path><path d="M286.37 196.73C285.39 197.93 283.64 198.11 282.44 197.14C281.14 196.08 279.41 194.67 278.11 193.61C276.91 192.64 276.73 190.88 277.7 189.68C283.12 183.03 297.59 165.23 303.01 158.58C303.98 157.38 305.74 157.2 306.94 158.17C308.24 159.23 309.97 160.64 311.27 161.7C312.47 162.67 312.65 164.43 311.67 165.63C306.26 172.28 291.78 190.08 286.37 196.73Z" id="b3ARGQbGkW"></path><path d="M197.59 164.19C198.01 162.7 197.14 161.16 195.65 160.75C194.04 160.3 191.89 159.7 190.27 159.25C188.79 158.83 187.25 159.7 186.83 161.19C184.53 169.45 178.36 191.55 176.06 199.81C175.64 201.3 176.51 202.84 178 203.25C179.61 203.7 181.76 204.3 183.38 204.75C184.86 205.17 186.4 204.3 186.82 202.81C189.12 194.55 195.29 172.45 197.59 164.19Z" id="e4J1UdQ1s"></path><path d="M336.07 416.8C335.07 417.97 333.3 418.1 332.13 417.09C330.86 416 329.17 414.54 327.9 413.45C326.74 412.44 326.61 410.67 327.61 409.51C333.22 403.01 348.2 385.64 353.8 379.14C354.81 377.97 356.58 377.84 357.74 378.85C359.01 379.95 360.71 381.41 361.97 382.5C363.14 383.51 363.27 385.27 362.26 386.44C356.66 392.94 341.68 410.31 336.07 416.8Z" id="a4oz27FCSQ"></path><path d="M149.05 216.21C147.75 215.38 147.38 213.65 148.21 212.35C149.12 210.94 150.33 209.06 151.24 207.66C152.08 206.36 153.81 205.99 155.1 206.82C162.31 211.47 181.59 223.9 188.8 228.55C190.1 229.39 190.47 231.12 189.64 232.41C188.73 233.82 187.52 235.7 186.61 237.11C185.77 238.41 184.04 238.78 182.75 237.94C175.54 233.29 156.26 220.86 149.05 216.21Z" id="mLdVTqBWd"></path><path d="M135.39 294.15C135.31 292.61 136.49 291.29 138.03 291.2C139.7 291.11 141.93 290.98 143.6 290.89C145.14 290.8 146.46 291.98 146.55 293.52C147.03 302.08 148.33 324.99 148.81 333.55C148.9 335.09 147.72 336.41 146.18 336.5C144.51 336.59 142.28 336.72 140.6 336.81C139.06 336.9 137.74 335.72 137.66 334.18C137.17 325.62 135.88 302.71 135.39 294.15Z" id="ebO6UKBPt"></path><path d="M366.01 267.45C366.33 268.96 365.37 270.44 363.86 270.77C362.22 271.12 360.04 271.58 358.4 271.94C356.89 272.26 355.4 271.3 355.08 269.79C353.29 261.4 348.48 238.97 346.69 230.58C346.37 229.07 347.33 227.58 348.84 227.26C350.47 226.91 352.66 226.44 354.3 226.09C355.81 225.77 357.29 226.73 357.61 228.24C359.41 236.63 364.21 259.06 366.01 267.45Z" id="a3f60xk60k"></path><path d="M458.41 202.09C457.63 203.41 455.91 203.85 454.59 203.06C453.15 202.2 451.23 201.06 449.78 200.21C448.46 199.42 448.02 197.7 448.81 196.38C453.2 189 464.92 169.28 469.31 161.91C470.1 160.58 471.81 160.15 473.14 160.94C474.58 161.79 476.5 162.94 477.94 163.79C479.26 164.58 479.7 166.3 478.91 167.62C474.53 174.99 462.8 194.71 458.41 202.09Z" id="bPlXCzOLU"></path><path d="M278.83 423.86C279.91 422.77 281.68 422.76 282.78 423.85C283.97 425.03 285.55 426.6 286.74 427.78C287.84 428.86 287.85 430.63 286.76 431.73C280.72 437.82 264.57 454.12 258.53 460.21C257.45 461.3 255.68 461.31 254.58 460.23C253.39 459.05 251.8 457.47 250.61 456.29C249.52 455.21 249.51 453.44 250.6 452.34C256.64 446.25 272.79 429.96 278.83 423.86Z" id="gpshgCoyF"></path><path d="M72.28 387.09C72.3 388.63 71.06 389.89 69.51 389.91C67.84 389.92 65.6 389.94 63.93 389.96C62.39 389.97 61.12 388.73 61.11 387.19C61.03 378.61 60.81 355.67 60.73 347.09C60.72 345.55 61.96 344.29 63.5 344.27C65.17 344.26 67.41 344.24 69.08 344.22C70.63 344.21 71.89 345.45 71.9 346.99C71.98 355.57 72.2 378.51 72.28 387.09Z" id="a1giwiu1CY"></path><path d="M128.8 167.27C127.28 167.51 125.85 166.46 125.62 164.94C125.36 163.28 125.02 161.07 124.77 159.42C124.53 157.89 125.58 156.46 127.1 156.23C135.58 154.92 158.25 151.43 166.73 150.12C168.26 149.88 169.68 150.93 169.92 152.45C170.17 154.11 170.51 156.32 170.77 157.98C171 159.5 169.96 160.93 168.43 161.16C159.96 162.47 137.28 165.96 128.8 167.27Z" id="dwdzgvbu9"></path><path d="M258.98 99.17C258.98 100.71 257.73 101.96 256.18 101.96C254.51 101.96 252.27 101.96 250.6 101.96C249.06 101.97 247.8 100.72 247.8 99.17C247.8 90.59 247.79 67.65 247.79 59.07C247.79 57.53 249.04 56.28 250.58 56.28C252.26 56.28 254.49 56.28 256.17 56.28C257.71 56.28 258.96 57.53 258.96 59.07C258.96 67.65 258.97 90.59 258.98 99.17Z" id="b2i1axxYoF"></path><path d="M196.51 28.17C195.24 27.29 194.92 25.55 195.8 24.28C196.76 22.91 198.03 21.07 198.99 19.69C199.87 18.42 201.61 18.11 202.87 18.99C209.92 23.88 228.77 36.95 235.82 41.84C237.09 42.72 237.41 44.46 236.53 45.73C235.57 47.11 234.3 48.94 233.34 50.32C232.46 51.59 230.72 51.9 229.46 51.02C222.41 46.13 203.55 33.06 196.51 28.17Z" id="d1XRjcJlGk"></path><path d="M392.46 52.32C393.95 51.91 395.49 52.78 395.9 54.27C396.35 55.89 396.94 58.04 397.39 59.65C397.8 61.14 396.93 62.68 395.44 63.09C387.17 65.38 365.06 71.48 356.79 73.77C355.3 74.18 353.76 73.31 353.35 71.82C352.9 70.2 352.31 68.05 351.86 66.43C351.45 64.95 352.32 63.41 353.81 63C362.08 60.71 384.19 54.61 392.46 52.32Z" id="alyXXPSQS"></path><path d="M322 42.07C323.23 43 323.46 44.76 322.53 45.98C321.51 47.32 320.15 49.09 319.14 50.42C318.2 51.65 316.45 51.88 315.22 50.95C308.4 45.74 290.17 31.81 283.36 26.6C282.13 25.67 281.9 23.91 282.83 22.69C283.85 21.36 285.21 19.58 286.22 18.25C287.16 17.02 288.91 16.79 290.14 17.73C296.96 22.93 315.19 36.86 322 42.07Z" id="b7ocFmj1f"></path><path d="M479.24 301.48C479.56 302.99 478.6 304.47 477.09 304.79C475.46 305.14 473.27 305.61 471.63 305.96C470.12 306.29 468.64 305.32 468.32 303.82C466.52 295.43 461.72 272.99 459.92 264.6C459.6 263.1 460.56 261.61 462.07 261.29C463.71 260.94 465.89 260.47 467.53 260.12C469.04 259.8 470.53 260.76 470.85 262.27C472.64 270.65 477.45 293.09 479.24 301.48Z" id="e4xAWd1F19"></path><path d="M308.02 388.52C308.18 390.05 307.06 391.42 305.52 391.58C303.85 391.74 301.63 391.97 299.96 392.13C298.43 392.29 297.06 391.17 296.91 389.63C296.05 381.1 293.77 358.27 292.91 349.73C292.76 348.2 293.88 346.83 295.42 346.67C297.08 346.51 299.31 346.28 300.97 346.12C302.51 345.96 303.88 347.08 304.03 348.62C304.89 357.16 307.17 379.98 308.02 388.52Z" id="c5nJRpquuP"></path><path d="M168.34 432.5C167.55 433.83 165.84 434.26 164.51 433.47C163.07 432.62 161.15 431.47 159.71 430.62C158.39 429.83 157.95 428.12 158.74 426.79C163.12 419.42 174.85 399.7 179.23 392.32C180.02 391 181.74 390.56 183.06 391.35C184.5 392.21 186.42 393.35 187.86 394.21C189.19 394.99 189.63 396.71 188.84 398.03C184.45 405.41 172.73 425.13 168.34 432.5Z" id="a3ZKsSfvIW"></path><path d="M63.07 177.63C62.29 178.96 60.57 179.4 59.25 178.61C57.8 177.75 55.88 176.61 54.44 175.75C53.12 174.96 52.68 173.25 53.47 171.92C57.86 164.55 69.58 144.83 73.97 137.46C74.75 136.13 76.47 135.7 77.79 136.49C79.24 137.34 81.16 138.48 82.6 139.34C83.92 140.13 84.36 141.84 83.57 143.17C79.18 150.54 67.46 170.26 63.07 177.63Z" id="eyoLNqZAN"></path><path d="M26.47 321.35C26.15 322.86 24.66 323.82 23.16 323.5C21.52 323.15 19.33 322.68 17.69 322.33C16.18 322.01 15.22 320.53 15.54 319.02C17.34 310.63 22.13 288.19 23.92 279.8C24.24 278.29 25.73 277.33 27.23 277.65C28.87 278 31.06 278.47 32.7 278.82C34.21 279.14 35.17 280.63 34.85 282.14C33.05 290.53 28.26 312.96 26.47 321.35Z" id="a1koDVTaxO"></path><path d="M95.87 80.92C95.08 82.25 93.37 82.69 92.04 81.9C90.6 81.04 88.68 79.9 87.24 79.04C85.92 78.25 85.48 76.54 86.27 75.21C90.65 67.84 102.38 48.12 106.76 40.75C107.55 39.42 109.27 38.99 110.59 39.77C112.03 40.63 113.95 41.77 115.39 42.63C116.72 43.42 117.16 45.13 116.37 46.46C111.98 53.83 100.26 73.55 95.87 80.92Z" id="ac2uvCEBR"></path><path d="M4.98 170.1C3.48 169.75 2.55 168.25 2.9 166.75C3.27 165.11 3.78 162.94 4.16 161.3C4.51 159.8 6.01 158.87 7.51 159.22C15.87 161.16 38.22 166.35 46.57 168.29C48.07 168.64 49.01 170.14 48.66 171.64C48.28 173.27 47.78 175.45 47.4 177.08C47.05 178.58 45.55 179.52 44.04 179.17C35.69 177.23 13.34 172.04 4.98 170.1Z" id="baRhRPJuc"></path><path d="M18.85 235.59C18.85 237.14 17.6 238.39 16.06 238.39C14.38 238.39 12.15 238.39 10.47 238.39C8.93 238.39 7.68 237.14 7.68 235.6C7.67 227.02 7.66 204.08 7.66 195.5C7.66 193.95 8.91 192.7 10.45 192.7C12.13 192.7 14.36 192.7 16.04 192.7C17.58 192.7 18.83 193.95 18.83 195.49C18.84 204.07 18.85 227.01 18.85 235.59Z" id="g7EbIOyqb"></path><path d="M383.94 418.27C383.28 416.87 383.88 415.21 385.28 414.55C386.8 413.84 388.82 412.89 390.34 412.18C391.73 411.53 393.4 412.13 394.05 413.52C397.7 421.29 407.44 442.06 411.08 449.83C411.73 451.23 411.13 452.89 409.74 453.54C408.22 454.26 406.2 455.2 404.68 455.92C403.28 456.57 401.62 455.97 400.96 454.57C397.32 446.81 387.58 426.03 383.94 418.27Z" id="fz3aaN16a"></path><path d="M324.35 502.22C323.56 503.55 321.84 503.98 320.52 503.2C319.08 502.34 317.16 501.2 315.72 500.34C314.39 499.55 313.96 497.84 314.74 496.51C319.13 489.14 330.85 469.42 335.24 462.05C336.03 460.72 337.74 460.29 339.07 461.07C340.51 461.93 342.43 463.07 343.87 463.93C345.2 464.72 345.63 466.43 344.84 467.76C340.46 475.13 328.73 494.85 324.35 502.22Z" id="dhQ0va9dm"></path><path d="M253.32 514.13C253.64 515.64 252.68 517.12 251.17 517.44C249.53 517.8 247.35 518.26 245.71 518.61C244.2 518.94 242.72 517.98 242.39 516.47C240.6 508.08 235.8 485.64 234 477.26C233.68 475.75 234.64 474.26 236.15 473.94C237.79 473.59 239.97 473.12 241.61 472.77C243.12 472.45 244.61 473.41 244.93 474.92C246.72 483.31 251.52 505.74 253.32 514.13Z" id="a5snqfGqmx"></path><path d="M179.15 504.79C178.85 506.3 177.39 507.29 175.87 507C174.23 506.68 172.03 506.26 170.39 505.94C168.87 505.64 167.88 504.18 168.18 502.66C169.81 494.24 174.17 471.72 175.81 463.3C176.1 461.78 177.56 460.79 179.08 461.09C180.72 461.41 182.92 461.83 184.56 462.15C186.08 462.44 187.07 463.91 186.77 465.42C185.14 473.84 180.78 496.37 179.15 504.79Z" id="b2jJaIdQYa"></path><path d="M443.34 357.62C441.91 358.19 440.28 357.5 439.71 356.07C439.08 354.51 438.25 352.44 437.62 350.88C437.05 349.45 437.74 347.83 439.17 347.25C447.13 344.05 468.42 335.5 476.38 332.3C477.81 331.72 479.44 332.42 480.01 333.85C480.64 335.4 481.47 337.48 482.1 339.03C482.67 340.46 481.98 342.09 480.55 342.66C472.59 345.86 451.3 354.42 443.34 357.62Z" id="amelw60RG"></path><path d="M102.32 459.31C101.53 460.64 99.82 461.08 98.49 460.29C97.05 459.43 95.13 458.29 93.69 457.43C92.37 456.64 91.93 454.93 92.72 453.6C97.1 446.23 108.83 426.51 113.21 419.14C114 417.81 115.72 417.38 117.04 418.17C118.48 419.02 120.4 420.16 121.84 421.02C123.17 421.81 123.61 423.52 122.82 424.85C118.43 432.22 106.71 451.94 102.32 459.31Z" id="i2Cl6VcbkD"></path></defs><g><g><g><use xlink:href="#cVzNb77Sf" opacity="1" fill="#ffffff" fill-opacity="1"></use></g><g><use xlink:href="#d4QlOlMa8u" opacity="1" fill="#ffffff" fill-opacity="1"></use></g><g><use xlink:href="#a19Is3jwd5" opacity="1" fill="#ffffff" fill-opacity="1"></use></g><g><use xlink:href="#gyYgzbsUa" opacity="1" fill="#ffffff" fill-opacity="1"></use></g><g><use xlink:href="#c3TGKcZsIN" opacity="1" fill="#ffffff" fill-opacity="1"></use></g><g><use xlink:href="#aziDupKEG" opacity="1" fill="#ffffff" fill-opacity="1"></use></g><g><use xlink:href="#a1SzBQVQQ" opacity="1" fill="#ffffff" fill-opacity="1"></use></g><g><use xlink:href="#a58okzHjdq" opacity="1" fill="#ffffff" fill-opacity="1"></use></g><g><use xlink:href="#j1BBZ9ifi4" opacity="1" fill="#ffffff" fill-opacity="1"></use></g><g><use xlink:href="#at5uk8gB" opacity="1" fill="#ffffff" fill-opacity="1"></use></g><g><use xlink:href="#bhZUkDPwI" opacity="1" fill="#ffffff" fill-opacity="1"></use></g><g><use xlink:href="#dMGQ9wbRe" opacity="1" fill="#ffffff" fill-opacity="1"></use></g><g><use xlink:href="#c1lzoqG61" opacity="1" fill="#ffffff" fill-opacity="1"></use></g><g><use xlink:href="#agHtx0hv3" opacity="1" fill="#ffffff" fill-opacity="1"></use></g><g><use xlink:href="#b1HKVCXR6Y" opacity="1" fill="#ffffff" fill-opacity="1"></use></g><g><use xlink:href="#ap1KwmYkV" opacity="1" fill="#ffffff" fill-opacity="1"></use></g><g><use xlink:href="#a3XpxZ0lR" opacity="1" fill="#ffffff" fill-opacity="1"></use></g><g><use xlink:href="#aIhBfeGHL" opacity="1" fill="#ffffff" fill-opacity="1"></use></g><g><use xlink:href="#a4OyX5RDwQ" opacity="1" fill="#ffffff" fill-opacity="1"></use></g><g><use xlink:href="#aZK047em8" opacity="1" fill="#ffffff" fill-opacity="1"></use></g><g><use xlink:href="#c22CrDMeQl" opacity="1" fill="#ffffff" fill-opacity="1"></use></g><g><use xlink:href="#a345WIFXU9" opacity="1" fill="#ffffff" fill-opacity="1"></use></g><g><use xlink:href="#cMaAowwrJ" opacity="1" fill="#ffffff" fill-opacity="1"></use></g><g><use xlink:href="#b26IYmnWGw" opacity="1" fill="#ffffff" fill-opacity="1"></use></g><g><use xlink:href="#b5wXUemVhr" opacity="1" fill="#ffffff" fill-opacity="1"></use></g><g><use xlink:href="#a1ggCsN2ai" opacity="1" fill="#ffffff" fill-opacity="1"></use></g><g><use xlink:href="#gQK6Sf1S5" opacity="1" fill="#ffffff" fill-opacity="1"></use></g><g><use xlink:href="#gkBaF0lpL" opacity="1" fill="#ffffff" fill-opacity="1"></use></g><g><use xlink:href="#b3ybpslsS" opacity="1" fill="#ffffff" fill-opacity="1"></use></g><g><use xlink:href="#bRWgLAspV" opacity="1" fill="#ffffff" fill-opacity="1"></use></g><g><use xlink:href="#aPiG9K86" opacity="1" fill="#ffffff" fill-opacity="1"></use></g><g><use xlink:href="#dam4tPdpG" opacity="1" fill="#ffffff" fill-opacity="1"></use></g><g><use xlink:href="#h9Z0Esdg2" opacity="1" fill="#ffffff" fill-opacity="1"></use></g><g><use xlink:href="#dE1dcPAWO" opacity="1" fill="#ffffff" fill-opacity="1"></use></g><g><use xlink:href="#adNoAcCk" opacity="1" fill="#ffffff" fill-opacity="1"></use></g><g><use xlink:href="#b12dJeqOD4" opacity="1" fill="#ffffff" fill-opacity="1"></use></g><g><use xlink:href="#byXwAujPY" opacity="1" fill="#ffffff" fill-opacity="1"></use></g><g><use xlink:href="#d2dAGoefuT" opacity="1" fill="#ffffff" fill-opacity="1"></use></g><g><use xlink:href="#d31XqSbuda" opacity="1" fill="#ffffff" fill-opacity="1"></use></g><g><use xlink:href="#a3IURt9Xj9" opacity="1" fill="#ffffff" fill-opacity="1"></use></g><g><use xlink:href="#m5og7fOw0" opacity="1" fill="#ffffff" fill-opacity="1"></use></g><g><use xlink:href="#cWQvE31FZ" opacity="1" fill="#ffffff" fill-opacity="1"></use></g><g><use xlink:href="#c1PqJbftn" opacity="1" fill="#ffffff" fill-opacity="1"></use></g><g><use xlink:href="#b14ius5c9O" opacity="1" fill="#ffffff" fill-opacity="1"></use></g><g><use xlink:href="#f1UuAlg09G" opacity="1" fill="#ffffff" fill-opacity="1"></use></g><g><use xlink:href="#o7tJWF1en" opacity="1" fill="#ffffff" fill-opacity="1"></use></g><g><use xlink:href="#gDVjQP0oB" opacity="1" fill="#ffffff" fill-opacity="1"></use></g><g><use xlink:href="#a1jzH8THHR" opacity="1" fill="#ffffff" fill-opacity="1"></use></g><g><use xlink:href="#iDqbUnksM" opacity="1" fill="#ffffff" fill-opacity="1"></use></g><g><use xlink:href="#a18P5Qg0gz" opacity="1" fill="#ffffff" fill-opacity="1"></use></g><g><use xlink:href="#h1DUQNAucG" opacity="1" fill="#ffffff" fill-opacity="1"></use></g><g><use xlink:href="#g3B5veKLlb" opacity="1" fill="#ffffff" fill-opacity="1"></use></g><g><use xlink:href="#a8iuVSCVoz" opacity="1" fill="#ffffff" fill-opacity="1"></use></g><g><use xlink:href="#aWF7Ywi2x" opacity="1" fill="#ffffff" fill-opacity="1"></use></g><g><use xlink:href="#clXHwCb0h" opacity="1" fill="#ffffff" fill-opacity="1"></use></g><g><use xlink:href="#d1dqx339yb" opacity="1" fill="#ffffff" fill-opacity="1"></use></g><g><use xlink:href="#cm94NvUpm" opacity="1" fill="#ffffff" fill-opacity="1"></use></g><g><use xlink:href="#b1wGPRLdrl" opacity="1" fill="#ffffff" fill-opacity="1"></use></g><g><use xlink:href="#bNI4Psjpw" opacity="1" fill="#ffffff" fill-opacity="1"></use></g><g><use xlink:href="#hjignU2y8" opacity="1" fill="#ffffff" fill-opacity="1"></use></g><g><use xlink:href="#c2WRdPSq63" opacity="1" fill="#ffffff" fill-opacity="1"></use></g><g><use xlink:href="#f14vS11M7M" opacity="1" fill="#ffffff" fill-opacity="1"></use></g><g><use xlink:href="#baGa7mmKo" opacity="1" fill="#ffffff" fill-opacity="1"></use></g><g><use xlink:href="#al4c7PoTe" opacity="1" fill="#ffffff" fill-opacity="1"></use></g><g><use xlink:href="#c30a8cEQpY" opacity="1" fill="#ffffff" fill-opacity="1"></use></g><g><use xlink:href="#czVFoTBA7" opacity="1" fill="#ffffff" fill-opacity="1"></use></g><g><use xlink:href="#b3ARGQbGkW" opacity="1" fill="#ffffff" fill-opacity="1"></use></g><g><use xlink:href="#e4J1UdQ1s" opacity="1" fill="#ffffff" fill-opacity="1"></use></g><g><use xlink:href="#a4oz27FCSQ" opacity="1" fill="#ffffff" fill-opacity="1"></use></g><g><use xlink:href="#mLdVTqBWd" opacity="1" fill="#ffffff" fill-opacity="1"></use></g><g><use xlink:href="#ebO6UKBPt" opacity="1" fill="#ffffff" fill-opacity="1"></use></g><g><use xlink:href="#a3f60xk60k" opacity="1" fill="#ffffff" fill-opacity="1"></use></g><g><use xlink:href="#bPlXCzOLU" opacity="1" fill="#ffffff" fill-opacity="1"></use></g><g><use xlink:href="#gpshgCoyF" opacity="1" fill="#ffffff" fill-opacity="1"></use></g><g><use xlink:href="#a1giwiu1CY" opacity="1" fill="#ffffff" fill-opacity="1"></use></g><g><use xlink:href="#dwdzgvbu9" opacity="1" fill="#ffffff" fill-opacity="1"></use></g><g><use xlink:href="#b2i1axxYoF" opacity="1" fill="#ffffff" fill-opacity="1"></use></g><g><use xlink:href="#d1XRjcJlGk" opacity="1" fill="#ffffff" fill-opacity="1"></use></g><g><use xlink:href="#alyXXPSQS" opacity="1" fill="#ffffff" fill-opacity="1"></use></g><g><use xlink:href="#b7ocFmj1f" opacity="1" fill="#ffffff" fill-opacity="1"></use></g><g><use xlink:href="#e4xAWd1F19" opacity="1" fill="#ffffff" fill-opacity="1"></use></g><g><use xlink:href="#c5nJRpquuP" opacity="1" fill="#ffffff" fill-opacity="1"></use></g><g><use xlink:href="#a3ZKsSfvIW" opacity="1" fill="#ffffff" fill-opacity="1"></use></g><g><use xlink:href="#eyoLNqZAN" opacity="1" fill="#ffffff" fill-opacity="1"></use></g><g><use xlink:href="#a1koDVTaxO" opacity="1" fill="#ffffff" fill-opacity="1"></use></g><g><use xlink:href="#ac2uvCEBR" opacity="1" fill="#ffffff" fill-opacity="1"></use></g><g><use xlink:href="#baRhRPJuc" opacity="1" fill="#ffffff" fill-opacity="1"></use></g><g><use xlink:href="#g7EbIOyqb" opacity="1" fill="#ffffff" fill-opacity="1"></use></g><g><use xlink:href="#fz3aaN16a" opacity="1" fill="#ffffff" fill-opacity="1"></use></g><g><use xlink:href="#dhQ0va9dm" opacity="1" fill="#ffffff" fill-opacity="1"></use></g><g><use xlink:href="#a5snqfGqmx" opacity="1" fill="#ffffff" fill-opacity="1"></use></g><g><use xlink:href="#b2jJaIdQYa" opacity="1" fill="#ffffff" fill-opacity="1"></use></g><g><use xlink:href="#amelw60RG" opacity="1" fill="#ffffff" fill-opacity="1"></use></g><g><use xlink:href="#i2Cl6VcbkD" opacity="1" fill="#ffffff" fill-opacity="1"></use></g></g></g></svg>