<?xml version="1.0" encoding="UTF-8" standalone="no"?>
<!DOCTYPE svg PUBLIC "-//W3C//DTD SVG 1.1//EN" "http://www.w3.org/Graphics/SVG/1.1/DTD/svg11.dtd">
<svg version="1.1" xmlns="http://www.w3.org/2000/svg" xmlns:xlink="http://www.w3.org/1999/xlink" preserveAspectRatio="xMidYMid meet" viewBox="0 0 500 500" width="500" height="500"><defs><path d="M500 250C500 387.98 387.98 500 250 500C112.02 500 0 387.98 0 250C0 112.02 112.02 0 250 0C387.98 0 500 112.02 500 250Z" id="a2jNOzryEa"></path><path d="M141.08 109.26C146.98 109.26 151.77 114.05 151.77 119.96C151.77 122.42 151.77 119.12 151.77 121.58C151.77 127.49 146.98 132.27 141.08 132.27C133.84 132.27 122.8 132.27 115.56 132.27C109.65 132.27 104.87 127.49 104.87 121.58C104.87 119.12 104.87 122.42 104.87 119.96C104.87 114.05 109.65 109.26 115.56 109.26C122.8 109.26 133.84 109.26 141.08 109.26Z" id="cFmC0bYS7"></path><path d="M224.54 417.53C230.45 417.53 235.23 422.32 235.23 428.22C235.23 430.69 235.23 427.39 235.23 429.85C235.23 435.76 230.45 440.54 224.54 440.54C217.3 440.54 206.26 440.54 199.02 440.54C193.12 440.54 188.33 435.76 188.33 429.85C188.33 427.39 188.33 430.69 188.33 428.22C188.33 422.32 193.12 417.53 199.02 417.53C206.26 417.53 217.3 417.53 224.54 417.53Z" id="a2uOUHW32N"></path><path d="M375.17 166.68C379.08 171.11 378.67 177.86 374.24 181.77C372.4 183.41 374.87 181.22 373.02 182.85C368.6 186.76 361.84 186.34 357.93 181.92C353.14 176.49 345.83 168.22 341.03 162.8C337.12 158.37 337.54 151.62 341.96 147.71C343.81 146.07 341.34 148.26 343.18 146.63C347.61 142.72 354.36 143.14 358.27 147.56C363.07 152.99 370.38 161.26 375.17 166.68Z" id="f1YWP1p4fa"></path><path d="M362.28 324.31C365.41 327.84 365.08 333.23 361.55 336.36C360.08 337.66 362.05 335.91 360.58 337.22C357.05 340.34 351.66 340.02 348.53 336.49C343.99 331.36 336.02 322.36 331.48 317.23C328.35 313.7 328.68 308.31 332.21 305.18C333.68 303.88 331.71 305.62 333.18 304.32C336.71 301.19 342.1 301.52 345.23 305.05C349.77 310.18 357.74 319.18 362.28 324.31Z" id="b23fuuGR7L"></path><path d="M237.11 229.86C240.71 233.18 240.93 238.79 237.61 242.39C236.07 244.06 237.47 242.55 235.93 244.21C232.61 247.81 227 248.04 223.41 244.72C219.03 240.68 212.4 234.57 208.02 230.53C204.43 227.22 204.2 221.61 207.52 218.01C209.06 216.34 207.67 217.85 209.2 216.18C212.52 212.59 218.13 212.36 221.73 215.68C226.11 219.72 232.73 225.83 237.11 229.86Z" id="a5mCCZZCox"></path><path d="M121.63 283.69C126.78 280.79 133.3 282.61 136.2 287.75C137.41 289.89 135.79 287.02 137 289.16C139.9 294.31 138.09 300.83 132.95 303.73C126.64 307.29 117.03 312.72 110.72 316.28C105.58 319.18 99.06 317.37 96.16 312.22C94.95 310.08 96.57 312.95 95.36 310.81C92.45 305.67 94.27 299.14 99.41 296.24C105.72 292.68 115.33 287.25 121.63 283.69Z" id="a1EK3lFkej"></path><path d="M262.37 100.39C266.93 100.39 270.62 104.08 270.62 108.64C270.62 110.54 270.62 107.99 270.62 109.89C270.62 114.45 266.93 118.14 262.37 118.14C255.21 118.14 241.96 118.14 234.8 118.14C230.24 118.14 226.55 114.45 226.55 109.89C226.55 107.99 226.55 110.54 226.55 108.64C226.55 104.08 230.24 100.39 234.8 100.39C241.96 100.39 255.21 100.39 262.37 100.39Z" id="a6lcE2OFT"></path><path d="M255.1 324.91C259.74 324.06 264.18 327.13 265.03 331.77C265.38 333.7 264.91 331.11 265.26 333.05C266.11 337.68 263.04 342.13 258.4 342.98C251.66 344.21 239.84 346.37 233.1 347.6C228.46 348.45 224.01 345.38 223.17 340.74C222.81 338.81 223.29 341.4 222.93 339.46C222.08 334.83 225.16 330.38 229.79 329.53C236.53 328.3 248.36 326.14 255.1 324.91Z" id="bBCxj4eb9"></path><path d="M135.05 184.9C138.94 182.53 144.01 183.77 146.38 187.66C147.37 189.28 146.05 187.11 147.03 188.73C149.4 192.62 148.17 197.7 144.28 200.07C139.09 203.23 130.55 208.42 125.36 211.58C121.47 213.95 116.39 212.72 114.02 208.83C113.03 207.2 114.36 209.38 113.37 207.76C111 203.86 112.24 198.79 116.13 196.42C121.32 193.26 129.85 188.06 135.05 184.9Z" id="a6arODREng"></path></defs><g><g><g></g><g><use xlink:href="#cFmC0bYS7" opacity="1" fill="#32691d" fill-opacity="1"></use></g><g><use xlink:href="#a2uOUHW32N" opacity="1" fill="#32691d" fill-opacity="1"></use></g><g><use xlink:href="#f1YWP1p4fa" opacity="1" fill="#32691d" fill-opacity="1"></use></g><g><use xlink:href="#b23fuuGR7L" opacity="1" fill="#32691d" fill-opacity="1"></use></g><g><use xlink:href="#a5mCCZZCox" opacity="1" fill="#32691d" fill-opacity="1"></use></g><g><use xlink:href="#a1EK3lFkej" opacity="1" fill="#32691d" fill-opacity="1"></use></g><g><use xlink:href="#a6lcE2OFT" opacity="1" fill="#32691d" fill-opacity="1"></use></g><g><use xlink:href="#bBCxj4eb9" opacity="1" fill="#32691d" fill-opacity="1"></use></g><g><use xlink:href="#a6arODREng" opacity="1" fill="#32691d" fill-opacity="1"></use></g></g></g></svg>