<?xml version="1.0" encoding="UTF-8" standalone="no"?>
<!DOCTYPE svg PUBLIC "-//W3C//DTD SVG 1.1//EN" "http://www.w3.org/Graphics/SVG/1.1/DTD/svg11.dtd">
<svg version="1.1" xmlns="http://www.w3.org/2000/svg" xmlns:xlink="http://www.w3.org/1999/xlink" preserveAspectRatio="xMidYMid meet" viewBox="0 0 500 500" width="500" height="500"><defs><path d="M303.64 173.91C304.89 174.81 305.18 176.55 304.29 177.81C303.32 179.17 302.02 180.99 301.04 182.35C300.15 183.61 298.4 183.9 297.15 183.01C290.16 178.02 271.49 164.7 264.5 159.72C263.25 158.82 262.96 157.08 263.85 155.82C264.83 154.46 266.12 152.64 267.1 151.27C267.99 150.02 269.74 149.73 270.99 150.62C277.98 155.6 296.65 168.93 303.64 173.91Z" id="c2s82Xi9SX"></path><path d="M169.47 233.5C168.68 234.83 166.97 235.26 165.64 234.47C164.2 233.62 162.28 232.48 160.84 231.62C159.51 230.83 159.08 229.12 159.87 227.79C164.25 220.42 175.98 200.7 180.36 193.32C181.15 192 182.87 191.56 184.19 192.35C185.63 193.21 187.55 194.35 188.99 195.21C190.32 195.99 190.75 197.71 189.97 199.03C185.58 206.41 173.86 226.13 169.47 233.5Z" id="b325Smc4rR"></path><path d="M261.91 246.76C260.61 245.92 260.24 244.2 261.07 242.9C261.98 241.49 263.19 239.61 264.1 238.2C264.93 236.91 266.66 236.54 267.96 237.37C275.17 242.02 294.45 254.45 301.66 259.1C302.96 259.94 303.33 261.67 302.49 262.96C301.59 264.37 300.38 266.25 299.47 267.66C298.63 268.95 296.9 269.33 295.61 268.49C288.4 263.84 269.11 251.41 261.91 246.76Z" id="a19Is3jwd5"></path><path d="M177.42 378.22C175.89 378.06 174.77 376.68 174.93 375.15C175.11 373.48 175.34 371.26 175.51 369.59C175.68 368.06 177.05 366.94 178.58 367.11C187.12 368 209.93 370.39 218.46 371.28C220 371.45 221.11 372.82 220.95 374.35C220.78 376.02 220.54 378.24 220.37 379.91C220.21 381.44 218.83 382.56 217.3 382.4C208.77 381.5 185.95 379.11 177.42 378.22Z" id="aGrzEndei"></path><path d="M357.9 351.31C357.24 349.91 357.85 348.25 359.24 347.59C360.76 346.88 362.78 345.93 364.3 345.22C365.7 344.57 367.36 345.17 368.01 346.57C371.66 354.33 381.4 375.1 385.04 382.87C385.7 384.27 385.1 385.93 383.7 386.59C382.18 387.3 380.16 388.25 378.64 388.96C377.25 389.61 375.58 389.01 374.93 387.61C371.28 379.85 361.54 359.08 357.9 351.31Z" id="c3TGKcZsIN"></path><path d="M82.83 288.36C81.7 287.3 81.65 285.54 82.71 284.41C83.86 283.19 85.39 281.57 86.54 280.35C87.59 279.22 89.36 279.17 90.49 280.23C96.73 286.11 113.44 301.83 119.68 307.71C120.81 308.77 120.86 310.54 119.8 311.66C118.65 312.88 117.12 314.51 115.97 315.73C114.92 316.85 113.15 316.9 112.02 315.85C105.78 309.97 89.07 294.24 82.83 288.36Z" id="aziDupKEG"></path><path d="M169.34 111.08C170.08 109.72 171.77 109.22 173.13 109.96C174.6 110.76 176.56 111.83 178.04 112.63C179.39 113.37 179.89 115.06 179.16 116.42C175.06 123.95 164.09 144.11 159.99 151.64C159.26 153 157.56 153.5 156.21 152.76C154.73 151.96 152.77 150.89 151.3 150.09C149.94 149.35 149.44 147.66 150.18 146.3C154.28 138.77 165.24 118.61 169.34 111.08Z" id="aAUwpIfY9"></path><path d="M384.55 173.46C383.01 173.3 381.9 171.93 382.06 170.39C382.24 168.72 382.47 166.5 382.64 164.84C382.8 163.3 384.18 162.19 385.71 162.35C394.24 163.24 417.06 165.63 425.59 166.53C427.13 166.69 428.24 168.06 428.08 169.6C427.91 171.26 427.67 173.49 427.5 175.15C427.34 176.69 425.96 177.8 424.43 177.64C415.9 176.75 393.08 174.35 384.55 173.46Z" id="a58okzHjdq"></path><path d="M396.76 250.77C397.33 249.34 398.96 248.64 400.39 249.21C401.94 249.84 404.02 250.67 405.57 251.29C407.01 251.86 407.7 253.49 407.13 254.92C403.94 262.89 395.42 284.19 392.23 292.15C391.66 293.58 390.04 294.28 388.6 293.71C387.05 293.08 384.97 292.25 383.42 291.63C381.98 291.06 381.29 289.43 381.86 288C385.05 280.04 393.57 258.73 396.76 250.77Z" id="amIBQQY7P"></path><path d="M280.5 94.56C280.2 96.07 278.74 97.06 277.22 96.77C275.58 96.45 273.38 96.03 271.74 95.71C270.22 95.42 269.23 93.96 269.52 92.44C271.15 84.02 275.48 61.49 277.1 53.07C277.4 51.55 278.86 50.56 280.37 50.85C282.02 51.17 284.21 51.59 285.86 51.91C287.37 52.2 288.37 53.66 288.07 55.18C286.45 63.6 282.12 86.13 280.5 94.56Z" id="c43lmIwVBz"></path><path d="M78.34 224.94C78.53 226.47 77.45 227.86 75.92 228.06C74.26 228.27 72.04 228.55 70.38 228.76C68.85 228.96 67.45 227.88 67.26 226.35C66.17 217.84 63.27 195.08 62.19 186.57C62 185.04 63.08 183.64 64.61 183.44C66.27 183.23 68.49 182.95 70.15 182.74C71.68 182.54 73.08 183.63 73.27 185.16C74.36 193.67 77.26 216.43 78.34 224.94Z" id="b3OmCNO1TX"></path><path d="M270.07 401.07C268.72 400.32 268.24 398.62 268.99 397.27C269.8 395.81 270.89 393.86 271.71 392.39C272.46 391.04 274.16 390.56 275.5 391.31C283 395.48 303.04 406.65 310.54 410.82C311.89 411.57 312.37 413.27 311.62 414.62C310.8 416.08 309.72 418.03 308.9 419.5C308.15 420.85 306.45 421.33 305.1 420.58C297.61 416.41 277.56 405.25 270.07 401.07Z" id="dMGQ9wbRe"></path></defs><g><g><g><use xlink:href="#c2s82Xi9SX" opacity="1" fill="#ffffff" fill-opacity="1"></use></g><g><use xlink:href="#b325Smc4rR" opacity="1" fill="#ffffff" fill-opacity="1"></use></g><g><use xlink:href="#a19Is3jwd5" opacity="1" fill="#ffffff" fill-opacity="1"></use></g><g><use xlink:href="#aGrzEndei" opacity="1" fill="#ffffff" fill-opacity="1"></use></g><g><use xlink:href="#c3TGKcZsIN" opacity="1" fill="#ffffff" fill-opacity="1"></use></g><g><use xlink:href="#aziDupKEG" opacity="1" fill="#ffffff" fill-opacity="1"></use></g><g><use xlink:href="#aAUwpIfY9" opacity="1" fill="#ffffff" fill-opacity="1"></use></g><g><use xlink:href="#a58okzHjdq" opacity="1" fill="#ffffff" fill-opacity="1"></use></g><g><use xlink:href="#amIBQQY7P" opacity="1" fill="#ffffff" fill-opacity="1"></use></g><g><use xlink:href="#c43lmIwVBz" opacity="1" fill="#ffffff" fill-opacity="1"></use></g><g><use xlink:href="#b3OmCNO1TX" opacity="1" fill="#ffffff" fill-opacity="1"></use></g><g><use xlink:href="#dMGQ9wbRe" opacity="1" fill="#ffffff" fill-opacity="1"></use></g></g></g></svg>