<?xml version="1.0" encoding="UTF-8" standalone="no"?>
<!DOCTYPE svg PUBLIC "-//W3C//DTD SVG 1.1//EN" "http://www.w3.org/Graphics/SVG/1.1/DTD/svg11.dtd">
<svg version="1.1" xmlns="http://www.w3.org/2000/svg" xmlns:xlink="http://www.w3.org/1999/xlink" preserveAspectRatio="xMidYMid meet" viewBox="0 0 500 500" width="500" height="500"><defs><path d="M140.61 104.71C140.56 122.58 125.58 137.05 107.17 137C88.77 136.94 73.87 122.4 73.92 104.53C73.97 86.66 88.96 72.2 107.36 72.25C125.77 72.3 140.67 86.85 140.61 104.71Z" id="eTMWXxrKB"></path><path d="M113.22 111.35C110.3 114.18 110.3 118.79 113.22 121.62C114.68 123.04 116.59 123.75 118.51 123.75C120.43 123.75 122.34 123.04 123.8 121.62C125.22 120.25 126 118.43 126 116.49C126 114.55 125.22 112.72 123.8 111.35C122.39 109.98 120.51 109.22 118.51 109.22C116.51 109.22 114.63 109.98 113.22 111.35ZM114.87 120.03C112.86 118.07 112.86 114.9 114.87 112.95C114.87 112.95 114.87 112.95 114.87 112.95C115.84 112 117.13 111.48 118.51 111.48C119.89 111.48 121.18 112 122.16 112.95C123.13 113.89 123.67 115.15 123.67 116.49C123.67 117.82 123.13 119.08 122.16 120.03C120.15 121.98 116.88 121.98 114.87 120.03Z" id="gIQRXQcJk"></path><path d="M100.25 98.76C103.17 95.93 103.17 91.32 100.25 88.48C97.34 85.65 92.59 85.65 89.67 88.48C89.67 88.48 89.67 88.48 89.67 88.48C88.26 89.86 87.48 91.68 87.48 93.62C87.48 95.56 88.26 97.39 89.67 98.76C91.08 100.13 92.96 100.89 94.96 100.89C96.96 100.89 98.84 100.13 100.25 98.76ZM98.61 90.08C100.62 92.03 100.62 95.21 98.61 97.16C97.63 98.11 96.34 98.63 94.96 98.63C93.59 98.63 92.29 98.11 91.32 97.16C90.34 96.22 89.81 94.96 89.81 93.62C89.81 92.28 90.34 91.03 91.32 90.08C93.33 88.13 96.6 88.13 98.61 90.08Z" id="efSzJ5sWO"></path><path d="M107.28 71.96C98.27 71.96 89.8 75.37 83.42 81.55C77.05 87.74 73.54 95.97 73.54 104.71C73.54 113.46 77.05 121.69 83.43 127.88C89.8 134.06 98.27 137.47 107.28 137.47C107.28 137.47 107.28 137.47 107.28 137.47C116.29 137.47 124.76 134.06 131.13 127.88C137.51 121.69 141.01 113.46 141.01 104.71C141.01 95.97 137.51 87.74 131.13 81.55C124.76 75.37 116.29 71.96 107.28 71.96ZM129.49 83.15C130.61 84.25 131.64 85.4 132.56 86.61C130.61 87.56 128.21 87.22 126.61 85.67C125.04 84.14 124.68 81.83 125.62 79.95C126.98 80.91 128.27 81.98 129.49 83.15ZM104.68 79.75C102.67 81.7 99.4 81.7 97.39 79.75C96.43 78.81 95.9 77.58 95.88 76.28C99.02 75.1 102.35 74.41 105.79 74.26C106.6 76.11 106.18 78.29 104.68 79.75ZM88.52 80.25C89.07 81.99 88.61 83.92 87.24 85.25C85.86 86.59 83.88 87.04 82.09 86.5C82.99 85.33 83.98 84.21 85.07 83.15C86.16 82.1 87.31 81.13 88.52 80.25ZM81.56 95.11C83.57 97.07 83.57 100.24 81.56 102.19C80.07 103.65 77.83 104.05 75.92 103.27C76.08 100 76.78 96.75 78.02 93.65C79.34 93.67 80.61 94.19 81.56 95.11ZM85.07 126.28C83.85 125.09 82.76 123.83 81.78 122.52C83.72 121.61 86.09 121.96 87.67 123.49C89.26 125.04 89.61 127.37 88.63 129.26C87.38 128.36 86.19 127.36 85.07 126.28ZM108.62 135.18C107.65 133.28 108.02 130.94 109.6 129.41C111.61 127.46 114.88 127.46 116.89 129.41C117.93 130.43 118.47 131.83 118.39 133.25C115.29 134.39 112.01 135.04 108.62 135.18ZM125.89 129.28C125.15 127.46 125.56 125.34 127.04 123.9C128.52 122.47 130.71 122.07 132.58 122.79C131.65 124.01 130.62 125.17 129.49 126.28C128.36 127.37 127.16 128.38 125.89 129.28ZM125.4 122.3C123.12 124.51 122.58 127.84 123.94 130.58C122.89 131.22 121.8 131.79 120.69 132.31C120.54 130.63 119.79 129.03 118.53 127.81C115.61 124.98 110.87 124.98 107.95 127.81C105.93 129.77 105.28 132.64 106.12 135.19C104.82 135.14 103.54 135.02 102.28 134.82C101.95 134.28 101.55 133.77 101.09 133.32C98.92 131.21 95.59 130.62 92.81 131.79C92.05 131.41 91.3 130.99 90.57 130.54C92.17 127.76 91.71 124.22 89.31 121.89C86.95 119.59 83.34 119.13 80.48 120.62C80.01 119.87 79.58 119.11 79.18 118.33C80.31 115.64 79.68 112.54 77.54 110.45C77.15 110.08 76.73 109.75 76.27 109.47C76.07 108.2 75.94 106.93 75.9 105.65C76.56 105.83 77.24 105.92 77.91 105.92C79.85 105.92 81.77 105.19 83.21 103.79C86.13 100.96 86.13 96.35 83.21 93.51C82.05 92.39 80.57 91.68 78.99 91.46C79.51 90.43 80.08 89.41 80.73 88.43C81.65 88.8 82.62 88.98 83.59 88.98C85.52 88.98 87.44 88.26 88.88 86.85C91.06 84.74 91.66 81.61 90.5 78.92C91.51 78.3 92.56 77.74 93.63 77.24C93.85 78.78 94.58 80.22 95.75 81.34C97.2 82.76 99.12 83.47 101.04 83.47C102.95 83.47 104.87 82.76 106.33 81.34C108.28 79.45 108.96 76.72 108.24 74.24C109.57 74.27 110.87 74.39 112.16 74.59C112.46 75.04 112.8 75.46 113.19 75.84C114.63 77.23 116.54 77.97 118.48 77.97C119.44 77.97 120.4 77.79 121.32 77.42C122.12 77.81 122.9 78.23 123.67 78.69C122.13 81.47 122.6 84.97 124.97 87.27C126.42 88.68 128.34 89.4 130.26 89.4C131.5 89.4 132.75 89.1 133.88 88.49C134.34 89.21 134.77 89.94 135.16 90.68C133.97 93.38 134.58 96.6 136.74 98.7C137.2 99.15 137.71 99.53 138.27 99.85C138.47 101.08 138.6 102.33 138.65 103.59C136.03 102.78 133.08 103.41 131.07 105.37C128.15 108.2 128.15 112.81 131.07 115.64C132.32 116.86 133.96 117.58 135.68 117.74C135.16 118.81 134.57 119.86 133.91 120.89C131.09 119.57 127.67 120.1 125.4 122.3ZM132.72 114.04C130.71 112.09 130.71 108.92 132.71 106.96C134.29 105.44 136.69 105.08 138.64 106.01C138.5 109.24 137.84 112.44 136.65 115.5C135.2 115.58 133.76 115.06 132.72 114.04Z" id="b3IMDu2iCd"></path><path d="M117.7 93.25C119.11 91.88 119.89 90.05 119.89 88.11C119.89 86.17 119.11 84.35 117.7 82.98C116.29 81.6 114.41 80.85 112.41 80.85C110.41 80.85 108.53 81.6 107.12 82.98C104.2 85.81 104.2 90.42 107.12 93.25C108.58 94.67 110.49 95.38 112.41 95.38C114.33 95.38 116.24 94.67 117.7 93.25ZM112.41 83.11C113.79 83.11 115.08 83.63 116.05 84.57C117.03 85.52 117.56 86.78 117.56 88.11C117.56 89.45 117.03 90.71 116.05 91.65C114.04 93.61 110.77 93.6 108.76 91.65C106.75 89.7 106.75 86.53 108.76 84.57C109.74 83.63 111.03 83.11 112.41 83.11Z" id="a2lVuiGYAM"></path><path d="M101.35 110.19C102.81 111.61 104.72 112.32 106.64 112.32C108.56 112.32 110.47 111.61 111.93 110.19C114.85 107.36 114.85 102.75 111.93 99.92C109.01 97.08 104.27 97.08 101.35 99.92C98.43 102.75 98.43 107.36 101.35 110.19ZM102.99 108.59C100.98 106.64 100.98 103.47 102.99 101.51C105 99.56 108.27 99.56 110.29 101.51C112.3 103.47 112.3 106.64 110.29 108.59C108.28 110.54 105 110.54 102.99 108.59Z" id="d5NrmCfz3y"></path><path d="M94.58 105.42C93.17 104.05 91.29 103.29 89.29 103.29C89.29 103.29 89.29 103.29 89.29 103.29C87.29 103.29 85.41 104.05 84 105.42C82.58 106.8 81.81 108.62 81.81 110.56C81.81 112.5 82.58 114.33 84 115.7C85.46 117.12 87.37 117.82 89.29 117.82C91.21 117.82 93.12 117.12 94.58 115.7C94.58 115.7 94.58 115.7 94.58 115.7C96.53 110.74 96.53 107.31 94.58 105.42ZM85.65 114.1C84.67 113.16 84.14 111.9 84.14 110.56C84.14 109.22 84.67 107.97 85.65 107.02C86.62 106.08 87.91 105.56 89.29 105.56C90.67 105.56 91.96 106.08 92.94 107.02C94.95 108.97 94.95 112.15 92.94 114.1C90.93 116.05 87.66 116.05 85.65 114.1Z" id="c1eGRSktpe"></path><path d="M118.89 104.68C120.35 106.1 122.27 106.81 124.18 106.81C126.1 106.81 128.02 106.1 129.48 104.68C130.89 103.31 131.67 101.49 131.67 99.55C131.67 97.61 130.89 95.78 129.48 94.41C126.56 91.57 121.81 91.57 118.89 94.41C118.89 94.41 118.89 94.41 118.89 94.41C115.97 97.24 115.97 101.85 118.89 104.68ZM127.83 96.01C128.8 96.95 129.34 98.21 129.34 99.55C129.34 100.88 128.8 102.14 127.83 103.09C126.86 104.03 125.56 104.55 124.18 104.55C122.81 104.55 121.51 104.03 120.54 103.09C118.53 101.13 118.53 97.96 120.54 96.01C122.55 94.06 125.82 94.06 127.83 96.01Z" id="aLXyGEReD"></path><path d="M93.58 121.99C93.58 123.93 94.36 125.76 95.77 127.13C97.19 128.5 99.07 129.26 101.06 129.26C103.06 129.26 104.94 128.5 106.36 127.13C107.77 125.76 108.55 123.93 108.55 121.99C108.55 120.05 107.77 118.23 106.36 116.86C103.44 114.02 98.69 114.02 95.77 116.86C94.36 118.23 93.58 120.05 93.58 121.99ZM104.71 125.53C103.74 126.48 102.44 127 101.06 127C99.69 127 98.39 126.48 97.42 125.53C96.45 124.59 95.91 123.33 95.91 121.99C95.91 120.66 96.45 119.4 97.42 118.45C98.42 117.48 99.74 116.99 101.06 116.99C102.38 116.99 103.71 117.48 104.71 118.45C105.68 119.4 106.22 120.66 106.22 121.99C106.22 123.33 105.68 124.59 104.71 125.53C104.71 125.53 104.71 125.53 104.71 125.53Z" id="c378H1pKAG"></path><path d="M419.24 123.75C419.19 141.62 404.2 156.08 385.8 156.03C367.39 155.98 352.49 141.43 352.55 123.56C352.6 105.7 367.58 91.23 385.99 91.28C404.39 91.33 419.29 105.88 419.24 123.75Z" id="k30dtUgemc"></path><path d="M391.84 130.38C388.93 133.22 388.93 137.83 391.84 140.66C393.3 142.08 395.22 142.78 397.14 142.78C399.05 142.78 400.97 142.08 402.43 140.66C403.84 139.29 404.62 137.46 404.62 135.52C404.62 133.58 403.84 131.76 402.43 130.38C401.01 129.01 399.14 128.25 397.14 128.25C395.14 128.25 393.26 129.01 391.84 130.38ZM393.49 139.06C391.48 137.11 391.48 133.93 393.49 131.98C393.49 131.98 393.49 131.98 393.49 131.98C394.46 131.04 395.76 130.52 397.14 130.52C398.51 130.52 399.81 131.04 400.78 131.98C401.76 132.93 402.29 134.18 402.29 135.52C402.29 136.86 401.76 138.12 400.78 139.06C398.77 141.01 395.5 141.01 393.49 139.06Z" id="a83WAfQSF"></path><path d="M378.88 117.79C381.8 114.96 381.8 110.35 378.88 107.52C375.96 104.68 371.21 104.68 368.3 107.52C368.3 107.52 368.3 107.52 368.3 107.52C366.88 108.89 366.1 110.72 366.1 112.66C366.1 114.6 366.88 116.42 368.3 117.79C369.71 119.17 371.59 119.92 373.59 119.92C375.59 119.92 377.47 119.17 378.88 117.79ZM377.23 109.12C379.24 111.07 379.24 114.24 377.23 116.2C376.26 117.14 374.96 117.66 373.59 117.66C372.21 117.66 370.92 117.14 369.94 116.2C368.97 115.25 368.43 113.99 368.43 112.66C368.43 111.32 368.97 110.06 369.94 109.12C371.95 107.17 375.22 107.17 377.23 109.12Z" id="a41Ahar6H"></path><path d="M385.9 90.99C376.89 90.99 368.42 94.4 362.05 100.59C355.68 106.77 352.17 115 352.17 123.75C352.17 132.5 355.68 140.72 362.05 146.91C368.42 153.1 376.89 156.5 385.9 156.5C385.91 156.5 385.9 156.5 385.9 156.5C394.91 156.5 403.39 153.1 409.76 146.91C416.13 140.72 419.64 132.5 419.64 123.75C419.64 115 416.13 106.77 409.76 100.59C403.39 94.4 394.92 90.99 385.9 90.99ZM408.11 102.19C409.24 103.28 410.26 104.44 411.18 105.65C409.24 106.59 406.84 106.26 405.24 104.71C403.66 103.17 403.31 100.87 404.24 98.99C405.61 99.94 406.9 101.01 408.11 102.19ZM383.31 98.78C381.3 100.73 378.03 100.73 376.02 98.78C375.06 97.85 374.53 96.61 374.51 95.32C377.64 94.13 380.98 93.45 384.41 93.29C385.22 95.14 384.81 97.32 383.31 98.78ZM367.15 99.29C367.7 101.02 367.24 102.95 365.86 104.29C364.49 105.62 362.5 106.07 360.71 105.54C361.61 104.37 362.6 103.25 363.7 102.19C364.78 101.13 365.94 100.16 367.15 99.29ZM360.19 114.15C362.2 116.1 362.2 119.28 360.19 121.23C358.69 122.68 356.45 123.08 354.55 122.31C354.71 119.03 355.41 115.78 356.64 112.69C357.97 112.71 359.23 113.22 360.19 114.15ZM363.7 145.31C362.48 144.13 361.38 142.87 360.41 141.55C362.34 140.64 364.71 140.99 366.29 142.52C367.89 144.07 368.23 146.41 367.26 148.29C366.01 147.4 364.82 146.4 363.7 145.31ZM387.25 154.21C386.28 152.32 386.64 149.98 388.22 148.45C390.23 146.49 393.5 146.49 395.51 148.45C396.56 149.46 397.1 150.87 397.01 152.29C393.92 153.42 390.63 154.08 387.25 154.21ZM404.52 148.32C403.77 146.5 404.19 144.38 405.67 142.94C407.15 141.5 409.33 141.1 411.2 141.82C410.28 143.04 409.25 144.21 408.11 145.31C406.98 146.41 405.78 147.41 404.52 148.32ZM404.02 141.34C401.75 143.55 401.21 146.87 402.56 149.61C401.51 150.25 400.43 150.83 399.32 151.34C399.16 149.66 398.41 148.07 397.16 146.85C394.24 144.01 389.49 144.01 386.57 146.85C384.56 148.81 383.9 151.68 384.75 154.22C383.45 154.17 382.16 154.05 380.9 153.86C380.57 153.31 380.18 152.81 379.71 152.35C377.54 150.25 374.22 149.66 371.44 150.83C370.67 150.44 369.92 150.03 369.19 149.58C370.79 146.79 370.34 143.25 367.94 140.92C365.57 138.63 361.97 138.17 359.11 139.66C358.64 138.91 358.2 138.15 357.8 137.37C358.93 134.68 358.31 131.57 356.16 129.49C355.78 129.12 355.35 128.78 354.9 128.5C354.69 127.24 354.57 125.96 354.53 124.69C355.19 124.87 355.86 124.96 356.54 124.96C358.47 124.96 360.39 124.23 361.84 122.83C364.75 119.99 364.75 115.38 361.84 112.55C360.68 111.42 359.2 110.72 357.62 110.5C358.13 109.46 358.71 108.45 359.35 107.46C360.27 107.83 361.25 108.02 362.22 108.02C364.15 108.02 366.06 107.29 367.51 105.89C369.68 103.77 370.28 100.64 369.13 97.96C370.14 97.34 371.18 96.77 372.26 96.27C372.48 97.81 373.21 99.25 374.37 100.38C375.83 101.8 377.75 102.5 379.66 102.5C381.58 102.5 383.5 101.8 384.95 100.38C386.9 98.49 387.59 95.75 386.87 93.27C388.19 93.31 389.5 93.43 390.79 93.62C391.08 94.07 391.43 94.49 391.82 94.87C393.26 96.27 395.17 97 397.11 97C398.06 97 399.03 96.82 399.94 96.46C400.74 96.84 401.53 97.27 402.29 97.73C400.75 100.5 401.22 104.01 403.59 106.3C405.05 107.72 406.96 108.44 408.89 108.44C410.13 108.44 411.37 108.14 412.5 107.53C412.96 108.24 413.39 108.97 413.79 109.72C412.59 112.41 413.2 115.63 415.37 117.74C415.83 118.18 416.34 118.57 416.89 118.88C417.1 120.12 417.23 121.37 417.27 122.62C414.66 121.81 411.71 122.45 409.69 124.4C406.78 127.23 406.78 131.84 409.69 134.68C410.94 135.89 412.58 136.62 414.3 136.77C413.78 137.85 413.19 138.9 412.53 139.92C409.72 138.61 406.29 139.13 404.02 141.34ZM411.34 133.08C409.33 131.13 409.33 127.95 411.34 126C412.91 124.47 415.31 124.11 417.27 125.05C417.13 128.27 416.46 131.48 415.28 134.53C413.82 134.61 412.38 134.09 411.34 133.08Z" id="aDakqKyyN"></path><path d="M396.33 112.29C397.74 110.91 398.52 109.09 398.52 107.15C398.52 105.21 397.74 103.38 396.33 102.01C394.91 100.64 393.03 99.88 391.03 99.88C389.04 99.88 387.16 100.64 385.74 102.01C382.82 104.84 382.82 109.45 385.74 112.29C387.2 113.7 389.12 114.41 391.03 114.41C392.95 114.41 394.87 113.7 396.33 112.29ZM391.03 102.14C392.41 102.14 393.71 102.66 394.68 103.61C395.65 104.56 396.19 105.81 396.19 107.15C396.19 108.49 395.65 109.74 394.68 110.69C392.67 112.64 389.4 112.64 387.39 110.69C385.38 108.74 385.38 105.56 387.39 103.61C388.36 102.66 389.66 102.14 391.03 102.14Z" id="kvyDqUAS2"></path><path d="M379.97 129.23C381.43 130.64 383.35 131.35 385.26 131.35C387.18 131.35 389.1 130.64 390.56 129.23C393.47 126.39 393.47 121.78 390.56 118.95C387.64 116.12 382.89 116.12 379.97 118.95C377.05 121.78 377.05 126.39 379.97 129.23ZM381.62 127.63C379.61 125.68 379.61 122.5 381.62 120.55C383.63 118.6 386.9 118.6 388.91 120.55C390.92 122.5 390.92 125.68 388.91 127.63C386.9 129.58 383.63 129.58 381.62 127.63Z" id="eX7Os7IoZ"></path><path d="M373.21 124.46C371.79 123.09 369.91 122.33 367.92 122.33C367.92 122.33 367.92 122.33 367.92 122.33C365.92 122.33 364.04 123.09 362.62 124.46C361.21 125.83 360.43 127.66 360.43 129.6C360.43 131.54 361.21 133.36 362.62 134.73C364.08 136.15 366 136.86 367.92 136.86C369.83 136.86 371.75 136.15 373.21 134.73C373.21 134.73 373.21 134.73 373.21 134.73C375.15 129.77 375.15 126.35 373.21 124.46ZM364.27 133.14C363.3 132.19 362.76 130.93 362.76 129.6C362.76 128.26 363.3 127 364.27 126.06C365.24 125.11 366.54 124.59 367.92 124.59C369.29 124.59 370.59 125.11 371.56 126.06C373.57 128.01 373.57 131.18 371.56 133.14C369.55 135.09 366.28 135.09 364.27 133.14Z" id="a68k0U8mka"></path><path d="M397.52 123.72C398.98 125.14 400.89 125.84 402.81 125.84C404.73 125.84 406.64 125.14 408.1 123.72C409.51 122.35 410.29 120.52 410.29 118.58C410.29 116.64 409.51 114.82 408.1 113.44C405.18 110.61 400.43 110.61 397.52 113.44C397.52 113.44 397.52 113.44 397.52 113.44C394.6 116.28 394.6 120.89 397.52 123.72ZM406.45 115.04C407.43 115.99 407.96 117.24 407.96 118.58C407.96 119.92 407.43 121.18 406.45 122.12C405.48 123.07 404.19 123.59 402.81 123.59C401.43 123.59 400.14 123.07 399.16 122.12C397.15 120.17 397.15 116.99 399.16 115.04C401.17 113.09 404.44 113.09 406.45 115.04Z" id="jsdcwDi7F"></path><path d="M372.21 141.03C372.21 142.97 372.98 144.79 374.4 146.17C375.81 147.54 377.69 148.3 379.69 148.3C381.69 148.3 383.57 147.54 384.98 146.17C386.4 144.79 387.17 142.97 387.17 141.03C387.17 139.09 386.4 137.26 384.98 135.89C382.06 133.06 377.32 133.06 374.4 135.89C372.98 137.26 372.21 139.09 372.21 141.03ZM383.34 144.57C382.36 145.51 381.07 146.03 379.69 146.03C378.31 146.03 377.02 145.51 376.04 144.57C375.07 143.62 374.53 142.37 374.53 141.03C374.53 139.69 375.07 138.43 376.04 137.49C377.05 136.51 378.37 136.03 379.69 136.03C381.01 136.03 382.33 136.51 383.33 137.49C384.31 138.43 384.84 139.69 384.84 141.03C384.84 142.37 384.31 143.62 383.34 144.57C383.34 144.57 383.34 144.57 383.34 144.57Z" id="b34kQsogG6"></path><path d="M157.52 399.37C157.47 417.24 142.48 431.71 124.08 431.66C105.67 431.6 90.78 417.06 90.83 399.19C90.88 381.32 105.86 366.86 124.27 366.91C142.67 366.96 157.57 381.51 157.52 399.37Z" id="e2dkhQJrTl"></path><path d="M130.13 406.01C127.21 408.84 127.21 413.45 130.13 416.28C131.58 417.7 133.5 418.41 135.42 418.41C137.33 418.41 139.25 417.7 140.71 416.28C142.12 414.91 142.9 413.09 142.9 411.15C142.9 409.21 142.12 407.38 140.71 406.01C139.3 404.64 137.42 403.88 135.42 403.88C133.42 403.88 131.54 404.64 130.13 406.01ZM131.77 414.69C129.76 412.73 129.76 409.56 131.77 407.61C131.77 407.61 131.77 407.61 131.77 407.61C132.75 406.66 134.04 406.14 135.42 406.14C136.79 406.14 138.09 406.66 139.06 407.61C140.04 408.55 140.57 409.81 140.57 411.15C140.57 412.48 140.04 413.74 139.06 414.69C137.05 416.64 133.78 416.64 131.77 414.69Z" id="am3k36JJP"></path><path d="M117.16 393.42C120.08 390.59 120.08 385.98 117.16 383.14C114.24 380.31 109.49 380.31 106.58 383.14C106.58 383.14 106.58 383.14 106.58 383.14C105.16 384.52 104.38 386.34 104.38 388.28C104.38 390.22 105.16 392.05 106.58 393.42C107.99 394.79 109.87 395.55 111.87 395.55C113.87 395.55 115.75 394.79 117.16 393.42ZM115.51 384.74C117.52 386.69 117.52 389.87 115.51 391.82C114.54 392.77 113.25 393.29 111.87 393.29C110.49 393.29 109.2 392.77 108.22 391.82C107.25 390.88 106.71 389.62 106.71 388.28C106.71 386.94 107.25 385.69 108.22 384.74C110.23 382.79 113.5 382.79 115.51 384.74Z" id="g1xMEM6iU"></path><path d="M124.19 366.62C115.17 366.62 106.7 370.03 100.33 376.21C93.96 382.4 90.45 390.63 90.45 399.37C90.45 408.12 93.96 416.35 100.33 422.54C106.7 428.72 115.17 432.13 124.19 432.13C124.19 432.13 124.19 432.13 124.19 432.13C133.2 432.13 141.67 428.72 148.04 422.54C154.41 416.35 157.92 408.12 157.92 399.37C157.92 390.63 154.41 382.4 148.04 376.21C141.67 370.03 133.2 366.62 124.19 366.62ZM146.39 377.81C147.52 378.91 148.54 380.06 149.46 381.27C147.52 382.22 145.12 381.88 143.52 380.33C141.94 378.8 141.59 376.49 142.52 374.61C143.89 375.57 145.18 376.64 146.39 377.81ZM121.59 374.41C119.58 376.36 116.31 376.36 114.3 374.41C113.34 373.47 112.81 372.24 112.79 370.94C115.92 369.76 119.26 369.07 122.69 368.92C123.5 370.77 123.09 372.95 121.59 374.41ZM105.43 374.91C105.98 376.65 105.52 378.58 104.14 379.91C102.77 381.25 100.78 381.7 98.99 381.16C99.89 379.99 100.89 378.87 101.98 377.81C103.06 376.76 104.22 375.79 105.43 374.91ZM98.47 389.77C100.48 391.73 100.48 394.9 98.47 396.85C96.97 398.31 94.74 398.71 92.83 397.93C92.99 394.66 93.69 391.41 94.92 388.31C96.25 388.33 97.52 388.85 98.47 389.77ZM101.98 420.94C100.76 419.75 99.66 418.49 98.69 417.18C100.62 416.27 103 416.62 104.57 418.15C106.17 419.7 106.52 422.03 105.54 423.92C104.29 423.02 103.1 422.02 101.98 420.94ZM125.53 429.84C124.56 427.94 124.93 425.6 126.5 424.07C128.51 422.12 131.78 422.12 133.79 424.07C134.84 425.09 135.38 426.49 135.29 427.91C132.2 429.05 128.91 429.7 125.53 429.84ZM142.8 423.94C142.06 422.12 142.47 420 143.95 418.56C145.43 417.13 147.61 416.73 149.49 417.45C148.56 418.67 147.53 419.83 146.39 420.94C145.26 422.03 144.06 423.04 142.8 423.94ZM142.3 416.96C140.03 419.17 139.49 422.5 140.84 425.24C139.79 425.88 138.71 426.45 137.6 426.97C137.44 425.29 136.69 423.69 135.44 422.47C132.52 419.64 127.77 419.64 124.86 422.47C122.84 424.43 122.19 427.3 123.03 429.85C121.73 429.8 120.45 429.68 119.18 429.48C118.86 428.93 118.46 428.43 117.99 427.98C115.82 425.87 112.5 425.28 109.72 426.45C108.95 426.07 108.2 425.65 107.47 425.2C109.07 422.42 108.62 418.88 106.22 416.55C103.85 414.25 100.25 413.79 97.39 415.28C96.92 414.53 96.48 413.77 96.08 412.99C97.22 410.3 96.59 407.2 94.44 405.11C94.06 404.74 93.63 404.41 93.18 404.13C92.97 402.86 92.85 401.59 92.81 400.31C93.47 400.49 94.15 400.58 94.82 400.58C96.76 400.58 98.67 399.85 100.12 398.45C103.03 395.62 103.03 391.01 100.12 388.17C98.96 387.05 97.48 386.34 95.9 386.12C96.41 385.09 96.99 384.07 97.63 383.09C98.56 383.46 99.53 383.64 100.5 383.64C102.43 383.64 104.34 382.92 105.79 381.51C107.96 379.4 108.56 376.27 107.41 373.58C108.42 372.96 109.46 372.4 110.54 371.9C110.76 373.44 111.49 374.88 112.65 376C114.11 377.42 116.03 378.13 117.94 378.13C119.86 378.13 121.78 377.42 123.24 376C125.18 374.11 125.87 371.38 125.15 368.9C126.47 368.93 127.78 369.05 129.07 369.25C129.36 369.7 129.71 370.12 130.1 370.5C131.54 371.89 133.45 372.63 135.39 372.63C136.34 372.63 137.31 372.45 138.23 372.08C139.03 372.47 139.81 372.89 140.57 373.35C139.03 376.13 139.51 379.63 141.87 381.93C143.33 383.34 145.24 384.06 147.17 384.06C148.41 384.06 149.66 383.76 150.78 383.15C151.25 383.87 151.67 384.6 152.07 385.34C150.87 388.04 151.48 391.26 153.65 393.36C154.11 393.81 154.62 394.19 155.18 394.51C155.38 395.74 155.51 396.99 155.55 398.25C152.94 397.44 149.99 398.07 147.97 400.02C145.06 402.86 145.06 407.47 147.98 410.3C149.23 411.52 150.86 412.24 152.58 412.4C152.06 413.47 151.47 414.52 150.82 415.55C148 414.23 144.58 414.76 142.3 416.96ZM149.62 408.7C147.61 406.75 147.61 403.58 149.62 401.62C151.19 400.1 153.6 399.74 155.55 400.67C155.41 403.9 154.75 407.1 153.56 410.16C152.1 410.24 150.67 409.72 149.62 408.7Z" id="bfQDt99mD"></path><path d="M134.61 387.91C136.02 386.54 136.8 384.71 136.8 382.77C136.8 380.83 136.02 379.01 134.61 377.64C133.19 376.26 131.31 375.51 129.32 375.51C127.32 375.51 125.44 376.26 124.02 377.64C121.11 380.47 121.11 385.08 124.02 387.91C125.48 389.33 127.4 390.04 129.32 390.04C131.23 390.04 133.15 389.33 134.61 387.91ZM129.32 377.77C130.69 377.77 131.99 378.29 132.96 379.23C133.93 380.18 134.47 381.44 134.47 382.77C134.47 384.11 133.93 385.37 132.96 386.31C130.95 388.27 127.68 388.26 125.67 386.31C123.66 384.36 123.66 381.19 125.67 379.23C126.64 378.29 127.94 377.77 129.32 377.77Z" id="diyfYt6a3"></path><path d="M118.25 404.85C119.71 406.27 121.63 406.98 123.55 406.98C125.46 406.98 127.38 406.27 128.84 404.85C131.76 402.02 131.76 397.41 128.84 394.58C125.92 391.74 121.17 391.74 118.25 394.58C115.34 397.41 115.34 402.02 118.25 404.85ZM119.9 403.25C117.89 401.3 117.89 398.13 119.9 396.17C121.91 394.22 125.18 394.22 127.19 396.17C129.2 398.13 129.2 401.3 127.19 403.25C125.18 405.2 121.91 405.2 119.9 403.25Z" id="a4AsRqlvB"></path><path d="M111.49 400.08C110.07 398.71 108.2 397.95 106.2 397.95C106.2 397.95 106.2 397.95 106.2 397.95C104.2 397.95 102.32 398.71 100.9 400.08C99.49 401.46 98.71 403.28 98.71 405.22C98.71 407.16 99.49 408.99 100.9 410.36C102.36 411.78 104.28 412.48 106.2 412.48C108.11 412.48 110.03 411.78 111.49 410.36C111.49 410.36 111.49 410.36 111.49 410.36C113.43 405.4 113.43 401.97 111.49 400.08ZM102.55 408.76C101.58 407.82 101.04 406.56 101.04 405.22C101.04 403.88 101.58 402.63 102.55 401.68C103.52 400.74 104.82 400.22 106.2 400.22C107.57 400.22 108.87 400.74 109.84 401.68C111.85 403.63 111.85 406.81 109.84 408.76C107.83 410.71 104.56 410.71 102.55 408.76Z" id="av7WwsUMu"></path><path d="M135.8 399.34C137.26 400.76 139.17 401.47 141.09 401.47C143.01 401.47 144.92 400.76 146.38 399.34C147.8 397.97 148.57 396.15 148.57 394.21C148.57 392.27 147.8 390.44 146.38 389.07C143.46 386.23 138.72 386.23 135.8 389.07C135.8 389.07 135.8 389.07 135.8 389.07C132.88 391.9 132.88 396.51 135.8 399.34ZM144.74 390.67C145.71 391.61 146.25 392.87 146.25 394.21C146.25 395.54 145.71 396.8 144.74 397.75C143.76 398.69 142.47 399.21 141.09 399.21C139.71 399.21 138.42 398.69 137.44 397.75C135.43 395.79 135.43 392.62 137.44 390.67C139.45 388.72 142.73 388.72 144.74 390.67Z" id="jtZVNKWBZ"></path><path d="M110.49 416.65C110.49 418.59 111.27 420.42 112.68 421.79C114.09 423.16 115.97 423.92 117.97 423.92C119.97 423.92 121.85 423.16 123.26 421.79C124.68 420.42 125.45 418.59 125.45 416.65C125.45 414.71 124.68 412.89 123.26 411.52C120.34 408.68 115.6 408.68 112.68 411.52C111.27 412.89 110.49 414.71 110.49 416.65ZM121.62 420.19C120.64 421.14 119.35 421.66 117.97 421.66C116.59 421.66 115.3 421.14 114.33 420.19C113.35 419.25 112.82 417.99 112.82 416.65C112.82 415.32 113.35 414.06 114.33 413.11C115.33 412.14 116.65 411.65 117.97 411.65C119.29 411.65 120.61 412.14 121.62 413.11C122.59 414.06 123.13 415.32 123.13 416.65C123.13 417.99 122.59 419.25 121.62 420.19C121.62 420.19 121.62 420.19 121.62 420.19Z" id="d2lKDYCNo9"></path><path d="M396.74 385.65C396.69 403.52 381.7 417.99 363.3 417.94C344.89 417.88 329.99 403.34 330.04 385.47C330.1 367.6 345.08 353.14 363.49 353.19C381.89 353.24 396.79 367.79 396.74 385.65Z" id="dISFvy3hz"></path><path d="M369.34 392.29C366.43 395.12 366.43 399.73 369.34 402.56C370.8 403.98 372.72 404.69 374.64 404.69C376.55 404.69 378.47 403.98 379.93 402.56C381.34 401.19 382.12 399.37 382.12 397.43C382.12 395.48 381.34 393.66 379.93 392.29C378.51 390.92 376.63 390.16 374.64 390.16C372.64 390.16 370.76 390.92 369.34 392.29ZM370.99 400.97C368.98 399.01 368.98 395.84 370.99 393.89C370.99 393.89 370.99 393.89 370.99 393.89C371.96 392.94 373.26 392.42 374.64 392.42C376.01 392.42 377.31 392.94 378.28 393.89C379.25 394.83 379.79 396.09 379.79 397.43C379.79 398.76 379.25 400.02 378.28 400.97C376.27 402.92 373 402.92 370.99 400.97Z" id="d2trY58trj"></path><path d="M356.38 379.7C359.3 376.87 359.3 372.26 356.38 369.42C353.46 366.59 348.71 366.59 345.79 369.42C345.79 369.42 345.79 369.42 345.79 369.42C344.38 370.8 343.6 372.62 343.6 374.56C343.6 376.5 344.38 378.33 345.79 379.7C347.21 381.07 349.09 381.83 351.09 381.83C353.09 381.83 354.96 381.07 356.38 379.7ZM354.73 371.02C356.74 372.97 356.74 376.15 354.73 378.1C353.76 379.05 352.46 379.57 351.09 379.57C349.71 379.57 348.41 379.05 347.44 378.1C346.47 377.16 345.93 375.9 345.93 374.56C345.93 373.22 346.47 371.97 347.44 371.02C349.45 369.07 352.72 369.07 354.73 371.02Z" id="b8n6iaLg05"></path><path d="M363.4 352.9C354.39 352.9 345.92 356.31 339.55 362.49C333.18 368.68 329.67 376.9 329.67 385.65C329.67 394.4 333.18 402.63 339.55 408.82C345.92 415 354.39 418.41 363.4 418.41C363.4 418.41 363.4 418.41 363.4 418.41C372.41 418.41 380.89 415 387.26 408.82C393.63 402.63 397.14 394.4 397.14 385.65C397.14 376.9 393.63 368.68 387.26 362.49C380.89 356.31 372.41 352.9 363.4 352.9ZM385.61 364.09C386.74 365.19 387.76 366.34 388.68 367.55C386.73 368.5 384.33 368.16 382.74 366.61C381.16 365.08 380.8 362.77 381.74 360.89C383.1 361.85 384.4 362.92 385.61 364.09ZM360.81 360.69C358.8 362.64 355.53 362.64 353.52 360.69C352.56 359.75 352.03 358.52 352.01 357.22C355.14 356.04 358.48 355.35 361.91 355.2C362.72 357.05 362.31 359.23 360.81 360.69ZM344.65 361.19C345.2 362.93 344.74 364.86 343.36 366.19C341.98 367.53 340 367.98 338.21 367.44C339.11 366.27 340.1 365.15 341.2 364.09C342.28 363.04 343.44 362.07 344.65 361.19ZM337.69 376.05C339.7 378.01 339.7 381.18 337.69 383.13C336.19 384.59 333.95 384.99 332.05 384.21C332.21 380.94 332.9 377.69 334.14 374.59C335.47 374.61 336.73 375.13 337.69 376.05ZM341.2 407.22C339.98 406.03 338.88 404.77 337.9 403.46C339.84 402.55 342.21 402.9 343.79 404.43C345.39 405.98 345.73 408.31 344.76 410.2C343.51 409.3 342.32 408.3 341.2 407.22ZM364.75 416.12C363.78 414.22 364.14 411.88 365.72 410.35C367.73 408.4 371 408.4 373.01 410.35C374.06 411.37 374.6 412.77 374.51 414.19C371.42 415.33 368.13 415.98 364.75 416.12ZM382.02 410.22C381.27 408.4 381.69 406.28 383.17 404.84C384.65 403.41 386.83 403.01 388.7 403.73C387.78 404.95 386.75 406.11 385.61 407.22C384.48 408.31 383.28 409.32 382.02 410.22ZM381.52 403.24C379.24 405.45 378.71 408.78 380.06 411.52C379.01 412.16 377.93 412.73 376.81 413.25C376.66 411.57 375.91 409.97 374.66 408.75C371.74 405.92 366.99 405.92 364.07 408.75C362.06 410.71 361.4 413.58 362.24 416.13C360.95 416.08 359.66 415.96 358.4 415.76C358.07 415.21 357.68 414.71 357.21 414.26C355.04 412.15 351.72 411.56 348.93 412.73C348.17 412.35 347.42 411.93 346.69 411.48C348.29 408.7 347.84 405.16 345.44 402.83C343.07 400.53 339.47 400.07 336.61 401.56C336.14 400.81 335.7 400.05 335.3 399.27C336.43 396.58 335.81 393.48 333.66 391.39C333.28 391.02 332.85 390.69 332.39 390.41C332.19 389.14 332.07 387.87 332.03 386.59C332.69 386.77 333.36 386.86 334.04 386.86C335.97 386.86 337.89 386.13 339.33 384.73C342.25 381.9 342.25 377.29 339.33 374.45C338.17 373.33 336.7 372.62 335.12 372.4C335.63 371.37 336.21 370.35 336.85 369.37C337.77 369.74 338.75 369.92 339.72 369.92C341.65 369.92 343.56 369.2 345.01 367.79C347.18 365.68 347.78 362.55 346.63 359.86C347.64 359.24 348.68 358.68 349.75 358.18C349.98 359.72 350.71 361.15 351.87 362.28C353.33 363.7 355.24 364.41 357.16 364.41C359.08 364.41 360.99 363.7 362.45 362.28C364.4 360.39 365.09 357.66 364.37 355.18C365.69 355.21 367 355.33 368.28 355.53C368.58 355.98 368.92 356.4 369.32 356.78C370.76 358.17 372.67 358.91 374.61 358.91C375.56 358.91 376.53 358.73 377.44 358.36C378.24 358.75 379.03 359.17 379.79 359.63C378.25 362.41 378.72 365.91 381.09 368.21C382.55 369.62 384.46 370.34 386.38 370.34C387.63 370.34 388.87 370.04 390 369.43C390.46 370.15 390.89 370.88 391.29 371.62C390.09 374.32 390.7 377.54 392.87 379.64C393.32 380.09 393.84 380.47 394.39 380.79C394.6 382.02 394.72 383.27 394.77 384.53C392.16 383.72 389.21 384.35 387.19 386.3C384.27 389.14 384.27 393.75 387.19 396.58C388.44 397.8 390.08 398.52 391.8 398.68C391.28 399.75 390.69 400.8 390.03 401.82C387.21 400.51 383.79 401.04 381.52 403.24ZM388.84 394.98C386.83 393.03 386.83 389.86 388.84 387.9C390.41 386.38 392.81 386.02 394.76 386.95C394.62 390.18 393.96 393.38 392.78 396.44C391.32 396.52 389.88 396 388.84 394.98Z" id="cw33kMrMm"></path><path d="M373.83 374.19C375.24 372.82 376.02 370.99 376.02 369.05C376.02 367.11 375.24 365.29 373.83 363.92C372.41 362.54 370.53 361.79 368.53 361.79C366.53 361.79 364.65 362.54 363.24 363.92C360.32 366.75 360.32 371.36 363.24 374.19C364.7 375.61 366.62 376.32 368.53 376.32C370.45 376.32 372.37 375.61 373.83 374.19ZM368.53 364.05C369.91 364.05 371.2 364.57 372.18 365.51C373.15 366.46 373.69 367.72 373.69 369.05C373.69 370.39 373.15 371.65 372.18 372.59C370.17 374.54 366.9 374.54 364.89 372.59C362.88 370.64 362.88 367.47 364.89 365.51C365.86 364.57 367.16 364.05 368.53 364.05Z" id="ea6p5zBe5h"></path><path d="M357.47 391.13C358.93 392.55 360.85 393.26 362.76 393.26C364.68 393.26 366.6 392.55 368.06 391.13C370.97 388.3 370.97 383.69 368.06 380.86C365.14 378.02 360.39 378.02 357.47 380.86C354.55 383.69 354.55 388.3 357.47 391.13ZM359.12 389.53C357.11 387.58 357.11 384.41 359.12 382.45C361.13 380.5 364.4 380.5 366.41 382.45C368.42 384.41 368.42 387.58 366.41 389.53C364.4 391.48 361.13 391.48 359.12 389.53Z" id="iuAjGbOcg"></path><path d="M350.71 386.36C349.29 384.99 347.41 384.23 345.41 384.23C345.41 384.23 345.41 384.23 345.41 384.23C343.42 384.23 341.54 384.99 340.12 386.36C338.71 387.74 337.93 389.56 337.93 391.5C337.93 393.44 338.71 395.27 340.12 396.64C341.58 398.06 343.5 398.76 345.41 398.76C347.33 398.76 349.25 398.06 350.71 396.64C350.71 396.64 350.71 396.64 350.71 396.64C352.65 391.68 352.65 388.25 350.71 386.36ZM341.77 395.04C340.8 394.1 340.26 392.84 340.26 391.5C340.26 390.16 340.8 388.91 341.77 387.96C342.74 387.02 344.04 386.5 345.41 386.5C346.79 386.5 348.09 387.02 349.06 387.96C351.07 389.91 351.07 393.09 349.06 395.04C347.05 396.99 343.78 396.99 341.77 395.04Z" id="ak3AuPiVl"></path><path d="M375.02 385.62C376.47 387.04 378.39 387.75 380.31 387.75C382.22 387.75 384.14 387.04 385.6 385.62C387.01 384.25 387.79 382.43 387.79 380.49C387.79 378.55 387.01 376.72 385.6 375.35C382.68 372.51 377.93 372.51 375.02 375.35C375.02 375.35 375.02 375.35 375.02 375.35C372.1 378.18 372.1 382.79 375.02 385.62ZM383.95 376.95C384.93 377.89 385.46 379.15 385.46 380.49C385.46 381.82 384.93 383.08 383.95 384.03C382.98 384.97 381.68 385.49 380.31 385.49C378.93 385.49 377.64 384.97 376.66 384.03C374.65 382.07 374.65 378.9 376.66 376.95C378.67 375 381.94 375 383.95 376.95Z" id="b1EI93Qqs"></path><path d="M349.7 402.93C349.7 404.87 350.48 406.7 351.9 408.07C353.31 409.44 355.19 410.2 357.19 410.2C359.19 410.2 361.07 409.44 362.48 408.07C363.89 406.7 364.67 404.87 364.67 402.93C364.67 400.99 363.89 399.17 362.48 397.8C359.56 394.96 354.81 394.96 351.9 397.8C350.48 399.17 349.7 400.99 349.7 402.93ZM360.83 406.47C359.86 407.42 358.57 407.94 357.19 407.94C355.81 407.94 354.52 407.42 353.54 406.47C352.57 405.53 352.03 404.27 352.03 402.93C352.03 401.6 352.57 400.34 353.54 399.39C354.55 398.42 355.87 397.93 357.19 397.93C358.51 397.93 359.83 398.42 360.83 399.39C361.81 400.34 362.34 401.6 362.34 402.93C362.34 404.27 361.81 405.53 360.83 406.47C360.83 406.47 360.83 406.47 360.83 406.47Z" id="abZGHryt3g"></path><path d="M183.77 245.28C183.72 263.15 168.74 277.61 150.33 277.56C131.93 277.51 117.03 262.96 117.08 245.09C117.13 227.22 132.12 212.76 150.52 212.81C168.92 212.86 183.82 227.41 183.77 245.28Z" id="d2MUahdhMQ"></path><path d="M156.38 251.91C153.46 254.75 153.46 259.36 156.38 262.19C157.84 263.61 159.75 264.31 161.67 264.31C163.59 264.31 165.5 263.61 166.96 262.19C168.38 260.82 169.15 258.99 169.15 257.05C169.15 255.11 168.38 253.28 166.96 251.91C165.55 250.54 163.67 249.78 161.67 249.78C159.67 249.78 157.79 250.54 156.38 251.91ZM158.02 260.59C156.02 258.64 156.01 255.46 158.02 253.51C158.02 253.51 158.02 253.51 158.02 253.51C159 252.57 160.29 252.05 161.67 252.05C163.05 252.05 164.34 252.57 165.32 253.51C166.29 254.46 166.83 255.71 166.83 257.05C166.83 258.39 166.29 259.65 165.32 260.59C163.31 262.54 160.03 262.54 158.02 260.59Z" id="b33kS6KgA"></path><path d="M143.41 239.32C146.33 236.49 146.33 231.88 143.41 229.05C140.5 226.21 135.75 226.21 132.83 229.05C132.83 229.05 132.83 229.05 132.83 229.05C131.42 230.42 130.64 232.25 130.64 234.19C130.64 236.13 131.42 237.95 132.83 239.32C134.24 240.7 136.12 241.45 138.12 241.45C140.12 241.45 142 240.7 143.41 239.32ZM141.77 230.65C143.78 232.6 143.78 235.77 141.77 237.73C140.79 238.67 139.5 239.19 138.12 239.19C136.74 239.19 135.45 238.67 134.48 237.73C133.5 236.78 132.97 235.52 132.97 234.19C132.97 232.85 133.5 231.59 134.48 230.65C136.49 228.7 139.76 228.7 141.77 230.65Z" id="egkue6r6X"></path><path d="M150.44 212.52C141.43 212.52 132.96 215.93 126.58 222.12C120.21 228.3 116.7 236.53 116.7 245.28C116.7 254.03 120.21 262.25 126.58 268.44C132.96 274.63 141.43 278.03 150.44 278.03C150.44 278.03 150.44 278.03 150.44 278.03C159.45 278.03 167.92 274.63 174.29 268.44C180.66 262.25 184.17 254.03 184.17 245.28C184.17 236.53 180.66 228.3 174.29 222.12C167.92 215.93 159.45 212.52 150.44 212.52ZM172.65 223.72C173.77 224.81 174.79 225.97 175.71 227.18C173.77 228.12 171.37 227.79 169.77 226.24C168.2 224.7 167.84 222.4 168.78 220.52C170.14 221.47 171.43 222.54 172.65 223.72ZM147.84 220.31C145.83 222.26 142.56 222.26 140.55 220.31C139.59 219.38 139.06 218.14 139.04 216.85C142.18 215.66 145.51 214.98 148.95 214.82C149.76 216.67 149.34 218.85 147.84 220.31ZM131.68 220.82C132.23 222.55 131.77 224.48 130.39 225.82C129.02 227.15 127.04 227.6 125.25 227.07C126.14 225.9 127.14 224.78 128.23 223.72C129.32 222.66 130.47 221.69 131.68 220.82ZM124.72 235.68C126.73 237.63 126.73 240.81 124.72 242.76C123.23 244.21 120.99 244.61 119.08 243.83C119.24 240.56 119.94 237.31 121.17 234.22C122.5 234.24 123.77 234.75 124.72 235.68ZM128.23 266.84C127.01 265.66 125.92 264.4 124.94 263.08C126.87 262.17 129.25 262.52 130.82 264.05C132.42 265.6 132.77 267.94 131.79 269.82C130.54 268.93 129.35 267.93 128.23 266.84ZM151.78 275.74C150.81 273.85 151.18 271.51 152.75 269.98C154.76 268.02 158.04 268.02 160.05 269.98C161.09 270.99 161.63 272.4 161.54 273.82C158.45 274.95 155.16 275.61 151.78 275.74ZM169.05 269.85C168.31 268.03 168.72 265.91 170.2 264.47C171.68 263.03 173.86 262.63 175.74 263.35C174.81 264.57 173.78 265.74 172.65 266.84C171.52 267.94 170.31 268.94 169.05 269.85ZM168.55 262.87C166.28 265.08 165.74 268.4 167.1 271.14C166.05 271.78 164.96 272.36 163.85 272.87C163.7 271.19 162.95 269.6 161.69 268.38C158.77 265.54 154.03 265.54 151.11 268.38C149.09 270.34 148.44 273.21 149.28 275.75C147.98 275.7 146.7 275.58 145.43 275.39C145.11 274.84 144.71 274.34 144.25 273.88C142.08 271.78 138.75 271.19 135.97 272.36C135.21 271.97 134.46 271.56 133.73 271.11C135.32 268.32 134.87 264.78 132.47 262.45C130.11 260.16 126.5 259.7 123.64 261.19C123.17 260.44 122.74 259.68 122.34 258.9C123.47 256.21 122.84 253.1 120.7 251.02C120.31 250.65 119.89 250.31 119.43 250.03C119.23 248.77 119.1 247.49 119.06 246.22C119.72 246.4 120.4 246.49 121.07 246.49C123.01 246.49 124.93 245.76 126.37 244.36C129.29 241.52 129.29 236.91 126.37 234.08C125.21 232.95 123.73 232.25 122.15 232.03C122.67 230.99 123.24 229.98 123.89 228.99C124.81 229.36 125.78 229.55 126.75 229.55C128.68 229.55 130.59 228.82 132.04 227.42C134.22 225.3 134.82 222.17 133.66 219.49C134.67 218.87 135.72 218.3 136.79 217.8C137.01 219.34 137.74 220.78 138.9 221.91C140.36 223.33 142.28 224.03 144.2 224.03C146.11 224.03 148.03 223.33 149.49 221.91C151.44 220.02 152.12 217.28 151.4 214.8C152.72 214.84 154.03 214.96 155.32 215.15C155.61 215.6 155.96 216.02 156.35 216.4C157.79 217.8 159.7 218.53 161.64 218.53C162.6 218.53 163.56 218.35 164.48 217.99C165.28 218.37 166.06 218.8 166.83 219.26C165.29 222.03 165.76 225.54 168.13 227.83C169.58 229.25 171.5 229.97 173.42 229.97C174.66 229.97 175.91 229.67 177.04 229.06C177.5 229.77 177.93 230.5 178.32 231.25C177.13 233.94 177.73 237.16 179.9 239.27C180.36 239.71 180.87 240.1 181.43 240.41C181.63 241.65 181.76 242.9 181.81 244.15C179.19 243.34 176.24 243.98 174.23 245.93C171.31 248.76 171.31 253.37 174.23 256.21C175.48 257.42 177.12 258.15 178.84 258.3C178.32 259.38 177.73 260.43 177.07 261.45C174.25 260.14 170.83 260.66 168.55 262.87ZM175.87 254.61C173.86 252.66 173.86 249.48 175.87 247.53C177.45 246 179.85 245.64 181.8 246.58C181.66 249.8 181 253.01 179.81 256.06C178.36 256.14 176.92 255.62 175.87 254.61Z" id="acZIYiR4RD"></path><path d="M160.86 233.82C162.27 232.44 163.05 230.62 163.05 228.68C163.05 226.74 162.27 224.91 160.86 223.54C159.45 222.17 157.57 221.41 155.57 221.41C153.57 221.41 151.69 222.17 150.28 223.54C147.36 226.37 147.36 230.98 150.28 233.82C151.74 235.23 153.65 235.94 155.57 235.94C157.48 235.94 159.4 235.23 160.86 233.82ZM155.57 223.67C156.95 223.67 158.24 224.19 159.21 225.14C160.19 226.09 160.72 227.34 160.72 228.68C160.72 230.02 160.19 231.27 159.21 232.22C157.2 234.17 153.93 234.17 151.92 232.22C149.91 230.27 149.91 227.09 151.92 225.14C152.9 224.19 154.19 223.67 155.57 223.67Z" id="cK3J9dqBo"></path><path d="M144.51 250.76C145.97 252.17 147.88 252.88 149.8 252.88C151.72 252.88 153.63 252.17 155.09 250.76C158.01 247.92 158.01 243.31 155.09 240.48C152.17 237.65 147.42 237.65 144.51 240.48C141.59 243.31 141.59 247.92 144.51 250.76ZM146.15 249.16C144.14 247.21 144.14 244.03 146.15 242.08C148.16 240.13 151.43 240.13 153.44 242.08C155.45 244.03 155.45 247.21 153.44 249.16C151.43 251.11 148.16 251.11 146.15 249.16Z" id="e1B0XV4L97"></path><path d="M137.74 245.99C136.33 244.62 134.45 243.86 132.45 243.86C132.45 243.86 132.45 243.86 132.45 243.86C130.45 243.86 128.57 244.62 127.16 245.99C125.74 247.36 124.97 249.19 124.97 251.13C124.97 253.07 125.74 254.89 127.16 256.26C128.62 257.68 130.53 258.39 132.45 258.39C134.37 258.39 136.28 257.68 137.74 256.26C137.74 256.26 137.74 256.26 137.74 256.26C139.69 251.3 139.69 247.88 137.74 245.99ZM128.8 254.67C127.83 253.72 127.29 252.46 127.29 251.13C127.29 249.79 127.83 248.53 128.8 247.59C129.78 246.64 131.07 246.12 132.45 246.12C133.83 246.12 135.12 246.64 136.09 247.59C138.1 249.54 138.1 252.71 136.09 254.67C134.08 256.62 130.81 256.62 128.8 254.67Z" id="m3lXM07uWS"></path><path d="M162.05 245.25C163.51 246.67 165.43 247.37 167.34 247.37C169.26 247.37 171.18 246.67 172.63 245.25C174.05 243.88 174.83 242.05 174.83 240.11C174.83 238.17 174.05 236.35 172.63 234.97C169.72 232.14 164.97 232.14 162.05 234.97C162.05 234.97 162.05 234.97 162.05 234.97C159.13 237.81 159.13 242.42 162.05 245.25ZM170.99 236.57C171.96 237.52 172.5 238.77 172.5 240.11C172.5 241.45 171.96 242.71 170.99 243.65C170.01 244.6 168.72 245.12 167.34 245.12C165.97 245.12 164.67 244.6 163.7 243.65C161.69 241.7 161.69 238.52 163.7 236.57C165.71 234.62 168.98 234.62 170.99 236.57Z" id="b2EnqEMrV9"></path><path d="M136.74 262.56C136.74 264.5 137.52 266.32 138.93 267.7C140.34 269.07 142.22 269.83 144.22 269.83C146.22 269.83 148.1 269.07 149.52 267.7C150.93 266.32 151.71 264.5 151.71 262.56C151.71 260.62 150.93 258.79 149.52 257.42C146.6 254.59 141.85 254.59 138.93 257.42C137.52 258.79 136.74 260.62 136.74 262.56ZM147.87 266.1C146.9 267.04 145.6 267.56 144.22 267.56C142.85 267.56 141.55 267.04 140.58 266.1C139.6 265.15 139.07 263.9 139.07 262.56C139.07 261.22 139.6 259.96 140.58 259.02C141.58 258.04 142.9 257.56 144.22 257.56C145.54 257.56 146.86 258.04 147.87 259.02C148.84 259.96 149.38 261.22 149.38 262.56C149.38 263.9 148.84 265.15 147.87 266.1C147.87 266.1 147.87 266.1 147.87 266.1Z" id="f6fXQeAozm"></path><path d="M344.65 251.12C344.59 268.99 329.61 283.46 311.21 283.41C292.8 283.35 277.9 268.81 277.95 250.94C278.01 233.07 292.99 218.61 311.39 218.66C329.8 218.71 344.7 233.26 344.65 251.12Z" id="a1jHvpqJ1V"></path><path d="M317.25 257.76C314.33 260.59 314.33 265.2 317.25 268.03C318.71 269.45 320.63 270.16 322.54 270.16C324.46 270.16 326.38 269.45 327.84 268.03C329.25 266.66 330.03 264.84 330.03 262.9C330.03 260.96 329.25 259.13 327.84 257.76C326.42 256.39 324.54 255.63 322.54 255.63C320.55 255.63 318.67 256.39 317.25 257.76ZM318.9 266.44C316.89 264.48 316.89 261.31 318.9 259.36C318.9 259.36 318.9 259.36 318.9 259.36C319.87 258.41 321.17 257.89 322.54 257.89C323.92 257.89 325.22 258.41 326.19 259.36C327.16 260.3 327.7 261.56 327.7 262.9C327.7 264.23 327.16 265.49 326.19 266.44C324.18 268.39 320.91 268.39 318.9 266.44Z" id="gVLowFFDb"></path><path d="M304.29 245.17C307.21 242.34 307.21 237.73 304.29 234.89C301.37 232.06 296.62 232.06 293.7 234.89C293.7 234.89 293.7 234.89 293.7 234.89C292.29 236.27 291.51 238.09 291.51 240.03C291.51 241.97 292.29 243.8 293.7 245.17C295.12 246.54 297 247.3 299 247.3C300.99 247.3 302.87 246.54 304.29 245.17ZM302.64 236.49C304.65 238.44 304.65 241.62 302.64 243.57C301.67 244.52 300.37 245.04 299 245.04C297.62 245.04 296.32 244.52 295.35 243.57C294.38 242.63 293.84 241.37 293.84 240.03C293.84 238.69 294.38 237.44 295.35 236.49C297.36 234.54 300.63 234.54 302.64 236.49Z" id="c6JftP7Pny"></path><path d="M311.31 218.37C302.3 218.37 293.83 221.78 287.46 227.96C281.09 234.15 277.58 242.38 277.58 251.12C277.58 259.87 281.09 268.1 287.46 274.29C293.83 280.47 302.3 283.88 311.31 283.88C311.31 283.88 311.31 283.88 311.31 283.88C320.32 283.88 328.8 280.47 335.17 274.29C341.54 268.1 345.05 259.87 345.05 251.12C345.05 242.38 341.54 234.15 335.17 227.96C328.79 221.78 320.32 218.37 311.31 218.37ZM333.52 229.56C334.65 230.66 335.67 231.81 336.59 233.02C334.64 233.97 332.24 233.63 330.65 232.08C329.07 230.55 328.71 228.24 329.65 226.36C331.01 227.32 332.31 228.39 333.52 229.56ZM308.72 226.16C306.71 228.11 303.43 228.11 301.42 226.16C300.47 225.23 299.94 223.99 299.92 222.69C303.05 221.51 306.38 220.82 309.82 220.67C310.63 222.52 310.22 224.7 308.72 226.16ZM292.56 226.66C293.11 228.4 292.64 230.33 291.27 231.66C289.89 233 287.91 233.45 286.12 232.91C287.02 231.74 288.01 230.62 289.1 229.56C290.19 228.51 291.35 227.54 292.56 226.66ZM285.6 241.52C287.61 243.48 287.61 246.65 285.6 248.6C284.1 250.06 281.86 250.46 279.96 249.68C280.11 246.41 280.81 243.16 282.05 240.06C283.38 240.08 284.64 240.6 285.6 241.52ZM289.1 272.69C287.89 271.5 286.79 270.24 285.81 268.93C287.75 268.02 290.12 268.37 291.7 269.9C293.3 271.45 293.64 273.78 292.67 275.67C291.42 274.77 290.23 273.77 289.1 272.69ZM312.66 281.59C311.69 279.69 312.05 277.35 313.63 275.82C315.64 273.87 318.91 273.87 320.92 275.82C321.97 276.84 322.51 278.24 322.42 279.66C319.32 280.8 316.04 281.45 312.66 281.59ZM329.93 275.69C329.18 273.87 329.6 271.75 331.08 270.31C332.56 268.88 334.74 268.48 336.61 269.2C335.69 270.42 334.66 271.58 333.52 272.69C332.39 273.78 331.19 274.79 329.93 275.69ZM329.43 268.71C327.15 270.92 326.62 274.25 327.97 276.99C326.92 277.63 325.84 278.2 324.72 278.72C324.57 277.04 323.82 275.44 322.57 274.22C319.65 271.39 314.9 271.39 311.98 274.22C309.97 276.18 309.31 279.05 310.15 281.6C308.86 281.55 307.57 281.43 306.31 281.23C305.98 280.69 305.58 280.18 305.12 279.73C302.95 277.62 299.63 277.03 296.84 278.2C296.08 277.82 295.33 277.4 294.6 276.95C296.2 274.17 295.74 270.63 293.34 268.3C290.98 266 287.38 265.54 284.52 267.03C284.05 266.28 283.61 265.52 283.21 264.74C284.34 262.05 283.72 258.95 281.57 256.86C281.18 256.49 280.76 256.16 280.3 255.88C280.1 254.61 279.98 253.34 279.94 252.06C280.6 252.24 281.27 252.33 281.95 252.33C283.88 252.33 285.8 251.6 287.24 250.2C290.16 247.37 290.16 242.76 287.24 239.92C286.08 238.8 284.61 238.09 283.03 237.87C283.54 236.84 284.12 235.82 284.76 234.84C285.68 235.21 286.66 235.4 287.63 235.4C289.56 235.4 291.47 234.67 292.92 233.26C295.09 231.15 295.69 228.02 294.53 225.33C295.55 224.71 296.59 224.15 297.66 223.65C297.89 225.19 298.62 226.63 299.78 227.75C301.24 229.17 303.15 229.88 305.07 229.88C306.99 229.88 308.9 229.17 310.36 227.75C312.31 225.86 313 223.13 312.28 220.65C313.6 220.68 314.91 220.8 316.19 221C316.49 221.45 316.83 221.87 317.23 222.25C318.67 223.64 320.58 224.38 322.51 224.38C323.47 224.38 324.43 224.2 325.35 223.83C326.15 224.22 326.94 224.64 327.7 225.1C326.16 227.88 326.63 231.38 329 233.68C330.46 235.09 332.37 235.81 334.29 235.81C335.54 235.81 336.78 235.51 337.91 234.9C338.37 235.62 338.8 236.35 339.2 237.09C338 239.79 338.61 243.01 340.77 245.11C341.23 245.56 341.75 245.94 342.3 246.26C342.51 247.49 342.63 248.74 342.68 250C340.07 249.19 337.12 249.82 335.1 251.78C332.18 254.61 332.18 259.22 335.1 262.05C336.35 263.27 337.99 263.99 339.71 264.15C339.19 265.22 338.6 266.27 337.94 267.3C335.12 265.98 331.7 266.51 329.43 268.71ZM336.75 260.45C334.74 258.5 334.74 255.33 336.75 253.37C338.32 251.85 340.72 251.49 342.67 252.42C342.53 255.65 341.87 258.85 340.69 261.91C339.23 261.99 337.79 261.47 336.75 260.45Z" id="a45PSZ50O1"></path><path d="M321.73 239.66C323.15 238.29 323.93 236.46 323.93 234.52C323.93 232.58 323.15 230.76 321.73 229.39C320.32 228.01 318.44 227.26 316.44 227.26C314.44 227.26 312.56 228.01 311.15 229.39C308.23 232.22 308.23 236.83 311.15 239.66C312.61 241.08 314.53 241.79 316.44 241.79C318.36 241.79 320.28 241.08 321.73 239.66ZM316.44 229.52C317.82 229.52 319.11 230.04 320.09 230.98C321.06 231.93 321.6 233.19 321.6 234.52C321.6 235.86 321.06 237.12 320.09 238.06C318.08 240.02 314.81 240.02 312.8 238.06C310.79 236.11 310.79 232.94 312.8 230.98C313.77 230.04 315.07 229.52 316.44 229.52Z" id="af8V8n1cM"></path><path d="M305.38 256.6C306.84 258.02 308.76 258.73 310.67 258.73C312.59 258.73 314.51 258.02 315.96 256.6C318.88 253.77 318.88 249.16 315.97 246.33C313.05 243.49 308.3 243.49 305.38 246.33C302.46 249.16 302.46 253.77 305.38 256.6ZM307.03 255C305.02 253.05 305.02 249.88 307.03 247.92C309.04 245.97 312.31 245.97 314.32 247.92C316.33 249.88 316.33 253.05 314.32 255C312.31 256.95 309.04 256.95 307.03 255Z" id="b1fQQKvhmF"></path><path d="M298.62 251.83C297.2 250.46 295.32 249.7 293.32 249.7C293.32 249.7 293.32 249.7 293.32 249.7C291.32 249.7 289.44 250.46 288.03 251.83C286.62 253.21 285.84 255.03 285.84 256.97C285.84 258.91 286.62 260.74 288.03 262.11C289.49 263.53 291.41 264.23 293.32 264.23C295.24 264.23 297.16 263.53 298.62 262.11C298.62 262.11 298.62 262.11 298.62 262.11C300.56 257.15 300.56 253.72 298.62 251.83ZM289.68 260.51C288.7 259.57 288.17 258.31 288.17 256.97C288.17 255.63 288.7 254.38 289.68 253.43C290.65 252.49 291.95 251.97 293.32 251.97C294.7 251.97 295.99 252.49 296.97 253.43C298.98 255.38 298.98 258.56 296.97 260.51C294.96 262.46 291.69 262.46 289.68 260.51Z" id="brrrCEEr5"></path><path d="M322.92 251.09C324.38 252.51 326.3 253.22 328.22 253.22C330.13 253.22 332.05 252.51 333.51 251.09C334.92 249.72 335.7 247.9 335.7 245.96C335.7 244.02 334.92 242.19 333.51 240.82C330.59 237.98 325.84 237.98 322.92 240.82C322.92 240.82 322.92 240.82 322.92 240.82C320.01 243.65 320.01 248.26 322.92 251.09ZM331.86 242.42C332.84 243.36 333.37 244.62 333.37 245.96C333.37 247.29 332.84 248.55 331.86 249.5C330.89 250.44 329.59 250.96 328.22 250.96C326.84 250.96 325.55 250.44 324.57 249.5C322.56 247.54 322.56 244.37 324.57 242.42C326.58 240.47 329.85 240.47 331.86 242.42Z" id="e38alvEqc"></path><path d="M297.61 268.4C297.61 270.34 298.39 272.17 299.81 273.54C301.22 274.91 303.1 275.67 305.1 275.67C307.1 275.67 308.98 274.91 310.39 273.54C311.8 272.17 312.58 270.34 312.58 268.4C312.58 266.46 311.8 264.64 310.39 263.27C307.47 260.43 302.72 260.43 299.81 263.27C298.39 264.64 297.61 266.46 297.61 268.4ZM308.74 271.94C307.77 272.89 306.47 273.41 305.1 273.41C303.72 273.41 302.43 272.89 301.45 271.94C300.48 271 299.94 269.74 299.94 268.4C299.94 267.07 300.48 265.81 301.45 264.86C302.46 263.89 303.78 263.4 305.1 263.4C306.42 263.4 307.74 263.89 308.74 264.86C309.72 265.81 310.25 267.07 310.25 268.4C310.25 269.74 309.72 271 308.74 271.94C308.74 271.94 308.74 271.94 308.74 271.94Z" id="cGaa7bjA"></path></defs><g><g><g><use xlink:href="#eTMWXxrKB" opacity="1" fill="#784215" fill-opacity="1"></use></g><g><use xlink:href="#gIQRXQcJk" opacity="1" fill="#51280b" fill-opacity="1"></use><g><use xlink:href="#gIQRXQcJk" opacity="1" fill-opacity="0" stroke="#000000" stroke-width="1" stroke-opacity="0"></use></g></g><g><use xlink:href="#efSzJ5sWO" opacity="1" fill="#51280b" fill-opacity="1"></use><g><use xlink:href="#efSzJ5sWO" opacity="1" fill-opacity="0" stroke="#000000" stroke-width="1" stroke-opacity="0"></use></g></g><g><use xlink:href="#b3IMDu2iCd" opacity="1" fill="#51280b" fill-opacity="1"></use><g><use xlink:href="#b3IMDu2iCd" opacity="1" fill-opacity="0" stroke="#000000" stroke-width="1" stroke-opacity="0"></use></g></g><g><use xlink:href="#a2lVuiGYAM" opacity="1" fill="#51280b" fill-opacity="1"></use><g><use xlink:href="#a2lVuiGYAM" opacity="1" fill-opacity="0" stroke="#000000" stroke-width="1" stroke-opacity="0"></use></g></g><g><use xlink:href="#d5NrmCfz3y" opacity="1" fill="#51280b" fill-opacity="1"></use><g><use xlink:href="#d5NrmCfz3y" opacity="1" fill-opacity="0" stroke="#000000" stroke-width="1" stroke-opacity="0"></use></g></g><g><use xlink:href="#c1eGRSktpe" opacity="1" fill="#51280b" fill-opacity="1"></use><g><use xlink:href="#c1eGRSktpe" opacity="1" fill-opacity="0" stroke="#000000" stroke-width="1" stroke-opacity="0"></use></g></g><g><use xlink:href="#aLXyGEReD" opacity="1" fill="#51280b" fill-opacity="1"></use><g><use xlink:href="#aLXyGEReD" opacity="1" fill-opacity="0" stroke="#000000" stroke-width="1" stroke-opacity="0"></use></g></g><g><use xlink:href="#c378H1pKAG" opacity="1" fill="#51280b" fill-opacity="1"></use><g><use xlink:href="#c378H1pKAG" opacity="1" fill-opacity="0" stroke="#000000" stroke-width="1" stroke-opacity="0"></use></g></g><g><use xlink:href="#k30dtUgemc" opacity="1" fill="#784215" fill-opacity="1"></use></g><g><use xlink:href="#a83WAfQSF" opacity="1" fill="#51280b" fill-opacity="1"></use><g><use xlink:href="#a83WAfQSF" opacity="1" fill-opacity="0" stroke="#000000" stroke-width="1" stroke-opacity="0"></use></g></g><g><use xlink:href="#a41Ahar6H" opacity="1" fill="#51280b" fill-opacity="1"></use><g><use xlink:href="#a41Ahar6H" opacity="1" fill-opacity="0" stroke="#000000" stroke-width="1" stroke-opacity="0"></use></g></g><g><use xlink:href="#aDakqKyyN" opacity="1" fill="#51280b" fill-opacity="1"></use><g><use xlink:href="#aDakqKyyN" opacity="1" fill-opacity="0" stroke="#000000" stroke-width="1" stroke-opacity="0"></use></g></g><g><use xlink:href="#kvyDqUAS2" opacity="1" fill="#51280b" fill-opacity="1"></use><g><use xlink:href="#kvyDqUAS2" opacity="1" fill-opacity="0" stroke="#000000" stroke-width="1" stroke-opacity="0"></use></g></g><g><use xlink:href="#eX7Os7IoZ" opacity="1" fill="#51280b" fill-opacity="1"></use><g><use xlink:href="#eX7Os7IoZ" opacity="1" fill-opacity="0" stroke="#000000" stroke-width="1" stroke-opacity="0"></use></g></g><g><use xlink:href="#a68k0U8mka" opacity="1" fill="#51280b" fill-opacity="1"></use><g><use xlink:href="#a68k0U8mka" opacity="1" fill-opacity="0" stroke="#000000" stroke-width="1" stroke-opacity="0"></use></g></g><g><use xlink:href="#jsdcwDi7F" opacity="1" fill="#51280b" fill-opacity="1"></use><g><use xlink:href="#jsdcwDi7F" opacity="1" fill-opacity="0" stroke="#000000" stroke-width="1" stroke-opacity="0"></use></g></g><g><use xlink:href="#b34kQsogG6" opacity="1" fill="#51280b" fill-opacity="1"></use><g><use xlink:href="#b34kQsogG6" opacity="1" fill-opacity="0" stroke="#000000" stroke-width="1" stroke-opacity="0"></use></g></g><g><use xlink:href="#e2dkhQJrTl" opacity="1" fill="#784215" fill-opacity="1"></use></g><g><use xlink:href="#am3k36JJP" opacity="1" fill="#51280b" fill-opacity="1"></use><g><use xlink:href="#am3k36JJP" opacity="1" fill-opacity="0" stroke="#000000" stroke-width="1" stroke-opacity="0"></use></g></g><g><use xlink:href="#g1xMEM6iU" opacity="1" fill="#51280b" fill-opacity="1"></use><g><use xlink:href="#g1xMEM6iU" opacity="1" fill-opacity="0" stroke="#000000" stroke-width="1" stroke-opacity="0"></use></g></g><g><use xlink:href="#bfQDt99mD" opacity="1" fill="#51280b" fill-opacity="1"></use><g><use xlink:href="#bfQDt99mD" opacity="1" fill-opacity="0" stroke="#000000" stroke-width="1" stroke-opacity="0"></use></g></g><g><use xlink:href="#diyfYt6a3" opacity="1" fill="#51280b" fill-opacity="1"></use><g><use xlink:href="#diyfYt6a3" opacity="1" fill-opacity="0" stroke="#000000" stroke-width="1" stroke-opacity="0"></use></g></g><g><use xlink:href="#a4AsRqlvB" opacity="1" fill="#51280b" fill-opacity="1"></use><g><use xlink:href="#a4AsRqlvB" opacity="1" fill-opacity="0" stroke="#000000" stroke-width="1" stroke-opacity="0"></use></g></g><g><use xlink:href="#av7WwsUMu" opacity="1" fill="#51280b" fill-opacity="1"></use><g><use xlink:href="#av7WwsUMu" opacity="1" fill-opacity="0" stroke="#000000" stroke-width="1" stroke-opacity="0"></use></g></g><g><use xlink:href="#jtZVNKWBZ" opacity="1" fill="#51280b" fill-opacity="1"></use><g><use xlink:href="#jtZVNKWBZ" opacity="1" fill-opacity="0" stroke="#000000" stroke-width="1" stroke-opacity="0"></use></g></g><g><use xlink:href="#d2lKDYCNo9" opacity="1" fill="#51280b" fill-opacity="1"></use><g><use xlink:href="#d2lKDYCNo9" opacity="1" fill-opacity="0" stroke="#000000" stroke-width="1" stroke-opacity="0"></use></g></g><g><use xlink:href="#dISFvy3hz" opacity="1" fill="#784215" fill-opacity="1"></use></g><g><use xlink:href="#d2trY58trj" opacity="1" fill="#51280b" fill-opacity="1"></use><g><use xlink:href="#d2trY58trj" opacity="1" fill-opacity="0" stroke="#000000" stroke-width="1" stroke-opacity="0"></use></g></g><g><use xlink:href="#b8n6iaLg05" opacity="1" fill="#51280b" fill-opacity="1"></use><g><use xlink:href="#b8n6iaLg05" opacity="1" fill-opacity="0" stroke="#000000" stroke-width="1" stroke-opacity="0"></use></g></g><g><use xlink:href="#cw33kMrMm" opacity="1" fill="#51280b" fill-opacity="1"></use><g><use xlink:href="#cw33kMrMm" opacity="1" fill-opacity="0" stroke="#000000" stroke-width="1" stroke-opacity="0"></use></g></g><g><use xlink:href="#ea6p5zBe5h" opacity="1" fill="#51280b" fill-opacity="1"></use><g><use xlink:href="#ea6p5zBe5h" opacity="1" fill-opacity="0" stroke="#000000" stroke-width="1" stroke-opacity="0"></use></g></g><g><use xlink:href="#iuAjGbOcg" opacity="1" fill="#51280b" fill-opacity="1"></use><g><use xlink:href="#iuAjGbOcg" opacity="1" fill-opacity="0" stroke="#000000" stroke-width="1" stroke-opacity="0"></use></g></g><g><use xlink:href="#ak3AuPiVl" opacity="1" fill="#51280b" fill-opacity="1"></use><g><use xlink:href="#ak3AuPiVl" opacity="1" fill-opacity="0" stroke="#000000" stroke-width="1" stroke-opacity="0"></use></g></g><g><use xlink:href="#b1EI93Qqs" opacity="1" fill="#51280b" fill-opacity="1"></use><g><use xlink:href="#b1EI93Qqs" opacity="1" fill-opacity="0" stroke="#000000" stroke-width="1" stroke-opacity="0"></use></g></g><g><use xlink:href="#abZGHryt3g" opacity="1" fill="#51280b" fill-opacity="1"></use><g><use xlink:href="#abZGHryt3g" opacity="1" fill-opacity="0" stroke="#000000" stroke-width="1" stroke-opacity="0"></use></g></g><g><use xlink:href="#d2MUahdhMQ" opacity="1" fill="#784215" fill-opacity="1"></use></g><g><use xlink:href="#b33kS6KgA" opacity="1" fill="#51280b" fill-opacity="1"></use><g><use xlink:href="#b33kS6KgA" opacity="1" fill-opacity="0" stroke="#000000" stroke-width="1" stroke-opacity="0"></use></g></g><g><use xlink:href="#egkue6r6X" opacity="1" fill="#51280b" fill-opacity="1"></use><g><use xlink:href="#egkue6r6X" opacity="1" fill-opacity="0" stroke="#000000" stroke-width="1" stroke-opacity="0"></use></g></g><g><use xlink:href="#acZIYiR4RD" opacity="1" fill="#51280b" fill-opacity="1"></use><g><use xlink:href="#acZIYiR4RD" opacity="1" fill-opacity="0" stroke="#000000" stroke-width="1" stroke-opacity="0"></use></g></g><g><use xlink:href="#cK3J9dqBo" opacity="1" fill="#51280b" fill-opacity="1"></use><g><use xlink:href="#cK3J9dqBo" opacity="1" fill-opacity="0" stroke="#000000" stroke-width="1" stroke-opacity="0"></use></g></g><g><use xlink:href="#e1B0XV4L97" opacity="1" fill="#51280b" fill-opacity="1"></use><g><use xlink:href="#e1B0XV4L97" opacity="1" fill-opacity="0" stroke="#000000" stroke-width="1" stroke-opacity="0"></use></g></g><g><use xlink:href="#m3lXM07uWS" opacity="1" fill="#51280b" fill-opacity="1"></use><g><use xlink:href="#m3lXM07uWS" opacity="1" fill-opacity="0" stroke="#000000" stroke-width="1" stroke-opacity="0"></use></g></g><g><use xlink:href="#b2EnqEMrV9" opacity="1" fill="#51280b" fill-opacity="1"></use><g><use xlink:href="#b2EnqEMrV9" opacity="1" fill-opacity="0" stroke="#000000" stroke-width="1" stroke-opacity="0"></use></g></g><g><use xlink:href="#f6fXQeAozm" opacity="1" fill="#51280b" fill-opacity="1"></use><g><use xlink:href="#f6fXQeAozm" opacity="1" fill-opacity="0" stroke="#000000" stroke-width="1" stroke-opacity="0"></use></g></g><g><use xlink:href="#a1jHvpqJ1V" opacity="1" fill="#784215" fill-opacity="1"></use></g><g><use xlink:href="#gVLowFFDb" opacity="1" fill="#51280b" fill-opacity="1"></use><g><use xlink:href="#gVLowFFDb" opacity="1" fill-opacity="0" stroke="#000000" stroke-width="1" stroke-opacity="0"></use></g></g><g><use xlink:href="#c6JftP7Pny" opacity="1" fill="#51280b" fill-opacity="1"></use><g><use xlink:href="#c6JftP7Pny" opacity="1" fill-opacity="0" stroke="#000000" stroke-width="1" stroke-opacity="0"></use></g></g><g><use xlink:href="#a45PSZ50O1" opacity="1" fill="#51280b" fill-opacity="1"></use><g><use xlink:href="#a45PSZ50O1" opacity="1" fill-opacity="0" stroke="#000000" stroke-width="1" stroke-opacity="0"></use></g></g><g><use xlink:href="#af8V8n1cM" opacity="1" fill="#51280b" fill-opacity="1"></use><g><use xlink:href="#af8V8n1cM" opacity="1" fill-opacity="0" stroke="#000000" stroke-width="1" stroke-opacity="0"></use></g></g><g><use xlink:href="#b1fQQKvhmF" opacity="1" fill="#51280b" fill-opacity="1"></use><g><use xlink:href="#b1fQQKvhmF" opacity="1" fill-opacity="0" stroke="#000000" stroke-width="1" stroke-opacity="0"></use></g></g><g><use xlink:href="#brrrCEEr5" opacity="1" fill="#51280b" fill-opacity="1"></use><g><use xlink:href="#brrrCEEr5" opacity="1" fill-opacity="0" stroke="#000000" stroke-width="1" stroke-opacity="0"></use></g></g><g><use xlink:href="#e38alvEqc" opacity="1" fill="#51280b" fill-opacity="1"></use><g><use xlink:href="#e38alvEqc" opacity="1" fill-opacity="0" stroke="#000000" stroke-width="1" stroke-opacity="0"></use></g></g><g><use xlink:href="#cGaa7bjA" opacity="1" fill="#51280b" fill-opacity="1"></use><g><use xlink:href="#cGaa7bjA" opacity="1" fill-opacity="0" stroke="#000000" stroke-width="1" stroke-opacity="0"></use></g></g></g></g></svg>