<?xml version="1.0" encoding="UTF-8" standalone="no"?>
<!DOCTYPE svg PUBLIC "-//W3C//DTD SVG 1.1//EN" "http://www.w3.org/Graphics/SVG/1.1/DTD/svg11.dtd">
<svg version="1.1" xmlns="http://www.w3.org/2000/svg" xmlns:xlink="http://www.w3.org/1999/xlink" preserveAspectRatio="xMidYMid meet" viewBox="0 0 500 500" width="500" height="500"><defs><path d="M172.83 99.51C172.83 113.86 183.16 125.53 195.86 125.53C198.7 125.53 221.44 125.53 224.28 125.53C232.69 125.53 239.53 117.8 239.53 108.3C239.53 98.8 232.69 91.07 224.28 91.07C224.04 91.07 222.15 91.07 221.92 91.07C218.46 91.07 216.66 88.18 216.16 87.22C212.14 78.75 204.36 73.48 195.86 73.48C183.16 73.48 172.83 85.16 172.83 99.51ZM178.22 99.51C178.22 88.52 186.14 79.58 195.86 79.58C202.39 79.58 208.35 83.63 211.43 90.14C211.44 90.18 211.46 90.21 211.48 90.24C212.31 91.86 215.53 97.16 221.92 97.16C222.15 97.16 224.04 97.16 224.28 97.16C229.71 97.16 234.14 102.16 234.14 108.3C234.14 114.44 229.71 119.44 224.28 119.44C222.38 119.44 212.91 119.44 195.86 119.44L195.86 119.44C184.1 113.48 178.22 106.83 178.22 99.51Z" id="b2eQbNNV2o"></path><path d="M178.22 99.51C178.22 88.52 186.14 79.58 195.86 79.58C202.39 79.58 208.35 83.63 211.43 90.14C211.44 90.18 211.46 90.21 211.48 90.24C212.31 91.86 215.53 97.16 221.92 97.16C222.15 97.16 224.04 97.16 224.28 97.16C229.71 97.16 234.14 102.16 234.14 108.3C234.14 114.44 229.71 119.44 224.28 119.44C222.38 119.44 212.91 119.44 195.86 119.44L195.86 119.44C184.1 113.48 178.22 106.83 178.22 99.51Z" id="a9PcC6TyJ"></path><path d="M199.31 119.26C198.95 119.26 196.06 119.26 195.7 119.26C185.98 119.26 178.07 110.32 178.07 99.33C178.07 88.34 185.98 79.4 195.7 79.4C196.31 79.4 196.91 79.43 197.5 79.5C188.62 80.53 181.67 89.03 181.67 99.33C181.67 110.32 189.58 119.26 199.31 119.26Z" id="f1sQB8pfSF"></path><path d="M195.86 126.77C182.56 126.77 171.74 114.54 171.74 99.51C171.74 84.48 182.56 72.25 195.86 72.25C204.76 72.25 212.9 77.75 217.11 86.61C217.53 87.39 219.05 89.83 221.92 89.83C222.15 89.83 224.04 89.83 224.28 89.83C233.29 89.83 240.62 98.11 240.62 108.3C240.62 118.48 233.29 126.77 224.28 126.77C218.59 126.77 198.7 126.77 195.86 126.77ZM221.92 92.3C217.86 92.3 215.76 88.89 215.22 87.85C215.21 87.84 215.2 87.82 215.19 87.8C211.36 79.74 203.96 74.72 195.86 74.72C183.77 74.72 173.93 85.84 173.93 99.51C173.93 113.18 183.77 124.29 195.86 124.29C198.7 124.29 221.44 124.29 224.28 124.29C232.08 124.29 238.43 117.12 238.43 108.3C238.43 99.48 232.08 92.3 224.28 92.3C223.81 92.3 222.15 92.3 221.92 92.3Z" id="b2Y42kzI8i"></path><path d="M195.86 120.68C185.53 120.68 177.13 111.18 177.13 99.51C177.13 87.84 185.53 78.34 195.86 78.34C202.79 78.34 209.13 82.64 212.4 89.57C212.4 89.59 212.41 89.6 212.42 89.62C212.45 89.66 212.47 89.71 212.5 89.77C213.37 91.39 216.3 95.92 221.92 95.92C222.15 95.92 224.04 95.92 224.28 95.92C230.32 95.92 235.23 101.47 235.23 108.3C235.23 115.12 230.32 120.68 224.28 120.68C218.59 120.68 198.7 120.68 195.86 120.68ZM184.1 112.64C184.1 112.25 184.1 109.15 184.1 108.76C184.1 108.08 184.59 107.53 185.2 107.53C185.8 107.53 186.29 108.08 186.29 108.76C186.29 109.34 186.29 113.91 186.29 114.48C186.29 114.57 186.28 114.65 186.27 114.73C187.72 115.9 189.33 116.81 191.07 117.4C191.07 113.82 191.07 85.19 191.07 81.62C189.28 82.23 187.62 83.17 186.15 84.39C186.24 84.57 186.29 84.78 186.29 85.01C186.29 86.96 186.29 102.58 186.29 104.53C186.29 105.21 185.8 105.77 185.2 105.77C184.59 105.77 184.1 105.21 184.1 104.53C184.1 102.71 184.1 88.19 184.1 86.38C181.15 89.75 179.32 94.39 179.32 99.51C179.32 104.62 181.15 109.26 184.1 112.64ZM207.21 115.09C207.21 115.77 206.72 116.33 206.11 116.33C205.51 116.33 205.02 115.77 205.02 115.09C205.02 111.97 205.02 87.05 205.02 83.94C203.55 82.84 201.94 82.01 200.23 81.48C200.23 82.46 200.23 90.3 200.23 91.28C200.23 91.96 199.74 92.51 199.14 92.51C198.53 92.51 198.04 91.96 198.04 91.28C198.04 90.25 198.04 82.01 198.04 80.98C197.33 80.87 196.6 80.82 195.86 80.82C194.98 80.82 194.11 80.9 193.26 81.05C193.26 84.74 193.26 114.28 193.26 117.97C194.11 118.12 194.98 118.2 195.86 118.2C196.01 118.2 196.73 118.2 198.04 118.2C198.04 104.69 198.04 97.18 198.04 95.68C198.04 94.99 198.53 94.44 199.14 94.44C199.74 94.44 200.23 94.99 200.23 95.68C200.23 97.18 200.23 104.69 200.23 118.2L211.99 118.2C211.99 103.56 211.99 95.43 211.99 93.81C211.99 93.62 212.02 93.45 212.09 93.29C211.32 92.29 210.8 91.39 210.53 90.86C210.5 90.81 210.48 90.77 210.46 90.73C209.6 88.9 208.49 87.28 207.21 85.91C207.21 91.74 207.21 112.17 207.21 115.09ZM221.15 98.37C221.15 98.95 221.15 103.57 221.15 104.14C221.15 104.83 220.66 105.38 220.05 105.38C219.45 105.38 218.96 104.83 218.96 104.14C218.96 103.53 218.96 98.64 218.96 98.03C218.75 97.97 218.55 97.92 218.36 97.85C218.13 97.78 217.91 97.7 217.7 97.62C216.32 97.08 215.15 96.32 214.18 95.49C214.18 97 214.18 104.57 214.18 118.2L218.96 118.2C218.96 112.27 218.96 108.98 218.96 108.32C218.96 107.64 219.45 107.09 220.05 107.09C220.66 107.09 221.15 107.64 221.15 108.32C221.15 108.98 221.15 112.27 221.15 118.2C223.03 118.2 224.07 118.2 224.28 118.2C224.84 118.2 225.39 118.14 225.93 118.02C225.93 116.08 225.93 100.52 225.93 98.58C225.39 98.46 224.84 98.4 224.28 98.4C224.12 98.4 223.33 98.4 221.92 98.4L221.92 98.4C221.57 98.39 221.32 98.38 221.15 98.37ZM228.12 117.2C231.03 115.58 233.04 112.2 233.04 108.3C233.04 104.4 231.03 101.01 228.12 99.4C228.12 102.96 228.12 115.42 228.12 117.2Z" id="a12jSih1n"></path><path d="M145.75 401.9C152.61 389.3 149.12 374.1 137.97 368.03C135.48 366.67 115.51 355.8 113.02 354.44C105.63 350.42 95.92 353.93 91.38 362.28C86.83 370.62 89.14 380.68 96.53 384.71C96.74 384.82 98.4 385.72 98.6 385.84C101.64 387.49 101.84 390.89 101.82 391.97C101.3 401.33 105.61 409.67 113.08 413.74C124.23 419.81 138.88 414.5 145.75 401.9ZM141.01 399.32C135.75 408.97 124.53 413.04 115.99 408.39C110.26 405.26 106.96 398.86 107.37 391.66C107.38 391.63 107.38 391.59 107.38 391.55C107.42 389.73 107.12 383.54 101.52 380.48C101.31 380.37 99.65 379.47 99.44 379.35C94.67 376.75 93.18 370.25 96.12 364.86C99.05 359.46 105.33 357.19 110.1 359.79C111.76 360.7 120.08 365.23 135.06 373.38L135.06 373.38C142.53 384.24 144.52 392.89 141.01 399.32Z" id="btZgAFWRw"></path><path d="M141.01 399.32C135.75 408.97 124.53 413.04 115.99 408.39C110.26 405.26 106.96 398.86 107.37 391.66C107.38 391.63 107.38 391.59 107.38 391.55C107.42 389.73 107.12 383.54 101.52 380.48C101.31 380.37 99.65 379.47 99.44 379.35C94.67 376.75 93.18 370.25 96.12 364.86C99.05 359.46 105.33 357.19 110.1 359.79C111.76 360.7 120.08 365.23 135.06 373.38L135.06 373.38C142.53 384.24 144.52 392.89 141.01 399.32Z" id="j2119AEYce"></path><path d="M131.94 371.89C132.26 372.06 134.79 373.44 135.11 373.61C143.65 378.27 146.32 389.9 141.06 399.55C135.81 409.2 124.58 413.27 116.04 408.62C115.51 408.33 115 408.01 114.51 407.67C122.8 411.01 132.97 406.87 137.9 397.83C143.15 388.18 140.48 376.54 131.94 371.89Z" id="f189uEwkZ0"></path><path d="M138.56 366.94C150.24 373.31 153.9 389.22 146.71 402.42C139.52 415.62 124.17 421.19 112.48 414.82C104.67 410.57 100.16 401.84 100.69 392.05C100.7 391.16 100.53 388.29 98.01 386.92C97.81 386.81 96.15 385.91 95.94 385.79C88.02 381.48 85.55 370.7 90.42 361.75C95.29 352.81 105.69 349.04 113.61 353.35C118.6 356.07 136.07 365.58 138.56 366.94ZM99.2 384.75C102.75 386.69 102.97 390.69 102.95 391.86C102.95 391.88 102.95 391.9 102.95 391.92C102.45 400.83 106.56 408.78 113.67 412.65C124.29 418.44 138.25 413.38 144.79 401.38C151.32 389.37 148 374.9 137.38 369.12C134.88 367.76 114.92 356.88 112.42 355.53C105.57 351.79 96.56 355.06 92.34 362.8C88.12 370.55 90.27 379.89 97.12 383.62C97.54 383.85 98.99 384.64 99.2 384.75Z" id="b58cDsBH3"></path><path d="M135.65 372.3C144.72 377.24 147.56 389.59 141.97 399.84C136.39 410.09 124.47 414.41 115.4 409.47C109.31 406.16 105.81 399.35 106.25 391.71C106.25 391.69 106.25 391.66 106.25 391.65C106.25 391.6 106.25 391.54 106.25 391.48C106.27 389.64 105.86 384.26 100.93 381.57C100.72 381.46 99.06 380.55 98.85 380.44C93.55 377.55 91.89 370.33 95.15 364.33C98.42 358.34 105.39 355.81 110.69 358.7C115.68 361.42 133.15 370.94 135.65 372.3ZM142.13 384.98C141.95 385.32 140.46 388.04 140.28 388.38C139.95 388.98 139.26 389.23 138.72 388.94C138.19 388.65 138.03 387.93 138.35 387.33C138.63 386.83 140.82 382.81 141.09 382.31C141.13 382.24 141.18 382.17 141.23 382.1C140.52 380.39 139.53 378.82 138.29 377.46C136.58 380.6 122.88 405.74 121.17 408.89C123.03 409.21 124.95 409.17 126.82 408.81C126.83 408.6 126.88 408.39 126.99 408.2C127.92 406.48 135.4 392.77 136.33 391.05C136.66 390.45 137.35 390.2 137.88 390.49C138.41 390.78 138.58 391.5 138.25 392.1C137.38 393.69 130.44 406.45 129.57 408.04C133.78 406.49 137.6 403.29 140.05 398.8C142.5 394.31 143.11 389.36 142.13 384.98ZM123.01 371.78C123.34 371.18 124.04 370.92 124.57 371.21C125.1 371.5 125.26 372.22 124.94 372.82C123.45 375.56 111.53 397.44 110.04 400.18C110.8 401.84 111.81 403.34 113.06 404.62C113.53 403.76 117.28 396.88 117.75 396.02C118.07 395.42 118.77 395.17 119.3 395.46C119.83 395.75 120 396.47 119.67 397.07C119.18 397.97 115.24 405.21 114.74 406.11C115.32 406.55 115.94 406.95 116.58 407.3C117.36 407.72 118.16 408.07 118.98 408.34C120.74 405.1 134.87 379.16 136.64 375.91C135.96 375.38 135.24 374.89 134.46 374.47C134.34 374.4 133.7 374.05 132.55 373.42C126.08 385.29 122.49 391.89 121.77 393.21C121.45 393.81 120.75 394.06 120.22 393.77C119.69 393.48 119.52 392.76 119.85 392.16C120.57 390.84 124.16 384.25 130.62 372.38L120.3 366.76C113.3 379.61 109.41 386.75 108.63 388.18C108.55 388.34 108.43 388.48 108.3 388.58C108.5 389.83 108.52 390.86 108.51 391.46C108.51 391.52 108.5 391.57 108.5 391.61C108.38 393.63 108.58 395.58 109.06 397.4C111.85 392.28 121.62 374.34 123.01 371.78ZM102.77 379.79C103.05 379.28 105.26 375.22 105.53 374.72C105.86 374.12 106.56 373.86 107.09 374.15C107.62 374.44 107.78 375.16 107.46 375.76C107.16 376.3 104.82 380.6 104.53 381.14C104.68 381.28 104.83 381.43 104.98 381.58C105.14 381.75 105.29 381.92 105.44 382.1C106.4 383.23 107.06 384.46 107.52 385.65C108.24 384.32 111.86 377.68 118.38 365.71L114.18 363.42C111.35 368.62 109.77 371.52 109.46 372.09C109.13 372.69 108.43 372.95 107.9 372.66C107.37 372.37 107.21 371.65 107.53 371.05C107.85 370.47 109.42 367.58 112.26 362.37C110.61 361.48 109.69 360.98 109.51 360.88C109.01 360.61 108.5 360.4 107.97 360.24C107.04 361.95 99.6 375.61 98.67 377.32C99.09 377.68 99.54 378 100.04 378.27C100.17 378.34 100.87 378.72 102.11 379.4L102.11 379.4C102.41 379.57 102.63 379.7 102.77 379.79ZM105.65 359.92C102.33 359.94 98.94 361.95 97.08 365.38C95.21 368.81 95.36 372.74 97.14 375.55C98.84 372.42 104.8 361.48 105.65 359.92Z" id="csJ9JQjU1"></path><path d="M360.57 276.66C346.27 277.78 333.83 268.38 332.84 255.72C332.62 252.89 330.86 230.23 330.64 227.39C329.98 219.01 337.16 211.59 346.63 210.85C356.11 210.11 364.35 216.33 365 224.72C365.02 224.95 365.16 226.84 365.18 227.07C365.45 230.51 368.47 232.09 369.46 232.51C378.22 235.87 384.07 243.21 384.73 251.68C385.72 264.34 374.88 275.55 360.57 276.66ZM360.16 271.29C371.11 270.43 379.41 261.85 378.66 252.16C378.15 245.65 373.65 240.02 366.92 237.46C366.88 237.44 366.85 237.43 366.81 237.42C365.13 236.71 359.6 233.91 359.11 227.55C359.09 227.31 358.94 225.43 358.92 225.19C358.5 219.77 353.18 215.75 347.05 216.23C340.93 216.7 336.29 221.5 336.71 226.92C336.86 228.81 337.59 238.25 338.92 255.25L338.92 255.25C345.77 266.51 352.85 271.86 360.16 271.29Z" id="b3ZvToeRwy"></path><path d="M360.16 271.29C371.11 270.43 379.41 261.85 378.66 252.16C378.15 245.65 373.65 240.02 366.92 237.46C366.88 237.44 366.85 237.43 366.81 237.42C365.13 236.71 359.6 233.91 359.11 227.55C359.09 227.31 358.94 225.43 358.92 225.19C358.5 219.77 353.18 215.75 347.05 216.23C340.93 216.7 336.29 221.5 336.71 226.92C336.86 228.81 337.59 238.25 338.92 255.25L338.92 255.25C345.77 266.51 352.85 271.86 360.16 271.29Z" id="bpe8aNG1E"></path><path d="M338.83 251.8C338.86 252.16 339.08 255.04 339.11 255.39C339.86 265.09 349.39 272.28 360.35 271.43C371.3 270.58 379.6 262 378.85 252.3C378.8 251.7 378.72 251.1 378.6 250.51C378.27 259.45 370.34 267.04 360.07 267.84C349.11 268.69 339.58 261.49 338.83 251.8Z" id="c7PvGMdl5C"></path><path d="M331.61 255.82C332.64 269.08 345.67 278.92 360.66 277.75C375.65 276.59 387 264.85 385.96 251.59C385.27 242.72 379.16 235.03 370 231.52C369.18 231.16 366.64 229.84 366.41 226.98C366.4 226.74 366.25 224.86 366.23 224.62C365.53 215.64 356.7 208.97 346.55 209.76C336.39 210.55 328.7 218.5 329.4 227.49C329.84 233.15 331.39 252.99 331.61 255.82ZM363.95 227.17C364.26 231.21 367.82 233.04 368.91 233.5C368.92 233.51 368.94 233.52 368.95 233.52C377.3 236.71 382.87 243.71 383.5 251.78C384.44 263.84 374.11 274.51 360.49 275.57C346.86 276.63 335.01 267.69 334.08 255.63C333.85 252.79 332.09 230.13 331.87 227.3C331.26 219.52 337.92 212.63 346.72 211.94C355.51 211.26 363.16 217.03 363.76 224.81C363.8 225.28 363.93 226.93 363.95 227.17Z" id="bj6nGhXks"></path><path d="M337.68 255.35C338.48 265.64 348.6 273.28 360.24 272.38C371.88 271.47 380.69 262.36 379.89 252.06C379.35 245.15 374.57 239.17 367.42 236.45C367.4 236.44 367.38 236.43 367.36 236.43C367.31 236.41 367.26 236.38 367.21 236.36C365.52 235.62 360.78 233.05 360.34 227.45C360.32 227.21 360.17 225.33 360.16 225.09C359.69 219.07 353.77 214.61 346.97 215.14C340.16 215.66 335.01 220.99 335.48 227.02C335.92 232.68 337.46 252.51 337.68 255.35ZM346.61 266.45C346.99 266.42 350.09 266.18 350.47 266.15C351.15 266.09 351.67 265.56 351.62 264.96C351.57 264.36 350.98 263.91 350.3 263.96C349.73 264.01 345.17 264.36 344.6 264.41C344.52 264.41 344.43 264.43 344.36 264.45C343.08 263.1 342.05 261.55 341.32 259.87C344.89 259.59 373.43 257.37 377 257.09C376.53 258.92 375.71 260.65 374.61 262.22C374.42 262.14 374.21 262.1 373.99 262.12C372.04 262.27 356.47 263.48 354.52 263.63C353.84 263.69 353.33 264.22 353.37 264.82C353.42 265.43 354.01 265.87 354.69 265.82C356.5 265.68 370.98 264.55 372.79 264.41C369.65 267.62 365.17 269.8 360.07 270.2C354.97 270.59 350.2 269.13 346.61 266.45ZM342.37 243.6C341.69 243.66 341.18 244.19 341.22 244.79C341.27 245.39 341.86 245.84 342.54 245.79C345.65 245.54 370.49 243.61 373.6 243.37C374.81 244.74 375.76 246.28 376.42 247.94C375.44 248.02 367.63 248.63 366.65 248.7C365.97 248.76 365.46 249.29 365.51 249.89C365.55 250.5 366.14 250.94 366.82 250.89C367.85 250.81 376.06 250.17 377.09 250.09C377.25 250.8 377.37 251.52 377.42 252.25C377.49 253.13 377.48 254.01 377.39 254.86C373.71 255.15 344.26 257.44 340.58 257.73C340.37 256.89 340.22 256.04 340.15 255.15C340.14 255.01 340.08 254.28 339.98 252.98C353.46 251.93 360.94 251.35 362.44 251.23C363.12 251.18 363.63 250.65 363.59 250.04C363.54 249.44 362.95 248.99 362.27 249.05C360.77 249.16 353.29 249.75 339.81 250.79L338.9 239.08C353.49 237.94 361.6 237.31 363.22 237.18C363.4 237.17 363.58 237.12 363.73 237.04C364.78 237.74 365.72 238.18 366.27 238.41C366.32 238.43 366.37 238.45 366.41 238.47C368.3 239.18 370 240.16 371.47 241.34C365.65 241.79 345.28 243.38 342.37 243.6ZM357.96 228.4C357.38 228.45 352.78 228.81 352.2 228.85C351.52 228.91 351.01 229.44 351.05 230.04C351.1 230.64 351.69 231.09 352.37 231.04C352.98 230.99 357.86 230.61 358.47 230.56C358.54 230.76 358.61 230.96 358.69 231.15C358.78 231.37 358.88 231.58 358.98 231.79C359.62 233.12 360.47 234.22 361.37 235.13C359.86 235.25 352.32 235.84 338.73 236.89L338.36 232.13C344.27 231.67 347.55 231.41 348.2 231.36C348.89 231.31 349.4 230.78 349.35 230.17C349.31 229.57 348.72 229.12 348.03 229.18C347.38 229.23 344.1 229.48 338.19 229.94C338.04 228.07 337.96 227.03 337.94 226.82C337.9 226.26 337.92 225.71 337.99 225.16C339.93 225.01 355.44 223.8 357.38 223.65C357.54 224.18 357.65 224.72 357.69 225.29C357.7 225.44 357.76 226.23 357.87 227.64L357.87 227.64C357.91 227.98 357.93 228.24 357.96 228.4ZM338.65 222.92C340.03 219.89 343.25 217.62 347.14 217.32C351.03 217.02 354.56 218.76 356.39 221.53C352.84 221.81 340.42 222.78 338.65 222.92Z" id="b2px6UHR0"></path><path d="M408.27 420.55C400.44 432.57 385.42 436.72 374.77 429.8C372.39 428.25 353.34 415.85 350.95 414.3C343.91 409.71 342.39 399.5 347.57 391.54C352.75 383.57 362.7 380.83 369.75 385.41C369.95 385.54 371.53 386.57 371.73 386.7C374.63 388.58 377.71 387.15 378.65 386.62C386.65 381.71 396.03 381.54 403.16 386.17C413.8 393.1 416.09 408.52 408.27 420.55ZM403.75 417.61C409.74 408.39 407.99 396.59 399.83 391.28C394.37 387.72 387.16 387.86 381.03 391.65C380.99 391.67 380.96 391.69 380.93 391.7C379.35 392.61 373.76 395.29 368.41 391.81C368.21 391.68 366.63 390.65 366.43 390.52C361.87 387.56 355.44 389.33 352.09 394.48C348.74 399.63 349.72 406.23 354.28 409.19C355.87 410.23 363.8 415.39 378.1 424.69L378.1 424.69C391.2 426.11 399.75 423.75 403.75 417.61Z" id="j8cTLCvVh"></path><path d="M403.75 417.61C409.74 408.39 407.99 396.59 399.83 391.28C394.37 387.72 387.16 387.86 381.03 391.65C380.99 391.67 380.96 391.69 380.93 391.7C379.35 392.61 373.76 395.29 368.41 391.81C368.21 391.68 366.63 390.65 366.43 390.52C361.87 387.56 355.44 389.33 352.09 394.48C348.74 399.63 349.72 406.23 354.28 409.19C355.87 410.23 363.8 415.39 378.1 424.69L378.1 424.69C391.2 426.11 399.75 423.75 403.75 417.61Z" id="i4pNmqxsN"></path><path d="M375.3 422.66C375.61 422.86 378.02 424.43 378.33 424.63C386.48 429.93 397.98 426.75 403.98 417.54C409.97 408.33 408.22 396.52 400.06 391.22C399.56 390.89 399.03 390.59 398.5 390.32C405.38 396.02 406.57 406.94 400.96 415.58C394.96 424.79 383.45 427.97 375.3 422.66Z" id="b58zxnZd3v"></path><path d="M374.1 430.84C385.25 438.09 400.99 433.74 409.19 421.14C417.38 408.54 414.98 392.39 403.83 385.14C396.38 380.29 386.55 380.46 378.19 385.59C377.41 386.02 374.81 387.23 372.41 385.66C372.21 385.53 370.62 384.5 370.43 384.37C362.87 379.46 352.21 382.41 346.65 390.94C341.1 399.48 342.73 410.42 350.28 415.34C355.04 418.44 371.72 429.29 374.1 430.84ZM371.06 387.74C374.45 389.95 378.07 388.24 379.1 387.66C379.12 387.65 379.13 387.64 379.14 387.63C386.76 382.96 395.7 382.8 402.48 387.21C412.62 393.81 414.8 408.49 407.35 419.95C399.9 431.4 385.58 435.36 375.45 428.76C373.07 427.21 354.01 414.81 351.63 413.26C345.09 409.01 343.68 399.53 348.49 392.14C353.3 384.74 362.53 382.19 369.08 386.45C369.47 386.71 370.86 387.61 371.06 387.74Z" id="algBN1Jgl"></path><path d="M377.42 425.73C386.08 431.36 398.3 427.99 404.67 418.2C411.03 408.42 409.17 395.88 400.51 390.24C394.7 386.46 387.05 386.61 380.53 390.64C380.51 390.65 380.49 390.66 380.48 390.67C380.43 390.69 380.38 390.72 380.33 390.75C378.72 391.64 373.79 393.83 369.08 390.77C368.89 390.64 367.3 389.61 367.1 389.48C362.04 386.19 354.89 388.16 351.17 393.88C347.45 399.6 348.54 406.94 353.6 410.23C358.37 413.33 375.04 424.18 377.42 425.73ZM391.66 425.41C391.87 425.08 393.56 422.48 393.77 422.16C394.15 421.59 394.04 420.85 393.53 420.52C393.02 420.19 392.31 420.39 391.94 420.96C391.63 421.44 389.13 425.28 388.82 425.76C388.77 425.83 388.74 425.9 388.7 425.98C386.86 426.17 385 426.04 383.22 425.6C385.17 422.6 400.79 398.6 402.74 395.6C403.9 397.09 404.78 398.79 405.35 400.61C405.18 400.72 405.02 400.86 404.9 401.05C403.83 402.69 395.31 415.78 394.25 417.41C393.88 417.99 393.98 418.72 394.49 419.05C395 419.38 395.71 419.18 396.08 418.61C397.07 417.09 404.99 404.91 405.98 403.39C406.62 407.84 405.62 412.72 402.83 417.01C400.04 421.29 395.98 424.19 391.66 425.41ZM370.96 414.86C370.59 415.43 370.7 416.16 371.2 416.49C371.71 416.82 372.42 416.63 372.8 416.05C374.49 413.44 388.08 392.56 389.78 389.94C391.61 389.82 393.41 390 395.13 390.49C394.6 391.31 390.32 397.88 389.79 398.7C389.42 399.27 389.53 400.01 390.03 400.34C390.54 400.67 391.25 400.47 391.63 399.9C392.19 399.03 396.68 392.13 397.24 391.27C397.9 391.57 398.54 391.92 399.16 392.32C399.9 392.8 400.58 393.34 401.21 393.93C399.2 397.02 383.09 421.78 381.08 424.88C380.28 424.54 379.51 424.14 378.77 423.65C378.65 423.57 378.04 423.18 376.94 422.46C384.31 411.14 388.41 404.84 389.23 403.58C389.6 403.01 389.49 402.28 388.98 401.95C388.48 401.62 387.76 401.82 387.39 402.39C386.57 403.65 382.48 409.94 375.11 421.27L365.25 414.86C373.24 402.59 377.67 395.77 378.56 394.41C378.66 394.26 378.72 394.09 378.76 393.92C379.95 393.51 380.87 393.04 381.39 392.74C381.43 392.71 381.48 392.69 381.52 392.66C383.24 391.6 385.05 390.85 386.87 390.4C383.69 395.29 372.55 412.41 370.96 414.86ZM368.39 393.24C368.08 393.73 365.56 397.6 365.24 398.08C364.87 398.65 364.98 399.39 365.48 399.72C365.99 400.05 366.7 399.85 367.08 399.28C367.41 398.76 370.08 394.66 370.41 394.15C370.61 394.21 370.81 394.28 371.01 394.33C371.24 394.39 371.47 394.45 371.69 394.49C373.14 394.8 374.54 394.79 375.81 394.63C374.98 395.9 370.85 402.24 363.42 413.67L359.41 411.06C362.64 406.09 364.44 403.33 364.8 402.78C365.17 402.21 365.06 401.47 364.55 401.14C364.05 400.81 363.33 401.01 362.96 401.58C362.6 402.14 360.81 404.9 357.58 409.86C356 408.84 355.13 408.27 354.95 408.16C354.48 407.85 354.05 407.49 353.67 407.11C354.73 405.48 363.21 392.44 364.27 390.81C364.78 391 365.28 391.25 365.75 391.56C365.89 391.64 366.55 392.07 367.73 392.85L367.73 392.85C368.03 393.03 368.24 393.16 368.39 393.24ZM352.28 405.22C350.72 402.28 350.88 398.35 353.01 395.08C355.14 391.81 358.67 390.07 361.98 390.3C360.04 393.29 353.25 403.73 352.28 405.22Z" id="gupxU06oB"></path><path d="M417 88.27C409.17 100.3 394.15 104.45 383.51 97.52C381.12 95.97 362.07 83.57 359.69 82.02C352.64 77.44 351.12 67.23 356.3 59.26C361.49 51.3 371.44 48.55 378.48 53.14C378.68 53.26 380.27 54.29 380.46 54.42C383.36 56.31 386.44 54.87 387.39 54.34C395.38 49.43 404.76 49.26 411.89 53.9C422.53 60.82 424.83 76.24 417 88.27ZM412.48 85.33C418.47 76.12 416.72 64.31 408.57 59.01C403.1 55.45 395.89 55.59 389.76 59.37C389.73 59.39 389.7 59.41 389.66 59.43C388.08 60.33 382.49 63.01 377.14 59.53C376.94 59.4 375.36 58.37 375.16 58.24C370.6 55.28 364.17 57.06 360.82 62.2C357.47 67.35 358.45 73.95 363.01 76.92C364.6 77.95 372.54 83.12 386.83 92.42L386.83 92.41C399.93 93.83 408.48 91.47 412.48 85.33Z" id="c18diHrHL"></path><path d="M412.48 85.33C418.47 76.12 416.72 64.31 408.57 59.01C403.1 55.45 395.89 55.59 389.76 59.37C389.73 59.39 389.7 59.41 389.66 59.43C388.08 60.33 382.49 63.01 377.14 59.53C376.94 59.4 375.36 58.37 375.16 58.24C370.6 55.28 364.17 57.06 360.82 62.2C357.47 67.35 358.45 73.95 363.01 76.92C364.6 77.95 372.54 83.12 386.83 92.42L386.83 92.41C399.93 93.83 408.48 91.47 412.48 85.33Z" id="a6rcRBFDK4"></path><path d="M384.04 90.38C384.34 90.58 386.76 92.15 387.06 92.35C395.21 97.65 406.72 94.48 412.71 85.26C418.7 76.05 416.95 64.25 408.8 58.94C408.29 58.61 407.77 58.31 407.23 58.05C414.12 63.75 415.31 74.66 409.69 83.3C403.69 92.51 392.19 95.69 384.04 90.38Z" id="c1vQnUw1hD"></path><path d="M382.83 98.56C393.98 105.81 409.72 101.47 417.92 88.87C426.12 76.27 423.71 60.11 412.57 52.86C405.11 48.01 395.29 48.18 386.92 53.31C386.15 53.74 383.54 54.95 381.14 53.39C380.94 53.26 379.36 52.23 379.16 52.1C371.6 47.18 360.94 50.13 355.38 58.67C349.83 67.2 351.46 78.15 359.01 83.06C363.78 86.16 380.45 97.01 382.83 98.56ZM379.79 55.46C383.18 57.67 386.8 55.96 387.83 55.38C387.85 55.37 387.86 55.37 387.88 55.36C395.49 50.68 404.43 50.52 411.22 54.93C421.35 61.53 423.54 76.22 416.08 87.67C408.63 99.13 394.32 103.08 384.18 96.49C381.8 94.94 362.74 82.54 360.36 80.99C353.82 76.73 352.41 67.25 357.22 59.86C362.03 52.47 371.27 49.92 377.81 54.17C378.2 54.43 379.59 55.33 379.79 55.46Z" id="e2gTcTgYCY"></path><path d="M386.15 93.45C394.81 99.08 407.03 95.71 413.4 85.93C419.76 76.14 417.9 63.6 409.24 57.97C403.43 54.19 395.78 54.34 389.26 58.36C389.24 58.37 389.22 58.38 389.21 58.39C389.17 58.41 389.12 58.44 389.06 58.47C387.45 59.36 382.52 61.56 377.82 58.49C377.62 58.37 376.03 57.33 375.84 57.21C370.77 53.91 363.63 55.89 359.9 61.61C356.18 67.33 357.27 74.66 362.33 77.95C367.1 81.05 383.77 91.9 386.15 93.45ZM400.39 93.13C400.6 92.81 402.3 90.21 402.51 89.88C402.88 89.31 402.77 88.58 402.26 88.25C401.76 87.92 401.04 88.11 400.67 88.69C400.36 89.17 397.86 93 397.55 93.48C397.51 93.55 397.47 93.62 397.44 93.7C395.59 93.89 393.73 93.77 391.95 93.32C393.9 90.32 409.52 66.32 411.47 63.32C412.63 64.81 413.51 66.51 414.09 68.34C413.91 68.44 413.75 68.59 413.63 68.77C412.56 70.41 404.05 83.5 402.98 85.14C402.61 85.71 402.72 86.44 403.22 86.77C403.73 87.1 404.44 86.91 404.82 86.33C405.81 84.81 413.73 72.64 414.72 71.12C415.35 75.56 414.35 80.45 411.56 84.73C408.77 89.02 404.71 91.91 400.39 93.13ZM379.69 82.58C379.32 83.16 379.43 83.89 379.93 84.22C380.44 84.55 381.15 84.35 381.53 83.78C383.23 81.17 396.82 60.28 398.52 57.67C400.34 57.54 402.15 57.73 403.86 58.21C403.33 59.03 399.06 65.6 398.52 66.42C398.15 67 398.26 67.73 398.77 68.06C399.27 68.39 399.99 68.19 400.36 67.62C400.92 66.76 405.41 59.85 405.97 58.99C406.63 59.29 407.28 59.64 407.89 60.04C408.63 60.52 409.32 61.06 409.94 61.65C407.93 64.75 391.82 89.51 389.81 92.6C389.02 92.27 388.24 91.86 387.5 91.38C387.38 91.3 386.77 90.9 385.67 90.19C393.04 78.86 397.14 72.57 397.96 71.31C398.33 70.73 398.22 70 397.72 69.67C397.21 69.34 396.5 69.54 396.12 70.11C395.3 71.37 391.21 77.66 383.84 88.99L373.99 82.58C381.97 70.31 386.4 63.5 387.29 62.14C387.39 61.98 387.46 61.81 387.49 61.65C388.68 61.23 389.6 60.76 390.12 60.46C390.17 60.44 390.21 60.41 390.25 60.39C391.97 59.32 393.78 58.57 395.61 58.12C392.42 63.01 381.28 80.14 379.69 82.58ZM377.12 60.96C376.81 61.45 374.29 65.32 373.97 65.8C373.6 66.38 373.71 67.11 374.22 67.44C374.72 67.77 375.44 67.57 375.81 67C376.14 66.49 378.81 62.38 379.15 61.87C379.35 61.94 379.55 62 379.75 62.05C379.97 62.12 380.2 62.17 380.43 62.22C381.87 62.52 383.27 62.52 384.54 62.35C383.71 63.62 379.58 69.97 372.15 81.39L368.14 78.78C371.38 73.81 373.17 71.05 373.53 70.5C373.9 69.93 373.79 69.2 373.29 68.87C372.78 68.54 372.07 68.73 371.69 69.31C371.33 69.86 369.54 72.62 366.31 77.59C364.73 76.56 363.86 75.99 363.68 75.88C363.21 75.57 362.78 75.22 362.4 74.83C363.46 73.2 371.94 60.16 373 58.53C373.52 58.72 374.01 58.97 374.49 59.28C374.62 59.37 375.28 59.8 376.47 60.57L376.47 60.57C376.76 60.75 376.98 60.88 377.12 60.96ZM361.01 72.94C359.45 70 359.61 66.07 361.74 62.8C363.87 59.53 367.4 57.79 370.72 58.03C368.78 61.01 361.98 71.45 361.01 72.94Z" id="d8XcpvHbb"></path><path d="M49.5 188.81C57.32 200.84 72.35 204.99 82.99 198.06C85.37 196.51 104.43 184.12 106.81 182.57C113.86 177.98 115.38 167.77 110.19 159.8C105.01 151.84 95.06 149.09 88.01 153.68C87.82 153.81 86.23 154.84 86.03 154.97C83.14 156.85 80.05 155.41 79.11 154.88C71.12 149.97 61.73 149.8 54.61 154.44C43.96 161.36 41.67 176.78 49.5 188.81ZM54.02 185.87C48.02 176.66 49.78 164.85 57.93 159.55C63.4 155.99 70.61 156.13 76.74 159.91C76.77 159.93 76.8 159.95 76.83 159.97C78.42 160.87 84.01 163.55 89.36 160.07C89.55 159.94 91.14 158.91 91.34 158.79C95.89 155.82 102.33 157.6 105.68 162.75C109.03 167.89 108.04 174.49 103.49 177.46C101.9 178.49 93.96 183.66 79.67 192.96L79.67 192.96C66.56 194.37 58.01 192.01 54.02 185.87Z" id="g1yDWX05OU"></path><path d="M54.02 185.87C48.02 176.66 49.78 164.85 57.93 159.55C63.4 155.99 70.61 156.13 76.74 159.91C76.77 159.93 76.8 159.95 76.83 159.97C78.42 160.87 84.01 163.55 89.36 160.07C89.55 159.94 91.14 158.91 91.34 158.79C95.89 155.82 102.33 157.6 105.68 162.75C109.03 167.89 108.04 174.49 103.49 177.46C101.9 178.49 93.96 183.66 79.67 192.96L79.67 192.96C66.56 194.37 58.01 192.01 54.02 185.87Z" id="d1kzKMWX4s"></path><path d="M82.46 190.93C82.16 191.12 79.74 192.7 79.44 192.89C71.29 198.2 59.78 195.02 53.79 185.81C47.79 176.6 49.55 164.79 57.7 159.48C58.21 159.15 58.73 158.86 59.27 158.59C52.38 164.29 51.19 175.21 56.81 183.84C62.8 193.05 74.31 196.23 82.46 190.93Z" id="eR3TUZHIx"></path><path d="M83.67 199.1C72.52 206.36 56.78 202.01 48.58 189.41C40.38 176.81 42.78 160.66 53.93 153.4C61.39 148.55 71.21 148.72 79.58 153.85C80.35 154.28 82.96 155.49 85.36 153.93C85.56 153.8 87.14 152.77 87.34 152.64C94.89 147.73 105.56 150.67 111.11 159.21C116.67 167.74 115.04 178.69 107.49 183.6C102.72 186.7 86.05 197.55 83.67 199.1ZM86.71 156C83.31 158.21 79.69 156.5 78.66 155.92C78.65 155.92 78.64 155.91 78.62 155.9C71.01 151.22 62.07 151.06 55.28 155.48C45.14 162.07 42.96 176.76 50.42 188.21C57.87 199.67 72.18 203.62 82.32 197.03C84.7 195.48 103.75 183.08 106.14 181.53C112.68 177.27 114.09 167.79 109.28 160.4C104.47 153.01 95.23 150.46 88.69 154.71C88.29 154.97 86.91 155.87 86.71 156Z" id="a1yYETapQG"></path><path d="M80.34 193.99C71.69 199.63 59.46 196.25 53.1 186.47C46.73 176.68 48.6 164.14 57.26 158.51C63.06 154.73 70.72 154.88 77.24 158.9C77.25 158.91 77.27 158.92 77.29 158.93C77.33 158.96 77.38 158.98 77.43 159.01C79.05 159.9 83.97 162.1 88.68 159.04C88.88 158.91 90.46 157.88 90.66 157.75C95.72 154.45 102.87 156.43 106.59 162.15C110.31 167.87 109.22 175.2 104.16 178.5C99.4 181.6 82.73 192.44 80.34 193.99ZM66.1 193.67C65.89 193.35 64.2 190.75 63.99 190.42C63.62 189.85 63.73 189.12 64.23 188.79C64.74 188.46 65.45 188.66 65.83 189.23C66.14 189.71 68.63 193.54 68.95 194.02C68.99 194.09 69.03 194.17 69.06 194.24C70.91 194.43 72.76 194.31 74.54 193.86C72.59 190.86 56.98 166.87 55.03 163.87C53.86 165.35 52.99 167.05 52.41 168.88C52.59 168.98 52.75 169.13 52.87 169.32C53.93 170.95 62.45 184.04 63.52 185.68C63.89 186.25 63.78 186.98 63.27 187.31C62.77 187.64 62.05 187.45 61.68 186.87C60.69 185.35 52.77 173.18 51.78 171.66C51.15 176.1 52.15 180.99 54.93 185.27C57.72 189.56 61.79 192.45 66.1 193.67ZM86.81 183.12C87.18 183.7 87.07 184.43 86.56 184.76C86.06 185.09 85.34 184.89 84.97 184.32C83.27 181.71 69.68 160.82 67.98 158.21C66.16 158.09 64.35 158.27 62.63 158.76C63.17 159.58 67.44 166.15 67.98 166.97C68.35 167.54 68.24 168.27 67.73 168.6C67.23 168.93 66.51 168.73 66.14 168.16C65.58 167.3 61.09 160.39 60.52 159.53C59.86 159.83 59.22 160.18 58.6 160.58C57.86 161.07 57.18 161.61 56.55 162.2C58.57 165.29 74.68 190.05 76.69 193.14C77.48 192.81 78.25 192.4 78.99 191.92C79.12 191.84 79.73 191.44 80.82 190.73C73.45 179.4 69.36 173.11 68.54 171.85C68.17 171.28 68.27 170.54 68.78 170.21C69.29 169.88 70 170.08 70.37 170.65C71.19 171.91 75.29 178.21 82.66 189.53L92.51 183.12C84.53 170.86 80.09 164.04 79.21 162.68C79.11 162.52 79.04 162.36 79.01 162.19C77.82 161.78 76.9 161.3 76.38 161C76.33 160.98 76.29 160.95 76.25 160.93C74.53 159.87 72.72 159.11 70.89 158.67C74.07 163.56 85.21 180.68 86.81 183.12ZM89.37 161.51C89.69 161.99 92.21 165.86 92.52 166.35C92.9 166.92 92.79 167.65 92.28 167.98C91.77 168.31 91.06 168.11 90.69 167.54C90.35 167.03 87.68 162.93 87.35 162.41C87.15 162.48 86.95 162.54 86.75 162.6C86.52 162.66 86.3 162.71 86.07 162.76C84.62 163.06 83.23 163.06 81.96 162.89C82.78 164.16 86.91 170.51 94.35 181.93L98.35 179.32C95.12 174.36 93.33 171.6 92.97 171.04C92.59 170.47 92.7 169.74 93.21 169.41C93.72 169.08 94.43 169.28 94.8 169.85C95.16 170.4 96.96 173.16 100.19 178.13C101.76 177.1 102.64 176.54 102.81 176.42C103.29 176.11 103.71 175.76 104.1 175.37C103.04 173.74 94.55 160.7 93.49 159.07C92.98 159.27 92.49 159.51 92.01 159.82C91.88 159.91 91.22 160.34 90.03 161.11L90.03 161.11C89.74 161.29 89.52 161.42 89.37 161.51ZM105.49 173.48C107.05 170.55 106.89 166.61 104.76 163.34C102.63 160.07 99.1 158.33 95.78 158.57C97.72 161.55 104.51 171.99 105.49 173.48Z" id="b1Gg5PPhvl"></path></defs><g><g><g><use xlink:href="#b2eQbNNV2o" opacity="1" fill="#d33d3d" fill-opacity="1"></use><g><use xlink:href="#b2eQbNNV2o" opacity="1" fill-opacity="0" stroke="#000000" stroke-width="1" stroke-opacity="0"></use></g></g><g><use xlink:href="#a9PcC6TyJ" opacity="1" fill="#e95353" fill-opacity="1"></use><g><use xlink:href="#a9PcC6TyJ" opacity="1" fill-opacity="0" stroke="#000000" stroke-width="1" stroke-opacity="0"></use></g></g><g><use xlink:href="#f1sQB8pfSF" opacity="1" fill="#202020" fill-opacity="1"></use><g><use xlink:href="#f1sQB8pfSF" opacity="1" fill-opacity="0" stroke="#000000" stroke-width="1" stroke-opacity="0"></use></g></g><g><use xlink:href="#b2Y42kzI8i" opacity="1" fill="#202020" fill-opacity="1"></use><g><use xlink:href="#b2Y42kzI8i" opacity="1" fill-opacity="0" stroke="#000000" stroke-width="1" stroke-opacity="0"></use></g></g><g><use xlink:href="#a12jSih1n" opacity="1" fill="#202020" fill-opacity="1"></use><g><use xlink:href="#a12jSih1n" opacity="1" fill-opacity="0" stroke="#000000" stroke-width="1" stroke-opacity="0"></use></g></g><g><use xlink:href="#btZgAFWRw" opacity="1" fill="#d33d3d" fill-opacity="1"></use><g><use xlink:href="#btZgAFWRw" opacity="1" fill-opacity="0" stroke="#000000" stroke-width="1" stroke-opacity="0"></use></g></g><g><use xlink:href="#j2119AEYce" opacity="1" fill="#e95353" fill-opacity="1"></use><g><use xlink:href="#j2119AEYce" opacity="1" fill-opacity="0" stroke="#000000" stroke-width="1" stroke-opacity="0"></use></g></g><g><use xlink:href="#f189uEwkZ0" opacity="1" fill="#202020" fill-opacity="1"></use><g><use xlink:href="#f189uEwkZ0" opacity="1" fill-opacity="0" stroke="#000000" stroke-width="1" stroke-opacity="0"></use></g></g><g><use xlink:href="#b58cDsBH3" opacity="1" fill="#202020" fill-opacity="1"></use><g><use xlink:href="#b58cDsBH3" opacity="1" fill-opacity="0" stroke="#000000" stroke-width="1" stroke-opacity="0"></use></g></g><g><use xlink:href="#csJ9JQjU1" opacity="1" fill="#202020" fill-opacity="1"></use><g><use xlink:href="#csJ9JQjU1" opacity="1" fill-opacity="0" stroke="#000000" stroke-width="1" stroke-opacity="0"></use></g></g><g><use xlink:href="#b3ZvToeRwy" opacity="1" fill="#d33d3d" fill-opacity="1"></use><g><use xlink:href="#b3ZvToeRwy" opacity="1" fill-opacity="0" stroke="#000000" stroke-width="1" stroke-opacity="0"></use></g></g><g><use xlink:href="#bpe8aNG1E" opacity="1" fill="#e95353" fill-opacity="1"></use><g><use xlink:href="#bpe8aNG1E" opacity="1" fill-opacity="0" stroke="#000000" stroke-width="1" stroke-opacity="0"></use></g></g><g><use xlink:href="#c7PvGMdl5C" opacity="1" fill="#202020" fill-opacity="1"></use><g><use xlink:href="#c7PvGMdl5C" opacity="1" fill-opacity="0" stroke="#000000" stroke-width="1" stroke-opacity="0"></use></g></g><g><use xlink:href="#bj6nGhXks" opacity="1" fill="#202020" fill-opacity="1"></use><g><use xlink:href="#bj6nGhXks" opacity="1" fill-opacity="0" stroke="#000000" stroke-width="1" stroke-opacity="0"></use></g></g><g><use xlink:href="#b2px6UHR0" opacity="1" fill="#202020" fill-opacity="1"></use><g><use xlink:href="#b2px6UHR0" opacity="1" fill-opacity="0" stroke="#000000" stroke-width="1" stroke-opacity="0"></use></g></g><g><use xlink:href="#j8cTLCvVh" opacity="1" fill="#d33d3d" fill-opacity="1"></use><g><use xlink:href="#j8cTLCvVh" opacity="1" fill-opacity="0" stroke="#000000" stroke-width="1" stroke-opacity="0"></use></g></g><g><use xlink:href="#i4pNmqxsN" opacity="1" fill="#e95353" fill-opacity="1"></use><g><use xlink:href="#i4pNmqxsN" opacity="1" fill-opacity="0" stroke="#000000" stroke-width="1" stroke-opacity="0"></use></g></g><g><use xlink:href="#b58zxnZd3v" opacity="1" fill="#202020" fill-opacity="1"></use><g><use xlink:href="#b58zxnZd3v" opacity="1" fill-opacity="0" stroke="#000000" stroke-width="1" stroke-opacity="0"></use></g></g><g><use xlink:href="#algBN1Jgl" opacity="1" fill="#202020" fill-opacity="1"></use><g><use xlink:href="#algBN1Jgl" opacity="1" fill-opacity="0" stroke="#000000" stroke-width="1" stroke-opacity="0"></use></g></g><g><use xlink:href="#gupxU06oB" opacity="1" fill="#202020" fill-opacity="1"></use><g><use xlink:href="#gupxU06oB" opacity="1" fill-opacity="0" stroke="#000000" stroke-width="1" stroke-opacity="0"></use></g></g><g><use xlink:href="#c18diHrHL" opacity="1" fill="#d33d3d" fill-opacity="1"></use><g><use xlink:href="#c18diHrHL" opacity="1" fill-opacity="0" stroke="#000000" stroke-width="1" stroke-opacity="0"></use></g></g><g><use xlink:href="#a6rcRBFDK4" opacity="1" fill="#e95353" fill-opacity="1"></use><g><use xlink:href="#a6rcRBFDK4" opacity="1" fill-opacity="0" stroke="#000000" stroke-width="1" stroke-opacity="0"></use></g></g><g><use xlink:href="#c1vQnUw1hD" opacity="1" fill="#202020" fill-opacity="1"></use><g><use xlink:href="#c1vQnUw1hD" opacity="1" fill-opacity="0" stroke="#000000" stroke-width="1" stroke-opacity="0"></use></g></g><g><use xlink:href="#e2gTcTgYCY" opacity="1" fill="#202020" fill-opacity="1"></use><g><use xlink:href="#e2gTcTgYCY" opacity="1" fill-opacity="0" stroke="#000000" stroke-width="1" stroke-opacity="0"></use></g></g><g><use xlink:href="#d8XcpvHbb" opacity="1" fill="#202020" fill-opacity="1"></use><g><use xlink:href="#d8XcpvHbb" opacity="1" fill-opacity="0" stroke="#000000" stroke-width="1" stroke-opacity="0"></use></g></g><g><use xlink:href="#g1yDWX05OU" opacity="1" fill="#d33d3d" fill-opacity="1"></use><g><use xlink:href="#g1yDWX05OU" opacity="1" fill-opacity="0" stroke="#000000" stroke-width="1" stroke-opacity="0"></use></g></g><g><use xlink:href="#d1kzKMWX4s" opacity="1" fill="#e95353" fill-opacity="1"></use><g><use xlink:href="#d1kzKMWX4s" opacity="1" fill-opacity="0" stroke="#000000" stroke-width="1" stroke-opacity="0"></use></g></g><g><use xlink:href="#eR3TUZHIx" opacity="1" fill="#202020" fill-opacity="1"></use><g><use xlink:href="#eR3TUZHIx" opacity="1" fill-opacity="0" stroke="#000000" stroke-width="1" stroke-opacity="0"></use></g></g><g><use xlink:href="#a1yYETapQG" opacity="1" fill="#202020" fill-opacity="1"></use><g><use xlink:href="#a1yYETapQG" opacity="1" fill-opacity="0" stroke="#000000" stroke-width="1" stroke-opacity="0"></use></g></g><g><use xlink:href="#b1Gg5PPhvl" opacity="1" fill="#202020" fill-opacity="1"></use><g><use xlink:href="#b1Gg5PPhvl" opacity="1" fill-opacity="0" stroke="#000000" stroke-width="1" stroke-opacity="0"></use></g></g></g></g></svg>