<?xml version="1.0" encoding="UTF-8" standalone="no"?>
<!DOCTYPE svg PUBLIC "-//W3C//DTD SVG 1.1//EN" "http://www.w3.org/Graphics/SVG/1.1/DTD/svg11.dtd">
<svg version="1.1" xmlns="http://www.w3.org/2000/svg" xmlns:xlink="http://www.w3.org/1999/xlink" preserveAspectRatio="xMidYMid meet" viewBox="0 0 500 500" width="500" height="500"><defs><path d="M142.26 91.78C145.57 96.81 147.5 102.8 147.5 109.25C147.5 126.96 132.95 141.31 115 141.31C97.05 141.31 82.5 126.96 82.5 109.25C82.5 91.53 97.05 77.18 115 77.18C125.1 77.18 134.12 81.72 140.08 88.85" id="bXomFSYjx"></path><path d="M115 83.05C100.34 83.05 88.46 94.78 88.46 109.25C88.46 123.71 100.34 135.44 115 135.44C129.66 135.44 141.54 123.71 141.54 109.25C141.54 94.78 129.66 83.05 115 83.05Z" id="c425hjs1EM"></path><path d="M116.75 83.11C116.17 83.07 115.59 83.05 115 83.05C100.34 83.05 88.46 94.78 88.46 109.25C88.46 123.71 100.34 135.44 115 135.44C115.59 135.44 116.17 135.42 116.75 135.38C102.9 134.49 91.95 123.13 91.95 109.25C91.95 95.36 102.9 84 116.75 83.11Z" id="d4NjAa4gdu"></path><path d="M141.68 90.9C141.19 91.22 141.05 91.87 141.37 92.35C144.69 97.38 146.44 103.22 146.44 109.25C146.44 126.35 132.34 140.27 115 140.27C97.66 140.27 83.56 126.35 83.56 109.25C83.56 92.14 97.66 78.22 115 78.22C124.42 78.22 133.26 82.34 139.26 89.51C139.63 89.96 140.3 90.02 140.75 89.65C141.2 89.29 141.27 88.63 140.89 88.18C134.49 80.52 125.05 76.13 115 76.13C106.04 76.13 97.61 79.58 91.27 85.83C84.93 92.08 81.44 100.4 81.44 109.25C81.44 118.09 84.93 126.41 91.27 132.66C97.61 138.92 106.04 142.36 115 142.36C123.96 142.36 132.39 138.92 138.73 132.66C145.07 126.41 148.56 118.09 148.56 109.25C148.56 102.82 146.69 96.58 143.15 91.21C142.83 90.73 142.17 90.59 141.68 90.9Z" id="e18eyfZ1wi"></path><path d="M114.98 82.01C114.98 82.01 114.98 82.01 114.97 82.01C99.77 82.02 87.4 94.24 87.4 109.25C87.4 124.26 99.78 136.48 115 136.48C130.22 136.48 142.6 124.26 142.6 109.25C142.6 94.23 130.22 82.01 115 82.01C114.99 82.01 114.99 82.01 114.98 82.01ZM137.05 96.68C136.96 96.75 136.5 97.11 135.68 97.75L130.55 93.77C131.18 93.29 131.53 93.01 131.6 92.96C132.06 92.6 132.14 91.95 131.78 91.49C131.42 91.04 130.75 90.96 130.29 91.32C130.19 91.39 129.71 91.77 128.83 92.45L123.71 88.47C125.13 87.37 125.91 86.76 126.07 86.64C126.08 86.63 126.09 86.62 126.1 86.61C130.69 88.82 134.51 92.34 137.06 96.67C137.06 96.68 137.06 96.68 137.05 96.68ZM116.87 125.59L121.99 121.61L127.12 125.59L121.99 129.56L116.87 125.59ZM110.27 85.62C110.14 85.73 109.49 86.23 108.31 87.14C107.12 86.22 106.45 85.71 106.32 85.6C108.92 84.67 111.72 84.14 114.64 84.1C115.02 84.4 116.89 85.85 120.28 88.47C118.72 89.68 117.86 90.35 117.69 90.48C117.69 90.48 117.69 90.48 117.69 90.48C117.52 90.61 116.67 91.27 115.15 92.45C113.43 91.12 112.48 90.38 112.29 90.23C112.29 90.23 112.29 90.23 112.29 90.23C112.14 90.11 111.38 89.53 110.03 88.47C110.96 87.75 111.47 87.35 111.58 87.27C112.04 86.91 112.12 86.26 111.76 85.8C111.4 85.35 110.73 85.27 110.27 85.62ZM123.88 85.68C123.76 85.78 123.13 86.26 121.99 87.14L118.34 84.32C120.86 84.79 122.71 85.24 123.88 85.68ZM116.87 104.38L121.99 100.41L127.12 104.38L121.99 108.35L116.87 104.38ZM115.15 113.65L110.03 109.68L115.15 105.71L120.28 109.68L115.15 113.65ZM110.03 99.08L115.15 95.1L120.28 99.08L115.15 103.05L110.03 99.08ZM118.56 92.46C118.56 92.46 118.56 92.46 118.56 92.46C118.79 92.29 119.93 91.4 121.99 89.8L127.12 93.77L121.99 97.75L116.87 93.77C117.88 92.99 118.45 92.55 118.56 92.46ZM111.74 92.46C111.86 92.55 112.42 92.99 113.44 93.77L108.31 97.75L103.18 93.77L108.31 89.8L111.74 92.46C111.74 92.46 111.74 92.46 111.74 92.46ZM101.47 103.05L96.34 99.08L101.47 95.1L106.59 99.08L101.47 103.05ZM113.44 104.38L108.31 108.35L103.18 104.38L108.31 100.41L113.44 104.38ZM101.47 113.65L96.34 109.68L101.47 105.71L106.59 109.68L101.47 113.65ZM113.44 114.98L108.31 118.95L103.18 114.98L108.31 111.01L113.44 114.98ZM101.69 124.08L96.57 120.11L101.47 116.31L106.59 120.28L101.69 124.08ZM113.44 125.59L108.54 129.38L103.41 125.41L108.31 121.61L113.44 125.59ZM115.15 116.31L120.28 120.28L115.15 124.26L110.03 120.28L115.15 116.31ZM128.83 116.31L133.96 120.28L128.83 124.26L123.71 120.28L128.83 116.31ZM116.87 114.98L121.99 111.01L127.12 114.98L121.99 118.95L116.87 114.98ZM124.57 110.35C124.51 110.3 124.23 110.08 123.71 109.68C126.55 107.48 128.13 106.26 128.44 106.01C128.44 106.01 128.44 106.01 128.44 106.01C128.47 105.99 128.6 105.89 128.83 105.71L133.96 109.68L128.83 113.65L124.57 110.35C124.57 110.35 124.57 110.35 124.57 110.35ZM128.83 95.1L133.96 99.08L128.83 103.05L123.71 99.08L128.83 95.1ZM104.23 86.64C104.39 86.76 105.18 87.37 106.59 88.47L101.47 92.45C100.59 91.77 100.11 91.39 100.01 91.32C99.55 90.96 98.88 91.04 98.52 91.49C98.16 91.95 98.24 92.6 98.7 92.96C98.77 93.01 99.12 93.29 99.75 93.77C95.93 96.74 93.8 98.39 93.37 98.72C92.91 99.08 92.83 99.73 93.19 100.19C93.4 100.45 93.71 100.59 94.03 100.59C94.24 100.59 94.44 100.52 94.62 100.4C94.96 100.67 96.67 101.99 99.75 104.38L94.63 108.35C93.3 107.32 92.57 106.75 92.42 106.64C91.96 106.28 91.29 106.36 90.93 106.82C90.57 107.27 90.65 107.93 91.11 108.29C91.23 108.38 91.83 108.84 92.91 109.68C91.83 110.52 91.23 110.98 91.11 111.07C90.65 111.43 90.57 112.09 90.93 112.54C91.14 112.81 91.45 112.94 91.77 112.94C92 112.94 92.23 112.87 92.42 112.72C92.57 112.61 93.3 112.04 94.63 111.01L99.75 114.98L94.85 118.78C93.76 117.93 93.15 117.46 93.03 117.37C92.57 117.01 91.91 117.09 91.54 117.55C91.18 118 91.26 118.66 91.72 119.01C91.82 119.09 92.29 119.45 93.14 120.11C92.66 120.48 92.39 120.69 92.33 120.73C90.53 117.29 89.52 113.38 89.52 109.25C89.52 99.23 95.49 90.56 104.1 86.52C104.14 86.56 104.18 86.6 104.23 86.64ZM93.54 122.46C93.63 122.39 94.07 122.05 94.85 121.44L99.98 125.41C99.58 125.72 99.35 125.9 99.31 125.93C98.85 126.29 98.77 126.95 99.13 127.4C99.34 127.66 99.65 127.8 99.96 127.8C100.19 127.8 100.42 127.73 100.62 127.58C100.69 127.52 101.05 127.24 101.69 126.74L106.82 130.71C105.6 131.66 104.93 132.18 104.79 132.28C100.07 130.24 96.1 126.83 93.39 122.55C93.44 122.53 93.49 122.49 93.54 122.46ZM111.21 134.11C109.8 133.9 108.43 133.58 107.1 133.15C107.2 133.08 107.68 132.71 108.54 132.04C110.14 133.29 111.03 133.98 111.21 134.11ZM114.67 134.39C114.61 134.18 114.49 134 114.31 133.86C114.04 133.65 112.68 132.6 110.25 130.71L115.15 126.92L120.28 130.89C120.09 131.03 119.99 131.11 119.97 131.12C119.51 131.48 119.43 132.14 119.79 132.59C120 132.85 120.31 132.99 120.63 132.99C120.86 132.99 121.09 132.92 121.28 132.77C121.78 132.38 124.3 130.43 128.83 126.92C129.35 127.31 129.63 127.53 129.69 127.58C129.88 127.73 130.11 127.8 130.34 127.8C130.65 127.8 130.96 127.66 131.17 127.4C131.54 126.95 131.46 126.29 130.99 125.93C130.97 125.91 130.82 125.79 130.55 125.59L135.67 121.61C136.29 122.09 136.63 122.36 136.7 122.41C132.21 129.59 124.16 134.39 115 134.39C114.89 134.39 114.78 134.39 114.67 134.39ZM137.28 120.2C137.42 119.86 137.38 119.46 137.13 119.15C136.78 118.71 136.14 118.63 135.68 118.96C135.34 118.69 133.63 117.37 130.55 114.98L135.68 111.01C137 112.04 137.73 112.61 137.88 112.72C138.08 112.87 138.31 112.94 138.54 112.94C138.85 112.94 139.16 112.81 139.37 112.54C139.73 112.09 139.65 111.43 139.19 111.08C139.07 110.98 138.47 110.52 137.39 109.68C138.47 108.84 139.07 108.38 139.19 108.29C139.65 107.93 139.73 107.27 139.37 106.82C139.01 106.36 138.34 106.28 137.88 106.64C137.73 106.75 137 107.32 135.68 108.35L130.55 104.38C133.63 101.99 135.34 100.67 135.68 100.4C135.86 100.52 136.07 100.59 136.27 100.59C136.59 100.59 136.9 100.45 137.11 100.19C137.34 99.89 137.39 99.5 137.27 99.17C137.34 99.11 137.98 98.62 138.06 98.56C139.61 101.8 140.48 105.43 140.48 109.25C140.48 113.31 139.5 117.16 137.75 120.56C137.66 120.49 137.33 120.23 137.28 120.2Z" id="a1FalyOtW"></path><path d="M281.18 287.65C284.37 292.28 286.21 297.81 286.21 303.75C286.21 320.07 272.24 333.3 255 333.3C237.76 333.3 223.79 320.07 223.79 303.75C223.79 287.43 237.76 274.2 255 274.2C264.7 274.2 273.36 278.38 279.09 284.95" id="a3p1EUjFU"></path><path d="M255 279.61C240.92 279.61 229.51 290.42 229.51 303.75C229.51 317.08 240.92 327.88 255 327.88C269.08 327.88 280.49 317.08 280.49 303.75C280.49 290.42 269.08 279.61 255 279.61Z" id="a1dXTGDohQ"></path><path d="M256.68 279.66C256.12 279.63 255.57 279.61 255 279.61C240.92 279.61 229.51 290.42 229.51 303.75C229.51 317.08 240.92 327.88 255 327.88C255.57 327.88 256.12 327.86 256.68 327.83C243.38 327.01 232.86 316.54 232.86 303.75C232.86 290.95 243.38 280.48 256.68 279.66Z" id="gQA7YEQBK"></path><path d="M280.63 286.85C280.16 287.14 280.02 287.73 280.33 288.18C283.51 292.81 285.2 298.19 285.2 303.75C285.2 319.51 271.65 332.33 255 332.33C238.35 332.33 224.81 319.51 224.81 303.75C224.81 287.98 238.35 275.16 255 275.16C264.05 275.16 272.54 278.95 278.3 285.56C278.66 285.97 279.3 286.03 279.73 285.69C280.17 285.35 280.23 284.75 279.87 284.34C273.72 277.28 264.66 273.23 255 273.23C246.39 273.23 238.3 276.41 232.21 282.17C226.12 287.93 222.77 295.6 222.77 303.75C222.77 311.9 226.12 319.56 232.21 325.32C238.3 331.09 246.39 334.26 255 334.26C263.61 334.26 271.7 331.09 277.79 325.32C283.88 319.56 287.23 311.9 287.23 303.75C287.23 297.82 285.44 292.07 282.04 287.13C281.73 286.68 281.1 286.56 280.63 286.85Z" id="c42BMGFus"></path><path d="M254.98 278.65C254.98 278.65 254.98 278.65 254.98 278.65C240.37 278.66 228.49 289.91 228.49 303.75C228.49 317.59 240.38 328.84 255 328.84C269.62 328.84 281.51 317.59 281.51 303.75C281.51 289.91 269.62 278.65 255 278.65C254.99 278.65 254.99 278.65 254.98 278.65ZM276.18 292.17C276.09 292.23 275.65 292.56 274.86 293.15L269.94 289.49C270.54 289.04 270.88 288.79 270.95 288.74C271.39 288.41 271.46 287.8 271.12 287.39C270.77 286.97 270.13 286.89 269.69 287.22C269.6 287.29 269.13 287.64 268.29 288.26L263.37 284.6C264.73 283.59 265.48 283.03 265.64 282.92C265.65 282.91 265.66 282.9 265.67 282.89C270.07 284.92 273.74 288.16 276.19 292.16C276.19 292.16 276.18 292.16 276.18 292.17ZM256.8 318.8L261.72 315.14L266.64 318.8L261.72 322.46L256.8 318.8ZM250.46 281.98C250.33 282.07 249.71 282.54 248.58 283.38C247.43 282.53 246.79 282.05 246.67 281.96C249.17 281.1 251.86 280.62 254.66 280.58C255.02 280.85 256.82 282.19 260.07 284.6C258.58 285.71 257.75 286.33 257.58 286.45C257.58 286.45 257.58 286.45 257.58 286.45C257.42 286.57 256.61 287.18 255.15 288.26C253.5 287.04 252.58 286.36 252.4 286.22C252.4 286.22 252.4 286.22 252.4 286.22C252.25 286.11 251.53 285.57 250.22 284.6C251.12 283.94 251.62 283.57 251.72 283.5C252.16 283.17 252.23 282.56 251.89 282.14C251.54 281.72 250.9 281.65 250.46 281.98ZM263.53 282.03C263.41 282.12 262.81 282.57 261.72 283.38L258.21 280.77C260.63 281.21 262.41 281.63 263.53 282.03ZM256.79 299.26L261.72 295.6L266.64 299.26L261.72 302.92L256.79 299.26ZM255.15 307.81L250.22 304.15L255.15 300.49L260.07 304.15L255.15 307.81ZM250.22 294.38L255.15 290.71L260.07 294.38L255.15 298.04L250.22 294.38ZM258.42 288.28C258.42 288.28 258.42 288.28 258.42 288.28C258.64 288.12 259.74 287.3 261.72 285.83L266.64 289.49L261.72 293.15L256.79 289.49C257.77 288.76 258.31 288.36 258.42 288.28ZM251.87 288.28C251.98 288.36 252.52 288.76 253.5 289.49L248.58 293.15L243.65 289.49L248.58 285.83L251.87 288.28C251.87 288.28 251.87 288.28 251.87 288.28ZM242.01 298.04L237.08 294.38L242.01 290.71L246.93 294.38L242.01 298.04ZM253.5 299.26L248.58 302.92L243.65 299.26L248.58 295.6L253.5 299.26ZM242.01 307.81L237.08 304.15L242.01 300.49L246.93 304.15L242.01 307.81ZM253.5 309.03L248.58 312.69L243.65 309.03L248.58 305.37L253.5 309.03ZM242.22 317.42L237.3 313.76L242.01 310.26L246.93 313.92L242.22 317.42ZM253.5 318.8L248.79 322.3L243.87 318.64L248.58 315.14L253.5 318.8ZM255.15 310.26L260.07 313.92L255.15 317.58L250.22 313.92L255.15 310.26ZM268.29 310.26L273.21 313.92L268.29 317.58L263.37 313.92L268.29 310.26ZM256.8 309.03L261.72 305.37L266.64 309.03L261.72 312.69L256.8 309.03ZM264.19 304.76C264.14 304.72 263.86 304.52 263.37 304.15C266.09 302.12 267.61 300.99 267.91 300.77C267.91 300.76 267.91 300.76 267.91 300.76C267.94 300.75 268.06 300.65 268.29 300.49L273.21 304.15L268.29 307.81L264.2 304.76C264.19 304.76 264.19 304.76 264.19 304.76ZM268.29 290.71L273.21 294.38L268.29 298.04L263.37 294.38L268.29 290.71ZM244.66 282.92C244.81 283.03 245.57 283.59 246.93 284.6L242.01 288.26C241.17 287.64 240.7 287.29 240.61 287.22C240.16 286.89 239.52 286.97 239.18 287.39C238.83 287.8 238.91 288.41 239.35 288.74C239.42 288.79 239.75 289.04 240.36 289.49C236.68 292.22 234.64 293.74 234.23 294.05C233.79 294.37 233.71 294.98 234.06 295.4C234.26 295.64 234.56 295.77 234.86 295.77C235.06 295.77 235.26 295.71 235.43 295.6C235.76 295.84 237.4 297.06 240.36 299.26L235.44 302.92C234.16 301.98 233.46 301.45 233.32 301.35C232.87 301.02 232.23 301.09 231.89 301.51C231.54 301.93 231.62 302.53 232.06 302.86C232.17 302.95 232.75 303.37 233.79 304.15C232.75 304.92 232.17 305.35 232.06 305.43C231.62 305.76 231.54 306.37 231.89 306.78C232.09 307.03 232.39 307.15 232.69 307.15C232.91 307.15 233.13 307.09 233.32 306.95C233.46 306.84 234.16 306.32 235.44 305.37L240.36 309.03L235.65 312.53C234.6 311.75 234.02 311.32 233.9 311.23C233.46 310.9 232.82 310.97 232.47 311.39C232.13 311.81 232.2 312.42 232.65 312.75C232.74 312.81 233.19 313.15 234 313.76C233.54 314.1 233.29 314.29 233.23 314.33C231.51 311.15 230.53 307.56 230.53 303.75C230.53 294.51 236.26 286.53 244.53 282.8C244.57 282.84 244.61 282.88 244.66 282.92ZM234.39 315.92C234.48 315.86 234.9 315.54 235.65 314.98L240.57 318.64C240.19 318.93 239.97 319.09 239.93 319.12C239.49 319.45 239.41 320.06 239.76 320.47C239.96 320.72 240.26 320.84 240.56 320.84C240.78 320.84 241 320.78 241.19 320.64C241.26 320.59 241.6 320.33 242.22 319.87L247.15 323.53C245.98 324.4 245.33 324.88 245.2 324.97C240.67 323.09 236.85 319.95 234.25 316.01C234.3 315.98 234.35 315.95 234.39 315.92ZM251.36 326.66C250.01 326.47 248.69 326.17 247.42 325.78C247.51 325.71 247.97 325.37 248.79 324.75C250.33 325.9 251.19 326.53 251.36 326.66ZM254.68 326.91C254.63 326.73 254.51 326.55 254.34 326.42C254.08 326.23 252.78 325.26 250.44 323.53L255.15 320.03L260.07 323.69C259.89 323.82 259.8 323.89 259.78 323.91C259.34 324.23 259.26 324.84 259.61 325.26C259.81 325.5 260.11 325.63 260.41 325.63C260.63 325.63 260.85 325.56 261.03 325.42C261.52 325.06 263.94 323.26 268.29 320.03C268.78 320.39 269.05 320.6 269.11 320.64C269.29 320.77 269.51 320.84 269.73 320.84C270.04 320.84 270.34 320.72 270.54 320.47C270.88 320.06 270.81 319.45 270.36 319.12C270.34 319.1 270.19 318.99 269.94 318.8L274.86 315.14C275.45 315.58 275.78 315.83 275.85 315.88C271.53 322.5 263.8 326.92 255 326.92C254.9 326.92 254.79 326.91 254.68 326.91ZM276.4 313.84C276.53 313.53 276.49 313.16 276.26 312.88C275.92 312.47 275.3 312.39 274.86 312.69C274.53 312.45 272.89 311.23 269.94 309.03L274.86 305.37C276.13 306.32 276.84 306.84 276.98 306.95C277.16 307.09 277.39 307.15 277.61 307.15C277.91 307.15 278.21 307.03 278.41 306.78C278.75 306.37 278.68 305.76 278.24 305.43C278.12 305.35 277.54 304.92 276.51 304.15C277.54 303.38 278.12 302.95 278.24 302.86C278.68 302.53 278.75 301.93 278.41 301.51C278.06 301.09 277.42 301.02 276.98 301.35C276.84 301.45 276.13 301.98 274.86 302.92L269.94 299.26C272.89 297.06 274.54 295.84 274.86 295.6C275.04 295.71 275.24 295.77 275.43 295.77C275.74 295.77 276.03 295.64 276.23 295.4C276.46 295.12 276.51 294.77 276.39 294.47C276.46 294.41 277.07 293.95 277.15 293.9C278.64 296.89 279.48 300.23 279.48 303.75C279.48 307.49 278.53 311.04 276.85 314.17C276.76 314.11 276.44 313.87 276.4 313.84Z" id="c5yRZ0hSKM"></path><path d="M349.6 121.07C352.78 125.7 354.63 131.22 354.63 137.16C354.63 153.48 340.66 166.71 323.42 166.71C306.18 166.71 292.21 153.48 292.21 137.16C292.21 120.84 306.18 107.61 323.42 107.61C333.12 107.61 341.78 111.8 347.51 118.36" id="f1ZfCOC7C"></path><path d="M323.42 113.02C309.34 113.02 297.93 123.83 297.93 137.16C297.93 150.49 309.34 161.29 323.42 161.29C337.5 161.29 348.91 150.49 348.91 137.16C348.91 123.83 337.5 113.02 323.42 113.02Z" id="b3bdcuvEjg"></path><path d="M325.1 113.08C324.54 113.04 323.99 113.02 323.42 113.02C309.34 113.02 297.93 123.83 297.93 137.16C297.93 150.49 309.34 161.29 323.42 161.29C323.99 161.29 324.54 161.28 325.1 161.24C311.8 160.42 301.28 149.96 301.28 137.16C301.28 124.36 311.8 113.9 325.1 113.08Z" id="c6DxqKW7J2"></path><path d="M349.05 120.26C348.58 120.55 348.44 121.15 348.75 121.59C351.93 126.22 353.62 131.61 353.62 137.16C353.62 152.92 340.07 165.75 323.42 165.75C306.77 165.75 293.23 152.92 293.23 137.16C293.23 121.4 306.77 108.57 323.42 108.57C332.47 108.57 340.96 112.36 346.72 118.98C347.08 119.39 347.72 119.44 348.15 119.11C348.59 118.77 348.65 118.16 348.29 117.75C342.14 110.69 333.08 106.65 323.42 106.65C314.81 106.65 306.72 109.82 300.63 115.58C294.54 121.35 291.19 129.01 291.19 137.16C291.19 145.31 294.54 152.97 300.63 158.74C306.72 164.5 314.81 167.67 323.42 167.67C332.03 167.67 340.12 164.5 346.21 158.74C352.3 152.97 355.65 145.31 355.65 137.16C355.65 131.23 353.85 125.49 350.46 120.54C350.15 120.1 349.52 119.97 349.05 120.26Z" id="b1g7itTVcU"></path><path d="M323.4 112.06C323.4 112.06 323.4 112.06 323.4 112.06C308.79 112.07 296.91 123.33 296.91 137.16C296.91 151 308.8 162.26 323.42 162.26C338.04 162.26 349.93 151 349.93 137.16C349.93 123.32 338.04 112.06 323.42 112.06C323.41 112.06 323.41 112.06 323.4 112.06ZM344.6 125.58C344.51 125.65 344.07 125.97 343.28 126.56L338.36 122.9C338.96 122.45 339.3 122.2 339.37 122.15C339.81 121.82 339.88 121.22 339.54 120.8C339.19 120.38 338.55 120.31 338.11 120.64C338.01 120.71 337.55 121.05 336.71 121.68L331.79 118.02C333.15 117.01 333.9 116.44 334.06 116.33C334.07 116.32 334.07 116.31 334.08 116.31C338.49 118.33 342.16 121.58 344.61 125.57C344.61 125.58 344.6 125.58 344.6 125.58ZM325.21 152.22L330.14 148.56L335.06 152.22L330.14 155.88L325.21 152.22ZM318.88 115.39C318.75 115.49 318.13 115.95 317 116.79C315.85 115.94 315.21 115.47 315.09 115.37C317.59 114.51 320.27 114.03 323.08 113.99C323.44 114.26 325.24 115.6 328.49 118.02C327 119.13 326.17 119.74 326 119.87C326 119.87 326 119.87 326 119.87C325.84 119.99 325.03 120.59 323.57 121.68C321.92 120.45 321 119.77 320.82 119.64C320.82 119.64 320.82 119.64 320.82 119.64C320.67 119.53 319.95 118.99 318.64 118.02C319.54 117.35 320.04 116.98 320.13 116.91C320.58 116.58 320.65 115.97 320.31 115.56C319.96 115.14 319.32 115.07 318.88 115.39ZM331.95 115.44C331.83 115.53 331.23 115.98 330.14 116.79L326.63 114.19C329.05 114.63 330.83 115.04 331.95 115.44ZM325.21 132.67L330.14 129.01L335.06 132.67L330.14 136.33L325.21 132.67ZM323.57 141.22L318.64 137.56L323.57 133.9L328.49 137.56L323.57 141.22ZM318.64 127.79L323.57 124.13L328.49 127.79L323.57 131.45L318.64 127.79ZM326.84 121.7C326.84 121.7 326.84 121.7 326.84 121.7C327.06 121.53 328.16 120.71 330.14 119.24L335.06 122.9L330.14 126.56L325.21 122.9C326.19 122.18 326.73 121.78 326.84 121.7ZM320.29 121.7C320.4 121.78 320.94 122.18 321.92 122.9L317 126.56L312.07 122.9L317 119.24L320.29 121.7C320.29 121.7 320.29 121.7 320.29 121.7ZM310.43 131.45L305.5 127.79L310.43 124.13L315.35 127.79L310.43 131.45ZM321.92 132.67L317 136.33L312.07 132.67L317 129.01L321.92 132.67ZM310.43 141.22L305.5 137.56L310.43 133.9L315.35 137.56L310.43 141.22ZM321.92 142.45L317 146.11L312.07 142.45L317 138.79L321.92 142.45ZM310.64 150.83L305.72 147.17L310.43 143.67L315.35 147.33L310.64 150.83ZM321.92 152.22L317.21 155.72L312.29 152.06L317 148.56L321.92 152.22ZM323.57 143.67L328.49 147.33L323.57 150.99L318.64 147.33L323.57 143.67ZM336.71 143.67L341.63 147.33L336.71 150.99L331.79 147.33L336.71 143.67ZM325.21 142.45L330.14 138.79L335.06 142.45L330.14 146.11L325.21 142.45ZM332.61 138.18C332.56 138.13 332.28 137.93 331.79 137.56C334.51 135.53 336.03 134.4 336.33 134.18C336.33 134.18 336.33 134.18 336.33 134.18C336.36 134.16 336.48 134.07 336.71 133.9L341.63 137.56L336.71 141.22L332.61 138.18C332.61 138.18 332.61 138.18 332.61 138.18ZM336.71 124.13L341.63 127.79L336.71 131.45L331.79 127.79L336.71 124.13ZM313.08 116.33C313.23 116.44 313.99 117.01 315.35 118.02L310.43 121.68C309.59 121.05 309.12 120.71 309.03 120.64C308.58 120.31 307.94 120.38 307.6 120.8C307.25 121.22 307.33 121.82 307.77 122.15C307.84 122.2 308.17 122.45 308.78 122.9C305.1 125.64 303.06 127.16 302.65 127.46C302.21 127.79 302.13 128.39 302.48 128.81C302.68 129.05 302.98 129.18 303.28 129.18C303.48 129.18 303.68 129.12 303.85 129.01C304.18 129.25 305.82 130.48 308.78 132.67L303.85 136.33C302.58 135.39 301.88 134.86 301.74 134.76C301.29 134.43 300.65 134.5 300.31 134.92C299.96 135.34 300.04 135.95 300.48 136.27C300.59 136.36 301.17 136.79 302.21 137.56C301.17 138.33 300.59 138.76 300.48 138.85C300.04 139.17 299.96 139.78 300.31 140.2C300.51 140.44 300.81 140.57 301.11 140.57C301.33 140.57 301.55 140.5 301.74 140.36C301.88 140.26 302.58 139.73 303.85 138.78L308.78 142.45L304.07 145.94C303.02 145.16 302.44 144.73 302.32 144.64C301.88 144.32 301.24 144.39 300.89 144.81C300.55 145.23 300.62 145.83 301.07 146.16C301.16 146.23 301.61 146.56 302.42 147.17C301.96 147.51 301.7 147.7 301.65 147.74C299.92 144.57 298.95 140.97 298.95 137.16C298.95 127.93 304.68 119.94 312.95 116.22C312.99 116.26 313.03 116.3 313.08 116.33ZM302.81 149.33C302.9 149.27 303.32 148.96 304.07 148.4L308.99 152.06C308.61 152.34 308.39 152.5 308.35 152.53C307.91 152.86 307.83 153.47 308.18 153.89C308.38 154.13 308.68 154.26 308.98 154.26C309.2 154.26 309.42 154.19 309.61 154.05C309.68 154 310.02 153.74 310.64 153.28L315.56 156.94C314.4 157.81 313.75 158.29 313.62 158.39C309.09 156.51 305.27 153.36 302.67 149.42C302.72 149.4 302.77 149.37 302.81 149.33ZM319.78 160.07C318.43 159.88 317.11 159.58 315.84 159.19C315.93 159.12 316.39 158.78 317.21 158.17C318.75 159.31 319.61 159.95 319.78 160.07ZM323.1 160.33C323.05 160.14 322.93 159.97 322.76 159.84C322.5 159.64 321.2 158.68 318.86 156.94L323.57 153.44L328.49 157.1C328.31 157.23 328.22 157.3 328.2 157.32C327.76 157.65 327.68 158.25 328.03 158.67C328.23 158.91 328.52 159.04 328.83 159.04C329.05 159.04 329.27 158.97 329.45 158.83C329.94 158.48 332.36 156.68 336.71 153.44C337.2 153.81 337.47 154.01 337.53 154.05C337.71 154.19 337.93 154.26 338.15 154.26C338.46 154.26 338.75 154.13 338.96 153.89C339.3 153.47 339.23 152.86 338.78 152.53C338.75 152.51 338.61 152.41 338.36 152.22L343.28 148.56C343.87 149 344.2 149.24 344.26 149.29C339.95 155.91 332.22 160.33 323.42 160.33C323.32 160.33 323.21 160.33 323.1 160.33ZM344.82 147.25C344.95 146.94 344.91 146.57 344.68 146.29C344.34 145.88 343.72 145.8 343.28 146.11C342.95 145.86 341.31 144.64 338.36 142.45L343.28 138.79C344.55 139.73 345.26 140.26 345.4 140.36C345.58 140.5 345.81 140.57 346.03 140.57C346.33 140.57 346.63 140.44 346.83 140.2C347.17 139.78 347.1 139.17 346.65 138.85C346.54 138.76 345.96 138.33 344.93 137.56C345.96 136.79 346.54 136.36 346.65 136.28C347.1 135.95 347.17 135.34 346.83 134.92C346.48 134.5 345.84 134.43 345.4 134.76C345.26 134.86 344.55 135.39 343.28 136.33L338.36 132.67C341.31 130.48 342.95 129.26 343.28 129.01C343.46 129.12 343.65 129.18 343.85 129.18C344.15 129.18 344.45 129.05 344.65 128.81C344.88 128.54 344.93 128.18 344.81 127.88C344.88 127.82 345.49 127.37 345.57 127.31C347.06 130.3 347.9 133.64 347.9 137.16C347.9 140.91 346.95 144.45 345.27 147.59C345.18 147.52 344.86 147.28 344.82 147.25Z" id="fbboyfARv"></path><path d="M121.12 361.39C123.96 365.88 125.61 371.23 125.61 376.98C125.61 392.78 113.14 405.6 97.76 405.6C82.38 405.6 69.91 392.78 69.91 376.98C69.91 361.17 82.38 348.36 97.76 348.36C106.41 348.36 114.14 352.42 119.25 358.78" id="lwxBqudrp"></path><path d="M97.76 353.61C85.2 353.61 75.02 364.07 75.02 376.98C75.02 389.89 85.2 400.35 97.76 400.35C110.32 400.35 120.51 389.89 120.51 376.98C120.51 364.07 110.32 353.61 97.76 353.61Z" id="agqEkxxHO"></path><path d="M99.26 353.66C98.76 353.62 98.26 353.61 97.76 353.61C85.2 353.61 75.02 364.07 75.02 376.98C75.02 389.89 85.2 400.35 97.76 400.35C98.26 400.35 98.76 400.33 99.26 400.3C87.39 399.51 78.01 389.37 78.01 376.98C78.01 364.59 87.39 354.45 99.26 353.66Z" id="b4rWcXu6i"></path><path d="M120.63 360.61C120.21 360.89 120.09 361.47 120.36 361.9C123.2 366.39 124.7 371.6 124.7 376.98C124.7 392.24 112.62 404.66 97.76 404.66C82.91 404.66 70.82 392.24 70.82 376.98C70.82 361.71 82.91 349.29 97.76 349.29C105.83 349.29 113.41 352.97 118.55 359.37C118.87 359.77 119.44 359.82 119.83 359.5C120.21 359.17 120.27 358.58 119.95 358.18C114.46 351.35 106.37 347.43 97.76 347.43C90.08 347.43 82.86 350.5 77.43 356.08C72 361.66 69.01 369.09 69.01 376.98C69.01 384.87 72 392.29 77.43 397.87C82.86 403.46 90.08 406.53 97.76 406.53C105.44 406.53 112.66 403.46 118.09 397.87C123.53 392.29 126.52 384.87 126.52 376.98C126.52 371.24 124.91 365.68 121.88 360.89C121.61 360.45 121.05 360.33 120.63 360.61Z" id="ah5f9qhWc"></path><path d="M97.74 352.67C97.74 352.67 97.74 352.67 97.74 352.67C84.71 352.69 74.11 363.58 74.11 376.98C74.11 390.38 84.72 401.29 97.76 401.29C110.8 401.29 121.41 390.38 121.41 376.98C121.41 363.58 110.8 352.67 97.76 352.67C97.76 352.67 97.75 352.67 97.74 352.67ZM116.66 365.77C116.58 365.83 116.19 366.15 115.48 366.72L111.09 363.17C111.63 362.74 111.93 362.49 111.99 362.45C112.38 362.13 112.45 361.54 112.14 361.14C111.83 360.73 111.26 360.66 110.86 360.98C110.78 361.05 110.37 361.38 109.62 361.99L105.22 358.44C106.44 357.46 107.11 356.92 107.25 356.81C107.26 356.8 107.27 356.79 107.28 356.78C111.21 358.75 114.48 361.89 116.67 365.76C116.66 365.76 116.66 365.76 116.66 365.77ZM99.36 391.56L103.75 388.02L108.15 391.56L103.75 395.11L99.36 391.56ZM93.71 355.9C93.6 355.99 93.04 356.44 92.03 357.26C91.01 356.43 90.44 355.97 90.32 355.88C92.56 355.05 94.95 354.58 97.45 354.54C97.77 354.8 99.38 356.1 102.28 358.44C100.95 359.52 100.21 360.11 100.06 360.23C100.06 360.23 100.06 360.23 100.06 360.23C99.92 360.35 99.19 360.93 97.89 361.99C96.42 360.8 95.6 360.14 95.44 360.01C95.44 360.01 95.44 360.01 95.44 360.01C95.31 359.9 94.66 359.38 93.5 358.44C94.3 357.8 94.74 357.44 94.83 357.37C95.22 357.05 95.29 356.46 94.98 356.06C94.67 355.65 94.1 355.58 93.71 355.9ZM105.37 355.95C105.27 356.03 104.73 356.47 103.75 357.26L100.63 354.73C102.78 355.16 104.37 355.56 105.37 355.95ZM99.36 372.64L103.75 369.09L108.15 372.64L103.75 376.18L99.36 372.64ZM97.89 380.91L93.5 377.37L97.89 373.82L102.28 377.37L97.89 380.91ZM93.5 367.9L97.89 364.36L102.28 367.9L97.89 371.45L93.5 367.9ZM100.81 362C100.81 362 100.81 362 100.81 362C101.01 361.84 101.99 361.05 103.75 359.63L108.15 363.17L103.75 366.72L99.36 363.17C100.23 362.47 100.71 362.08 100.81 362ZM94.97 362C95.07 362.08 95.55 362.47 96.42 363.17L92.03 366.72L87.64 363.17L92.03 359.63L94.97 362C94.97 362 94.97 362 94.97 362ZM86.17 371.45L81.77 367.9L86.17 364.36L90.56 367.9L86.17 371.45ZM96.42 372.64L92.03 376.18L87.64 372.64L92.03 369.09L96.42 372.64ZM86.17 380.91L81.77 377.37L86.17 373.82L90.56 377.37L86.17 380.91ZM96.42 382.1L92.03 385.64L87.64 382.1L92.03 378.55L96.42 382.1ZM86.36 390.22L81.97 386.67L86.17 383.28L90.56 386.83L86.36 390.22ZM96.42 391.56L92.22 394.95L87.83 391.4L92.03 388.02L96.42 391.56ZM97.89 383.28L102.28 386.83L97.89 390.37L93.5 386.83L97.89 383.28ZM109.62 383.28L114.01 386.83L109.62 390.37L105.22 386.83L109.62 383.28ZM99.36 382.1L103.75 378.55L108.15 382.1L103.75 385.64L99.36 382.1ZM105.96 377.96C105.91 377.92 105.67 377.72 105.22 377.37C107.66 375.4 109.01 374.31 109.28 374.09C109.28 374.09 109.28 374.09 109.28 374.09C109.3 374.07 109.42 373.98 109.62 373.82L114.01 377.37L109.62 380.91L105.96 377.96C105.96 377.96 105.96 377.96 105.96 377.96ZM109.62 364.36L114.01 367.9L109.62 371.45L105.22 367.9L109.62 364.36ZM88.53 356.81C88.67 356.92 89.34 357.46 90.56 358.44L86.17 361.99C85.42 361.38 85 361.05 84.92 360.98C84.52 360.66 83.95 360.73 83.64 361.14C83.33 361.54 83.4 362.13 83.8 362.45C83.86 362.49 84.16 362.74 84.7 363.17C81.42 365.82 79.59 367.29 79.23 367.58C78.84 367.9 78.77 368.49 79.08 368.89C79.26 369.13 79.52 369.25 79.79 369.25C79.97 369.25 80.14 369.2 80.3 369.09C80.59 369.32 82.06 370.51 84.7 372.64L80.3 376.18C79.17 375.26 78.54 374.76 78.41 374.65C78.02 374.34 77.45 374.41 77.14 374.81C76.83 375.22 76.9 375.8 77.29 376.12C77.39 376.2 77.91 376.62 78.83 377.37C77.91 378.11 77.39 378.53 77.29 378.61C76.9 378.93 76.83 379.52 77.14 379.92C77.32 380.16 77.58 380.28 77.85 380.28C78.05 380.28 78.25 380.21 78.41 380.08C78.54 379.98 79.17 379.47 80.3 378.55L84.7 382.1L80.5 385.49C79.56 384.73 79.04 384.31 78.94 384.23C78.54 383.91 77.97 383.98 77.66 384.39C77.35 384.79 77.42 385.38 77.82 385.7C77.9 385.76 78.3 386.09 79.03 386.67C78.61 387.01 78.39 387.19 78.34 387.23C76.8 384.15 75.93 380.67 75.93 376.98C75.93 368.04 81.04 360.3 88.42 356.7C88.46 356.74 88.49 356.77 88.53 356.81ZM79.37 388.77C79.45 388.71 79.82 388.4 80.5 387.86L84.89 391.4C84.54 391.68 84.35 391.84 84.31 391.87C83.92 392.19 83.85 392.77 84.16 393.18C84.34 393.41 84.61 393.54 84.88 393.54C85.07 393.54 85.27 393.47 85.44 393.34C85.5 393.29 85.81 393.04 86.36 392.59L90.75 396.14C89.71 396.98 89.13 397.44 89.01 397.54C84.97 395.71 81.57 392.67 79.24 388.85C79.29 388.83 79.33 388.8 79.37 388.77ZM94.51 399.17C93.3 398.98 92.13 398.7 90.99 398.31C91.08 398.25 91.48 397.92 92.22 397.32C93.6 398.43 94.36 399.05 94.51 399.17ZM97.48 399.41C97.43 399.23 97.32 399.07 97.17 398.94C96.94 398.75 95.78 397.82 93.69 396.14L97.89 392.75L102.28 396.29C102.13 396.42 102.04 396.49 102.02 396.5C101.63 396.82 101.56 397.41 101.87 397.81C102.05 398.05 102.31 398.17 102.58 398.17C102.78 398.17 102.98 398.1 103.14 397.97C103.58 397.62 105.73 395.88 109.62 392.75C110.05 393.1 110.3 393.3 110.35 393.34C110.51 393.47 110.71 393.54 110.91 393.54C111.18 393.54 111.44 393.41 111.62 393.18C111.93 392.77 111.86 392.19 111.47 391.87C111.44 391.85 111.31 391.75 111.09 391.56L115.48 388.02C116.01 388.44 116.3 388.68 116.36 388.73C112.51 395.14 105.61 399.42 97.76 399.42C97.67 399.42 97.57 399.42 97.48 399.41ZM116.85 386.75C116.97 386.45 116.94 386.09 116.73 385.82C116.42 385.43 115.87 385.35 115.48 385.64C115.19 385.41 113.72 384.23 111.09 382.1L115.48 378.55C116.61 379.47 117.24 379.98 117.37 380.08C117.54 380.21 117.73 380.28 117.93 380.28C118.2 380.28 118.46 380.16 118.64 379.92C118.95 379.52 118.88 378.93 118.49 378.61C118.39 378.53 117.87 378.11 116.95 377.37C117.87 376.62 118.39 376.21 118.49 376.12C118.88 375.8 118.95 375.22 118.64 374.81C118.33 374.41 117.76 374.34 117.37 374.65C117.24 374.76 116.61 375.26 115.48 376.18L111.09 372.64C113.72 370.51 115.19 369.32 115.48 369.09C115.64 369.2 115.81 369.25 115.99 369.25C116.26 369.25 116.53 369.13 116.71 368.89C116.91 368.63 116.95 368.29 116.84 367.99C116.91 367.94 117.46 367.5 117.52 367.44C118.85 370.34 119.6 373.57 119.6 376.98C119.6 380.61 118.75 384.04 117.26 387.08C117.18 387.01 116.89 386.78 116.85 386.75Z" id="cPwpIsLBc"></path><path d="M432.11 353.02C435.04 357.31 436.74 362.42 436.74 367.92C436.74 383.03 423.87 395.27 407.99 395.27C392.11 395.27 379.23 383.03 379.23 367.92C379.23 352.81 392.11 340.56 407.99 340.56C416.92 340.56 424.9 344.44 430.18 350.52" id="a2tP4GUYd"></path><path d="M407.99 345.58C395.02 345.58 384.5 355.58 384.5 367.92C384.5 380.26 395.02 390.26 407.99 390.26C420.96 390.26 431.47 380.26 431.47 367.92C431.47 355.58 420.96 345.58 407.99 345.58Z" id="a5GQitq8xP"></path><path d="M409.53 345.63C409.02 345.6 408.51 345.58 407.99 345.58C395.02 345.58 384.5 355.58 384.5 367.92C384.5 380.26 395.02 390.26 407.99 390.26C408.51 390.26 409.02 390.24 409.53 390.21C397.28 389.45 387.59 379.76 387.59 367.92C387.59 356.07 397.28 346.38 409.53 345.63Z" id="dWjA8wRTZ"></path><path d="M431.6 352.27C431.16 352.54 431.04 353.1 431.32 353.51C434.26 357.8 435.81 362.78 435.81 367.92C435.81 382.51 423.33 394.38 407.99 394.38C392.65 394.38 380.17 382.51 380.17 367.92C380.17 353.33 392.65 341.46 407.99 341.46C416.32 341.46 424.14 344.97 429.45 351.09C429.78 351.47 430.37 351.52 430.77 351.21C431.17 350.89 431.23 350.33 430.9 349.95C425.23 343.42 416.88 339.67 407.99 339.67C400.06 339.67 392.6 342.61 386.99 347.95C381.38 353.28 378.29 360.37 378.29 367.92C378.29 375.46 381.38 382.56 386.99 387.89C392.6 393.23 400.06 396.16 407.99 396.16C415.92 396.16 423.38 393.23 428.98 387.89C434.59 382.56 437.68 375.46 437.68 367.92C437.68 362.43 436.03 357.11 432.89 352.54C432.61 352.12 432.03 352.01 431.6 352.27Z" id="a1HSDJGmaY"></path><path d="M407.97 344.69C407.97 344.69 407.97 344.69 407.96 344.69C394.51 344.7 383.56 355.12 383.56 367.92C383.56 380.73 394.52 391.15 407.99 391.15C421.45 391.15 432.41 380.73 432.41 367.92C432.41 355.11 421.45 344.69 407.99 344.69C407.98 344.69 407.97 344.69 407.97 344.69ZM427.5 357.2C427.42 357.26 427.01 357.56 426.28 358.11L421.75 354.72C422.3 354.31 422.61 354.07 422.68 354.03C423.08 353.72 423.15 353.16 422.83 352.78C422.51 352.39 421.93 352.32 421.52 352.62C421.43 352.69 421 353.01 420.23 353.59L415.69 350.2C416.95 349.26 417.64 348.74 417.78 348.64C417.79 348.63 417.8 348.62 417.81 348.62C421.87 350.49 425.25 353.5 427.51 357.19C427.51 357.2 427.5 357.2 427.5 357.2ZM409.64 381.86L414.17 378.47L418.71 381.86L414.17 385.24L409.64 381.86ZM403.8 347.77C403.69 347.86 403.11 348.29 402.07 349.07C401.01 348.28 400.43 347.84 400.31 347.75C402.61 346.96 405.09 346.51 407.67 346.47C408 346.72 409.66 347.96 412.66 350.2C411.28 351.23 410.52 351.8 410.36 351.91C410.36 351.91 410.36 351.91 410.36 351.91C410.21 352.02 409.47 352.58 408.12 353.59C406.6 352.45 405.76 351.82 405.59 351.7C405.59 351.7 405.59 351.7 405.59 351.7C405.46 351.6 404.79 351.1 403.59 350.2C404.41 349.58 404.87 349.24 404.96 349.17C405.37 348.87 405.44 348.31 405.12 347.92C404.8 347.53 404.21 347.47 403.8 347.77ZM415.85 347.82C415.74 347.9 415.18 348.32 414.17 349.07L410.95 346.65C413.17 347.06 414.81 347.45 415.85 347.82ZM409.64 363.77L414.17 360.38L418.71 363.77L414.17 367.16L409.64 363.77ZM408.12 371.68L403.59 368.29L408.12 364.9L412.66 368.29L408.12 371.68ZM403.59 359.24L408.12 355.86L412.66 359.24L408.12 362.63L403.59 359.24ZM411.14 353.6C411.14 353.6 411.14 353.6 411.14 353.6C411.34 353.45 412.35 352.7 414.17 351.33L418.71 354.72L414.17 358.11L409.64 354.72C410.54 354.05 411.04 353.68 411.14 353.6ZM405.11 353.6C405.21 353.68 405.7 354.05 406.6 354.72L402.07 358.11L397.53 354.72L402.07 351.33L405.11 353.6C405.11 353.6 405.11 353.6 405.11 353.6ZM396.01 362.63L391.48 359.24L396.01 355.86L400.55 359.24L396.01 362.63ZM406.6 363.77L402.07 367.16L397.53 363.77L402.07 360.38L406.6 363.77ZM396.01 371.68L391.48 368.29L396.01 364.9L400.55 368.29L396.01 371.68ZM406.6 372.81L402.07 376.2L397.53 372.81L402.07 369.42L406.6 372.81ZM396.21 380.57L391.68 377.18L396.01 373.95L400.55 377.33L396.21 380.57ZM406.6 381.86L402.27 385.1L397.73 381.71L402.07 378.47L406.6 381.86ZM408.12 373.95L412.66 377.33L408.12 380.72L403.59 377.33L408.12 373.95ZM420.23 373.95L424.76 377.33L420.23 380.72L415.69 377.33L420.23 373.95ZM409.64 372.81L414.17 369.42L418.71 372.81L414.17 376.2L409.64 372.81ZM416.46 368.86C416.4 368.82 416.15 368.63 415.69 368.29C418.21 366.41 419.6 365.37 419.88 365.16C419.88 365.16 419.88 365.16 419.88 365.16C419.91 365.14 420.02 365.06 420.23 364.9L424.76 368.29L420.23 371.68L416.46 368.86C416.46 368.86 416.46 368.86 416.46 368.86ZM420.23 355.86L424.76 359.24L420.23 362.63L415.69 359.24L420.23 355.86ZM398.46 348.64C398.6 348.74 399.29 349.26 400.55 350.2L396.01 353.59C395.24 353.01 394.81 352.69 394.72 352.62C394.32 352.32 393.73 352.39 393.41 352.78C393.09 353.16 393.16 353.72 393.57 354.03C393.63 354.07 393.94 354.31 394.5 354.72C391.11 357.25 389.23 358.66 388.85 358.94C388.44 359.24 388.37 359.8 388.69 360.19C388.88 360.42 389.15 360.53 389.43 360.53C389.61 360.53 389.8 360.48 389.96 360.38C390.26 360.6 391.77 361.73 394.5 363.77L389.96 367.16C388.79 366.28 388.14 365.79 388.01 365.7C387.6 365.39 387.01 365.46 386.69 365.85C386.37 366.23 386.44 366.8 386.85 367.1C386.96 367.18 387.49 367.58 388.44 368.29C387.49 369 386.96 369.4 386.85 369.48C386.44 369.78 386.37 370.34 386.69 370.73C386.88 370.96 387.15 371.07 387.43 371.07C387.63 371.07 387.84 371.01 388.01 370.88C388.14 370.78 388.79 370.3 389.96 369.42L394.5 372.81L390.16 376.05C389.19 375.33 388.66 374.93 388.55 374.85C388.14 374.54 387.55 374.61 387.23 375C386.91 375.39 386.98 375.95 387.39 376.25C387.47 376.31 387.89 376.62 388.64 377.18C388.22 377.5 387.98 377.68 387.93 377.71C386.34 374.78 385.44 371.45 385.44 367.92C385.44 359.37 390.72 351.98 398.34 348.53C398.38 348.57 398.42 348.61 398.46 348.64ZM389 379.19C389.08 379.13 389.46 378.84 390.16 378.32L394.7 381.71C394.34 381.97 394.14 382.12 394.1 382.15C393.69 382.46 393.62 383.02 393.94 383.4C394.13 383.63 394.4 383.74 394.68 383.74C394.88 383.74 395.09 383.68 395.26 383.55C395.32 383.51 395.64 383.27 396.21 382.84L400.75 386.23C399.67 387.03 399.07 387.48 398.96 387.57C394.78 385.83 391.26 382.91 388.86 379.27C388.91 379.25 388.96 379.22 389 379.19ZM404.63 389.13C403.38 388.95 402.17 388.68 401 388.31C401.08 388.25 401.51 387.93 402.27 387.36C403.69 388.42 404.47 389.01 404.63 389.13ZM407.69 389.36C407.64 389.19 407.53 389.03 407.37 388.91C407.13 388.73 405.94 387.84 403.79 386.23L408.12 382.99L412.66 386.38C412.49 386.5 412.41 386.57 412.39 386.58C411.98 386.88 411.91 387.44 412.23 387.83C412.41 388.06 412.69 388.17 412.97 388.17C413.17 388.17 413.37 388.11 413.55 387.98C413.99 387.65 416.22 385.99 420.23 382.99C420.68 383.33 420.93 383.52 420.98 383.55C421.15 383.68 421.36 383.74 421.56 383.74C421.84 383.74 422.11 383.63 422.3 383.4C422.62 383.02 422.55 382.46 422.14 382.15C422.11 382.13 421.98 382.03 421.75 381.86L426.28 378.47C426.83 378.88 427.13 379.1 427.19 379.15C423.22 385.27 416.1 389.37 407.99 389.37C407.89 389.37 407.79 389.37 407.69 389.36ZM427.7 377.26C427.82 376.97 427.79 376.63 427.57 376.37C427.26 375.99 426.69 375.92 426.28 376.2C425.98 375.97 424.47 374.85 421.75 372.81L426.28 369.42C427.45 370.3 428.1 370.78 428.23 370.88C428.41 371.01 428.61 371.07 428.81 371.07C429.09 371.07 429.37 370.96 429.55 370.73C429.87 370.34 429.8 369.78 429.39 369.48C429.29 369.4 428.76 369 427.8 368.29C428.76 367.58 429.29 367.18 429.39 367.1C429.8 366.8 429.87 366.23 429.55 365.85C429.23 365.46 428.64 365.39 428.23 365.7C428.1 365.79 427.45 366.28 426.28 367.16L421.75 363.77C424.47 361.73 425.98 360.6 426.29 360.38C426.45 360.48 426.63 360.53 426.81 360.53C427.09 360.53 427.36 360.42 427.55 360.19C427.76 359.94 427.8 359.61 427.69 359.33C427.76 359.28 428.32 358.85 428.39 358.8C429.77 361.57 430.54 364.66 430.54 367.92C430.54 371.39 429.66 374.67 428.12 377.57C428.04 377.51 427.74 377.29 427.7 377.26Z" id="aHCYGd5Z1"></path><path d="M147.6 221.84C150.78 226.47 152.63 231.99 152.63 237.93C152.63 254.25 138.65 267.48 121.41 267.48C104.18 267.48 90.2 254.25 90.2 237.93C90.2 221.61 104.18 208.38 121.41 208.38C131.11 208.38 139.77 212.56 145.5 219.13" id="e310PsZsop"></path><path d="M121.41 213.79C107.33 213.79 95.92 224.6 95.92 237.93C95.92 251.26 107.33 262.06 121.41 262.06C135.49 262.06 146.91 251.26 146.91 237.93C146.91 224.6 135.49 213.79 121.41 213.79Z" id="l4p3Ko3Z2e"></path><path d="M123.09 213.85C122.54 213.81 121.98 213.79 121.41 213.79C107.33 213.79 95.92 224.6 95.92 237.93C95.92 251.26 107.33 262.06 121.41 262.06C121.98 262.06 122.54 262.04 123.09 262.01C109.79 261.19 99.28 250.72 99.28 237.93C99.28 225.13 109.79 214.66 123.09 213.85Z" id="b3z2jeB4f"></path><path d="M147.04 221.03C146.57 221.32 146.44 221.91 146.74 222.36C149.93 226.99 151.61 232.38 151.61 237.93C151.61 253.69 138.06 266.52 121.41 266.52C104.76 266.52 91.22 253.69 91.22 237.93C91.22 222.17 104.76 209.34 121.41 209.34C130.46 209.34 138.95 213.13 144.71 219.74C145.07 220.16 145.71 220.21 146.15 219.87C146.58 219.54 146.64 218.93 146.28 218.52C140.13 211.46 131.07 207.41 121.41 207.41C112.8 207.41 104.71 210.59 98.62 216.35C92.54 222.11 89.18 229.78 89.18 237.93C89.18 246.08 92.54 253.74 98.62 259.51C104.71 265.27 112.8 268.44 121.41 268.44C130.02 268.44 138.12 265.27 144.2 259.5C150.29 253.74 153.64 246.08 153.64 237.93C153.64 232 151.85 226.26 148.45 221.31C148.14 220.86 147.51 220.74 147.04 221.03Z" id="e5sN2ORrnO"></path><path d="M121.39 212.83C121.39 212.83 121.39 212.83 121.39 212.83C106.78 212.84 94.9 224.1 94.9 237.93C94.9 251.77 106.8 263.03 121.41 263.03C136.03 263.03 147.92 251.77 147.92 237.93C147.92 224.09 136.03 212.83 121.41 212.83C121.41 212.83 121.4 212.83 121.39 212.83ZM142.59 226.35C142.5 226.42 142.06 226.74 141.27 227.33L136.35 223.67C136.95 223.22 137.29 222.97 137.36 222.92C137.8 222.59 137.88 221.99 137.53 221.57C137.18 221.15 136.54 221.08 136.1 221.41C136.01 221.48 135.54 221.82 134.7 222.45L129.78 218.79C131.14 217.77 131.9 217.21 132.05 217.1C132.06 217.09 132.07 217.08 132.08 217.07C136.48 219.1 140.16 222.35 142.6 226.34C142.6 226.35 142.6 226.35 142.59 226.35ZM123.21 252.99L128.13 249.32L133.05 252.99L128.13 256.65L123.21 252.99ZM116.87 216.16C116.74 216.26 116.12 216.72 114.99 217.56C113.84 216.71 113.21 216.24 113.08 216.14C115.58 215.28 118.27 214.8 121.07 214.76C121.43 215.03 123.23 216.37 126.48 218.79C124.99 219.9 124.16 220.51 123.99 220.64C123.99 220.64 123.99 220.64 123.99 220.64C123.83 220.76 123.02 221.36 121.56 222.45C119.91 221.22 118.99 220.54 118.81 220.4C118.81 220.4 118.81 220.4 118.81 220.4C118.67 220.3 117.94 219.76 116.64 218.79C117.53 218.12 118.03 217.75 118.13 217.68C118.57 217.35 118.65 216.74 118.3 216.33C117.95 215.91 117.31 215.83 116.87 216.16ZM129.95 216.21C129.82 216.3 129.22 216.75 128.13 217.56L124.63 214.96C127.04 215.39 128.82 215.81 129.95 216.21ZM123.21 233.44L128.13 229.78L133.05 233.44L128.13 237.1L123.21 233.44ZM121.56 241.99L116.64 238.33L121.56 234.67L126.48 238.33L121.56 241.99ZM116.64 228.56L121.56 224.9L126.48 228.56L121.56 232.22L116.64 228.56ZM124.83 222.46C124.83 222.46 124.83 222.46 124.83 222.46C125.05 222.3 126.15 221.48 128.13 220.01L133.05 223.67L128.13 227.33L123.21 223.67C124.18 222.95 124.72 222.54 124.83 222.46ZM118.29 222.46C118.39 222.54 118.94 222.95 119.91 223.67L114.99 227.33L110.07 223.67L114.99 220.01L118.29 222.46C118.29 222.46 118.29 222.46 118.29 222.46ZM108.42 232.22L103.49 228.56L108.42 224.9L113.34 228.56L108.42 232.22ZM119.91 233.44L114.99 237.1L110.07 233.44L114.99 229.78L119.91 233.44ZM108.42 241.99L103.49 238.33L108.42 234.67L113.34 238.33L108.42 241.99ZM119.91 243.21L114.99 246.87L110.07 243.21L114.99 239.55L119.91 243.21ZM108.63 251.6L103.71 247.94L108.42 244.44L113.34 248.1L108.63 251.6ZM119.91 252.98L115.2 256.48L110.28 252.82L114.99 249.32L119.91 252.98ZM121.56 244.44L126.48 248.1L121.56 251.76L116.64 248.1L121.56 244.44ZM134.7 244.44L139.62 248.1L134.7 251.76L129.78 248.1L134.7 244.44ZM123.21 243.21L128.13 239.55L133.05 243.21L128.13 246.87L123.21 243.21ZM130.61 238.94C130.55 238.9 130.27 238.7 129.78 238.33C132.51 236.3 134.02 235.17 134.33 234.95C134.33 234.95 134.33 234.95 134.33 234.95C134.35 234.93 134.48 234.84 134.7 234.67L139.62 238.33L134.7 241.99L130.61 238.95C130.61 238.94 130.61 238.94 130.61 238.94ZM134.7 224.9L139.62 228.56L134.7 232.22L129.78 228.56L134.7 224.9ZM111.07 217.1C111.22 217.21 111.98 217.77 113.34 218.79L108.42 222.45C107.58 221.82 107.11 221.48 107.02 221.41C106.58 221.08 105.94 221.15 105.59 221.57C105.24 221.99 105.32 222.59 105.76 222.92C105.83 222.97 106.16 223.22 106.77 223.67C103.09 226.41 101.05 227.92 100.64 228.23C100.2 228.56 100.12 229.16 100.47 229.58C100.67 229.82 100.97 229.95 101.27 229.95C101.47 229.95 101.67 229.89 101.84 229.78C102.17 230.02 103.81 231.24 106.77 233.44L101.85 237.1C100.58 236.16 99.87 235.63 99.73 235.53C99.29 235.2 98.65 235.27 98.3 235.69C97.95 236.11 98.03 236.71 98.47 237.04C98.59 237.13 99.16 237.56 100.2 238.33C99.16 239.1 98.59 239.53 98.47 239.61C98.03 239.94 97.95 240.55 98.3 240.97C98.5 241.21 98.8 241.33 99.1 241.33C99.32 241.33 99.54 241.27 99.73 241.13C99.87 241.02 100.58 240.5 101.85 239.55L106.77 243.21L102.06 246.71C101.01 245.93 100.43 245.5 100.31 245.41C99.87 245.08 99.23 245.16 98.89 245.58C98.54 245.99 98.62 246.6 99.06 246.93C99.15 247 99.6 247.33 100.42 247.94C99.95 248.28 99.7 248.47 99.65 248.51C97.92 245.34 96.94 241.74 96.94 237.93C96.94 228.7 102.67 220.71 110.94 216.99C110.98 217.03 111.02 217.06 111.07 217.1ZM100.8 250.1C100.89 250.04 101.31 249.73 102.06 249.16L106.99 252.82C106.6 253.11 106.38 253.27 106.34 253.3C105.9 253.63 105.82 254.24 106.17 254.66C106.37 254.9 106.67 255.02 106.97 255.02C107.19 255.02 107.41 254.96 107.6 254.82C107.67 254.77 108.01 254.51 108.63 254.05L113.56 257.71C112.39 258.58 111.74 259.06 111.61 259.16C107.08 257.27 103.26 254.13 100.66 250.19C100.71 250.17 100.76 250.13 100.8 250.1ZM117.77 260.84C116.42 260.65 115.1 260.35 113.83 259.96C113.92 259.89 114.38 259.55 115.2 258.93C116.74 260.08 117.6 260.72 117.77 260.84ZM121.1 261.1C121.04 260.91 120.92 260.74 120.75 260.61C120.49 260.41 119.19 259.45 116.85 257.71L121.56 254.21L126.48 257.87C126.31 258 126.21 258.07 126.19 258.09C125.75 258.42 125.67 259.02 126.02 259.44C126.22 259.68 126.52 259.81 126.82 259.81C127.04 259.81 127.26 259.74 127.45 259.6C127.93 259.24 130.35 257.45 134.7 254.21C135.19 254.58 135.46 254.78 135.52 254.82C135.7 254.96 135.93 255.02 136.15 255.02C136.45 255.02 136.75 254.9 136.95 254.66C137.29 254.24 137.22 253.63 136.78 253.3C136.75 253.28 136.6 253.18 136.35 252.98L141.27 249.32C141.86 249.76 142.19 250.01 142.26 250.06C137.94 256.68 130.21 261.1 121.41 261.1C121.31 261.1 121.2 261.1 121.1 261.1ZM142.81 248.02C142.95 247.71 142.9 247.34 142.67 247.06C142.33 246.65 141.71 246.57 141.27 246.88C140.94 246.63 139.3 245.41 136.35 243.21L141.27 239.55C142.54 240.5 143.25 241.02 143.39 241.13C143.58 241.27 143.8 241.34 144.02 241.34C144.32 241.34 144.62 241.21 144.82 240.97C145.17 240.55 145.09 239.94 144.65 239.61C144.53 239.53 143.96 239.1 142.92 238.33C143.96 237.56 144.53 237.13 144.65 237.04C145.09 236.71 145.17 236.11 144.82 235.69C144.47 235.27 143.83 235.2 143.39 235.53C143.25 235.63 142.54 236.16 141.27 237.1L136.35 233.44C139.3 231.25 140.95 230.02 141.28 229.78C141.45 229.89 141.65 229.95 141.84 229.95C142.15 229.95 142.45 229.82 142.65 229.58C142.87 229.31 142.92 228.95 142.8 228.65C142.87 228.59 143.49 228.14 143.56 228.08C145.05 231.07 145.89 234.41 145.89 237.93C145.89 241.68 144.94 245.22 143.26 248.36C143.17 248.29 142.86 248.05 142.81 248.02Z" id="g3NP6RfV0d"></path></defs><g><g><g><use xlink:href="#bXomFSYjx" opacity="1" fill="#8c5549" fill-opacity="1"></use><g><use xlink:href="#bXomFSYjx" opacity="1" fill-opacity="0" stroke="#000000" stroke-width="1" stroke-opacity="0"></use></g></g><g><use xlink:href="#c425hjs1EM" opacity="1" fill="#a0665d" fill-opacity="1"></use><g><use xlink:href="#c425hjs1EM" opacity="1" fill-opacity="0" stroke="#000000" stroke-width="1" stroke-opacity="0"></use></g></g><g><use xlink:href="#d4NjAa4gdu" opacity="1" fill="#202020" fill-opacity="1"></use><g><use xlink:href="#d4NjAa4gdu" opacity="1" fill-opacity="0" stroke="#000000" stroke-width="1" stroke-opacity="0"></use></g></g><g><use xlink:href="#e18eyfZ1wi" opacity="1" fill="#202020" fill-opacity="1"></use><g><use xlink:href="#e18eyfZ1wi" opacity="1" fill-opacity="0" stroke="#000000" stroke-width="1" stroke-opacity="0"></use></g></g><g><use xlink:href="#a1FalyOtW" opacity="1" fill="#202020" fill-opacity="1"></use><g><use xlink:href="#a1FalyOtW" opacity="1" fill-opacity="0" stroke="#000000" stroke-width="1" stroke-opacity="0"></use></g></g><g><use xlink:href="#a3p1EUjFU" opacity="1" fill="#8c5549" fill-opacity="1"></use><g><use xlink:href="#a3p1EUjFU" opacity="1" fill-opacity="0" stroke="#000000" stroke-width="1" stroke-opacity="0"></use></g></g><g><use xlink:href="#a1dXTGDohQ" opacity="1" fill="#a0665d" fill-opacity="1"></use><g><use xlink:href="#a1dXTGDohQ" opacity="1" fill-opacity="0" stroke="#000000" stroke-width="1" stroke-opacity="0"></use></g></g><g><use xlink:href="#gQA7YEQBK" opacity="1" fill="#202020" fill-opacity="1"></use><g><use xlink:href="#gQA7YEQBK" opacity="1" fill-opacity="0" stroke="#000000" stroke-width="1" stroke-opacity="0"></use></g></g><g><use xlink:href="#c42BMGFus" opacity="1" fill="#202020" fill-opacity="1"></use><g><use xlink:href="#c42BMGFus" opacity="1" fill-opacity="0" stroke="#000000" stroke-width="1" stroke-opacity="0"></use></g></g><g><use xlink:href="#c5yRZ0hSKM" opacity="1" fill="#202020" fill-opacity="1"></use><g><use xlink:href="#c5yRZ0hSKM" opacity="1" fill-opacity="0" stroke="#000000" stroke-width="1" stroke-opacity="0"></use></g></g><g><use xlink:href="#f1ZfCOC7C" opacity="1" fill="#8c5549" fill-opacity="1"></use><g><use xlink:href="#f1ZfCOC7C" opacity="1" fill-opacity="0" stroke="#000000" stroke-width="1" stroke-opacity="0"></use></g></g><g><use xlink:href="#b3bdcuvEjg" opacity="1" fill="#a0665d" fill-opacity="1"></use><g><use xlink:href="#b3bdcuvEjg" opacity="1" fill-opacity="0" stroke="#000000" stroke-width="1" stroke-opacity="0"></use></g></g><g><use xlink:href="#c6DxqKW7J2" opacity="1" fill="#202020" fill-opacity="1"></use><g><use xlink:href="#c6DxqKW7J2" opacity="1" fill-opacity="0" stroke="#000000" stroke-width="1" stroke-opacity="0"></use></g></g><g><use xlink:href="#b1g7itTVcU" opacity="1" fill="#202020" fill-opacity="1"></use><g><use xlink:href="#b1g7itTVcU" opacity="1" fill-opacity="0" stroke="#000000" stroke-width="1" stroke-opacity="0"></use></g></g><g><use xlink:href="#fbboyfARv" opacity="1" fill="#202020" fill-opacity="1"></use><g><use xlink:href="#fbboyfARv" opacity="1" fill-opacity="0" stroke="#000000" stroke-width="1" stroke-opacity="0"></use></g></g><g><use xlink:href="#lwxBqudrp" opacity="1" fill="#8c5549" fill-opacity="1"></use><g><use xlink:href="#lwxBqudrp" opacity="1" fill-opacity="0" stroke="#000000" stroke-width="1" stroke-opacity="0"></use></g></g><g><use xlink:href="#agqEkxxHO" opacity="1" fill="#a0665d" fill-opacity="1"></use><g><use xlink:href="#agqEkxxHO" opacity="1" fill-opacity="0" stroke="#000000" stroke-width="1" stroke-opacity="0"></use></g></g><g><use xlink:href="#b4rWcXu6i" opacity="1" fill="#202020" fill-opacity="1"></use><g><use xlink:href="#b4rWcXu6i" opacity="1" fill-opacity="0" stroke="#000000" stroke-width="1" stroke-opacity="0"></use></g></g><g><use xlink:href="#ah5f9qhWc" opacity="1" fill="#202020" fill-opacity="1"></use><g><use xlink:href="#ah5f9qhWc" opacity="1" fill-opacity="0" stroke="#000000" stroke-width="1" stroke-opacity="0"></use></g></g><g><use xlink:href="#cPwpIsLBc" opacity="1" fill="#202020" fill-opacity="1"></use><g><use xlink:href="#cPwpIsLBc" opacity="1" fill-opacity="0" stroke="#000000" stroke-width="1" stroke-opacity="0"></use></g></g><g><use xlink:href="#a2tP4GUYd" opacity="1" fill="#8c5549" fill-opacity="1"></use><g><use xlink:href="#a2tP4GUYd" opacity="1" fill-opacity="0" stroke="#000000" stroke-width="1" stroke-opacity="0"></use></g></g><g><use xlink:href="#a5GQitq8xP" opacity="1" fill="#a0665d" fill-opacity="1"></use><g><use xlink:href="#a5GQitq8xP" opacity="1" fill-opacity="0" stroke="#000000" stroke-width="1" stroke-opacity="0"></use></g></g><g><use xlink:href="#dWjA8wRTZ" opacity="1" fill="#202020" fill-opacity="1"></use><g><use xlink:href="#dWjA8wRTZ" opacity="1" fill-opacity="0" stroke="#000000" stroke-width="1" stroke-opacity="0"></use></g></g><g><use xlink:href="#a1HSDJGmaY" opacity="1" fill="#202020" fill-opacity="1"></use><g><use xlink:href="#a1HSDJGmaY" opacity="1" fill-opacity="0" stroke="#000000" stroke-width="1" stroke-opacity="0"></use></g></g><g><use xlink:href="#aHCYGd5Z1" opacity="1" fill="#202020" fill-opacity="1"></use><g><use xlink:href="#aHCYGd5Z1" opacity="1" fill-opacity="0" stroke="#000000" stroke-width="1" stroke-opacity="0"></use></g></g><g><use xlink:href="#e310PsZsop" opacity="1" fill="#8c5549" fill-opacity="1"></use><g><use xlink:href="#e310PsZsop" opacity="1" fill-opacity="0" stroke="#000000" stroke-width="1" stroke-opacity="0"></use></g></g><g><use xlink:href="#l4p3Ko3Z2e" opacity="1" fill="#a0665d" fill-opacity="1"></use><g><use xlink:href="#l4p3Ko3Z2e" opacity="1" fill-opacity="0" stroke="#000000" stroke-width="1" stroke-opacity="0"></use></g></g><g><use xlink:href="#b3z2jeB4f" opacity="1" fill="#202020" fill-opacity="1"></use><g><use xlink:href="#b3z2jeB4f" opacity="1" fill-opacity="0" stroke="#000000" stroke-width="1" stroke-opacity="0"></use></g></g><g><use xlink:href="#e5sN2ORrnO" opacity="1" fill="#202020" fill-opacity="1"></use><g><use xlink:href="#e5sN2ORrnO" opacity="1" fill-opacity="0" stroke="#000000" stroke-width="1" stroke-opacity="0"></use></g></g><g><use xlink:href="#g3NP6RfV0d" opacity="1" fill="#202020" fill-opacity="1"></use><g><use xlink:href="#g3NP6RfV0d" opacity="1" fill-opacity="0" stroke="#000000" stroke-width="1" stroke-opacity="0"></use></g></g></g></g></svg>