<?xml version="1.0" encoding="UTF-8" standalone="no"?>
<!DOCTYPE svg PUBLIC "-//W3C//DTD SVG 1.1//EN" "http://www.w3.org/Graphics/SVG/1.1/DTD/svg11.dtd">
<svg version="1.1" xmlns="http://www.w3.org/2000/svg" xmlns:xlink="http://www.w3.org/1999/xlink" preserveAspectRatio="xMidYMid meet" viewBox="0 0 500 500" width="500" height="500"><defs><path d="M500 250C500 387.98 387.98 500 250 500C112.02 500 0 387.98 0 250C0 112.02 112.02 0 250 0C387.98 0 500 112.02 500 250Z" id="a2jNOzryEa"></path><path d="M344.57 363.6L350.66 343.94L377.24 351.56L371.15 371.21L344.57 363.6Z" id="a1LNRSbTjz"></path><path d="M338.72 336.96C340.53 331.13 346.66 327.82 352.52 329.5C354.77 330.14 350.98 329.06 353.23 329.7C359.02 331.36 362.32 337.45 360.54 343.21C358.26 350.54 354.69 362.08 352.41 369.41C350.61 375.24 344.48 378.56 338.61 376.88C336.36 376.23 340.15 377.32 337.9 376.67C332.11 375.02 328.82 368.92 330.6 363.17C332.87 355.83 336.45 344.3 338.72 336.96Z" id="b6gomG7BmR"></path><path d="M170.15 120.33L153.04 108.9L167.9 85.58L185.01 97.01L170.15 120.33Z" id="c5Ygoxk6J"></path><path d="M142.94 118.36C137.87 114.97 136.44 108.15 139.72 103C140.98 101.03 138.86 104.35 140.12 102.38C143.35 97.3 150.13 95.88 155.14 99.22C161.53 103.49 171.57 110.2 177.95 114.47C183.02 117.86 184.46 124.68 181.18 129.82C179.92 131.8 182.04 128.47 180.78 130.44C177.54 135.52 170.76 136.95 165.76 133.6C159.37 129.33 149.33 122.63 142.94 118.36Z" id="h21AMCGJV"></path><path d="M132.96 391.76L117.66 378L135.71 357.05L151.01 370.81L132.96 391.76Z" id="ahLalieMJ"></path><path d="M106.32 385.91C101.79 381.83 101.34 374.88 105.32 370.25C106.85 368.48 104.28 371.47 105.81 369.69C109.74 365.13 116.65 364.69 121.13 368.72C126.84 373.86 135.81 381.94 141.52 387.08C146.06 391.16 146.5 398.11 142.52 402.73C140.99 404.51 143.57 401.52 142.04 403.29C138.1 407.86 131.19 408.3 126.71 404.27C121 399.13 112.03 391.05 106.32 385.91Z" id="g1JO1rGeZW"></path><path d="M89.32 221.1L95.41 201.44L122 209.05L115.91 228.71L89.32 221.1Z" id="a4CeI3ECvy"></path><path d="M83.47 194.45C85.28 188.63 91.41 185.31 97.27 186.99C99.53 187.64 95.73 186.55 97.99 187.2C103.78 188.85 107.07 194.95 105.29 200.7C103.01 208.04 99.44 219.57 97.17 226.91C95.36 232.73 89.23 236.05 83.37 234.37C81.11 233.73 84.91 234.81 82.65 234.17C76.86 232.51 73.57 226.42 75.35 220.66C77.63 213.32 81.2 201.79 83.47 194.45Z" id="c1KiAA7jwy"></path><path d="M239.2 259.84L256.31 248.41L241.45 225.09L224.34 236.52L239.2 259.84Z" id="b2zLJOFFaG"></path><path d="M266.4 257.86C271.47 254.47 272.91 247.65 269.63 242.51C268.37 240.53 270.49 243.86 269.23 241.88C265.99 236.81 259.21 235.38 254.21 238.73C247.82 243 237.78 249.7 231.39 253.97C226.32 257.36 224.89 264.18 228.17 269.33C229.43 271.3 227.31 267.97 228.56 269.95C231.8 275.03 238.58 276.45 243.59 273.11C249.98 268.84 260.01 262.13 266.4 257.86Z" id="b1yM2ukvib"></path><path d="M373.41 155.09L390.52 143.66L375.66 120.33L358.55 131.77L373.41 155.09Z" id="c2iHqZeYk"></path><path d="M400.61 153.11C405.68 149.72 407.12 142.9 403.84 137.76C402.58 135.78 404.7 139.11 403.44 137.13C400.2 132.05 393.42 130.63 388.42 133.98C382.03 138.24 371.99 144.95 365.6 149.22C360.53 152.61 359.1 159.43 362.38 164.58C363.64 166.55 361.51 163.22 362.77 165.2C366.01 170.28 372.79 171.7 377.8 168.36C384.19 164.09 394.22 157.38 400.61 153.11Z" id="aIW8RtxhV"></path></defs><g><g><g></g><g><use xlink:href="#a1LNRSbTjz" opacity="1" fill="#646224" fill-opacity="0.79"></use></g><g><use xlink:href="#b6gomG7BmR" opacity="1" fill="#dad8a9" fill-opacity="1"></use></g><g><use xlink:href="#c5Ygoxk6J" opacity="1" fill="#646224" fill-opacity="0.79"></use></g><g><use xlink:href="#h21AMCGJV" opacity="1" fill="#dad8a9" fill-opacity="1"></use></g><g><use xlink:href="#ahLalieMJ" opacity="1" fill="#646224" fill-opacity="0.79"></use></g><g><use xlink:href="#g1JO1rGeZW" opacity="1" fill="#dad8a9" fill-opacity="1"></use></g><g><use xlink:href="#a4CeI3ECvy" opacity="1" fill="#646224" fill-opacity="0.79"></use></g><g><use xlink:href="#c1KiAA7jwy" opacity="1" fill="#dad8a9" fill-opacity="1"></use></g><g><use xlink:href="#b2zLJOFFaG" opacity="1" fill="#646224" fill-opacity="0.79"></use></g><g><use xlink:href="#b1yM2ukvib" opacity="1" fill="#dad8a9" fill-opacity="1"></use></g><g><use xlink:href="#c2iHqZeYk" opacity="1" fill="#646224" fill-opacity="0.79"></use></g><g><use xlink:href="#aIW8RtxhV" opacity="1" fill="#dad8a9" fill-opacity="1"></use></g></g></g></svg>