<?xml version="1.0" encoding="UTF-8" standalone="no"?>
<!DOCTYPE svg PUBLIC "-//W3C//DTD SVG 1.1//EN" "http://www.w3.org/Graphics/SVG/1.1/DTD/svg11.dtd">
<svg version="1.1" xmlns="http://www.w3.org/2000/svg" xmlns:xlink="http://www.w3.org/1999/xlink" preserveAspectRatio="xMidYMid meet" viewBox="0 0 500 500" width="500" height="500"><defs><path d="M110.14 75.15C114.24 71 122.44 72.05 128.46 77.49C134.47 82.94 136.03 90.72 131.92 94.86C127.82 99.01 119.62 97.96 113.61 92.52C107.59 87.08 106.04 79.3 110.14 75.15Z" id="a5vy6jwdx0"></path><path d="M116.74 76.23C117.78 77.17 117.38 79.18 115.85 80.72C114.33 82.27 112.25 82.76 111.21 81.82C110.18 80.88 110.57 78.87 112.1 77.32C112.76 76.63 113.61 76.12 114.56 75.85" id="j1hLihawOV"></path><path d="M116.27 72.58C119.34 73.36 122.16 74.87 124.45 76.99C130.46 82.43 131.93 90.29 127.73 94.54C126.33 95.92 124.49 96.81 122.51 97.07C122.51 97.07 135.6 99.13 134.03 87.76C134.03 87.76 133.52 76.56 118.81 72.75C118.3 72.72 116.77 72.62 116.27 72.58Z" id="b8EyRZ5E4r"></path><path d="M110.14 75.15C114.24 71 122.44 72.05 128.46 77.49C134.47 82.94 136.03 90.72 131.92 94.86C127.82 99.01 119.62 97.96 113.61 92.52C107.59 87.08 106.04 79.3 110.14 75.15Z" id="e1kGaVJNbn"></path><path d="M116.33 81.19C114.53 83.01 112.09 83.51 110.77 82.31C110.07 81.63 109.8 80.65 110.06 79.73C110.29 78.67 110.84 77.71 111.63 76.94C111.63 76.94 111.63 76.94 111.63 76.94C113.43 75.12 115.87 74.62 117.19 75.82C117.69 76.29 117.97 76.94 117.97 77.62C117.93 78.97 117.34 80.25 116.33 81.19Z" id="b38EfjVAa"></path><path d="M408.6 100.97C413.02 104.77 412.55 113.03 407.53 119.4C402.52 125.78 394.87 127.87 390.44 124.07C386.02 120.26 386.5 112.01 391.51 105.63C396.53 99.25 404.18 97.16 408.6 100.97Z" id="chW33i4tz"></path><path d="M407.98 107.62C407.12 108.72 405.08 108.47 403.43 107.05C401.79 105.64 401.16 103.6 402.02 102.5C402.89 101.4 404.92 101.65 406.57 103.07C407.31 103.68 407.87 104.5 408.2 105.42" id="bfHrVubaG"></path><path d="M411.59 106.9C411.03 110.02 409.71 112.94 407.76 115.36C402.74 121.74 395 123.75 390.47 119.86C389 118.56 387.99 116.79 387.59 114.82C387.59 114.82 386.45 128.03 397.68 125.68C397.68 125.68 408.82 124.39 411.59 109.44C411.59 108.94 411.59 107.41 411.59 106.9Z" id="b10a5uYPj3"></path><path d="M408.6 100.97C413.02 104.77 412.55 113.03 407.53 119.4C402.52 125.78 394.87 127.87 390.44 124.07C386.02 120.26 386.5 112.01 391.51 105.63C396.53 99.25 404.18 97.16 408.6 100.97Z" id="a2PPeEN4TP"></path><path d="M403 107.56C401.06 105.89 400.4 103.49 401.5 102.09C402.13 101.35 403.09 101.01 404.03 101.2C405.1 101.36 406.1 101.84 406.92 102.57C406.92 102.57 406.92 102.57 406.92 102.57C408.86 104.24 409.52 106.64 408.42 108.04C407.98 108.58 407.36 108.91 406.68 108.95C405.33 109 404.01 108.5 403 107.56Z" id="cKrUfL3OC"></path><path d="M130.93 374.89C129.94 380.64 122.6 384.46 114.56 383.42C106.51 382.39 100.8 376.89 101.79 371.14C102.79 365.39 110.12 361.57 118.17 362.61C126.22 363.64 131.93 369.14 130.93 374.89Z" id="aJHJ4bKwx"></path><path d="M124.9 377.77C123.51 377.59 122.69 375.71 123.06 373.57C123.43 371.43 124.86 369.84 126.25 370.02C127.63 370.2 128.46 372.08 128.09 374.22C127.94 375.17 127.53 376.07 126.9 376.83" id="bS3rig08K"></path><path d="M127.37 380.49C124.4 381.61 121.23 381.97 118.14 381.55C110.09 380.51 104.4 374.9 105.42 369.01C105.78 367.08 106.78 365.3 108.27 363.96C108.27 363.96 96.34 369.74 104.12 378.18C104.12 378.18 110.94 387.08 125.19 381.8C125.62 381.54 126.93 380.75 127.37 380.49Z" id="h2FzHYFPh"></path><path d="M130.93 374.89C129.94 380.64 122.6 384.46 114.56 383.42C106.51 382.39 100.8 376.89 101.79 371.14C102.79 365.39 110.12 361.57 118.17 362.61C126.22 363.64 131.93 369.14 130.93 374.89Z" id="j7tjIYjqR"></path><path d="M122.4 373.46C122.84 370.93 124.57 369.14 126.33 369.36C127.29 369.53 128.07 370.18 128.39 371.08C128.8 372.08 128.9 373.19 128.69 374.27C128.69 374.27 128.69 374.27 128.69 374.27C128.26 376.79 126.53 378.59 124.77 378.36C124.08 378.26 123.48 377.89 123.1 377.33C122.36 376.2 122.11 374.81 122.4 373.46Z" id="a3n7AtzMOG"></path><path d="M231.97 216.26C230.97 222 223.64 225.82 215.59 224.79C207.54 223.75 201.83 218.26 202.83 212.51C203.82 206.76 211.16 202.94 219.2 203.97C227.25 205.01 232.97 210.51 231.97 216.26Z" id="b2qvUU4aeX"></path><path d="M225.94 219.14C224.55 218.96 223.72 217.08 224.09 214.94C224.47 212.8 225.89 211.21 227.28 211.39C228.67 211.57 229.49 213.45 229.12 215.59C228.97 216.54 228.56 217.44 227.94 218.2" id="cp1H7WBbD"></path><path d="M228.41 221.86C225.44 222.98 222.26 223.34 219.17 222.91C211.13 221.88 205.43 216.26 206.45 210.38C206.81 208.45 207.81 206.67 209.3 205.32C209.3 205.32 197.38 211.11 205.15 219.55C205.15 219.55 211.97 228.45 226.22 223.17C226.66 222.91 227.97 222.12 228.41 221.86Z" id="a1a3xH9REn"></path><path d="M231.97 216.26C230.97 222 223.64 225.82 215.59 224.79C207.54 223.75 201.83 218.26 202.83 212.51C203.82 206.76 211.16 202.94 219.2 203.97C227.25 205.01 232.97 210.51 231.97 216.26Z" id="f3Zqm13qoH"></path><path d="M223.44 214.83C223.88 212.3 225.6 210.5 227.36 210.73C228.32 210.9 229.1 211.55 229.43 212.45C229.83 213.45 229.94 214.55 229.73 215.63C229.73 215.63 229.73 215.63 229.73 215.63C229.29 218.16 227.57 219.96 225.8 219.73C225.12 219.63 224.51 219.26 224.13 218.7C223.4 217.57 223.15 216.18 223.44 214.83Z" id="hoQN2y46f"></path><path d="M388.18 392.03C382.9 389.54 381.16 381.46 384.29 373.98C387.42 366.49 394.24 362.44 399.51 364.93C404.79 367.41 406.53 375.49 403.4 382.98C400.27 390.46 393.46 394.52 388.18 392.03Z" id="ajS4NposR"></path><path d="M387 385.45C387.54 384.16 389.57 383.86 391.53 384.79C393.5 385.71 394.65 387.51 394.11 388.8C393.57 390.09 391.54 390.39 389.58 389.46C388.7 389.07 387.94 388.43 387.37 387.63" id="i1HosMb7ht"></path><path d="M383.72 387.11C383.43 383.95 383.92 380.79 385.15 377.93C388.28 370.45 395.2 366.44 400.61 368.99C402.37 369.84 403.82 371.28 404.73 373.07C404.73 373.07 402.31 360.04 392.11 365.3C392.11 365.3 381.72 369.52 383.04 384.66C383.17 385.15 383.58 386.62 383.72 387.11Z" id="b3TJTu1wrF"></path><path d="M388.18 392.03C382.9 389.54 381.16 381.46 384.29 373.98C387.42 366.49 394.24 362.44 399.51 364.93C404.79 367.41 406.53 375.49 403.4 382.98C400.27 390.46 393.46 394.52 388.18 392.03Z" id="c2TXqXrfJX"></path><path d="M332.7 238.51C327.43 236.03 325.69 227.94 328.82 220.46C331.95 212.97 338.76 208.92 344.04 211.41C349.32 213.89 351.06 221.97 347.93 229.46C344.8 236.94 337.98 241 332.7 238.51Z" id="aJkwnLJC"></path><path d="M331.53 231.93C332.07 230.64 334.1 230.34 336.06 231.27C338.02 232.19 339.18 233.99 338.64 235.28C338.1 236.57 336.07 236.87 334.1 235.94C333.23 235.55 332.46 234.92 331.9 234.11" id="k3zjKZTBdI"></path><path d="M328.25 233.59C327.95 230.43 328.44 227.27 329.68 224.41C332.81 216.93 339.73 212.92 345.14 215.47C346.9 216.33 348.35 217.76 349.25 219.55C349.25 219.55 346.84 206.52 336.64 211.78C336.64 211.78 326.25 216 327.56 231.14C327.7 231.63 328.11 233.1 328.25 233.59Z" id="bGPhgZGj"></path><path d="M332.7 238.51C327.43 236.03 325.69 227.94 328.82 220.46C331.95 212.97 338.76 208.92 344.04 211.41C349.32 213.89 351.06 221.97 347.93 229.46C344.8 236.94 337.98 241 332.7 238.51Z" id="bYZk4LELq"></path><path d="M336.34 230.67C338.66 231.76 339.94 233.9 339.25 235.54C338.84 236.42 338 237 337.05 237.07C335.98 237.2 334.88 237 333.9 236.52C333.9 236.52 333.9 236.52 333.9 236.52C331.58 235.43 330.3 233.29 330.99 231.65C331.27 231.01 331.79 230.53 332.42 230.31C333.71 229.9 335.12 230.03 336.34 230.67Z" id="c21Oa5pkda"></path><path d="M391.82 384.18C394.13 385.28 395.41 387.41 394.73 389.06C394.31 389.94 393.48 390.52 392.52 390.59C391.45 390.71 390.36 390.52 389.37 390.04C389.37 390.04 389.37 390.04 389.37 390.04C387.05 388.94 385.78 386.81 386.46 385.16C386.74 384.53 387.26 384.05 387.9 383.83C389.19 383.42 390.59 383.55 391.82 384.18Z" id="dCykMip1t"></path><path d="M248.4 355.51C249.89 349.88 257.53 346.71 265.46 348.45C273.38 350.18 278.59 356.16 277.1 361.8C275.6 367.44 267.96 370.6 260.04 368.87C252.11 367.13 246.9 361.15 248.4 355.51Z" id="czOHRoBca"></path><path d="M254.66 353.17C256.03 353.47 256.68 355.42 256.12 357.51C255.57 359.61 254.01 361.07 252.64 360.77C251.27 360.47 250.62 358.53 251.17 356.43C251.4 355.5 251.89 354.63 252.58 353.93" id="bidLAj60t"></path><path d="M252.44 350.24C255.49 349.39 258.69 349.31 261.72 350C269.65 351.74 274.83 357.83 273.3 363.61C272.77 365.5 271.62 367.18 270.02 368.39C270.02 368.39 282.4 363.67 275.4 354.59C275.4 354.59 269.39 345.12 254.73 349.13C254.27 349.35 252.89 350.02 252.44 350.24Z" id="bxcXxd0F0"></path><path d="M248.4 355.51C249.89 349.88 257.53 346.71 265.46 348.45C273.38 350.18 278.59 356.16 277.1 361.8C275.6 367.44 267.96 370.6 260.04 368.87C252.11 367.13 246.9 361.15 248.4 355.51Z" id="a3WIMwhfaF"></path><path d="M256.77 357.69C256.11 360.16 254.24 361.8 252.5 361.42C251.56 361.17 250.84 360.45 250.6 359.53C250.28 358.5 250.27 357.39 250.57 356.33C250.57 356.33 250.57 356.33 250.57 356.33C251.23 353.85 253.11 352.21 254.84 352.59C255.52 352.76 256.08 353.18 256.42 353.77C257.05 354.96 257.18 356.37 256.77 357.69Z" id="bhqhqaz7p"></path><path d="M78.7 221.7C80.2 216.06 87.84 212.9 95.76 214.63C103.69 216.37 108.9 222.35 107.4 227.99C105.9 233.62 98.27 236.79 90.34 235.05C82.42 233.31 77.2 227.34 78.7 221.7Z" id="btaVq3KS0"></path><path d="M84.96 219.36C86.33 219.66 86.99 221.6 86.43 223.7C85.87 225.8 84.31 227.25 82.95 226.95C81.58 226.65 80.92 224.71 81.48 222.61C81.71 221.68 82.2 220.81 82.89 220.12" id="a4S69ow2Gp"></path><path d="M82.74 216.43C85.8 215.57 88.99 215.49 92.03 216.19C99.95 217.92 105.14 224.01 103.6 229.79C103.08 231.68 101.92 233.37 100.32 234.58C100.32 234.58 112.71 229.86 105.7 220.77C105.7 220.77 99.69 211.3 85.03 215.32C84.57 215.54 83.2 216.21 82.74 216.43Z" id="aGxb35Zp"></path><path d="M78.7 221.7C80.2 216.06 87.84 212.9 95.76 214.63C103.69 216.37 108.9 222.35 107.4 227.99C105.9 233.62 98.27 236.79 90.34 235.05C82.42 233.31 77.2 227.34 78.7 221.7Z" id="glWJUWwKq"></path><path d="M87.07 223.87C86.42 226.35 84.54 227.99 82.8 227.61C81.86 227.35 81.14 226.64 80.9 225.71C80.58 224.68 80.58 223.57 80.88 222.51C80.88 222.51 80.88 222.51 80.88 222.51C81.54 220.04 83.41 218.4 85.15 218.78C85.82 218.94 86.39 219.36 86.72 219.95C87.36 221.14 87.48 222.55 87.07 223.87Z" id="aW1rTkGl0"></path><path d="M226.83 95.92C228.33 90.29 235.96 87.12 243.89 88.86C251.81 90.59 257.03 96.57 255.53 102.21C254.03 107.85 246.39 111.01 238.47 109.28C230.54 107.54 225.33 101.56 226.83 95.92Z" id="elMCz0BKj"></path><path d="M233.09 93.58C234.46 93.88 235.11 95.83 234.56 97.92C234 100.02 232.44 101.48 231.07 101.18C229.7 100.88 229.05 98.94 229.61 96.84C229.83 95.91 230.32 95.04 231.01 94.34" id="bXS2DkXI"></path><path d="M230.87 90.65C233.92 89.8 237.12 89.72 240.16 90.41C248.08 92.15 253.26 98.24 251.73 104.02C251.2 105.91 250.05 107.59 248.45 108.8C248.45 108.8 260.84 104.08 253.83 95C253.83 95 247.82 85.53 233.16 89.54C232.7 89.76 231.33 90.43 230.87 90.65Z" id="e2pM7G7FE"></path><path d="M226.83 95.92C228.33 90.29 235.96 87.12 243.89 88.86C251.81 90.59 257.03 96.57 255.53 102.21C254.03 107.85 246.39 111.01 238.47 109.28C230.54 107.54 225.33 101.56 226.83 95.92Z" id="afuawWilC"></path><path d="M235.2 98.1C234.54 100.57 232.67 102.21 230.93 101.83C229.99 101.58 229.27 100.86 229.03 99.94C228.71 98.91 228.7 97.8 229 96.74C229 96.74 229 96.74 229 96.74C229.66 94.26 231.54 92.62 233.27 93C233.95 93.17 234.52 93.59 234.85 94.18C235.48 95.37 235.61 96.78 235.2 98.1Z" id="d1bMf5iNLY"></path></defs><g><g><g><use xlink:href="#a5vy6jwdx0" opacity="1" fill="#b1cc33" fill-opacity="1"></use><g><use xlink:href="#a5vy6jwdx0" opacity="1" fill-opacity="0" stroke="#000000" stroke-width="1" stroke-opacity="0"></use></g></g><g><use xlink:href="#j1hLihawOV" opacity="1" fill="#000000" fill-opacity="0"></use><g><use xlink:href="#j1hLihawOV" opacity="1" fill-opacity="0" stroke="#000000" stroke-width="2" stroke-opacity="1"></use></g></g><g><use xlink:href="#b8EyRZ5E4r" opacity="1" fill="#5c9e31" fill-opacity="1"></use><g><use xlink:href="#b8EyRZ5E4r" opacity="1" fill-opacity="0" stroke="#000000" stroke-width="1" stroke-opacity="0"></use></g></g><g><use xlink:href="#e1kGaVJNbn" opacity="1" fill="#000000" fill-opacity="0"></use><g><use xlink:href="#e1kGaVJNbn" opacity="1" fill-opacity="0" stroke="#000000" stroke-width="2" stroke-opacity="1"></use></g></g><g><use xlink:href="#b38EfjVAa" opacity="1" fill="#a57939" fill-opacity="1"></use><g><use xlink:href="#b38EfjVAa" opacity="1" fill-opacity="0" stroke="#000000" stroke-width="1" stroke-opacity="0"></use></g></g><g><use xlink:href="#chW33i4tz" opacity="1" fill="#b1cc33" fill-opacity="1"></use><g><use xlink:href="#chW33i4tz" opacity="1" fill-opacity="0" stroke="#000000" stroke-width="1" stroke-opacity="0"></use></g></g><g><use xlink:href="#bfHrVubaG" opacity="1" fill="#000000" fill-opacity="0"></use><g><use xlink:href="#bfHrVubaG" opacity="1" fill-opacity="0" stroke="#000000" stroke-width="2" stroke-opacity="1"></use></g></g><g><use xlink:href="#b10a5uYPj3" opacity="1" fill="#5c9e31" fill-opacity="1"></use><g><use xlink:href="#b10a5uYPj3" opacity="1" fill-opacity="0" stroke="#000000" stroke-width="1" stroke-opacity="0"></use></g></g><g><use xlink:href="#a2PPeEN4TP" opacity="1" fill="#000000" fill-opacity="0"></use><g><use xlink:href="#a2PPeEN4TP" opacity="1" fill-opacity="0" stroke="#000000" stroke-width="2" stroke-opacity="1"></use></g></g><g><use xlink:href="#cKrUfL3OC" opacity="1" fill="#a57939" fill-opacity="1"></use><g><use xlink:href="#cKrUfL3OC" opacity="1" fill-opacity="0" stroke="#000000" stroke-width="1" stroke-opacity="0"></use></g></g><g><use xlink:href="#aJHJ4bKwx" opacity="1" fill="#b1cc33" fill-opacity="1"></use><g><use xlink:href="#aJHJ4bKwx" opacity="1" fill-opacity="0" stroke="#000000" stroke-width="1" stroke-opacity="0"></use></g></g><g><use xlink:href="#bS3rig08K" opacity="1" fill="#000000" fill-opacity="0"></use><g><use xlink:href="#bS3rig08K" opacity="1" fill-opacity="0" stroke="#000000" stroke-width="2" stroke-opacity="1"></use></g></g><g><use xlink:href="#h2FzHYFPh" opacity="1" fill="#5c9e31" fill-opacity="1"></use><g><use xlink:href="#h2FzHYFPh" opacity="1" fill-opacity="0" stroke="#000000" stroke-width="1" stroke-opacity="0"></use></g></g><g><use xlink:href="#j7tjIYjqR" opacity="1" fill="#000000" fill-opacity="0"></use><g><use xlink:href="#j7tjIYjqR" opacity="1" fill-opacity="0" stroke="#000000" stroke-width="2" stroke-opacity="1"></use></g></g><g><use xlink:href="#a3n7AtzMOG" opacity="1" fill="#a57939" fill-opacity="1"></use><g><use xlink:href="#a3n7AtzMOG" opacity="1" fill-opacity="0" stroke="#000000" stroke-width="1" stroke-opacity="0"></use></g></g><g><use xlink:href="#b2qvUU4aeX" opacity="1" fill="#b1cc33" fill-opacity="1"></use><g><use xlink:href="#b2qvUU4aeX" opacity="1" fill-opacity="0" stroke="#000000" stroke-width="1" stroke-opacity="0"></use></g></g><g><use xlink:href="#cp1H7WBbD" opacity="1" fill="#000000" fill-opacity="0"></use><g><use xlink:href="#cp1H7WBbD" opacity="1" fill-opacity="0" stroke="#000000" stroke-width="2" stroke-opacity="1"></use></g></g><g><use xlink:href="#a1a3xH9REn" opacity="1" fill="#5c9e31" fill-opacity="1"></use><g><use xlink:href="#a1a3xH9REn" opacity="1" fill-opacity="0" stroke="#000000" stroke-width="1" stroke-opacity="0"></use></g></g><g><use xlink:href="#f3Zqm13qoH" opacity="1" fill="#000000" fill-opacity="0"></use><g><use xlink:href="#f3Zqm13qoH" opacity="1" fill-opacity="0" stroke="#000000" stroke-width="2" stroke-opacity="1"></use></g></g><g><use xlink:href="#hoQN2y46f" opacity="1" fill="#a57939" fill-opacity="1"></use><g><use xlink:href="#hoQN2y46f" opacity="1" fill-opacity="0" stroke="#000000" stroke-width="1" stroke-opacity="0"></use></g></g><g><use xlink:href="#ajS4NposR" opacity="1" fill="#b1cc33" fill-opacity="1"></use><g><use xlink:href="#ajS4NposR" opacity="1" fill-opacity="0" stroke="#000000" stroke-width="1" stroke-opacity="0"></use></g></g><g><use xlink:href="#i1HosMb7ht" opacity="1" fill="#000000" fill-opacity="0"></use><g><use xlink:href="#i1HosMb7ht" opacity="1" fill-opacity="0" stroke="#000000" stroke-width="2" stroke-opacity="1"></use></g></g><g><use xlink:href="#b3TJTu1wrF" opacity="1" fill="#5c9e31" fill-opacity="1"></use><g><use xlink:href="#b3TJTu1wrF" opacity="1" fill-opacity="0" stroke="#000000" stroke-width="1" stroke-opacity="0"></use></g></g><g><use xlink:href="#c2TXqXrfJX" opacity="1" fill="#000000" fill-opacity="0"></use><g><use xlink:href="#c2TXqXrfJX" opacity="1" fill-opacity="0" stroke="#000000" stroke-width="2" stroke-opacity="1"></use></g></g><g><use xlink:href="#aJkwnLJC" opacity="1" fill="#b1cc33" fill-opacity="1"></use><g><use xlink:href="#aJkwnLJC" opacity="1" fill-opacity="0" stroke="#000000" stroke-width="1" stroke-opacity="0"></use></g></g><g><use xlink:href="#k3zjKZTBdI" opacity="1" fill="#000000" fill-opacity="0"></use><g><use xlink:href="#k3zjKZTBdI" opacity="1" fill-opacity="0" stroke="#000000" stroke-width="2" stroke-opacity="1"></use></g></g><g><use xlink:href="#bGPhgZGj" opacity="1" fill="#5c9e31" fill-opacity="1"></use><g><use xlink:href="#bGPhgZGj" opacity="1" fill-opacity="0" stroke="#000000" stroke-width="1" stroke-opacity="0"></use></g></g><g><use xlink:href="#bYZk4LELq" opacity="1" fill="#000000" fill-opacity="0"></use><g><use xlink:href="#bYZk4LELq" opacity="1" fill-opacity="0" stroke="#000000" stroke-width="2" stroke-opacity="1"></use></g></g><g><use xlink:href="#c21Oa5pkda" opacity="1" fill="#a57939" fill-opacity="1"></use><g><use xlink:href="#c21Oa5pkda" opacity="1" fill-opacity="0" stroke="#000000" stroke-width="1" stroke-opacity="0"></use></g></g><g><use xlink:href="#dCykMip1t" opacity="1" fill="#a57939" fill-opacity="1"></use><g><use xlink:href="#dCykMip1t" opacity="1" fill-opacity="0" stroke="#000000" stroke-width="1" stroke-opacity="0"></use></g></g><g><use xlink:href="#czOHRoBca" opacity="1" fill="#b1cc33" fill-opacity="1"></use><g><use xlink:href="#czOHRoBca" opacity="1" fill-opacity="0" stroke="#000000" stroke-width="1" stroke-opacity="0"></use></g></g><g><use xlink:href="#bidLAj60t" opacity="1" fill="#000000" fill-opacity="0"></use><g><use xlink:href="#bidLAj60t" opacity="1" fill-opacity="0" stroke="#000000" stroke-width="2" stroke-opacity="1"></use></g></g><g><use xlink:href="#bxcXxd0F0" opacity="1" fill="#5c9e31" fill-opacity="1"></use><g><use xlink:href="#bxcXxd0F0" opacity="1" fill-opacity="0" stroke="#000000" stroke-width="1" stroke-opacity="0"></use></g></g><g><use xlink:href="#a3WIMwhfaF" opacity="1" fill="#000000" fill-opacity="0"></use><g><use xlink:href="#a3WIMwhfaF" opacity="1" fill-opacity="0" stroke="#000000" stroke-width="2" stroke-opacity="1"></use></g></g><g><use xlink:href="#bhqhqaz7p" opacity="1" fill="#a57939" fill-opacity="1"></use><g><use xlink:href="#bhqhqaz7p" opacity="1" fill-opacity="0" stroke="#000000" stroke-width="1" stroke-opacity="0"></use></g></g><g><use xlink:href="#btaVq3KS0" opacity="1" fill="#b1cc33" fill-opacity="1"></use><g><use xlink:href="#btaVq3KS0" opacity="1" fill-opacity="0" stroke="#000000" stroke-width="1" stroke-opacity="0"></use></g></g><g><use xlink:href="#a4S69ow2Gp" opacity="1" fill="#000000" fill-opacity="0"></use><g><use xlink:href="#a4S69ow2Gp" opacity="1" fill-opacity="0" stroke="#000000" stroke-width="2" stroke-opacity="1"></use></g></g><g><use xlink:href="#aGxb35Zp" opacity="1" fill="#5c9e31" fill-opacity="1"></use><g><use xlink:href="#aGxb35Zp" opacity="1" fill-opacity="0" stroke="#000000" stroke-width="1" stroke-opacity="0"></use></g></g><g><use xlink:href="#glWJUWwKq" opacity="1" fill="#000000" fill-opacity="0"></use><g><use xlink:href="#glWJUWwKq" opacity="1" fill-opacity="0" stroke="#000000" stroke-width="2" stroke-opacity="1"></use></g></g><g><use xlink:href="#aW1rTkGl0" opacity="1" fill="#a57939" fill-opacity="1"></use><g><use xlink:href="#aW1rTkGl0" opacity="1" fill-opacity="0" stroke="#000000" stroke-width="1" stroke-opacity="0"></use></g></g><g><use xlink:href="#elMCz0BKj" opacity="1" fill="#b1cc33" fill-opacity="1"></use><g><use xlink:href="#elMCz0BKj" opacity="1" fill-opacity="0" stroke="#000000" stroke-width="1" stroke-opacity="0"></use></g></g><g><use xlink:href="#bXS2DkXI" opacity="1" fill="#000000" fill-opacity="0"></use><g><use xlink:href="#bXS2DkXI" opacity="1" fill-opacity="0" stroke="#000000" stroke-width="2" stroke-opacity="1"></use></g></g><g><use xlink:href="#e2pM7G7FE" opacity="1" fill="#5c9e31" fill-opacity="1"></use><g><use xlink:href="#e2pM7G7FE" opacity="1" fill-opacity="0" stroke="#000000" stroke-width="1" stroke-opacity="0"></use></g></g><g><use xlink:href="#afuawWilC" opacity="1" fill="#000000" fill-opacity="0"></use><g><use xlink:href="#afuawWilC" opacity="1" fill-opacity="0" stroke="#000000" stroke-width="2" stroke-opacity="1"></use></g></g><g><use xlink:href="#d1bMf5iNLY" opacity="1" fill="#a57939" fill-opacity="1"></use><g><use xlink:href="#d1bMf5iNLY" opacity="1" fill-opacity="0" stroke="#000000" stroke-width="1" stroke-opacity="0"></use></g></g></g></g></svg>