<?xml version="1.0" encoding="UTF-8" standalone="no"?>
<!DOCTYPE svg PUBLIC "-//W3C//DTD SVG 1.1//EN" "http://www.w3.org/Graphics/SVG/1.1/DTD/svg11.dtd">
<svg version="1.1" xmlns="http://www.w3.org/2000/svg" xmlns:xlink="http://www.w3.org/1999/xlink" preserveAspectRatio="xMidYMid meet" viewBox="0 0 500 500" width="500" height="500"><defs><path d="M500 250C500 387.98 387.98 500 250 500C112.02 500 0 387.98 0 250C0 112.02 112.02 0 250 0C387.98 0 500 112.02 500 250Z" id="a2uH9QU27D"></path><path d="M261.75 214.2C261.75 225.24 252.79 234.2 241.75 234.2C230.71 234.2 221.75 225.24 221.75 214.2C221.75 203.16 230.71 194.2 241.75 194.2C252.79 194.2 261.75 203.16 261.75 214.2Z" id="a1HEqkP0k0"></path><path d="M258.25 214.2C258.25 223.31 250.86 230.7 241.75 230.7C232.64 230.7 225.25 223.31 225.25 214.2C225.25 205.09 232.64 197.7 241.75 197.7C250.86 197.7 258.25 205.09 258.25 214.2Z" id="dmWU6Dr8t"></path><path d="M254.87 214.2C254.87 221.17 249.44 226.83 242.75 226.83C236.06 226.83 230.62 221.17 230.62 214.2C230.62 207.23 236.06 201.58 242.75 201.58C249.44 201.58 254.87 207.23 254.87 214.2Z" id="d4YTokYRTI"></path><clipPath id="clipf2gmUZKKrU"><use xlink:href="#d4YTokYRTI" opacity="1"></use></clipPath><path d="M403.38 114.83C403.38 125.86 394.41 134.83 383.38 134.83C372.34 134.83 363.38 125.86 363.38 114.83C363.38 103.79 372.34 94.83 383.38 94.83C394.41 94.83 403.38 103.79 403.38 114.83Z" id="a1j0IOhS8"></path><path d="M399.88 114.83C399.88 123.93 392.48 131.33 383.38 131.33C374.27 131.33 366.88 123.93 366.88 114.83C366.88 105.72 374.27 98.33 383.38 98.33C392.48 98.33 399.88 105.72 399.88 114.83Z" id="c5rV8kOBKl"></path><path d="M396.5 114.83C396.5 121.79 391.07 127.45 384.37 127.45C377.68 127.45 372.25 121.79 372.25 114.83C372.25 107.86 377.68 102.2 384.37 102.2C391.07 102.2 396.5 107.86 396.5 114.83Z" id="c11CYeyIb4"></path><clipPath id="clipg2QUmXrpjq"><use xlink:href="#c11CYeyIb4" opacity="1"></use></clipPath><path d="M387 114.83C387 117.17 385.38 119.08 383.38 119.08C381.37 119.08 379.75 117.17 379.75 114.83C379.75 112.48 381.37 110.58 383.38 110.58C385.38 110.58 387 112.48 387 114.83Z" id="f1PXVfZCfF"></path><path d="M372.25 364.45C372.25 375.49 363.29 384.45 352.25 384.45C341.21 384.45 332.25 375.49 332.25 364.45C332.25 353.41 341.21 344.45 352.25 344.45C363.29 344.45 372.25 353.41 372.25 364.45Z" id="b1670ZXizz"></path><path d="M368.75 364.45C368.75 373.56 361.36 380.95 352.25 380.95C343.14 380.95 335.75 373.56 335.75 364.45C335.75 355.34 343.14 347.95 352.25 347.95C361.36 347.95 368.75 355.34 368.75 364.45Z" id="axCGbm6kj"></path><path d="M365.37 364.45C365.37 371.42 359.94 377.08 353.25 377.08C346.56 377.08 341.12 371.42 341.12 364.45C341.12 357.48 346.56 351.83 353.25 351.83C359.94 351.83 365.37 357.48 365.37 364.45Z" id="h1Ka4R3EzB"></path><clipPath id="clipl83cQqvQdM"><use xlink:href="#h1Ka4R3EzB" opacity="1"></use></clipPath><path d="M355.88 364.45C355.88 366.8 354.25 368.7 352.25 368.7C350.25 368.7 348.63 366.8 348.63 364.45C348.63 362.11 350.25 360.2 352.25 360.2C354.25 360.2 355.88 362.11 355.88 364.45Z" id="a1PMTLzd3k"></path><path d="M158.62 371.83C158.62 382.86 149.66 391.83 138.62 391.83C127.59 391.83 118.62 382.86 118.62 371.83C118.62 360.79 127.59 351.83 138.62 351.83C149.66 351.83 158.62 360.79 158.62 371.83Z" id="a562YMOgu"></path><path d="M155.12 371.83C155.12 380.93 147.73 388.33 138.62 388.33C129.52 388.33 122.12 380.93 122.12 371.83C122.12 362.72 129.52 355.33 138.62 355.33C147.73 355.33 155.12 362.72 155.12 371.83Z" id="e3nn9opPDz"></path><path d="M151.75 371.83C151.75 378.79 146.32 384.45 139.62 384.45C132.93 384.45 127.5 378.79 127.5 371.83C127.5 364.86 132.93 359.2 139.62 359.2C146.32 359.2 151.75 364.86 151.75 371.83Z" id="dnsqUE266"></path><clipPath id="clipb1iQscrQVm"><use xlink:href="#dnsqUE266" opacity="1"></use></clipPath><path d="M142.25 371.83C142.25 374.17 140.63 376.08 138.62 376.08C136.62 376.08 135 374.17 135 371.83C135 369.48 136.62 367.58 138.62 367.58C140.63 367.58 142.25 369.48 142.25 371.83Z" id="d5M9FdJ18"></path><path d="M162.12 174.2C162.12 185.24 153.16 194.2 142.12 194.2C131.09 194.2 122.12 185.24 122.12 174.2C122.12 163.16 131.09 154.2 142.12 154.2C153.16 154.2 162.12 163.16 162.12 174.2Z" id="a31Tj4SWZx"></path><path d="M158.62 174.2C158.62 183.31 151.23 190.7 142.13 190.7C133.02 190.7 125.63 183.31 125.63 174.2C125.63 165.09 133.02 157.7 142.13 157.7C151.23 157.7 158.62 165.09 158.62 174.2Z" id="b8vZkIKJNI"></path><path d="M155.25 174.2C155.25 181.17 149.82 186.83 143.12 186.83C136.43 186.83 131 181.17 131 174.2C131 167.23 136.43 161.58 143.12 161.58C149.82 161.58 155.25 167.23 155.25 174.2Z" id="a8brglO9"></path><clipPath id="clipa2XjKdD9pD"><use xlink:href="#a8brglO9" opacity="1"></use></clipPath><path d="M145.75 174.2C145.75 176.55 144.13 178.45 142.13 178.45C140.12 178.45 138.5 176.55 138.5 174.2C138.5 171.86 140.12 169.95 142.13 169.95C144.13 169.95 145.75 171.86 145.75 174.2Z" id="iF5aRmzVK"></path><path d="M265.25 90.58C265.25 101.61 256.29 110.58 245.25 110.58C234.21 110.58 225.25 101.61 225.25 90.58C225.25 79.54 234.21 70.58 245.25 70.58C256.29 70.58 265.25 79.54 265.25 90.58Z" id="b9y9gQLOq"></path><path d="M261.75 90.58C261.75 99.68 254.36 107.08 245.25 107.08C236.14 107.08 228.75 99.68 228.75 90.58C228.75 81.47 236.14 74.08 245.25 74.08C254.36 74.08 261.75 81.47 261.75 90.58Z" id="eN4YTAyLz"></path><path d="M258.37 90.58C258.37 97.54 252.94 103.2 246.25 103.2C239.56 103.2 234.12 97.54 234.12 90.58C234.12 83.61 239.56 77.95 246.25 77.95C252.94 77.95 258.37 83.61 258.37 90.58Z" id="a6wVKMhsE"></path><clipPath id="clipb1SVtMNwRk"><use xlink:href="#a6wVKMhsE" opacity="1"></use></clipPath><path d="M248.88 90.58C248.88 92.92 247.25 94.83 245.25 94.83C243.25 94.83 241.63 92.92 241.63 90.58C241.63 88.23 243.25 86.33 245.25 86.33C247.25 86.33 248.88 88.23 248.88 90.58Z" id="cjlnQKwHg"></path><path d="M115.5 83.2C115.5 94.24 106.54 103.2 95.5 103.2C84.46 103.2 75.5 94.24 75.5 83.2C75.5 72.16 84.46 63.2 95.5 63.2C106.54 63.2 115.5 72.16 115.5 83.2Z" id="a2KUW5bMiB"></path><path d="M112 83.2C112 92.31 104.61 99.7 95.5 99.7C86.39 99.7 79 92.31 79 83.2C79 74.09 86.39 66.7 95.5 66.7C104.61 66.7 112 74.09 112 83.2Z" id="b1QYMbeIsY"></path><path d="M108.62 83.2C108.62 90.17 103.19 95.83 96.5 95.83C89.81 95.83 84.37 90.17 84.37 83.2C84.37 76.23 89.81 70.58 96.5 70.58C103.19 70.58 108.62 76.23 108.62 83.2Z" id="aimJ5ynFz"></path><clipPath id="clipaXzOOg8Ty"><use xlink:href="#aimJ5ynFz" opacity="1"></use></clipPath><path d="M99.12 83.2C99.12 85.55 97.5 87.45 95.5 87.45C93.5 87.45 91.87 85.55 91.87 83.2C91.87 80.86 93.5 78.95 95.5 78.95C97.5 78.95 99.12 80.86 99.12 83.2Z" id="bZ0DnpTs3"></path><path d="M379.75 259.58C379.75 270.61 370.79 279.58 359.75 279.58C348.71 279.58 339.75 270.61 339.75 259.58C339.75 248.54 348.71 239.58 359.75 239.58C370.79 239.58 379.75 248.54 379.75 259.58Z" id="c4csEpOJR8"></path><path d="M376.25 259.58C376.25 268.68 368.86 276.08 359.75 276.08C350.64 276.08 343.25 268.68 343.25 259.58C343.25 250.47 350.64 243.08 359.75 243.08C368.86 243.08 376.25 250.47 376.25 259.58Z" id="acrRupBr0"></path><path d="M372.88 259.58C372.88 266.54 367.44 272.2 360.75 272.2C354.06 272.2 348.63 266.54 348.63 259.58C348.63 252.61 354.06 246.95 360.75 246.95C367.44 246.95 372.88 252.61 372.88 259.58Z" id="d7rf0Edf2"></path><clipPath id="clipi7waeumWlb"><use xlink:href="#d7rf0Edf2" opacity="1"></use></clipPath><path d="M363.38 259.58C363.38 261.92 361.75 263.83 359.75 263.83C357.75 263.83 356.13 261.92 356.13 259.58C356.13 257.23 357.75 255.33 359.75 255.33C361.75 255.33 363.38 257.23 363.38 259.58Z" id="fB3E53kLZ"></path></defs><g><g><g></g><g><use xlink:href="#a1HEqkP0k0" opacity="1" fill="#0d0002" fill-opacity="0.79"></use></g><g><use xlink:href="#dmWU6Dr8t" opacity="1" fill="#fbbbd3" fill-opacity="1"></use><g><use xlink:href="#dmWU6Dr8t" opacity="1" fill-opacity="0" stroke="#603163" stroke-width="2" stroke-opacity="1"></use></g></g><g><use xlink:href="#d4YTokYRTI" opacity="1" fill="#f1e2f8" fill-opacity="1"></use><g clip-path="url(#clipf2gmUZKKrU)"><use xlink:href="#d4YTokYRTI" opacity="1" fill-opacity="0" stroke="#6f1e75" stroke-width="2" stroke-opacity="1"></use></g></g><g><use xlink:href="#a1j0IOhS8" opacity="1" fill="#0d0002" fill-opacity="0.79"></use></g><g><use xlink:href="#c5rV8kOBKl" opacity="1" fill="#fbbbd3" fill-opacity="1"></use><g><use xlink:href="#c5rV8kOBKl" opacity="1" fill-opacity="0" stroke="#603163" stroke-width="2" stroke-opacity="1"></use></g></g><g><use xlink:href="#c11CYeyIb4" opacity="1" fill="#f1e2f8" fill-opacity="1"></use><g clip-path="url(#clipg2QUmXrpjq)"><use xlink:href="#c11CYeyIb4" opacity="1" fill-opacity="0" stroke="#6f1e75" stroke-width="2" stroke-opacity="1"></use></g></g><g><use xlink:href="#f1PXVfZCfF" opacity="1" fill="#f5e4ff" fill-opacity="1"></use><g><use xlink:href="#f1PXVfZCfF" opacity="1" fill-opacity="0" stroke="#eaceff" stroke-width="1" stroke-opacity="1"></use></g></g><g><use xlink:href="#b1670ZXizz" opacity="1" fill="#0d0002" fill-opacity="0.79"></use></g><g><use xlink:href="#axCGbm6kj" opacity="1" fill="#fbbbd3" fill-opacity="1"></use><g><use xlink:href="#axCGbm6kj" opacity="1" fill-opacity="0" stroke="#603163" stroke-width="2" stroke-opacity="1"></use></g></g><g><use xlink:href="#h1Ka4R3EzB" opacity="1" fill="#f1e2f8" fill-opacity="1"></use><g clip-path="url(#clipl83cQqvQdM)"><use xlink:href="#h1Ka4R3EzB" opacity="1" fill-opacity="0" stroke="#6f1e75" stroke-width="2" stroke-opacity="1"></use></g></g><g><use xlink:href="#a1PMTLzd3k" opacity="1" fill="#f5e4ff" fill-opacity="1"></use><g><use xlink:href="#a1PMTLzd3k" opacity="1" fill-opacity="0" stroke="#eaceff" stroke-width="1" stroke-opacity="1"></use></g></g><g><use xlink:href="#a562YMOgu" opacity="1" fill="#0d0002" fill-opacity="0.79"></use></g><g><use xlink:href="#e3nn9opPDz" opacity="1" fill="#fbbbd3" fill-opacity="1"></use><g><use xlink:href="#e3nn9opPDz" opacity="1" fill-opacity="0" stroke="#603163" stroke-width="2" stroke-opacity="1"></use></g></g><g><use xlink:href="#dnsqUE266" opacity="1" fill="#f1e2f8" fill-opacity="1"></use><g clip-path="url(#clipb1iQscrQVm)"><use xlink:href="#dnsqUE266" opacity="1" fill-opacity="0" stroke="#6f1e75" stroke-width="2" stroke-opacity="1"></use></g></g><g><use xlink:href="#d5M9FdJ18" opacity="1" fill="#f5e4ff" fill-opacity="1"></use><g><use xlink:href="#d5M9FdJ18" opacity="1" fill-opacity="0" stroke="#eaceff" stroke-width="1" stroke-opacity="1"></use></g></g><g><use xlink:href="#a31Tj4SWZx" opacity="1" fill="#0d0002" fill-opacity="0.79"></use></g><g><use xlink:href="#b8vZkIKJNI" opacity="1" fill="#fbbbd3" fill-opacity="1"></use><g><use xlink:href="#b8vZkIKJNI" opacity="1" fill-opacity="0" stroke="#603163" stroke-width="2" stroke-opacity="1"></use></g></g><g><use xlink:href="#a8brglO9" opacity="1" fill="#f1e2f8" fill-opacity="1"></use><g clip-path="url(#clipa2XjKdD9pD)"><use xlink:href="#a8brglO9" opacity="1" fill-opacity="0" stroke="#6f1e75" stroke-width="2" stroke-opacity="1"></use></g></g><g><use xlink:href="#iF5aRmzVK" opacity="1" fill="#f5e4ff" fill-opacity="1"></use><g><use xlink:href="#iF5aRmzVK" opacity="1" fill-opacity="0" stroke="#eaceff" stroke-width="1" stroke-opacity="1"></use></g></g><g><use xlink:href="#b9y9gQLOq" opacity="1" fill="#0d0002" fill-opacity="0.79"></use></g><g><use xlink:href="#eN4YTAyLz" opacity="1" fill="#fbbbd3" fill-opacity="1"></use><g><use xlink:href="#eN4YTAyLz" opacity="1" fill-opacity="0" stroke="#603163" stroke-width="2" stroke-opacity="1"></use></g></g><g><use xlink:href="#a6wVKMhsE" opacity="1" fill="#f1e2f8" fill-opacity="1"></use><g clip-path="url(#clipb1SVtMNwRk)"><use xlink:href="#a6wVKMhsE" opacity="1" fill-opacity="0" stroke="#6f1e75" stroke-width="2" stroke-opacity="1"></use></g></g><g><use xlink:href="#cjlnQKwHg" opacity="1" fill="#f5e4ff" fill-opacity="1"></use><g><use xlink:href="#cjlnQKwHg" opacity="1" fill-opacity="0" stroke="#eaceff" stroke-width="1" stroke-opacity="1"></use></g></g><g><use xlink:href="#a2KUW5bMiB" opacity="1" fill="#0d0002" fill-opacity="0.79"></use></g><g><use xlink:href="#b1QYMbeIsY" opacity="1" fill="#fbbbd3" fill-opacity="1"></use><g><use xlink:href="#b1QYMbeIsY" opacity="1" fill-opacity="0" stroke="#603163" stroke-width="2" stroke-opacity="1"></use></g></g><g><use xlink:href="#aimJ5ynFz" opacity="1" fill="#f1e2f8" fill-opacity="1"></use><g clip-path="url(#clipaXzOOg8Ty)"><use xlink:href="#aimJ5ynFz" opacity="1" fill-opacity="0" stroke="#6f1e75" stroke-width="2" stroke-opacity="1"></use></g></g><g><use xlink:href="#bZ0DnpTs3" opacity="1" fill="#f5e4ff" fill-opacity="1"></use><g><use xlink:href="#bZ0DnpTs3" opacity="1" fill-opacity="0" stroke="#eaceff" stroke-width="1" stroke-opacity="1"></use></g></g><g><use xlink:href="#c4csEpOJR8" opacity="1" fill="#0d0002" fill-opacity="0.79"></use></g><g><use xlink:href="#acrRupBr0" opacity="1" fill="#fbbbd3" fill-opacity="1"></use><g><use xlink:href="#acrRupBr0" opacity="1" fill-opacity="0" stroke="#603163" stroke-width="2" stroke-opacity="1"></use></g></g><g><use xlink:href="#d7rf0Edf2" opacity="1" fill="#f1e2f8" fill-opacity="1"></use><g clip-path="url(#clipi7waeumWlb)"><use xlink:href="#d7rf0Edf2" opacity="1" fill-opacity="0" stroke="#6f1e75" stroke-width="2" stroke-opacity="1"></use></g></g><g><use xlink:href="#fB3E53kLZ" opacity="1" fill="#f5e4ff" fill-opacity="1"></use><g><use xlink:href="#fB3E53kLZ" opacity="1" fill-opacity="0" stroke="#eaceff" stroke-width="1" stroke-opacity="1"></use></g></g></g></g></svg>