<?xml version="1.0" encoding="UTF-8" standalone="no"?>
<!DOCTYPE svg PUBLIC "-//W3C//DTD SVG 1.1//EN" "http://www.w3.org/Graphics/SVG/1.1/DTD/svg11.dtd">
<svg version="1.1" xmlns="http://www.w3.org/2000/svg" xmlns:xlink="http://www.w3.org/1999/xlink" preserveAspectRatio="xMidYMid meet" viewBox="0 0 500 500" width="500" height="500"><defs><path d="M161.45 95.91C161.75 95.84 162.1 95.84 162.44 95.82C162.71 95.8 162.98 95.78 163.21 95.7C164.5 95.29 165.1 94.36 164.92 92.83C164.75 91.47 163.7 89.73 163.82 88.48C163.92 87.43 164.18 87.65 164.87 86.95C164.95 86.89 165.02 86.83 165.1 86.76C165.25 86.63 165.42 86.51 165.56 86.36C165.7 86.2 165.86 86.06 165.97 85.88C166.09 85.7 166.23 85.53 166.32 85.33C166.37 85.23 166.42 85.13 166.47 85.03C166.51 84.92 166.55 84.81 166.59 84.7C166.69 84.5 166.73 84.25 166.78 84.02C166.82 83.91 166.82 83.78 166.84 83.65C166.85 83.53 166.88 83.41 166.88 83.28C166.91 82.77 166.88 82.24 166.8 81.69C166.79 81.56 166.76 81.42 166.74 81.28C166.71 81.14 166.68 81.01 166.65 80.87C166.58 80.6 166.52 80.33 166.43 80.05C166.28 79.52 166.08 78.98 165.87 78.47C165.67 77.96 165.45 77.48 165.23 77.04C165.01 76.59 164.79 76.18 164.59 75.81C164.39 75.45 164.2 75.13 164.04 74.87C163.88 74.61 163.75 74.4 163.66 74.26C163.62 74.2 163.59 74.16 163.57 74.13C163.59 74.16 163.62 74.21 163.66 74.26C163.75 74.4 163.87 74.6 164.03 74.87C164.18 75.13 164.37 75.45 164.56 75.81C164.76 76.18 164.96 76.58 165.16 77.03C165.37 77.47 165.56 77.95 165.74 78.44C165.91 78.94 166.07 79.46 166.17 79.97C166.29 80.49 166.34 81 166.36 81.5C166.36 81.62 166.36 81.75 166.36 81.87C166.35 81.99 166.33 82.1 166.32 82.22C166.31 82.46 166.24 82.67 166.2 82.89C166.08 83.32 165.9 83.7 165.66 84.02C165.6 84.1 165.54 84.18 165.48 84.26C165.41 84.33 165.33 84.4 165.26 84.47C165.13 84.61 164.96 84.72 164.8 84.83C164.65 84.94 164.46 85.02 164.28 85.1C164.12 85.2 163.92 85.25 163.73 85.3C163.64 85.33 163.55 85.36 163.46 85.39C163.37 85.4 163.27 85.42 163.18 85.44C162.01 85.56 160.92 84.48 160.1 83.85C159.32 83.25 158.76 82.47 158.08 81.8C155.55 79.31 151.68 77.7 149.25 77.83C149.43 77.85 152.42 78.18 155.07 80.71C155.55 81.17 156.02 81.7 156.46 82.32C159.38 86.44 157.29 86.1 160.72 89.59C164.15 93.08 164.15 95.28 161.45 95.91Z" id="a1isGI2Awf"></path><path d="M129.4 129.69C129.4 129.68 129.39 129.66 129.39 129.66C129.39 129.66 129.32 129.4 129.18 128.9C129.11 128.66 129.02 128.35 128.92 127.99C128.84 127.64 128.74 127.24 128.63 126.78C128.51 126.33 128.42 125.83 128.3 125.3C128.18 124.76 128.1 124.19 128 123.59C127.95 123.29 127.91 122.98 127.87 122.66C127.83 122.35 127.79 122.02 127.75 121.69C127.71 121.04 127.64 120.36 127.63 119.67C127.58 118.28 127.63 116.83 127.83 115.39C128.03 113.96 128.37 112.53 128.88 111.17C129.39 109.8 130.06 108.51 130.89 107.32C131.72 106.12 132.69 105.02 133.8 104.05C134.91 103.08 136.13 102.21 137.44 101.47C138.74 100.72 140.11 100.08 141.52 99.56C144.32 98.49 147.22 97.84 149.81 97.46C152.4 97.07 154.67 96.95 156.25 96.92C157.03 96.91 157.64 96.92 158.04 96.94C158.23 96.95 158.38 96.96 158.46 96.97C158.47 96.97 158.5 96.97 158.5 96.97C158.5 96.97 158.51 96.98 158.51 96.98C158.52 96.98 158.53 96.98 158.53 96.98C158.54 96.98 158.54 96.98 158.54 96.98C158.55 96.98 158.6 96.99 158.61 96.99C159.28 97.01 159.91 96.96 160.5 96.81C161.29 96.62 161.94 96.28 162.44 95.82C162.1 95.84 161.75 95.84 161.45 95.91C164.15 95.28 164.15 93.08 160.72 89.59C157.29 86.1 159.38 86.44 156.46 82.32C156.02 81.7 155.55 81.17 155.07 80.71C152.07 78.9 148.9 78.05 146.52 78.63C146.52 78.63 146.52 78.63 146.51 78.63C146.5 78.63 146.49 78.64 146.46 78.64C146.43 78.65 146.4 78.65 146.35 78.66C146.32 78.67 146.29 78.67 146.25 78.68C146.09 78.72 145.88 78.76 145.62 78.83C145.12 78.96 144.42 79.16 143.58 79.45C141.9 80.01 139.63 80.9 137.18 82.23C134.74 83.56 132.1 85.33 129.71 87.62C128.5 88.76 127.38 90.05 126.36 91.45C125.34 92.85 124.45 94.4 123.72 96.04C122.24 99.34 121.48 103.12 121.48 106.96C121.48 108.88 121.66 110.81 121.97 112.69C122.28 114.56 122.73 116.37 123.23 118.06C123.47 118.9 123.76 119.71 124.02 120.48C124.15 120.87 124.3 121.25 124.44 121.62C124.57 121.99 124.7 122.34 124.85 122.69C125.14 123.39 125.39 124.03 125.67 124.64C125.94 125.24 126.17 125.79 126.42 126.29C126.66 126.79 126.87 127.23 127.06 127.62C127.26 128.01 127.42 128.33 127.56 128.6C127.83 129.13 127.98 129.42 127.98 129.42C128.14 129.73 128.49 130.03 128.84 130.13C129.25 130.25 129.5 130.05 129.4 129.69Z" id="a10XcTRZIB"></path><path d="M165.1 86.76C165.25 86.63 165.42 86.51 165.56 86.36C165.7 86.2 165.86 86.06 165.97 85.88C166.09 85.7 166.23 85.53 166.32 85.33C166.37 85.23 166.42 85.13 166.47 85.03C166.51 84.92 166.55 84.81 166.59 84.7C166.69 84.5 166.73 84.25 166.78 84.02C166.82 83.91 166.82 83.78 166.84 83.65C166.85 83.53 166.88 83.41 166.88 83.28C166.91 82.77 166.88 82.24 166.8 81.69C166.79 81.56 166.76 81.42 166.74 81.28C166.71 81.14 166.68 81.01 166.65 80.87C166.58 80.6 166.52 80.33 166.43 80.05C166.28 79.52 166.08 78.98 165.87 78.47C165.67 77.96 165.45 77.48 165.23 77.04C165.01 76.59 164.79 76.18 164.59 75.81C164.39 75.45 164.2 75.13 164.04 74.87C163.88 74.61 163.75 74.4 163.66 74.26C163.62 74.2 163.59 74.16 163.57 74.13C163.59 74.16 163.62 74.21 163.66 74.26C163.75 74.4 163.87 74.6 164.03 74.87C164.18 75.13 164.37 75.45 164.56 75.81C164.76 76.18 164.96 76.58 165.16 77.03C165.37 77.47 165.56 77.95 165.74 78.44C165.91 78.94 166.07 79.46 166.17 79.97C166.29 80.49 166.34 81 166.36 81.5C166.36 81.62 166.36 81.75 166.36 81.87C166.35 81.99 166.33 82.1 166.32 82.22C166.31 82.46 166.24 82.67 166.2 82.89C166.08 83.32 165.9 83.7 165.66 84.02C165.6 84.1 165.54 84.18 165.48 84.26C165.41 84.33 165.33 84.4 165.26 84.47C165.13 84.61 164.96 84.72 164.8 84.83C164.65 84.94 164.46 85.02 164.28 85.1C164.12 85.2 163.92 85.25 163.73 85.3C163.64 85.33 163.55 85.36 163.46 85.39C163.37 85.4 163.27 85.42 163.18 85.44C162.01 85.56 160.92 84.48 160.1 83.85C159.32 83.25 158.76 82.47 158.08 81.8C155.55 79.31 151.68 77.7 149.25 77.83C149.43 77.85 152.42 78.18 155.07 80.71C155.55 81.17 156.02 81.7 156.46 82.32C159.38 86.44 157.29 86.1 160.72 89.59C160.95 89.82 161.16 90.05 161.36 90.27C162.52 90.9 163.67 91.58 164.82 92.31C164.51 91.05 163.71 89.58 163.82 88.48C163.92 87.43 164.18 87.65 164.87 86.95C164.95 86.89 165.02 86.83 165.1 86.76Z" id="a4wOdv5TD"></path><path d="M155.07 80.71C152.07 78.9 148.9 78.05 146.52 78.63C146.52 78.63 146.52 78.63 146.51 78.63C146.5 78.63 146.49 78.64 146.46 78.64C146.43 78.65 146.4 78.65 146.36 78.66C146.32 78.67 146.29 78.67 146.25 78.68C146.09 78.72 145.88 78.76 145.62 78.83C145.12 78.96 144.42 79.16 143.58 79.45C141.9 80.01 139.63 80.9 137.19 82.23C136.77 82.46 136.36 82.7 135.94 82.94C140.96 82.94 146.74 84.08 152.95 86.49C155.83 87.58 158.61 88.79 161.36 90.28C161.16 90.05 160.95 89.83 160.72 89.59C157.29 86.1 159.38 86.44 156.46 82.33C156.02 81.7 155.55 81.17 155.07 80.71Z" id="b1gVJKNEAZ"></path><path d="M423.98 250.21C424.05 250.5 424.07 250.85 424.1 251.19C424.12 251.46 424.15 251.73 424.23 251.96C424.68 253.23 425.62 253.81 427.15 253.58C428.51 253.38 430.22 252.28 431.47 252.37C432.52 252.44 432.31 252.7 433.03 253.37C433.09 253.45 433.16 253.52 433.22 253.6C433.35 253.75 433.48 253.91 433.64 254.04C433.8 254.18 433.94 254.33 434.13 254.44C434.31 254.56 434.48 254.69 434.69 254.78C434.79 254.83 434.89 254.88 434.99 254.92C435.1 254.96 435.21 255 435.32 255.04C435.53 255.12 435.78 255.16 436.01 255.21C436.12 255.24 436.26 255.24 436.38 255.25C436.5 255.26 436.62 255.28 436.75 255.28C437.26 255.3 437.8 255.25 438.34 255.16C438.47 255.14 438.61 255.11 438.75 255.08C438.88 255.05 439.02 255.02 439.15 254.99C439.43 254.91 439.7 254.84 439.96 254.75C440.5 254.58 441.03 254.36 441.53 254.14C442.03 253.92 442.51 253.69 442.95 253.46C443.39 253.22 443.8 253 444.16 252.78C444.51 252.58 444.83 252.38 445.08 252.21C445.34 252.04 445.54 251.91 445.68 251.81C445.74 251.77 445.78 251.74 445.81 251.72C445.78 251.74 445.73 251.77 445.68 251.81C445.54 251.9 445.34 252.03 445.08 252.2C444.83 252.36 444.51 252.56 444.16 252.76C443.8 252.97 443.4 253.18 442.96 253.39C442.52 253.61 442.05 253.82 441.55 254.01C441.07 254.19 440.55 254.36 440.04 254.48C439.52 254.61 439.01 254.68 438.52 254.71C438.4 254.71 438.27 254.72 438.15 254.72C438.03 254.72 437.91 254.7 437.8 254.69C437.56 254.69 437.34 254.63 437.12 254.59C436.69 254.48 436.3 254.31 435.98 254.08C435.89 254.02 435.81 253.96 435.73 253.91C435.66 253.84 435.59 253.77 435.52 253.7C435.38 253.57 435.26 253.4 435.15 253.24C435.03 253.09 434.95 252.91 434.86 252.74C434.76 252.58 434.71 252.38 434.64 252.19C434.61 252.1 434.58 252.01 434.55 251.92C434.53 251.83 434.51 251.73 434.49 251.64C434.33 250.47 435.39 249.36 436 248.52C436.57 247.73 437.34 247.14 437.99 246.44C440.41 243.85 441.91 239.93 441.71 237.51C441.7 237.68 441.45 240.69 439 243.4C438.55 243.89 438.03 244.38 437.42 244.84C433.39 247.87 433.66 245.77 430.27 249.3C426.88 252.82 424.69 252.89 423.98 250.21Z" id="aaqckeHra"></path><path d="M389.32 219.1C389.33 219.1 389.35 219.09 389.35 219.09C389.35 219.09 389.61 219.01 390.1 218.86C390.35 218.78 390.65 218.69 391 218.58C391.35 218.48 391.76 218.37 392.21 218.25C392.66 218.11 393.15 218.01 393.68 217.88C394.22 217.75 394.78 217.65 395.38 217.53C395.68 217.47 395.99 217.42 396.3 217.38C396.62 217.33 396.94 217.28 397.27 217.23C397.92 217.17 398.6 217.08 399.29 217.05C400.68 216.97 402.13 216.97 403.57 217.13C405.01 217.29 406.45 217.6 407.82 218.06C409.2 218.54 410.51 219.18 411.73 219.97C412.94 220.77 414.07 221.71 415.07 222.79C416.08 223.87 416.98 225.06 417.76 226.35C418.54 227.63 419.22 228.99 419.78 230.38C420.92 233.15 421.65 236.04 422.11 238.61C422.57 241.19 422.75 243.46 422.82 245.03C422.85 245.82 422.86 246.43 422.85 246.82C422.85 247.02 422.84 247.16 422.84 247.24C422.84 247.26 422.84 247.28 422.83 247.29C422.83 247.29 422.83 247.29 422.83 247.3C422.82 247.3 422.82 247.31 422.82 247.32C422.82 247.32 422.82 247.33 422.82 247.33C422.82 247.33 422.82 247.39 422.82 247.39C422.82 248.06 422.89 248.7 423.05 249.28C423.26 250.07 423.62 250.7 424.1 251.19C424.07 250.85 424.05 250.5 423.98 250.2C424.69 252.89 426.88 252.82 430.27 249.3C433.66 245.77 433.39 247.87 437.42 244.84C438.03 244.38 438.55 243.9 439 243.4C440.72 240.36 441.49 237.16 440.84 234.8C440.84 234.8 440.84 234.79 440.83 234.79C440.83 234.78 440.83 234.77 440.83 234.74C440.82 234.71 440.81 234.68 440.8 234.64C440.8 234.6 440.79 234.57 440.78 234.53C440.74 234.37 440.69 234.17 440.61 233.91C440.46 233.41 440.25 232.71 439.94 231.88C439.33 230.22 438.37 227.98 436.98 225.57C435.58 223.16 433.74 220.57 431.38 218.24C430.21 217.07 428.89 215.98 427.46 215C426.03 214.02 424.46 213.18 422.8 212.49C419.46 211.1 415.66 210.45 411.82 210.56C409.9 210.61 407.98 210.84 406.11 211.2C404.25 211.56 402.45 212.06 400.78 212.61C399.95 212.87 399.14 213.19 398.38 213.46C397.99 213.61 397.62 213.77 397.25 213.92C396.89 214.06 396.54 214.2 396.19 214.36C395.51 214.66 394.87 214.94 394.27 215.23C393.68 215.52 393.14 215.76 392.64 216.03C392.15 216.28 391.71 216.51 391.33 216.7C390.95 216.91 390.62 217.09 390.36 217.23C389.83 217.52 389.55 217.67 389.55 217.67C389.25 217.84 388.95 218.2 388.86 218.56C388.76 218.97 388.96 219.21 389.32 219.1Z" id="a4Yvpb9kQc"></path><path d="M433.22 253.6C433.35 253.75 433.48 253.91 433.64 254.04C433.8 254.18 433.94 254.33 434.13 254.44C434.31 254.56 434.48 254.69 434.69 254.78C434.79 254.83 434.89 254.88 434.99 254.92C435.1 254.96 435.21 255 435.32 255.04C435.53 255.12 435.78 255.16 436.01 255.21C436.12 255.24 436.26 255.24 436.38 255.25C436.5 255.26 436.62 255.28 436.75 255.28C437.26 255.3 437.8 255.25 438.34 255.16C438.47 255.14 438.61 255.11 438.75 255.08C438.88 255.05 439.02 255.02 439.15 254.99C439.43 254.91 439.7 254.84 439.96 254.75C440.5 254.58 441.03 254.36 441.53 254.14C442.03 253.92 442.51 253.69 442.95 253.46C443.39 253.22 443.8 253 444.16 252.78C444.51 252.58 444.83 252.38 445.08 252.21C445.34 252.04 445.54 251.91 445.68 251.81C445.74 251.77 445.78 251.74 445.81 251.72C445.78 251.74 445.73 251.77 445.68 251.81C445.54 251.9 445.34 252.03 445.08 252.2C444.83 252.36 444.51 252.56 444.16 252.76C443.8 252.97 443.4 253.18 442.96 253.39C442.52 253.61 442.05 253.82 441.55 254.01C441.07 254.19 440.55 254.36 440.04 254.48C439.52 254.61 439.01 254.68 438.52 254.71C438.4 254.71 438.27 254.72 438.15 254.72C438.03 254.72 437.91 254.7 437.8 254.69C437.56 254.69 437.34 254.63 437.12 254.59C436.69 254.48 436.3 254.31 435.98 254.08C435.89 254.02 435.81 253.96 435.73 253.91C435.66 253.84 435.59 253.77 435.52 253.7C435.38 253.57 435.26 253.4 435.15 253.24C435.03 253.09 434.95 252.91 434.86 252.74C434.76 252.58 434.71 252.38 434.64 252.19C434.61 252.1 434.58 252.01 434.55 251.92C434.53 251.83 434.51 251.73 434.49 251.64C434.33 250.47 435.39 249.36 436 248.52C436.57 247.73 437.34 247.14 437.99 246.44C440.41 243.85 441.91 239.93 441.71 237.51C441.7 237.68 441.45 240.69 439 243.4C438.55 243.89 438.03 244.38 437.42 244.84C433.39 247.87 433.67 245.77 430.28 249.29C430.05 249.53 429.83 249.75 429.61 249.95C429.02 251.13 428.37 252.3 427.67 253.47C428.92 253.13 430.37 252.29 431.47 252.37C432.52 252.44 432.31 252.7 433.03 253.37C433.09 253.45 433.16 253.52 433.22 253.6Z" id="a17vQwdGn0"></path><path d="M439 243.4C440.72 240.36 441.49 237.16 440.84 234.8C440.84 234.8 440.84 234.8 440.83 234.79C440.83 234.78 440.83 234.77 440.83 234.74C440.82 234.71 440.81 234.68 440.8 234.64C440.8 234.6 440.79 234.57 440.78 234.53C440.74 234.37 440.68 234.17 440.61 233.91C440.46 233.41 440.25 232.71 439.94 231.88C439.33 230.22 438.37 227.98 436.98 225.57C436.74 225.16 436.49 224.75 436.23 224.34C436.37 229.36 435.39 235.17 433.16 241.44C432.15 244.36 431.02 247.17 429.61 249.96C429.82 249.75 430.05 249.53 430.27 249.3C433.66 245.77 433.39 247.87 437.42 244.84C438.03 244.38 438.55 243.9 439 243.4Z" id="bqWwJb45J"></path><path d="M79 260.63C79.08 260.92 79.09 261.27 79.12 261.62C79.15 261.89 79.18 262.16 79.26 262.39C79.71 263.66 80.65 264.24 82.18 264.01C83.54 263.81 85.25 262.71 86.5 262.8C87.55 262.87 87.33 263.13 88.06 263.8C88.12 263.87 88.18 263.95 88.25 264.03C88.38 264.18 88.51 264.34 88.67 264.47C88.83 264.61 88.97 264.76 89.16 264.87C89.34 264.99 89.51 265.12 89.72 265.2C89.82 265.25 89.92 265.3 90.02 265.35C90.13 265.39 90.24 265.42 90.35 265.46C90.56 265.55 90.81 265.58 91.04 265.63C91.15 265.66 91.28 265.66 91.41 265.68C91.53 265.69 91.65 265.71 91.78 265.71C92.29 265.72 92.83 265.68 93.37 265.59C93.5 265.57 93.64 265.54 93.78 265.51C93.91 265.48 94.05 265.45 94.18 265.41C94.46 265.33 94.72 265.27 94.99 265.17C95.53 265.01 96.06 264.79 96.56 264.57C97.06 264.35 97.54 264.12 97.98 263.89C98.42 263.65 98.82 263.42 99.18 263.21C99.54 263 99.86 262.8 100.11 262.64C100.37 262.47 100.57 262.33 100.71 262.24C100.76 262.2 100.81 262.17 100.84 262.15C100.81 262.17 100.76 262.2 100.71 262.24C100.57 262.33 100.37 262.46 100.11 262.63C99.86 262.79 99.54 262.98 99.19 263.19C98.83 263.4 98.42 263.61 97.99 263.82C97.55 264.04 97.07 264.24 96.58 264.44C96.09 264.61 95.58 264.79 95.07 264.91C94.55 265.04 94.04 265.11 93.55 265.13C93.43 265.14 93.3 265.14 93.18 265.15C93.06 265.14 92.94 265.13 92.83 265.12C92.59 265.11 92.37 265.06 92.15 265.02C91.72 264.91 91.33 264.74 91 264.51C90.92 264.45 90.84 264.39 90.76 264.33C90.69 264.26 90.62 264.19 90.55 264.12C90.4 263.99 90.29 263.83 90.18 263.67C90.06 263.52 89.98 263.33 89.89 263.16C89.79 263 89.74 262.8 89.67 262.62C89.64 262.53 89.61 262.44 89.58 262.35C89.56 262.25 89.54 262.16 89.52 262.07C89.36 260.9 90.42 259.79 91.03 258.94C91.6 258.15 92.37 257.57 93.02 256.87C95.44 254.27 96.94 250.36 96.74 247.94C96.73 248.11 96.48 251.11 94.03 253.83C93.58 254.32 93.06 254.81 92.45 255.27C88.42 258.3 88.69 256.2 85.3 259.72C81.91 263.25 79.72 263.32 79 260.63Z" id="b1EpfAOju4"></path><path d="M44.35 229.53C44.36 229.53 44.38 229.52 44.38 229.52C44.38 229.52 44.64 229.44 45.13 229.29C45.38 229.21 45.68 229.11 46.03 229C46.38 228.91 46.79 228.8 47.24 228.67C47.69 228.54 48.18 228.44 48.71 228.31C49.24 228.18 49.81 228.08 50.41 227.96C50.71 227.9 51.02 227.85 51.33 227.8C51.65 227.76 51.97 227.71 52.3 227.66C52.95 227.6 53.63 227.51 54.32 227.48C55.71 227.39 57.16 227.4 58.6 227.56C60.04 227.72 61.48 228.02 62.85 228.49C64.23 228.96 65.54 229.6 66.76 230.4C67.97 231.2 69.1 232.13 70.1 233.22C71.1 234.3 72.01 235.49 72.79 236.78C73.57 238.06 74.24 239.41 74.81 240.81C75.95 243.58 76.68 246.46 77.14 249.04C77.6 251.61 77.78 253.88 77.85 255.46C77.88 256.24 77.89 256.85 77.88 257.25C77.88 257.44 77.87 257.59 77.87 257.67C77.87 257.68 77.87 257.71 77.86 257.71C77.86 257.71 77.86 257.72 77.85 257.72C77.85 257.73 77.85 257.74 77.85 257.74C77.85 257.75 77.85 257.75 77.85 257.75C77.85 257.76 77.85 257.82 77.85 257.82C77.85 258.49 77.92 259.12 78.08 259.7C78.29 260.49 78.65 261.13 79.12 261.62C79.1 261.27 79.08 260.92 79 260.63C79.72 263.32 81.91 263.25 85.3 259.72C88.69 256.2 88.42 258.3 92.45 255.27C93.06 254.81 93.58 254.32 94.03 253.83C95.75 250.78 96.52 247.59 95.87 245.23C95.87 245.23 95.87 245.22 95.86 245.22C95.86 245.21 95.86 245.2 95.85 245.17C95.85 245.14 95.84 245.11 95.83 245.06C95.83 245.03 95.82 244.99 95.81 244.95C95.77 244.8 95.71 244.6 95.64 244.34C95.49 243.84 95.27 243.14 94.97 242.31C94.35 240.64 93.4 238.41 92.01 235.99C90.61 233.58 88.77 231 86.41 228.67C85.24 227.5 83.92 226.41 82.49 225.43C81.06 224.45 79.49 223.6 77.83 222.91C74.49 221.53 70.69 220.88 66.85 220.98C64.93 221.03 63 221.27 61.14 221.63C59.28 221.99 57.48 222.49 55.81 223.04C54.98 223.3 54.17 223.61 53.41 223.89C53.02 224.04 52.64 224.2 52.28 224.34C51.92 224.49 51.57 224.63 51.22 224.79C50.53 225.09 49.9 225.36 49.3 225.66C48.71 225.94 48.16 226.19 47.67 226.46C47.18 226.71 46.74 226.93 46.36 227.13C45.97 227.34 45.65 227.52 45.39 227.66C44.86 227.95 44.58 228.1 44.58 228.1C44.27 228.27 43.98 228.63 43.89 228.98C43.78 229.4 43.99 229.64 44.35 229.53Z" id="b5ydJPON4"></path><path d="M88.25 264.03C88.38 264.18 88.51 264.34 88.67 264.47C88.83 264.61 88.97 264.76 89.16 264.87C89.34 264.99 89.51 265.12 89.72 265.2C89.82 265.25 89.92 265.3 90.02 265.35C90.13 265.39 90.24 265.42 90.35 265.46C90.56 265.55 90.81 265.58 91.04 265.63C91.15 265.66 91.28 265.66 91.41 265.68C91.53 265.69 91.65 265.71 91.78 265.71C92.29 265.72 92.83 265.68 93.37 265.59C93.5 265.57 93.64 265.54 93.78 265.51C93.91 265.48 94.05 265.45 94.18 265.41C94.46 265.33 94.72 265.27 94.99 265.17C95.53 265.01 96.06 264.79 96.56 264.57C97.06 264.35 97.54 264.12 97.98 263.89C98.42 263.65 98.82 263.42 99.18 263.21C99.54 263 99.86 262.8 100.11 262.64C100.37 262.47 100.57 262.33 100.71 262.24C100.76 262.2 100.81 262.17 100.84 262.15C100.81 262.17 100.76 262.2 100.71 262.24C100.57 262.33 100.37 262.46 100.11 262.63C99.86 262.79 99.54 262.98 99.19 263.19C98.83 263.4 98.42 263.61 97.99 263.82C97.55 264.04 97.07 264.24 96.58 264.44C96.09 264.61 95.58 264.79 95.07 264.91C94.55 265.04 94.04 265.11 93.55 265.13C93.43 265.14 93.3 265.14 93.18 265.15C93.06 265.14 92.94 265.13 92.83 265.12C92.59 265.11 92.37 265.06 92.15 265.02C91.72 264.91 91.33 264.74 91 264.51C90.92 264.45 90.84 264.39 90.76 264.33C90.69 264.26 90.62 264.19 90.55 264.12C90.4 263.99 90.29 263.83 90.18 263.67C90.06 263.52 89.98 263.33 89.89 263.16C89.79 263 89.74 262.8 89.67 262.62C89.64 262.53 89.61 262.44 89.58 262.35C89.56 262.25 89.54 262.16 89.52 262.07C89.36 260.9 90.42 259.79 91.03 258.94C91.6 258.15 92.37 257.57 93.02 256.87C95.44 254.27 96.94 250.36 96.74 247.94C96.73 248.11 96.48 251.11 94.03 253.83C93.58 254.32 93.06 254.81 92.45 255.27C88.42 258.3 88.69 256.2 85.3 259.72C85.08 259.96 84.86 260.18 84.64 260.38C84.04 261.56 83.4 262.73 82.69 263.9C83.95 263.55 85.4 262.71 86.5 262.79C87.55 262.87 87.33 263.13 88.06 263.8C88.12 263.87 88.18 263.95 88.25 264.03Z" id="b22LRyAX6m"></path><path d="M94.03 253.83C95.75 250.78 96.52 247.59 95.87 245.23C95.87 245.23 95.87 245.22 95.86 245.22C95.86 245.21 95.86 245.2 95.85 245.17C95.85 245.14 95.84 245.11 95.83 245.06C95.82 245.03 95.82 245 95.81 244.95C95.77 244.8 95.71 244.6 95.64 244.34C95.49 243.84 95.27 243.14 94.97 242.31C94.35 240.64 93.4 238.41 92.01 236C91.77 235.59 91.52 235.18 91.26 234.77C91.4 239.79 90.42 245.6 88.19 251.87C87.18 254.78 86.05 257.6 84.64 260.39C84.85 260.18 85.07 259.96 85.3 259.72C88.69 256.2 88.42 258.3 92.45 255.27C93.06 254.81 93.58 254.32 94.03 253.83Z" id="jru4iA8fZ"></path><path d="M198.42 216.82C198.18 217 197.87 217.15 197.56 217.31C197.32 217.44 197.09 217.57 196.91 217.74C195.91 218.65 195.75 219.74 196.55 221.06C197.27 222.23 198.95 223.37 199.36 224.56C199.7 225.56 199.38 225.46 199.04 226.39C199 226.47 198.95 226.56 198.91 226.65C198.82 226.83 198.72 227.01 198.66 227.21C198.6 227.41 198.51 227.61 198.48 227.82C198.44 228.03 198.39 228.24 198.39 228.47C198.39 228.58 198.38 228.69 198.38 228.8C198.39 228.92 198.4 229.03 198.4 229.15C198.41 229.37 198.47 229.61 198.51 229.85C198.53 229.96 198.58 230.09 198.62 230.21C198.66 230.32 198.68 230.44 198.73 230.56C198.92 231.04 199.17 231.51 199.46 231.97C199.53 232.09 199.61 232.2 199.7 232.32C199.78 232.43 199.86 232.55 199.94 232.66C200.12 232.88 200.29 233.1 200.48 233.31C200.84 233.74 201.25 234.14 201.65 234.52C202.05 234.89 202.44 235.24 202.83 235.56C203.22 235.87 203.59 236.15 203.92 236.4C204.25 236.65 204.56 236.86 204.81 237.03C205.07 237.2 205.27 237.34 205.41 237.43C205.47 237.46 205.51 237.49 205.55 237.51C205.51 237.49 205.47 237.46 205.41 237.42C205.28 237.34 205.08 237.2 204.82 237.03C204.57 236.86 204.27 236.64 203.95 236.39C203.61 236.14 203.26 235.86 202.89 235.54C202.52 235.22 202.15 234.86 201.78 234.49C201.43 234.1 201.06 233.7 200.75 233.27C200.43 232.85 200.17 232.41 199.95 231.96C199.9 231.85 199.85 231.74 199.8 231.63C199.75 231.52 199.72 231.4 199.68 231.29C199.6 231.07 199.57 230.85 199.51 230.63C199.45 230.19 199.45 229.77 199.54 229.38C199.56 229.28 199.58 229.18 199.6 229.08C199.64 228.99 199.68 228.9 199.71 228.81C199.78 228.62 199.88 228.45 199.98 228.29C200.08 228.12 200.22 227.97 200.34 227.82C200.45 227.67 200.61 227.54 200.76 227.41C200.83 227.35 200.9 227.29 200.97 227.22C201.05 227.17 201.13 227.11 201.21 227.06C202.22 226.46 203.66 226.99 204.67 227.23C205.62 227.44 206.46 227.93 207.35 228.25C210.69 229.46 214.88 229.32 217.03 228.19C216.87 228.25 214.01 229.19 210.55 227.99C209.92 227.77 209.27 227.48 208.61 227.1C204.24 224.57 206.28 224.01 201.72 222.26C197.15 220.51 196.23 218.52 198.42 216.82Z" id="b1rlUfZifb"></path><path d="M213.54 172.77C213.54 172.78 213.56 172.79 213.56 172.8C213.56 172.8 213.74 173 214.07 173.4C214.23 173.59 214.44 173.83 214.68 174.12C214.9 174.4 215.16 174.73 215.45 175.09C215.75 175.46 216.04 175.87 216.36 176.31C216.69 176.75 217 177.23 217.35 177.74C217.52 177.99 217.68 178.26 217.85 178.53C218.01 178.8 218.19 179.08 218.36 179.36C218.67 179.93 219.02 180.53 219.32 181.15C219.93 182.39 220.5 183.73 220.91 185.12C221.32 186.51 221.61 187.95 221.71 189.4C221.82 190.85 221.74 192.31 221.48 193.74C221.22 195.17 220.8 196.58 220.19 197.92C219.58 199.27 218.84 200.56 217.96 201.78C217.08 203 216.1 204.15 215.04 205.22C212.93 207.35 210.56 209.15 208.37 210.57C206.18 212 204.16 213.05 202.74 213.73C202.03 214.07 201.47 214.31 201.1 214.46C200.92 214.53 200.78 214.59 200.71 214.61C200.69 214.62 200.67 214.63 200.66 214.62C200.66 214.62 200.66 214.62 200.65 214.62C200.65 214.62 200.64 214.62 200.63 214.63C200.63 214.63 200.62 214.63 200.62 214.63C200.62 214.63 200.57 214.65 200.56 214.66C199.94 214.91 199.39 215.23 198.91 215.6C198.27 216.11 197.83 216.69 197.56 217.31C197.87 217.15 198.19 217 198.42 216.82C196.23 218.52 197.15 220.51 201.72 222.26C206.29 224.01 204.24 224.57 208.61 227.1C209.27 227.48 209.92 227.77 210.55 227.99C214.02 228.39 217.27 227.85 219.19 226.33C219.19 226.33 219.19 226.33 219.2 226.32C219.2 226.32 219.21 226.31 219.24 226.3C219.26 226.28 219.29 226.26 219.32 226.23C219.35 226.21 219.38 226.19 219.42 226.17C219.54 226.07 219.71 225.94 219.92 225.77C220.32 225.44 220.88 224.97 221.53 224.36C222.82 223.15 224.51 221.4 226.18 219.17C227.86 216.95 229.52 214.24 230.74 211.16C231.36 209.62 231.85 207.99 232.2 206.29C232.54 204.59 232.7 202.81 232.69 201.01C232.66 197.4 231.78 193.65 230.19 190.15C229.39 188.4 228.42 186.72 227.36 185.15C226.31 183.58 225.14 182.11 223.99 180.79C223.42 180.13 222.82 179.5 222.26 178.91C221.98 178.61 221.68 178.33 221.41 178.05C221.13 177.77 220.87 177.51 220.58 177.25C220.04 176.73 219.54 176.25 219.03 175.82C218.54 175.38 218.1 174.98 217.66 174.63C217.24 174.27 216.86 173.96 216.53 173.68C216.19 173.41 215.9 173.18 215.66 173C215.2 172.63 214.94 172.43 214.94 172.43C214.67 172.21 214.22 172.08 213.86 172.14C213.44 172.2 213.3 172.49 213.54 172.77Z" id="c95GV4fwJz"></path><path d="M198.91 226.65C198.82 226.83 198.72 227.01 198.66 227.21C198.6 227.41 198.51 227.61 198.48 227.82C198.44 228.03 198.39 228.24 198.39 228.47C198.39 228.58 198.38 228.69 198.38 228.8C198.39 228.92 198.4 229.03 198.4 229.15C198.41 229.37 198.47 229.61 198.51 229.85C198.53 229.96 198.58 230.09 198.62 230.21C198.66 230.32 198.68 230.44 198.73 230.56C198.92 231.04 199.17 231.51 199.46 231.97C199.53 232.09 199.61 232.2 199.7 232.32C199.78 232.43 199.86 232.55 199.94 232.66C200.12 232.88 200.29 233.1 200.48 233.31C200.84 233.74 201.25 234.14 201.65 234.52C202.05 234.89 202.44 235.24 202.83 235.56C203.22 235.87 203.59 236.15 203.92 236.4C204.25 236.65 204.56 236.86 204.81 237.03C205.07 237.2 205.27 237.34 205.41 237.43C205.47 237.46 205.51 237.49 205.55 237.51C205.51 237.49 205.47 237.46 205.41 237.42C205.28 237.34 205.08 237.2 204.82 237.03C204.57 236.86 204.27 236.64 203.95 236.39C203.61 236.14 203.26 235.86 202.89 235.54C202.52 235.22 202.15 234.86 201.78 234.49C201.43 234.1 201.06 233.7 200.75 233.27C200.43 232.85 200.17 232.41 199.95 231.96C199.9 231.85 199.85 231.74 199.8 231.63C199.75 231.52 199.72 231.4 199.68 231.29C199.6 231.07 199.57 230.85 199.51 230.63C199.45 230.19 199.45 229.77 199.54 229.38C199.56 229.28 199.58 229.18 199.6 229.08C199.64 228.99 199.68 228.9 199.71 228.81C199.78 228.62 199.88 228.45 199.98 228.29C200.08 228.12 200.22 227.97 200.34 227.82C200.45 227.67 200.61 227.54 200.76 227.41C200.83 227.35 200.9 227.29 200.97 227.22C201.05 227.17 201.13 227.11 201.21 227.06C202.22 226.46 203.66 226.99 204.67 227.23C205.62 227.44 206.46 227.93 207.35 228.25C210.69 229.46 214.88 229.32 217.03 228.19C216.87 228.25 214.01 229.19 210.55 227.99C209.92 227.77 209.27 227.48 208.61 227.1C204.25 224.57 206.29 224.01 201.72 222.26C201.41 222.14 201.13 222.03 200.85 221.91C199.54 221.82 198.21 221.68 196.86 221.49C197.66 222.51 199 223.52 199.36 224.56C199.7 225.56 199.38 225.46 199.04 226.39C199 226.47 198.95 226.56 198.91 226.65Z" id="c1Exj8GY4"></path><path d="M210.55 227.99C214.02 228.39 217.27 227.85 219.19 226.33C219.19 226.33 219.19 226.33 219.19 226.32C219.2 226.32 219.21 226.31 219.24 226.3C219.26 226.28 219.29 226.26 219.32 226.23C219.35 226.21 219.38 226.19 219.41 226.17C219.54 226.07 219.71 225.94 219.92 225.77C220.32 225.44 220.88 224.97 221.52 224.36C222.82 223.15 224.5 221.4 226.18 219.17C226.46 218.8 226.74 218.41 227.02 218.01C222.45 220.1 216.72 221.46 210.07 221.85C207 222.06 203.96 222.12 200.85 221.9C201.12 222.02 201.41 222.14 201.72 222.26C206.28 224.01 204.24 224.57 208.61 227.1C209.27 227.48 209.92 227.77 210.55 227.99Z" id="a1msVnzlK1"></path><path d="M384.33 378.1C384.13 377.88 383.96 377.57 383.78 377.28C383.63 377.05 383.48 376.82 383.31 376.65C382.33 375.73 381.23 375.64 379.97 376.53C378.85 377.33 377.83 379.09 376.67 379.58C375.7 379.99 375.78 379.66 374.83 379.39C374.74 379.35 374.65 379.31 374.55 379.28C374.37 379.2 374.18 379.11 373.98 379.07C373.78 379.02 373.57 378.95 373.36 378.94C373.14 378.91 372.93 378.88 372.71 378.89C372.59 378.89 372.48 378.9 372.37 378.9C372.26 378.92 372.14 378.93 372.03 378.95C371.8 378.97 371.57 379.05 371.34 379.11C371.22 379.13 371.11 379.19 370.99 379.24C370.87 379.29 370.76 379.32 370.64 379.38C370.18 379.6 369.72 379.88 369.28 380.21C369.17 380.28 369.06 380.37 368.96 380.46C368.85 380.55 368.74 380.64 368.64 380.73C368.43 380.93 368.22 381.11 368.02 381.31C367.62 381.71 367.25 382.14 366.9 382.56C366.56 382.99 366.24 383.41 365.95 383.82C365.66 384.23 365.4 384.61 365.18 384.97C364.95 385.31 364.77 385.63 364.61 385.9C364.46 386.16 364.34 386.38 364.26 386.52C364.23 386.58 364.21 386.63 364.19 386.66C364.21 386.63 364.23 386.58 364.27 386.53C364.34 386.38 364.46 386.17 364.62 385.91C364.77 385.65 364.96 385.33 365.19 384.99C365.42 384.64 365.68 384.27 365.97 383.88C366.26 383.49 366.59 383.09 366.94 382.69C367.3 382.31 367.68 381.92 368.08 381.58C368.48 381.23 368.9 380.94 369.33 380.69C369.44 380.63 369.54 380.57 369.65 380.51C369.76 380.46 369.87 380.42 369.98 380.38C370.2 380.27 370.41 380.23 370.63 380.16C371.06 380.07 371.48 380.04 371.88 380.1C371.98 380.11 372.08 380.13 372.18 380.14C372.27 380.17 372.37 380.2 372.46 380.23C372.65 380.28 372.83 380.38 373 380.47C373.17 380.54 373.33 380.68 373.49 380.79C373.64 380.89 373.78 381.04 373.92 381.17C373.99 381.24 374.06 381.31 374.13 381.37C374.19 381.45 374.25 381.52 374.31 381.6C374.98 382.56 374.55 384.04 374.39 385.06C374.24 386.03 373.81 386.9 373.55 387.81C372.58 391.23 373.01 395.4 374.29 397.47C374.22 397.3 373.08 394.52 374.03 390.98C374.21 390.34 374.45 389.67 374.79 388.99C377 384.45 377.71 386.45 379.13 381.77C380.55 377.09 382.48 376.03 384.33 378.1Z" id="a1J7BDb9"></path><path d="M429.33 390.08C429.33 390.08 429.31 390.1 429.31 390.1C429.31 390.1 429.11 390.29 428.74 390.65C428.56 390.83 428.33 391.05 428.07 391.31C427.8 391.55 427.49 391.84 427.15 392.15C426.8 392.47 426.42 392.79 426 393.14C425.58 393.51 425.13 393.85 424.64 394.23C424.4 394.42 424.15 394.6 423.89 394.79C423.63 394.97 423.37 395.16 423.1 395.35C422.55 395.7 421.98 396.1 421.38 396.43C420.18 397.14 418.89 397.79 417.53 398.3C416.17 398.81 414.75 399.2 413.32 399.4C411.88 399.61 410.42 399.63 408.97 399.48C407.53 399.32 406.09 399 404.71 398.48C403.32 397.98 401.98 397.33 400.7 396.53C399.42 395.74 398.21 394.84 397.07 393.86C394.79 391.91 392.84 389.67 391.26 387.58C389.68 385.5 388.49 383.56 387.71 382.19C387.32 381.5 387.04 380.96 386.87 380.61C386.78 380.43 386.72 380.3 386.69 380.23C386.69 380.21 386.67 380.19 386.68 380.18C386.68 380.18 386.68 380.17 386.68 380.17C386.68 380.16 386.67 380.16 386.67 380.15C386.67 380.14 386.66 380.14 386.66 380.14C386.66 380.14 386.64 380.09 386.64 380.08C386.34 379.48 385.98 378.95 385.58 378.51C385.03 377.9 384.42 377.5 383.78 377.28C383.96 377.57 384.13 377.88 384.33 378.1C382.48 376.03 380.55 377.09 379.13 381.77C377.71 386.45 377.01 384.45 374.79 388.99C374.45 389.67 374.21 390.34 374.03 390.98C373.89 394.48 374.65 397.68 376.3 399.48C376.3 399.48 376.3 399.49 376.31 399.49C376.31 399.5 376.32 399.5 376.34 399.53C376.36 399.55 376.38 399.58 376.41 399.61C376.43 399.64 376.45 399.67 376.48 399.7C376.58 399.82 376.72 399.98 376.91 400.17C377.27 400.55 377.78 401.07 378.43 401.68C379.73 402.88 381.59 404.44 383.93 405.96C386.27 407.47 389.09 408.94 392.25 409.94C393.82 410.45 395.49 410.83 397.21 411.05C398.93 411.28 400.71 411.31 402.51 411.17C406.1 410.89 409.79 409.75 413.16 407.91C414.85 406.99 416.46 405.91 417.95 404.74C419.45 403.58 420.83 402.31 422.07 401.07C422.69 400.45 423.27 399.81 423.82 399.21C424.1 398.91 424.36 398.6 424.62 398.3C424.88 398.01 425.12 397.72 425.36 397.42C425.83 396.84 426.28 396.31 426.68 395.78C427.08 395.25 427.45 394.78 427.77 394.33C428.09 393.88 428.38 393.48 428.63 393.13C428.88 392.77 429.08 392.46 429.25 392.22C429.59 391.72 429.77 391.46 429.77 391.46C429.97 391.17 430.06 390.71 429.99 390.36C429.89 389.94 429.6 389.82 429.33 390.08Z" id="k3qOrSro1W"></path><path d="M374.55 379.28C374.37 379.2 374.18 379.11 373.98 379.07C373.78 379.02 373.57 378.95 373.36 378.94C373.14 378.91 372.93 378.88 372.71 378.89C372.59 378.89 372.48 378.9 372.37 378.9C372.26 378.92 372.14 378.93 372.03 378.95C371.8 378.97 371.57 379.05 371.34 379.11C371.22 379.13 371.11 379.19 370.99 379.24C370.87 379.29 370.76 379.32 370.64 379.38C370.18 379.6 369.72 379.88 369.28 380.21C369.17 380.28 369.06 380.37 368.96 380.46C368.85 380.55 368.74 380.64 368.64 380.73C368.43 380.93 368.22 381.11 368.02 381.31C367.62 381.71 367.25 382.14 366.9 382.56C366.56 382.99 366.24 383.41 365.95 383.82C365.66 384.23 365.4 384.61 365.18 384.97C364.95 385.31 364.77 385.63 364.61 385.9C364.46 386.16 364.34 386.38 364.26 386.52C364.23 386.58 364.21 386.63 364.19 386.66C364.21 386.63 364.23 386.58 364.27 386.53C364.34 386.38 364.46 386.17 364.62 385.91C364.77 385.65 364.96 385.33 365.19 384.99C365.42 384.64 365.68 384.27 365.97 383.88C366.26 383.49 366.59 383.09 366.94 382.69C367.3 382.31 367.68 381.92 368.08 381.58C368.48 381.23 368.9 380.94 369.33 380.69C369.44 380.63 369.54 380.57 369.65 380.51C369.76 380.46 369.87 380.42 369.98 380.38C370.2 380.27 370.41 380.23 370.63 380.16C371.06 380.07 371.48 380.04 371.88 380.1C371.98 380.11 372.08 380.13 372.18 380.14C372.27 380.17 372.37 380.2 372.46 380.23C372.65 380.28 372.83 380.38 373 380.47C373.17 380.54 373.33 380.68 373.49 380.79C373.64 380.89 373.78 381.04 373.92 381.17C373.99 381.24 374.06 381.31 374.13 381.37C374.19 381.45 374.25 381.52 374.31 381.6C374.98 382.56 374.55 384.04 374.39 385.06C374.24 386.03 373.81 386.9 373.55 387.81C372.58 391.23 373.01 395.4 374.29 397.47C374.22 397.3 373.08 394.52 374.03 390.98C374.21 390.34 374.45 389.67 374.79 388.99C377 384.46 377.71 386.45 379.13 381.77C379.23 381.46 379.32 381.16 379.42 380.88C379.42 379.57 379.46 378.23 379.56 376.87C378.6 377.74 377.69 379.15 376.67 379.58C375.7 379.99 375.78 379.66 374.83 379.39C374.74 379.35 374.65 379.31 374.55 379.28Z" id="a2VghujTql"></path><path d="M374.04 390.98C373.89 394.48 374.65 397.68 376.3 399.48C376.3 399.48 376.3 399.49 376.31 399.49C376.31 399.5 376.32 399.5 376.34 399.53C376.36 399.55 376.38 399.58 376.41 399.61C376.43 399.64 376.45 399.67 376.48 399.7C376.58 399.82 376.72 399.98 376.91 400.17C377.27 400.55 377.78 401.07 378.43 401.68C379.73 402.88 381.59 404.44 383.93 405.95C384.33 406.21 384.74 406.46 385.16 406.71C382.75 402.3 380.98 396.68 380.13 390.08C379.7 387.02 379.43 384 379.43 380.88C379.33 381.16 379.23 381.45 379.13 381.77C377.71 386.45 377 384.45 374.79 388.98C374.46 389.67 374.21 390.34 374.04 390.98Z" id="c1oKP9awon"></path><path d="M273.68 311.06C273.76 310.76 273.93 310.46 274.08 310.14C274.19 309.9 274.3 309.65 274.35 309.41C274.6 308.09 274.08 307.11 272.65 306.54C271.37 306.02 269.35 306.11 268.31 305.4C267.44 304.8 267.76 304.69 267.47 303.74C267.46 303.65 267.44 303.55 267.42 303.45C267.38 303.25 267.36 303.05 267.28 302.86C267.22 302.66 267.17 302.45 267.06 302.26C266.97 302.07 266.88 301.87 266.75 301.69C266.69 301.6 266.63 301.5 266.56 301.41C266.49 301.32 266.41 301.24 266.34 301.15C266.2 300.97 266.01 300.81 265.83 300.65C265.75 300.57 265.63 300.5 265.53 300.43C265.43 300.36 265.34 300.28 265.23 300.21C264.79 299.94 264.31 299.71 263.8 299.51C263.67 299.46 263.54 299.42 263.41 299.38C263.27 299.34 263.14 299.29 263.01 299.25C262.73 299.18 262.46 299.11 262.18 299.05C261.64 298.92 261.07 298.84 260.53 298.78C259.98 298.71 259.46 298.67 258.96 298.65C258.46 298.63 257.99 298.62 257.58 298.62C257.16 298.62 256.79 298.63 256.49 298.65C256.18 298.66 255.94 298.68 255.77 298.69C255.7 298.69 255.65 298.7 255.61 298.7C255.65 298.7 255.7 298.7 255.77 298.69C255.93 298.68 256.18 298.67 256.48 298.66C256.78 298.65 257.15 298.64 257.56 298.64C257.98 298.64 258.43 298.66 258.92 298.7C259.41 298.74 259.92 298.8 260.44 298.88C260.95 298.98 261.48 299.09 261.99 299.24C262.5 299.39 262.97 299.59 263.41 299.82C263.52 299.87 263.63 299.93 263.74 299.99C263.84 300.05 263.93 300.13 264.03 300.19C264.23 300.32 264.39 300.48 264.56 300.62C264.87 300.93 265.12 301.27 265.29 301.64C265.33 301.73 265.37 301.82 265.41 301.92C265.44 302.01 265.46 302.11 265.49 302.2C265.55 302.39 265.56 302.59 265.58 302.78C265.61 302.97 265.58 303.18 265.57 303.37C265.57 303.55 265.52 303.75 265.48 303.94C265.46 304.04 265.44 304.13 265.43 304.22C265.39 304.32 265.37 304.41 265.33 304.5C264.88 305.58 263.41 306.01 262.45 306.43C261.56 306.82 260.6 306.94 259.69 307.21C256.29 308.23 253.01 310.84 251.96 313.03C252.06 312.89 253.79 310.42 257.28 309.33C257.91 309.13 258.61 308.97 259.37 308.88C264.38 308.31 263.08 309.98 267.79 308.65C272.49 307.33 274.42 308.38 273.68 311.06Z" id="d1v9NVlYnq"></path><path d="M287.83 355.42C287.83 355.42 287.81 355.41 287.81 355.41C287.81 355.41 287.54 355.35 287.04 355.23C286.79 355.17 286.48 355.1 286.12 355.02C285.77 354.92 285.37 354.81 284.92 354.69C284.46 354.58 283.98 354.42 283.46 354.26C282.93 354.11 282.4 353.91 281.82 353.71C281.53 353.61 281.24 353.49 280.94 353.37C280.65 353.25 280.34 353.13 280.04 353.01C279.44 352.73 278.81 352.46 278.2 352.14C276.96 351.51 275.71 350.78 274.55 349.91C273.39 349.04 272.3 348.05 271.35 346.95C270.4 345.85 269.6 344.63 268.95 343.33C268.31 342.03 267.81 340.65 267.49 339.21C267.17 337.77 267 336.28 266.98 334.78C266.95 333.28 267.05 331.77 267.27 330.28C267.69 327.31 268.52 324.45 269.43 322C270.33 319.55 271.32 317.5 272.06 316.11C272.43 315.41 272.73 314.88 272.94 314.54C273.04 314.38 273.12 314.25 273.16 314.19C273.17 314.18 273.18 314.15 273.19 314.15C273.19 314.15 273.2 314.15 273.2 314.15C273.2 314.14 273.21 314.13 273.21 314.13C273.22 314.12 273.22 314.12 273.22 314.12C273.22 314.12 273.25 314.07 273.25 314.06C273.6 313.49 273.85 312.91 274.01 312.32C274.22 311.54 274.24 310.8 274.08 310.14C273.93 310.46 273.76 310.76 273.68 311.06C274.42 308.38 272.49 307.33 267.79 308.65C263.08 309.98 264.38 308.31 259.37 308.88C258.61 308.97 257.92 309.13 257.28 309.32C254.26 311.08 251.97 313.45 251.34 315.81C251.34 315.81 251.34 315.82 251.34 315.83C251.34 315.83 251.33 315.84 251.32 315.87C251.31 315.9 251.3 315.93 251.29 315.97C251.28 316 251.27 316.04 251.25 316.08C251.21 316.23 251.15 316.44 251.09 316.7C250.96 317.2 250.8 317.91 250.64 318.79C250.33 320.53 250.02 322.94 250 325.73C249.98 328.52 250.26 331.68 251.12 334.88C251.54 336.48 252.13 338.09 252.86 339.66C253.6 341.23 254.53 342.75 255.62 344.19C257.79 347.07 260.74 349.55 264.11 351.41C265.79 352.33 267.57 353.11 269.36 353.74C271.14 354.37 272.95 354.85 274.67 355.22C275.52 355.41 276.38 355.55 277.18 355.7C277.58 355.76 277.99 355.82 278.37 355.88C278.76 355.94 279.13 355.99 279.51 356.03C280.26 356.12 280.95 356.2 281.61 356.25C282.27 356.31 282.86 356.37 283.42 356.39C283.97 356.42 284.46 356.45 284.89 356.47C285.33 356.48 285.7 356.5 286 356.51C286.6 356.52 286.92 356.53 286.92 356.53C287.27 356.54 287.7 356.38 287.96 356.12C288.26 355.82 288.2 355.5 287.83 355.42Z" id="bc6efkuVC"></path><path d="M267.42 303.45C267.38 303.25 267.36 303.05 267.28 302.86C267.22 302.66 267.17 302.45 267.06 302.26C266.97 302.07 266.88 301.87 266.75 301.69C266.69 301.6 266.63 301.5 266.56 301.41C266.49 301.32 266.41 301.24 266.34 301.15C266.2 300.97 266.01 300.81 265.83 300.65C265.75 300.57 265.63 300.5 265.53 300.43C265.43 300.36 265.34 300.28 265.23 300.21C264.79 299.94 264.31 299.71 263.8 299.51C263.67 299.46 263.54 299.42 263.41 299.38C263.27 299.34 263.14 299.29 263.01 299.25C262.73 299.18 262.46 299.11 262.18 299.05C261.64 298.92 261.07 298.84 260.53 298.78C259.98 298.71 259.46 298.67 258.96 298.65C258.46 298.63 257.99 298.62 257.58 298.62C257.16 298.62 256.79 298.63 256.49 298.65C256.18 298.66 255.94 298.68 255.77 298.69C255.7 298.69 255.65 298.7 255.61 298.7C255.65 298.7 255.7 298.7 255.77 298.69C255.93 298.68 256.18 298.67 256.48 298.66C256.78 298.65 257.15 298.64 257.56 298.64C257.98 298.64 258.43 298.66 258.92 298.7C259.41 298.74 259.92 298.8 260.44 298.88C260.95 298.98 261.48 299.09 261.99 299.24C262.5 299.39 262.97 299.59 263.41 299.82C263.52 299.87 263.63 299.93 263.74 299.99C263.84 300.05 263.93 300.13 264.03 300.19C264.23 300.32 264.39 300.48 264.56 300.62C264.87 300.93 265.12 301.27 265.29 301.64C265.33 301.73 265.37 301.82 265.41 301.92C265.44 302.01 265.46 302.11 265.49 302.2C265.55 302.39 265.56 302.59 265.58 302.78C265.61 302.97 265.58 303.18 265.57 303.37C265.57 303.55 265.52 303.75 265.48 303.94C265.46 304.04 265.44 304.13 265.43 304.22C265.39 304.32 265.37 304.41 265.33 304.5C264.88 305.58 263.41 306.01 262.45 306.43C261.56 306.82 260.6 306.94 259.69 307.21C256.29 308.23 253.01 310.84 251.96 313.03C252.06 312.89 253.79 310.42 257.28 309.33C257.91 309.13 258.61 308.97 259.37 308.88C264.38 308.31 263.08 309.98 267.78 308.65C268.1 308.57 268.4 308.49 268.69 308.42C269.8 307.71 270.95 307.03 272.15 306.37C270.89 306.03 269.22 306.02 268.31 305.4C267.44 304.8 267.76 304.69 267.47 303.74C267.46 303.65 267.44 303.55 267.42 303.45Z" id="d2cDz9mpGU"></path><path d="M257.28 309.32C254.26 311.08 251.98 313.45 251.34 315.81C251.34 315.81 251.34 315.82 251.34 315.82C251.34 315.83 251.34 315.84 251.32 315.87C251.31 315.9 251.3 315.93 251.29 315.97C251.28 316 251.27 316.04 251.26 316.08C251.21 316.23 251.15 316.44 251.09 316.7C250.96 317.2 250.8 317.91 250.64 318.79C250.33 320.53 250.02 322.94 250 325.73C250 326.2 250.01 326.68 250.02 327.17C252.44 322.76 256.23 318.24 261.33 313.97C263.67 311.97 266.07 310.11 268.7 308.42C268.41 308.49 268.1 308.56 267.79 308.65C263.08 309.98 264.38 308.31 259.37 308.88C258.61 308.97 257.92 309.12 257.28 309.32Z" id="a2SHpoEXFJ"></path><path d="M172.21 392.83C172.49 392.73 172.84 392.68 173.18 392.62C173.45 392.58 173.71 392.52 173.93 392.42C175.16 391.86 175.65 390.87 175.29 389.37C174.97 388.03 173.72 386.43 173.7 385.17C173.68 384.12 173.96 384.31 174.57 383.53C174.63 383.46 174.7 383.39 174.77 383.32C174.91 383.17 175.06 383.03 175.18 382.86C175.3 382.7 175.44 382.54 175.53 382.34C175.64 382.15 175.75 381.97 175.82 381.75C175.86 381.65 175.9 381.54 175.94 381.44C175.97 381.33 175.99 381.21 176.02 381.1C176.09 380.88 176.1 380.64 176.13 380.4C176.15 380.28 176.14 380.15 176.14 380.03C176.14 379.9 176.15 379.78 176.14 379.65C176.11 379.14 176.02 378.62 175.88 378.09C175.85 377.95 175.81 377.82 175.76 377.69C175.72 377.55 175.68 377.42 175.63 377.29C175.53 377.02 175.44 376.76 175.32 376.5C175.11 375.98 174.84 375.47 174.58 375C174.32 374.52 174.05 374.06 173.78 373.64C173.5 373.22 173.24 372.84 173 372.5C172.76 372.16 172.53 371.87 172.35 371.63C172.16 371.38 172 371.19 171.9 371.07C171.85 371.02 171.82 370.98 171.79 370.95C171.82 370.98 171.85 371.02 171.89 371.07C172 371.2 172.15 371.39 172.34 371.63C172.52 371.87 172.74 372.16 172.97 372.5C173.21 372.84 173.46 373.22 173.71 373.64C173.96 374.06 174.21 374.51 174.45 374.98C174.67 375.46 174.89 375.95 175.05 376.45C175.23 376.95 175.34 377.46 175.41 377.95C175.43 378.07 175.44 378.19 175.46 378.31C175.46 378.43 175.46 378.55 175.46 378.67C175.48 378.91 175.44 379.12 175.42 379.35C175.35 379.78 175.22 380.19 175.01 380.53C174.96 380.62 174.91 380.71 174.86 380.79C174.8 380.87 174.73 380.95 174.67 381.02C174.55 381.18 174.4 381.31 174.25 381.43C174.11 381.57 173.93 381.66 173.77 381.77C173.62 381.88 173.43 381.95 173.25 382.03C173.16 382.07 173.07 382.11 172.99 382.14C172.89 382.17 172.8 382.2 172.71 382.23C171.56 382.49 170.36 381.54 169.47 381C168.63 380.5 167.98 379.79 167.23 379.2C164.43 377.02 160.39 375.87 158 376.28C158.17 376.28 161.19 376.26 164.11 378.46C164.64 378.87 165.17 379.34 165.68 379.91C169.06 383.66 166.94 383.57 170.75 386.64C174.56 389.7 174.82 391.89 172.21 392.83Z" id="jrKroLgwL"></path><path d="M144.28 430.09C144.28 430.09 144.27 430.06 144.27 430.06C144.27 430.06 144.17 429.81 143.97 429.33C143.87 429.1 143.75 428.8 143.61 428.46C143.49 428.12 143.34 427.73 143.18 427.29C143.01 426.85 142.86 426.38 142.68 425.86C142.5 425.34 142.36 424.78 142.18 424.19C142.1 423.9 142.02 423.6 141.95 423.29C141.88 422.98 141.8 422.66 141.72 422.34C141.6 421.7 141.45 421.02 141.36 420.34C141.16 418.97 141.03 417.52 141.07 416.07C141.1 414.62 141.27 413.17 141.62 411.75C141.97 410.34 142.49 408.98 143.17 407.7C143.86 406.41 144.7 405.21 145.69 404.11C146.68 403.02 147.78 402.02 149 401.13C150.21 400.24 151.49 399.44 152.83 398.76C155.49 397.38 158.3 396.39 160.83 395.71C163.35 395.03 165.6 394.64 167.15 394.44C167.94 394.33 168.54 394.27 168.94 394.25C169.13 394.23 169.28 394.22 169.36 394.22C169.37 394.22 169.4 394.22 169.4 394.23C169.4 394.23 169.41 394.23 169.41 394.23C169.42 394.23 169.43 394.23 169.43 394.23C169.44 394.23 169.44 394.23 169.44 394.23C169.45 394.23 169.51 394.23 169.51 394.23C170.18 394.17 170.8 394.05 171.37 393.84C172.13 393.55 172.74 393.14 173.18 392.62C172.84 392.68 172.49 392.73 172.21 392.83C174.82 391.89 174.56 389.7 170.75 386.63C166.94 383.57 169.05 383.66 165.68 379.91C165.17 379.35 164.64 378.87 164.11 378.47C160.92 377.02 157.67 376.54 155.38 377.39C155.38 377.39 155.37 377.39 155.37 377.4C155.36 377.4 155.35 377.4 155.32 377.41C155.29 377.42 155.26 377.43 155.22 377.44C155.19 377.45 155.15 377.46 155.11 377.48C154.96 377.53 154.76 377.6 154.51 377.69C154.02 377.89 153.35 378.17 152.55 378.54C150.95 379.3 148.8 380.45 146.52 382.05C144.24 383.65 141.83 385.71 139.72 388.27C138.66 389.54 137.69 390.95 136.84 392.46C135.98 393.97 135.28 395.61 134.74 397.33C133.66 400.77 133.34 404.61 133.79 408.43C134.01 410.34 134.41 412.24 134.93 414.06C135.45 415.88 136.11 417.63 136.81 419.25C137.14 420.05 137.52 420.84 137.87 421.57C138.05 421.94 138.24 422.3 138.42 422.65C138.59 423 138.77 423.33 138.95 423.66C139.32 424.32 139.65 424.93 139.99 425.5C140.33 426.07 140.62 426.59 140.93 427.06C141.22 427.52 141.49 427.94 141.71 428.3C141.96 428.67 142.16 428.97 142.33 429.22C142.66 429.72 142.84 429.99 142.84 429.99C143.03 430.28 143.42 430.54 143.78 430.6C144.2 430.67 144.43 430.44 144.28 430.09Z" id="f1632ScssX"></path><path d="M174.77 383.32C174.91 383.17 175.06 383.03 175.18 382.86C175.3 382.7 175.44 382.54 175.53 382.34C175.64 382.15 175.75 381.97 175.82 381.75C175.86 381.65 175.9 381.54 175.94 381.44C175.97 381.33 175.99 381.21 176.02 381.1C176.09 380.88 176.1 380.64 176.13 380.4C176.15 380.28 176.14 380.15 176.14 380.03C176.14 379.9 176.15 379.78 176.14 379.65C176.11 379.14 176.02 378.62 175.88 378.09C175.85 377.95 175.81 377.82 175.76 377.69C175.72 377.55 175.68 377.42 175.63 377.29C175.53 377.02 175.44 376.76 175.32 376.5C175.11 375.98 174.84 375.47 174.58 375C174.32 374.52 174.05 374.06 173.78 373.64C173.5 373.22 173.24 372.84 173 372.5C172.76 372.16 172.53 371.87 172.35 371.63C172.16 371.38 172 371.19 171.9 371.07C171.85 371.02 171.82 370.98 171.79 370.95C171.82 370.98 171.85 371.02 171.89 371.07C172 371.2 172.15 371.39 172.34 371.63C172.52 371.87 172.74 372.16 172.97 372.5C173.21 372.84 173.46 373.22 173.71 373.64C173.96 374.06 174.21 374.51 174.45 374.98C174.67 375.46 174.89 375.95 175.05 376.45C175.23 376.95 175.34 377.46 175.41 377.95C175.43 378.07 175.44 378.19 175.46 378.31C175.46 378.43 175.46 378.55 175.46 378.67C175.48 378.91 175.44 379.12 175.42 379.35C175.35 379.78 175.22 380.19 175.01 380.53C174.96 380.62 174.91 380.71 174.86 380.79C174.8 380.87 174.73 380.95 174.67 381.02C174.55 381.18 174.4 381.31 174.25 381.43C174.11 381.57 173.93 381.66 173.77 381.77C173.62 381.88 173.43 381.95 173.25 382.03C173.16 382.07 173.07 382.11 172.99 382.14C172.89 382.17 172.8 382.2 172.71 382.23C171.56 382.49 170.36 381.54 169.47 381C168.63 380.5 167.98 379.79 167.23 379.2C164.43 377.02 160.39 375.87 158 376.28C158.17 376.28 161.19 376.26 164.11 378.46C164.64 378.87 165.17 379.34 165.68 379.91C169.05 383.66 166.94 383.57 170.75 386.63C171 386.84 171.24 387.04 171.46 387.24C172.69 387.73 173.91 388.27 175.14 388.87C174.68 387.64 173.72 386.28 173.7 385.17C173.68 384.12 173.96 384.31 174.57 383.53C174.63 383.46 174.7 383.39 174.77 383.32Z" id="j3YDnF4XnS"></path><path d="M164.11 378.47C160.92 377.02 157.67 376.54 155.38 377.39C155.38 377.39 155.37 377.39 155.37 377.4C155.36 377.4 155.35 377.4 155.32 377.41C155.29 377.42 155.26 377.43 155.22 377.44C155.19 377.45 155.15 377.46 155.11 377.48C154.96 377.53 154.76 377.6 154.51 377.69C154.02 377.89 153.35 378.17 152.55 378.54C150.95 379.3 148.8 380.45 146.52 382.05C146.14 382.32 145.75 382.61 145.36 382.9C150.36 382.32 156.23 382.78 162.67 384.46C165.66 385.2 168.57 386.08 171.47 387.24C171.24 387.04 171.01 386.84 170.75 386.64C166.94 383.57 169.06 383.66 165.68 379.91C165.17 379.35 164.64 378.87 164.11 378.47Z" id="b5UxmUTb5e"></path><path d="M345.88 130.16C346.12 130.35 346.34 130.62 346.58 130.88C346.76 131.08 346.95 131.27 347.15 131.4C348.28 132.14 349.38 132.03 350.45 130.93C351.42 129.95 352.11 128.04 353.16 127.35C354.04 126.77 354.03 127.11 355.01 127.21C355.1 127.23 355.2 127.25 355.3 127.27C355.5 127.31 355.7 127.37 355.9 127.37C356.11 127.39 356.32 127.42 356.54 127.4C356.75 127.38 356.97 127.38 357.19 127.32C357.29 127.3 357.4 127.28 357.51 127.26C357.62 127.22 357.73 127.18 357.84 127.15C358.06 127.09 358.28 126.97 358.49 126.87C358.6 126.82 358.71 126.74 358.81 126.68C358.92 126.61 359.03 126.56 359.13 126.48C359.55 126.18 359.95 125.83 360.32 125.42C360.42 125.33 360.51 125.22 360.6 125.11C360.69 125.01 360.78 124.9 360.86 124.79C361.03 124.56 361.21 124.35 361.37 124.11C361.69 123.66 361.98 123.16 362.25 122.68C362.51 122.2 362.75 121.74 362.96 121.28C363.18 120.83 363.36 120.4 363.52 120.01C363.68 119.63 363.81 119.28 363.91 119C364.01 118.71 364.09 118.48 364.14 118.32C364.16 118.25 364.18 118.21 364.19 118.17C364.18 118.2 364.16 118.25 364.14 118.32C364.09 118.47 364.01 118.7 363.9 118.99C363.8 119.27 363.66 119.62 363.5 119.99C363.34 120.38 363.15 120.79 362.93 121.22C362.71 121.66 362.46 122.11 362.19 122.56C361.9 123 361.6 123.45 361.26 123.86C360.93 124.27 360.57 124.63 360.19 124.95C360.1 125.03 360 125.11 359.9 125.19C359.81 125.26 359.71 125.32 359.61 125.38C359.41 125.52 359.21 125.6 359.01 125.71C358.6 125.88 358.19 125.98 357.79 125.99C357.69 126 357.59 126 357.49 126C357.39 125.99 357.29 125.97 357.19 125.96C357 125.95 356.81 125.89 356.62 125.83C356.43 125.78 356.26 125.68 356.08 125.6C355.91 125.53 355.74 125.4 355.58 125.29C355.5 125.24 355.42 125.19 355.35 125.14C355.27 125.07 355.2 125.01 355.13 124.95C354.3 124.11 354.46 122.59 354.44 121.55C354.42 120.57 354.68 119.64 354.77 118.69C355.13 115.16 353.96 111.13 352.34 109.32C352.43 109.47 354.05 112.01 353.74 115.66C353.68 116.32 353.56 117.02 353.35 117.76C351.97 122.61 350.92 120.77 350.35 125.63C349.78 130.49 348.07 131.87 345.88 130.16Z" id="a3vUCdETT"></path><path d="M299.48 126.34C299.48 126.34 299.49 126.32 299.49 126.31C299.49 126.31 299.65 126.09 299.95 125.67C300.1 125.46 300.28 125.21 300.5 124.9C300.72 124.62 300.97 124.29 301.26 123.91C301.54 123.54 301.86 123.16 302.21 122.73C302.56 122.3 302.95 121.88 303.35 121.42C303.56 121.19 303.77 120.97 304 120.74C304.22 120.52 304.44 120.28 304.68 120.05C305.16 119.6 305.65 119.12 306.18 118.68C307.23 117.77 308.39 116.9 309.64 116.16C310.88 115.42 312.21 114.79 313.59 114.33C314.97 113.87 316.4 113.59 317.85 113.49C319.3 113.39 320.77 113.45 322.22 113.71C323.67 113.96 325.11 114.37 326.51 114.92C327.91 115.47 329.26 116.14 330.55 116.91C333.14 118.43 335.47 120.28 337.39 122.06C339.31 123.83 340.83 125.53 341.84 126.74C342.34 127.34 342.71 127.83 342.95 128.14C343.06 128.3 343.14 128.42 343.19 128.49C343.19 128.5 343.21 128.52 343.21 128.53C343.21 128.53 343.21 128.54 343.21 128.54C343.21 128.55 343.22 128.55 343.22 128.56C343.22 128.56 343.23 128.57 343.23 128.57C343.23 128.57 343.26 128.62 343.26 128.62C343.67 129.16 344.11 129.62 344.58 129.98C345.23 130.48 345.91 130.77 346.58 130.87C346.34 130.62 346.12 130.35 345.88 130.16C348.07 131.87 349.78 130.49 350.35 125.63C350.92 120.77 351.97 122.61 353.35 117.76C353.56 117.03 353.68 116.32 353.74 115.66C353.26 112.19 351.94 109.18 350 107.69C350 107.69 350 107.69 349.99 107.69C349.99 107.68 349.98 107.68 349.96 107.66C349.93 107.64 349.91 107.61 349.87 107.59C349.85 107.56 349.82 107.54 349.79 107.51C349.66 107.41 349.5 107.28 349.28 107.12C348.86 106.81 348.27 106.39 347.52 105.91C346.03 104.96 343.91 103.75 341.34 102.68C338.78 101.6 335.74 100.65 332.46 100.22C330.81 100 329.11 99.93 327.38 100.01C325.64 100.1 323.88 100.38 322.14 100.83C318.65 101.74 315.23 103.52 312.23 105.93C310.73 107.13 309.34 108.48 308.07 109.89C306.81 111.31 305.68 112.8 304.68 114.24C304.17 114.95 303.72 115.69 303.28 116.38C303.06 116.73 302.86 117.08 302.66 117.41C302.46 117.75 302.26 118.07 302.08 118.41C301.72 119.07 301.38 119.67 301.08 120.26C300.78 120.85 300.5 121.38 300.26 121.89C300.02 122.38 299.81 122.83 299.62 123.21C299.45 123.61 299.29 123.95 299.17 124.22C298.93 124.77 298.8 125.06 298.8 125.06C298.65 125.38 298.64 125.85 298.78 126.18C298.95 126.58 299.26 126.65 299.48 126.34Z" id="c2gqffEdsL"></path><path d="M355.3 127.27C355.5 127.31 355.7 127.37 355.9 127.37C356.11 127.39 356.32 127.42 356.54 127.4C356.75 127.38 356.97 127.38 357.19 127.32C357.29 127.3 357.4 127.28 357.51 127.26C357.62 127.22 357.73 127.18 357.84 127.15C358.06 127.09 358.28 126.97 358.49 126.87C358.6 126.82 358.71 126.74 358.81 126.68C358.92 126.61 359.03 126.56 359.13 126.48C359.55 126.18 359.95 125.83 360.32 125.42C360.42 125.33 360.51 125.22 360.6 125.11C360.69 125.01 360.78 124.9 360.86 124.79C361.03 124.56 361.21 124.35 361.37 124.11C361.69 123.66 361.98 123.16 362.25 122.68C362.51 122.2 362.75 121.74 362.96 121.28C363.18 120.83 363.36 120.4 363.52 120.01C363.68 119.63 363.81 119.28 363.91 119C364.01 118.71 364.09 118.48 364.14 118.32C364.16 118.25 364.18 118.21 364.19 118.17C364.18 118.2 364.16 118.25 364.14 118.32C364.09 118.47 364.01 118.7 363.9 118.99C363.8 119.27 363.66 119.62 363.5 119.99C363.34 120.38 363.15 120.79 362.93 121.22C362.71 121.66 362.46 122.11 362.19 122.56C361.9 123 361.6 123.45 361.26 123.86C360.93 124.27 360.57 124.63 360.19 124.95C360.1 125.03 360 125.11 359.9 125.19C359.81 125.26 359.71 125.32 359.61 125.38C359.41 125.52 359.21 125.6 359.01 125.71C358.6 125.88 358.19 125.98 357.79 125.99C357.69 126 357.59 126 357.49 126C357.39 125.99 357.29 125.97 357.19 125.96C357 125.95 356.81 125.89 356.62 125.83C356.43 125.78 356.26 125.68 356.08 125.6C355.91 125.53 355.74 125.4 355.58 125.29C355.5 125.24 355.42 125.19 355.35 125.14C355.27 125.07 355.2 125.01 355.13 124.95C354.3 124.11 354.46 122.59 354.44 121.55C354.42 120.57 354.68 119.64 354.77 118.69C355.13 115.16 353.96 111.13 352.34 109.32C352.43 109.47 354.05 112.01 353.74 115.66C353.68 116.32 353.56 117.02 353.35 117.76C351.97 122.61 350.92 120.77 350.35 125.63C350.31 125.95 350.27 126.26 350.22 126.56C350.46 127.85 350.65 129.17 350.8 130.53C351.59 129.5 352.24 127.95 353.16 127.35C354.04 126.77 354.03 127.11 355.01 127.21C355.1 127.23 355.2 127.25 355.3 127.27Z" id="a8HB1viQKI"></path><path d="M353.74 115.66C353.26 112.19 351.94 109.18 350 107.7C350 107.7 350 107.69 349.99 107.69C349.99 107.68 349.98 107.68 349.96 107.66C349.93 107.64 349.91 107.62 349.87 107.59C349.85 107.56 349.82 107.54 349.79 107.51C349.66 107.41 349.5 107.29 349.28 107.12C348.86 106.81 348.27 106.39 347.52 105.91C346.03 104.96 343.91 103.75 341.34 102.68C340.91 102.5 340.46 102.32 340.01 102.15C343.16 106.07 345.89 111.29 347.9 117.63C348.86 120.56 349.66 123.49 350.22 126.56C350.27 126.26 350.31 125.96 350.35 125.63C350.92 120.77 351.97 122.61 353.35 117.76C353.56 117.03 353.68 116.32 353.74 115.66Z" id="arrABaio0"></path></defs><g><g><g><use xlink:href="#a1isGI2Awf" opacity="1" fill="#109d59" fill-opacity="1"></use><g><use xlink:href="#a1isGI2Awf" opacity="1" fill-opacity="0" stroke="#000000" stroke-width="1" stroke-opacity="0"></use></g></g><g><use xlink:href="#a10XcTRZIB" opacity="1" fill="#dc4437" fill-opacity="1"></use><g><use xlink:href="#a10XcTRZIB" opacity="1" fill-opacity="0" stroke="#000000" stroke-width="1" stroke-opacity="0"></use></g></g><g><use xlink:href="#a4wOdv5TD" opacity="1" fill="#0e854c" fill-opacity="1"></use><g><use xlink:href="#a4wOdv5TD" opacity="1" fill-opacity="0" stroke="#000000" stroke-width="1" stroke-opacity="0"></use></g></g><g><use xlink:href="#b1gVJKNEAZ" opacity="1" fill="#c43d31" fill-opacity="1"></use><g><use xlink:href="#b1gVJKNEAZ" opacity="1" fill-opacity="0" stroke="#000000" stroke-width="1" stroke-opacity="0"></use></g></g><g><use xlink:href="#aaqckeHra" opacity="1" fill="#109d59" fill-opacity="1"></use><g><use xlink:href="#aaqckeHra" opacity="1" fill-opacity="0" stroke="#000000" stroke-width="1" stroke-opacity="0"></use></g></g><g><use xlink:href="#a4Yvpb9kQc" opacity="1" fill="#dc4437" fill-opacity="1"></use><g><use xlink:href="#a4Yvpb9kQc" opacity="1" fill-opacity="0" stroke="#000000" stroke-width="1" stroke-opacity="0"></use></g></g><g><use xlink:href="#a17vQwdGn0" opacity="1" fill="#0e854c" fill-opacity="1"></use><g><use xlink:href="#a17vQwdGn0" opacity="1" fill-opacity="0" stroke="#000000" stroke-width="1" stroke-opacity="0"></use></g></g><g><use xlink:href="#bqWwJb45J" opacity="1" fill="#c43d31" fill-opacity="1"></use><g><use xlink:href="#bqWwJb45J" opacity="1" fill-opacity="0" stroke="#000000" stroke-width="1" stroke-opacity="0"></use></g></g><g><use xlink:href="#b1EpfAOju4" opacity="1" fill="#109d59" fill-opacity="1"></use><g><use xlink:href="#b1EpfAOju4" opacity="1" fill-opacity="0" stroke="#000000" stroke-width="1" stroke-opacity="0"></use></g></g><g><use xlink:href="#b5ydJPON4" opacity="1" fill="#dc4437" fill-opacity="1"></use><g><use xlink:href="#b5ydJPON4" opacity="1" fill-opacity="0" stroke="#000000" stroke-width="1" stroke-opacity="0"></use></g></g><g><use xlink:href="#b22LRyAX6m" opacity="1" fill="#0e854c" fill-opacity="1"></use><g><use xlink:href="#b22LRyAX6m" opacity="1" fill-opacity="0" stroke="#000000" stroke-width="1" stroke-opacity="0"></use></g></g><g><use xlink:href="#jru4iA8fZ" opacity="1" fill="#c43d31" fill-opacity="1"></use><g><use xlink:href="#jru4iA8fZ" opacity="1" fill-opacity="0" stroke="#000000" stroke-width="1" stroke-opacity="0"></use></g></g><g><use xlink:href="#b1rlUfZifb" opacity="1" fill="#109d59" fill-opacity="1"></use><g><use xlink:href="#b1rlUfZifb" opacity="1" fill-opacity="0" stroke="#000000" stroke-width="1" stroke-opacity="0"></use></g></g><g><use xlink:href="#c95GV4fwJz" opacity="1" fill="#dc4437" fill-opacity="1"></use><g><use xlink:href="#c95GV4fwJz" opacity="1" fill-opacity="0" stroke="#000000" stroke-width="1" stroke-opacity="0"></use></g></g><g><use xlink:href="#c1Exj8GY4" opacity="1" fill="#0e854c" fill-opacity="1"></use><g><use xlink:href="#c1Exj8GY4" opacity="1" fill-opacity="0" stroke="#000000" stroke-width="1" stroke-opacity="0"></use></g></g><g><use xlink:href="#a1msVnzlK1" opacity="1" fill="#c43d31" fill-opacity="1"></use><g><use xlink:href="#a1msVnzlK1" opacity="1" fill-opacity="0" stroke="#000000" stroke-width="1" stroke-opacity="0"></use></g></g><g><use xlink:href="#a1J7BDb9" opacity="1" fill="#109d59" fill-opacity="1"></use><g><use xlink:href="#a1J7BDb9" opacity="1" fill-opacity="0" stroke="#000000" stroke-width="1" stroke-opacity="0"></use></g></g><g><use xlink:href="#k3qOrSro1W" opacity="1" fill="#dc4437" fill-opacity="1"></use><g><use xlink:href="#k3qOrSro1W" opacity="1" fill-opacity="0" stroke="#000000" stroke-width="1" stroke-opacity="0"></use></g></g><g><use xlink:href="#a2VghujTql" opacity="1" fill="#0e854c" fill-opacity="1"></use><g><use xlink:href="#a2VghujTql" opacity="1" fill-opacity="0" stroke="#000000" stroke-width="1" stroke-opacity="0"></use></g></g><g><use xlink:href="#c1oKP9awon" opacity="1" fill="#c43d31" fill-opacity="1"></use><g><use xlink:href="#c1oKP9awon" opacity="1" fill-opacity="0" stroke="#000000" stroke-width="1" stroke-opacity="0"></use></g></g><g><use xlink:href="#d1v9NVlYnq" opacity="1" fill="#109d59" fill-opacity="1"></use><g><use xlink:href="#d1v9NVlYnq" opacity="1" fill-opacity="0" stroke="#000000" stroke-width="1" stroke-opacity="0"></use></g></g><g><use xlink:href="#bc6efkuVC" opacity="1" fill="#dc4437" fill-opacity="1"></use><g><use xlink:href="#bc6efkuVC" opacity="1" fill-opacity="0" stroke="#000000" stroke-width="1" stroke-opacity="0"></use></g></g><g><use xlink:href="#d2cDz9mpGU" opacity="1" fill="#0e854c" fill-opacity="1"></use><g><use xlink:href="#d2cDz9mpGU" opacity="1" fill-opacity="0" stroke="#000000" stroke-width="1" stroke-opacity="0"></use></g></g><g><use xlink:href="#a2SHpoEXFJ" opacity="1" fill="#c43d31" fill-opacity="1"></use><g><use xlink:href="#a2SHpoEXFJ" opacity="1" fill-opacity="0" stroke="#000000" stroke-width="1" stroke-opacity="0"></use></g></g><g><use xlink:href="#jrKroLgwL" opacity="1" fill="#109d59" fill-opacity="1"></use><g><use xlink:href="#jrKroLgwL" opacity="1" fill-opacity="0" stroke="#000000" stroke-width="1" stroke-opacity="0"></use></g></g><g><use xlink:href="#f1632ScssX" opacity="1" fill="#dc4437" fill-opacity="1"></use><g><use xlink:href="#f1632ScssX" opacity="1" fill-opacity="0" stroke="#000000" stroke-width="1" stroke-opacity="0"></use></g></g><g><use xlink:href="#j3YDnF4XnS" opacity="1" fill="#0e854c" fill-opacity="1"></use><g><use xlink:href="#j3YDnF4XnS" opacity="1" fill-opacity="0" stroke="#000000" stroke-width="1" stroke-opacity="0"></use></g></g><g><use xlink:href="#b5UxmUTb5e" opacity="1" fill="#c43d31" fill-opacity="1"></use><g><use xlink:href="#b5UxmUTb5e" opacity="1" fill-opacity="0" stroke="#000000" stroke-width="1" stroke-opacity="0"></use></g></g><g><use xlink:href="#a3vUCdETT" opacity="1" fill="#109d59" fill-opacity="1"></use><g><use xlink:href="#a3vUCdETT" opacity="1" fill-opacity="0" stroke="#000000" stroke-width="1" stroke-opacity="0"></use></g></g><g><use xlink:href="#c2gqffEdsL" opacity="1" fill="#dc4437" fill-opacity="1"></use><g><use xlink:href="#c2gqffEdsL" opacity="1" fill-opacity="0" stroke="#000000" stroke-width="1" stroke-opacity="0"></use></g></g><g><use xlink:href="#a8HB1viQKI" opacity="1" fill="#0e854c" fill-opacity="1"></use><g><use xlink:href="#a8HB1viQKI" opacity="1" fill-opacity="0" stroke="#000000" stroke-width="1" stroke-opacity="0"></use></g></g><g><use xlink:href="#arrABaio0" opacity="1" fill="#c43d31" fill-opacity="1"></use><g><use xlink:href="#arrABaio0" opacity="1" fill-opacity="0" stroke="#000000" stroke-width="1" stroke-opacity="0"></use></g></g></g></g></svg>