<?xml version="1.0" encoding="UTF-8" standalone="no"?>
<!DOCTYPE svg PUBLIC "-//W3C//DTD SVG 1.1//EN" "http://www.w3.org/Graphics/SVG/1.1/DTD/svg11.dtd">
<svg version="1.1" xmlns="http://www.w3.org/2000/svg" xmlns:xlink="http://www.w3.org/1999/xlink" preserveAspectRatio="xMidYMid meet" viewBox="0 0 500 500" width="500" height="500"><defs><path d="M369.16 212.97C359.8 202.83 360.43 187 370.57 177.64C380.71 168.29 396.54 168.91 405.9 179.05C415.26 189.19 414.62 205.03 404.49 214.38C394.35 223.74 378.52 223.11 369.16 212.97Z" id="b6QYemAJ89"></path><path d="M389.51 181.44C390.08 182.04 390.04 182.99 389.43 183.56C389.21 183.76 389.65 183.35 389.43 183.56C388.82 184.12 387.87 184.08 387.31 183.47C386.52 182.61 385.16 181.14 384.37 180.29C383.81 179.68 383.85 178.73 384.46 178.17C384.68 177.96 384.23 178.37 384.46 178.17C385.06 177.6 386.01 177.64 386.57 178.25C387.37 179.11 388.72 180.58 389.51 181.44Z" id="c1qcvytVq"></path><path d="M387.09 188.99C387.65 189.6 388.6 189.64 389.21 189.08C389.43 188.87 388.99 189.28 389.21 189.08C389.82 188.51 389.86 187.56 389.29 186.96C388.5 186.1 387.15 184.63 386.35 183.77C385.79 183.16 384.84 183.12 384.23 183.69C384.01 183.89 384.45 183.48 384.23 183.69C383.63 184.25 383.59 185.2 384.15 185.81C384.94 186.66 386.3 188.13 387.09 188.99Z" id="b2ogiMLeIb"></path><path d="M399.13 209.34C399.69 209.95 400.64 209.99 401.25 209.42C401.47 209.22 401.03 209.63 401.25 209.42C401.86 208.86 401.9 207.91 401.34 207.3C400.54 206.45 399.19 204.98 398.4 204.12C397.83 203.51 396.89 203.47 396.28 204.03C396.06 204.24 396.5 203.83 396.28 204.03C395.67 204.6 395.63 205.55 396.19 206.15C396.98 207.01 398.34 208.48 399.13 209.34Z" id="bB7l15dgh"></path><path d="M376.64 211.44C377.2 212.05 378.15 212.09 378.76 211.52C378.98 211.32 378.54 211.73 378.76 211.52C379.37 210.96 379.4 210.01 378.84 209.4C378.05 208.55 376.69 207.08 375.9 206.22C375.34 205.61 374.39 205.57 373.78 206.14C373.56 206.34 374 205.93 373.78 206.14C373.17 206.7 373.14 207.65 373.7 208.25C374.49 209.11 375.85 210.58 376.64 211.44Z" id="aViy7JrmX"></path><path d="M101.34 101.32C87.54 101.32 76.34 90.12 76.34 76.32C76.34 62.53 87.54 51.32 101.34 51.32C115.14 51.32 126.34 62.53 126.34 76.32C126.34 90.12 115.14 101.32 101.34 101.32Z" id="b3irEPuzn"></path><path d="M91.98 64.98C92.81 64.98 93.48 65.65 93.48 66.48C93.48 66.78 93.48 66.18 93.48 66.48C93.48 67.31 92.81 67.98 91.98 67.98C90.81 67.98 88.81 67.98 87.65 67.98C86.82 67.98 86.15 67.31 86.15 66.48C86.15 66.18 86.15 66.78 86.15 66.48C86.15 65.65 86.82 64.98 87.65 64.98C88.81 64.98 90.81 64.98 91.98 64.98Z" id="bbr59f5zR"></path><path d="M95.89 71.89C96.71 71.89 97.39 71.21 97.39 70.39C97.39 70.09 97.39 70.69 97.39 70.39C97.39 69.56 96.71 68.89 95.89 68.89C94.72 68.89 92.72 68.89 91.55 68.89C90.72 68.89 90.05 69.56 90.05 70.39C90.05 70.69 90.05 70.09 90.05 70.39C90.05 71.21 90.72 71.89 91.55 71.89C92.72 71.89 94.72 71.89 95.89 71.89Z" id="cHc2vo8vR"></path><path d="M119.01 76.84C119.83 76.84 120.51 76.17 120.51 75.34C120.51 75.04 120.51 75.64 120.51 75.34C120.51 74.51 119.83 73.84 119.01 73.84C117.84 73.84 115.84 73.84 114.67 73.84C113.84 73.84 113.17 74.51 113.17 75.34C113.17 75.64 113.17 75.04 113.17 75.34C113.17 76.17 113.84 76.84 114.67 76.84C115.84 76.84 117.84 76.84 119.01 76.84Z" id="a48rpOqGeY"></path><path d="M105.29 94.79C106.12 94.79 106.79 94.12 106.79 93.29C106.79 92.99 106.79 93.59 106.79 93.29C106.79 92.46 106.12 91.79 105.29 91.79C104.12 91.79 102.13 91.79 100.96 91.79C100.13 91.79 99.46 92.46 99.46 93.29C99.46 93.59 99.46 92.99 99.46 93.29C99.46 94.12 100.13 94.79 100.96 94.79C102.13 94.79 104.12 94.79 105.29 94.79Z" id="b2JFHFpBjc"></path><path d="M163.07 356.34C155.78 368.06 140.35 371.65 128.64 364.36C116.93 357.08 113.32 341.65 120.61 329.93C127.9 318.21 143.33 314.62 155.04 321.91C166.76 329.19 170.36 344.62 163.07 356.34Z" id="bCzErKujx"></path><path d="M127.26 345.1C127.7 344.39 128.62 344.18 129.33 344.61C129.58 344.77 129.07 344.46 129.33 344.61C130.03 345.05 130.25 345.98 129.81 346.68C129.19 347.67 128.14 349.37 127.52 350.36C127.08 351.06 126.16 351.28 125.45 350.84C125.2 350.68 125.71 351 125.45 350.84C124.75 350.4 124.54 349.48 124.97 348.77C125.59 347.78 126.64 346.09 127.26 345.1Z" id="b4ieKrabcQ"></path><path d="M135.19 345.43C135.63 344.72 135.41 343.8 134.71 343.36C134.45 343.2 134.96 343.52 134.71 343.36C134 342.92 133.08 343.14 132.64 343.84C132.03 344.83 130.97 346.53 130.35 347.52C129.92 348.22 130.13 349.15 130.83 349.59C131.09 349.75 130.58 349.43 130.83 349.59C131.54 350.02 132.46 349.81 132.9 349.11C133.52 348.11 134.57 346.42 135.19 345.43Z" id="i4QeFMjno"></path><path d="M151.61 328.41C152.04 327.71 151.83 326.78 151.12 326.34C150.87 326.18 151.38 326.5 151.12 326.34C150.42 325.91 149.5 326.12 149.06 326.82C148.44 327.82 147.39 329.51 146.77 330.5C146.33 331.21 146.55 332.13 147.25 332.57C147.51 332.73 147 332.41 147.25 332.57C147.95 333.01 148.88 332.79 149.32 332.09C149.93 331.1 150.99 329.4 151.61 328.41Z" id="gyrQZmsc2"></path><path d="M159.61 349.54C160.05 348.83 159.83 347.91 159.13 347.47C158.87 347.31 159.38 347.63 159.13 347.47C158.42 347.03 157.5 347.25 157.06 347.95C156.44 348.94 155.39 350.64 154.77 351.63C154.33 352.33 154.55 353.26 155.25 353.7C155.51 353.86 155 353.54 155.25 353.7C155.96 354.13 156.88 353.92 157.32 353.22C157.94 352.22 158.99 350.53 159.61 349.54Z" id="b22R3N3Yw1"></path><path d="M412.35 461.01C405.42 449.07 409.48 433.76 421.41 426.83C433.33 419.9 448.65 423.96 455.58 435.89C462.52 447.82 458.45 463.14 446.53 470.06C434.59 477 419.28 472.94 412.35 461.01Z" id="axqOuXXlf"></path><path d="M439.07 434.65C439.49 435.37 439.25 436.29 438.53 436.7C438.27 436.85 438.79 436.55 438.53 436.7C437.81 437.12 436.89 436.88 436.48 436.16C435.89 435.15 434.89 433.42 434.3 432.41C433.89 431.7 434.13 430.78 434.84 430.36C435.1 430.21 434.59 430.51 434.84 430.36C435.56 429.95 436.48 430.19 436.9 430.91C437.48 431.91 438.49 433.64 439.07 434.65Z" id="ahtd0j4QI"></path><path d="M435.06 441.5C435.48 442.22 436.4 442.46 437.11 442.04C437.37 441.89 436.85 442.19 437.11 442.04C437.83 441.63 438.07 440.71 437.66 439.99C437.07 438.98 436.07 437.25 435.48 436.25C435.06 435.53 434.15 435.29 433.43 435.7C433.17 435.85 433.69 435.55 433.43 435.7C432.71 436.12 432.47 437.04 432.89 437.75C433.47 438.76 434.48 440.49 435.06 441.5Z" id="d7sG9Vk4k"></path><path d="M442.39 463.98C442.81 464.7 443.73 464.94 444.44 464.52C444.7 464.37 444.18 464.67 444.44 464.52C445.16 464.11 445.4 463.19 444.99 462.47C444.4 461.46 443.4 459.73 442.81 458.73C442.39 458.01 441.48 457.77 440.76 458.18C440.5 458.33 441.02 458.03 440.76 458.18C440.04 458.6 439.8 459.52 440.22 460.23C440.8 461.24 441.81 462.97 442.39 463.98Z" id="b369HD6P1"></path><path d="M419.98 461.14C420.4 461.86 421.32 462.1 422.03 461.68C422.29 461.53 421.77 461.83 422.03 461.68C422.75 461.27 422.99 460.35 422.58 459.63C421.99 458.62 420.98 456.89 420.4 455.89C419.98 455.17 419.06 454.93 418.35 455.34C418.09 455.49 418.61 455.19 418.35 455.34C417.63 455.76 417.39 456.68 417.8 457.39C418.39 458.4 419.4 460.13 419.98 461.14Z" id="b5DRAA2Ny"></path><path d="M397.27 92.8C385.73 100.36 370.22 97.13 362.66 85.59C355.1 74.05 358.33 58.54 369.87 50.97C381.42 43.41 396.93 46.65 404.48 58.18C412.05 69.73 408.82 85.23 397.27 92.8Z" id="bdaMff7Qk"></path><path d="M369.52 67.53C370.22 67.07 371.15 67.27 371.6 67.96C371.77 68.21 371.44 67.71 371.6 67.96C372.06 68.65 371.86 69.58 371.17 70.04C370.19 70.68 368.52 71.77 367.54 72.41C366.85 72.87 365.92 72.67 365.47 71.98C365.3 71.73 365.63 72.23 365.47 71.98C365.01 71.29 365.21 70.36 365.9 69.9C366.88 69.26 368.55 68.17 369.52 67.53Z" id="brRa3tZhK"></path><path d="M376.58 71.16C377.27 70.71 377.46 69.78 377.01 69.09C376.84 68.84 377.17 69.34 377.01 69.09C376.56 68.39 375.63 68.2 374.93 68.66C373.96 69.29 372.28 70.39 371.31 71.03C370.61 71.48 370.42 72.41 370.88 73.11C371.04 73.36 370.71 72.86 370.88 73.11C371.33 73.8 372.26 73.99 372.95 73.54C373.93 72.9 375.6 71.8 376.58 71.16Z" id="a2N5SEzgp7"></path><path d="M398.63 62.64C399.32 62.18 399.52 61.25 399.06 60.56C398.9 60.31 399.23 60.81 399.06 60.56C398.61 59.87 397.68 59.67 396.99 60.13C396.01 60.77 394.34 61.86 393.36 62.5C392.67 62.96 392.47 63.89 392.93 64.58C393.09 64.83 392.76 64.33 392.93 64.58C393.38 65.27 394.31 65.47 395.01 65.01C395.98 64.37 397.65 63.28 398.63 62.64Z" id="c1SaupP5Qc"></path><path d="M397 85.17C397.69 84.72 397.88 83.79 397.43 83.09C397.27 82.84 397.59 83.34 397.43 83.09C396.98 82.4 396.05 82.21 395.35 82.66C394.38 83.3 392.7 84.4 391.73 85.04C391.04 85.49 390.84 86.42 391.3 87.11C391.46 87.36 391.13 86.86 391.3 87.11C391.75 87.8 392.68 88 393.37 87.54C394.35 86.91 396.02 85.81 397 85.17Z" id="a1of52ALS1"></path><path d="M171.69 214.87C163.52 203.75 165.92 188.09 177.04 179.92C188.16 171.76 203.82 174.15 211.99 185.28C220.16 196.4 217.75 212.06 206.63 220.22C195.51 228.39 179.85 225.99 171.69 214.87Z" id="b1MTOlipfg"></path><path d="M195.44 185.81C195.93 186.48 195.79 187.42 195.12 187.91C194.88 188.09 195.36 187.73 195.12 187.91C194.45 188.4 193.51 188.25 193.02 187.59C192.33 186.65 191.15 185.03 190.46 184.09C189.97 183.43 190.11 182.49 190.78 182C191.02 181.82 190.54 182.18 190.78 182C191.45 181.51 192.39 181.65 192.88 182.32C193.57 183.26 194.75 184.87 195.44 185.81Z" id="e1QV1AMgiE"></path><path d="M192.19 193.05C192.68 193.72 193.61 193.86 194.28 193.37C194.52 193.19 194.04 193.55 194.28 193.37C194.95 192.88 195.09 191.94 194.6 191.27C193.91 190.33 192.73 188.72 192.04 187.78C191.55 187.11 190.61 186.97 189.94 187.46C189.7 187.64 190.18 187.28 189.94 187.46C189.27 187.95 189.13 188.89 189.62 189.55C190.31 190.5 191.49 192.11 192.19 193.05Z" id="a26IEXVVSY"></path><path d="M201.88 214.61C202.37 215.28 203.31 215.43 203.97 214.94C204.21 214.76 203.73 215.11 203.97 214.94C204.64 214.45 204.78 213.51 204.29 212.84C203.6 211.9 202.42 210.29 201.73 209.35C201.24 208.68 200.3 208.53 199.63 209.03C199.39 209.2 199.87 208.85 199.63 209.03C198.97 209.52 198.82 210.45 199.31 211.12C200 212.06 201.19 213.67 201.88 214.61Z" id="b2qe0YDx6W"></path><path d="M179.29 214.19C179.78 214.85 180.72 215 181.39 214.51C181.63 214.33 181.14 214.69 181.39 214.51C182.05 214.02 182.2 213.08 181.71 212.41C181.02 211.47 179.83 209.86 179.14 208.92C178.65 208.25 177.71 208.11 177.05 208.6C176.8 208.77 177.29 208.42 177.05 208.6C176.38 209.09 176.23 210.03 176.72 210.69C177.41 211.63 178.6 213.25 179.29 214.19Z" id="agqLH9WNi"></path><path d="M300.15 378.92C286.36 378.92 275.15 367.72 275.15 353.92C275.15 340.13 286.36 328.92 300.15 328.92C313.96 328.92 325.15 340.13 325.15 353.92C325.15 367.72 313.96 378.92 300.15 378.92Z" id="acgQdml47"></path><path d="M290.79 342.58C291.62 342.58 292.29 343.25 292.29 344.08C292.29 344.38 292.29 343.78 292.29 344.08C292.29 344.91 291.62 345.58 290.79 345.58C289.63 345.58 287.63 345.58 286.46 345.58C285.63 345.58 284.96 344.91 284.96 344.08C284.96 343.78 284.96 344.38 284.96 344.08C284.96 343.25 285.63 342.58 286.46 342.58C287.63 342.58 289.63 342.58 290.79 342.58Z" id="aAi4PgSI9"></path><path d="M294.7 349.49C295.53 349.49 296.2 348.81 296.2 347.99C296.2 347.69 296.2 348.29 296.2 347.99C296.2 347.16 295.53 346.49 294.7 346.49C293.53 346.49 291.53 346.49 290.36 346.49C289.54 346.49 288.86 347.16 288.86 347.99C288.86 348.29 288.86 347.69 288.86 347.99C288.86 348.81 289.54 349.49 290.36 349.49C291.53 349.49 293.53 349.49 294.7 349.49Z" id="cNPdkHkj"></path><path d="M317.82 354.44C318.65 354.44 319.32 353.77 319.32 352.94C319.32 352.64 319.32 353.24 319.32 352.94C319.32 352.11 318.65 351.44 317.82 351.44C316.65 351.44 314.65 351.44 313.48 351.44C312.66 351.44 311.98 352.11 311.98 352.94C311.98 353.24 311.98 352.64 311.98 352.94C311.98 353.77 312.66 354.44 313.48 354.44C314.65 354.44 316.65 354.44 317.82 354.44Z" id="aal8A8YwRm"></path><path d="M304.1 372.39C304.93 372.39 305.6 371.72 305.6 370.89C305.6 370.59 305.6 371.19 305.6 370.89C305.6 370.06 304.93 369.39 304.1 369.39C302.94 369.39 300.94 369.39 299.77 369.39C298.94 369.39 298.27 370.06 298.27 370.89C298.27 371.19 298.27 370.59 298.27 370.89C298.27 371.72 298.94 372.39 299.77 372.39C300.94 372.39 302.94 372.39 304.1 372.39Z" id="c3UADxCJfv"></path></defs><g><g><g><use xlink:href="#b6QYemAJ89" opacity="1" fill="#8d1717" fill-opacity="1"></use><g><use xlink:href="#b6QYemAJ89" opacity="1" fill-opacity="0" stroke="#000000" stroke-width="1" stroke-opacity="0"></use></g></g><g><use xlink:href="#c1qcvytVq" opacity="1" fill="#ffffff" fill-opacity="0.84"></use></g><g><use xlink:href="#b2ogiMLeIb" opacity="1" fill="#ffffff" fill-opacity="0.84"></use></g><g><use xlink:href="#bB7l15dgh" opacity="1" fill="#ffffff" fill-opacity="0.84"></use></g><g><use xlink:href="#aViy7JrmX" opacity="1" fill="#ffffff" fill-opacity="0.84"></use></g><g><use xlink:href="#b3irEPuzn" opacity="1" fill="#8d1717" fill-opacity="1"></use><g><use xlink:href="#b3irEPuzn" opacity="1" fill-opacity="0" stroke="#000000" stroke-width="1" stroke-opacity="0"></use></g></g><g><use xlink:href="#bbr59f5zR" opacity="1" fill="#ffffff" fill-opacity="0.84"></use></g><g><use xlink:href="#cHc2vo8vR" opacity="1" fill="#ffffff" fill-opacity="0.84"></use></g><g><use xlink:href="#a48rpOqGeY" opacity="1" fill="#ffffff" fill-opacity="0.84"></use></g><g><use xlink:href="#b2JFHFpBjc" opacity="1" fill="#ffffff" fill-opacity="0.84"></use></g><g><use xlink:href="#bCzErKujx" opacity="1" fill="#8d1717" fill-opacity="1"></use><g><use xlink:href="#bCzErKujx" opacity="1" fill-opacity="0" stroke="#000000" stroke-width="1" stroke-opacity="0"></use></g></g><g><use xlink:href="#b4ieKrabcQ" opacity="1" fill="#ffffff" fill-opacity="0.84"></use></g><g><use xlink:href="#i4QeFMjno" opacity="1" fill="#ffffff" fill-opacity="0.84"></use></g><g><use xlink:href="#gyrQZmsc2" opacity="1" fill="#ffffff" fill-opacity="0.84"></use></g><g><use xlink:href="#b22R3N3Yw1" opacity="1" fill="#ffffff" fill-opacity="0.84"></use></g><g><use xlink:href="#axqOuXXlf" opacity="1" fill="#8d1717" fill-opacity="1"></use><g><use xlink:href="#axqOuXXlf" opacity="1" fill-opacity="0" stroke="#000000" stroke-width="1" stroke-opacity="0"></use></g></g><g><use xlink:href="#ahtd0j4QI" opacity="1" fill="#ffffff" fill-opacity="0.84"></use></g><g><use xlink:href="#d7sG9Vk4k" opacity="1" fill="#ffffff" fill-opacity="0.84"></use></g><g><use xlink:href="#b369HD6P1" opacity="1" fill="#ffffff" fill-opacity="0.84"></use></g><g><use xlink:href="#b5DRAA2Ny" opacity="1" fill="#ffffff" fill-opacity="0.84"></use></g><g><use xlink:href="#bdaMff7Qk" opacity="1" fill="#8d1717" fill-opacity="1"></use><g><use xlink:href="#bdaMff7Qk" opacity="1" fill-opacity="0" stroke="#000000" stroke-width="1" stroke-opacity="0"></use></g></g><g><use xlink:href="#brRa3tZhK" opacity="1" fill="#ffffff" fill-opacity="0.84"></use></g><g><use xlink:href="#a2N5SEzgp7" opacity="1" fill="#ffffff" fill-opacity="0.84"></use></g><g><use xlink:href="#c1SaupP5Qc" opacity="1" fill="#ffffff" fill-opacity="0.84"></use></g><g><use xlink:href="#a1of52ALS1" opacity="1" fill="#ffffff" fill-opacity="0.84"></use></g><g><use xlink:href="#b1MTOlipfg" opacity="1" fill="#8d1717" fill-opacity="1"></use><g><use xlink:href="#b1MTOlipfg" opacity="1" fill-opacity="0" stroke="#000000" stroke-width="1" stroke-opacity="0"></use></g></g><g><use xlink:href="#e1QV1AMgiE" opacity="1" fill="#ffffff" fill-opacity="0.84"></use></g><g><use xlink:href="#a26IEXVVSY" opacity="1" fill="#ffffff" fill-opacity="0.84"></use></g><g><use xlink:href="#b2qe0YDx6W" opacity="1" fill="#ffffff" fill-opacity="0.84"></use></g><g><use xlink:href="#agqLH9WNi" opacity="1" fill="#ffffff" fill-opacity="0.84"></use></g><g><use xlink:href="#acgQdml47" opacity="1" fill="#8d1717" fill-opacity="1"></use><g><use xlink:href="#acgQdml47" opacity="1" fill-opacity="0" stroke="#000000" stroke-width="1" stroke-opacity="0"></use></g></g><g><use xlink:href="#aAi4PgSI9" opacity="1" fill="#ffffff" fill-opacity="0.84"></use></g><g><use xlink:href="#cNPdkHkj" opacity="1" fill="#ffffff" fill-opacity="0.84"></use></g><g><use xlink:href="#aal8A8YwRm" opacity="1" fill="#ffffff" fill-opacity="0.84"></use></g><g><use xlink:href="#c3UADxCJfv" opacity="1" fill="#ffffff" fill-opacity="0.84"></use></g></g></g></svg>