<?xml version="1.0" encoding="UTF-8" standalone="no"?>
<!DOCTYPE svg PUBLIC "-//W3C//DTD SVG 1.1//EN" "http://www.w3.org/Graphics/SVG/1.1/DTD/svg11.dtd">
<svg version="1.1" xmlns="http://www.w3.org/2000/svg" xmlns:xlink="http://www.w3.org/1999/xlink" preserveAspectRatio="xMidYMid meet" viewBox="0 0 500 500" width="500" height="500"><defs><path d="M311.77 91.04C311.77 104.84 300.56 116.04 286.77 116.04C272.97 116.04 261.77 104.84 261.77 91.04C261.77 77.25 272.97 66.04 286.77 66.04C300.56 66.04 311.77 77.25 311.77 91.04Z" id="afmqzaJSU"></path><path d="M142.04 161.91C142.04 175.71 130.84 186.91 117.04 186.91C103.24 186.91 92.04 175.71 92.04 161.91C92.04 148.11 103.24 136.91 117.04 136.91C130.84 136.91 142.04 148.11 142.04 161.91Z" id="a6p1nQs7y"></path><path d="M264.65 202.45C264.65 216.25 253.45 227.45 239.65 227.45C225.85 227.45 214.65 216.25 214.65 202.45C214.65 188.66 225.85 177.45 239.65 177.45C253.45 177.45 264.65 188.66 264.65 202.45Z" id="a2eBIxBCDu"></path><path d="M164.62 310.29C164.62 324.09 153.41 335.29 139.62 335.29C125.82 335.29 114.62 324.09 114.62 310.29C114.62 296.49 125.82 285.29 139.62 285.29C153.41 285.29 164.62 296.49 164.62 310.29Z" id="e1sYw5jbAk"></path><path d="M283.34 396.61C283.34 410.4 272.14 421.61 258.34 421.61C244.54 421.61 233.34 410.4 233.34 396.61C233.34 382.81 244.54 371.61 258.34 371.61C272.14 371.61 283.34 382.81 283.34 396.61Z" id="bKbJsPtbi"></path><path d="M383.95 311.43C383.95 325.23 372.75 336.43 358.95 336.43C345.15 336.43 333.95 325.23 333.95 311.43C333.95 297.63 345.15 286.43 358.95 286.43C372.75 286.43 383.95 297.63 383.95 311.43Z" id="d5nRXwdwxm"></path><path d="M412.53 196.01C412.53 209.81 401.33 221.01 387.53 221.01C373.73 221.01 362.53 209.81 362.53 196.01C362.53 182.22 373.73 171.01 387.53 171.01C401.33 171.01 412.53 182.22 412.53 196.01Z" id="a1fpXrC9Qa"></path><path d="M500 250C500 387.98 387.98 500 250 500C112.02 500 0 387.98 0 250C0 112.03 112.02 0 250 0C387.98 0 500 112.03 500 250Z" id="b2i5R4z1S"></path></defs><g><g><g><use xlink:href="#afmqzaJSU" opacity="1" fill="#8d1717" fill-opacity="1"></use></g><g><use xlink:href="#a6p1nQs7y" opacity="1" fill="#8d1717" fill-opacity="1"></use></g><g><use xlink:href="#a2eBIxBCDu" opacity="1" fill="#8d1717" fill-opacity="1"></use></g><g><use xlink:href="#e1sYw5jbAk" opacity="1" fill="#8d1717" fill-opacity="1"></use></g><g><use xlink:href="#bKbJsPtbi" opacity="1" fill="#8d1717" fill-opacity="1"></use></g><g><use xlink:href="#d5nRXwdwxm" opacity="1" fill="#8d1717" fill-opacity="1"></use></g><g><use xlink:href="#a1fpXrC9Qa" opacity="1" fill="#8d1717" fill-opacity="1"></use></g><g><use xlink:href="#b2i5R4z1S" opacity="1" fill="#ffffff" fill-opacity="0"></use><g><use xlink:href="#b2i5R4z1S" opacity="1" fill-opacity="0" stroke="#ffffff" stroke-width="1" stroke-opacity="0"></use></g></g></g></g></svg>