<?xml version="1.0" encoding="UTF-8" standalone="no"?>
<!DOCTYPE svg PUBLIC "-//W3C//DTD SVG 1.1//EN" "http://www.w3.org/Graphics/SVG/1.1/DTD/svg11.dtd">
<svg version="1.1" xmlns="http://www.w3.org/2000/svg" xmlns:xlink="http://www.w3.org/1999/xlink" preserveAspectRatio="xMidYMid meet" viewBox="0 0 500 500" width="500" height="500"><defs><path d="M500 250C500 387.98 387.98 500 250 500C112.02 500 0 387.98 0 250C0 112.02 112.02 0 250 0C387.98 0 500 112.02 500 250Z" id="d553PZRx7"></path><path d="M353.35 152.61C354.36 159.62 349.49 166.13 342.47 167.13C339.93 167.49 345.01 166.77 342.47 167.13C335.46 168.14 328.95 163.26 327.95 156.25C327.31 151.78 327.21 151.08 326.57 146.61C325.56 139.6 330.44 133.1 337.45 132.09C339.99 131.73 334.91 132.45 337.45 132.09C344.47 131.09 350.97 135.96 351.97 142.97C352.61 147.44 352.71 148.14 353.35 152.61Z" id="f1fThBkzCF"></path><path d="M136.44 358.79C141.97 363.23 142.86 371.3 138.42 376.83C136.82 378.83 140.03 374.83 138.42 376.83C133.99 382.36 125.92 383.25 120.39 378.82C116.86 376 116.31 375.56 112.79 372.73C107.26 368.3 106.37 360.23 110.8 354.7C112.41 352.69 109.2 356.7 110.8 354.7C115.23 349.16 123.31 348.27 128.84 352.71C132.36 355.53 132.91 355.97 136.44 358.79Z" id="bn3srLUyt"></path><path d="M395.42 306.28C400.95 310.71 401.84 318.78 397.41 324.31C395.81 326.32 399.02 322.31 397.41 324.31C392.98 329.84 384.9 330.74 379.37 326.3C375.85 323.48 375.3 323.04 371.78 320.22C366.25 315.78 365.36 307.71 369.79 302.18C371.39 300.18 368.18 304.18 369.79 302.18C374.22 296.65 382.3 295.76 387.83 300.19C391.35 303.01 391.9 303.45 395.42 306.28Z" id="a3OtL2fPmI"></path><path d="M187.85 191.33C192.15 185.7 200.21 184.63 205.84 188.93C207.87 190.49 203.8 187.37 205.84 188.93C211.47 193.24 212.54 201.29 208.24 206.92C205.49 210.5 205.06 211.07 202.32 214.65C198.02 220.28 189.96 221.36 184.33 217.05C182.3 215.49 186.37 218.61 184.33 217.05C178.71 212.75 177.63 204.69 181.94 199.06C184.68 195.48 185.11 194.92 187.85 191.33Z" id="fe17lPZ4g"></path><path d="M315.21 416.03C314.37 423.07 307.99 428.09 300.95 427.25C298.4 426.95 303.5 427.56 300.95 427.25C293.91 426.42 288.89 420.03 289.72 413C290.26 408.51 290.34 407.81 290.88 403.33C291.71 396.29 298.1 391.27 305.13 392.1C307.68 392.41 302.59 391.8 305.13 392.1C312.17 392.94 317.2 399.33 316.36 406.36C315.83 410.84 315.74 411.55 315.21 416.03Z" id="e3nB6h5xCZ"></path><path d="M223.08 50.55C229.53 47.61 237.14 50.45 240.08 56.9C241.15 59.23 239.02 54.56 240.08 56.9C243.02 63.35 240.18 70.96 233.73 73.9C229.62 75.77 228.98 76.06 224.87 77.94C218.42 80.88 210.81 78.03 207.87 71.59C206.81 69.25 208.94 73.92 207.87 71.59C204.93 65.14 207.78 57.53 214.22 54.59C218.33 52.71 218.97 52.42 223.08 50.55Z" id="a1jC8ceiM"></path><path d="M437.29 224.82C437.14 231.91 431.28 237.53 424.19 237.39C421.63 237.33 426.76 237.44 424.19 237.39C417.11 237.24 411.48 231.38 411.63 224.29C411.72 219.78 411.74 219.07 411.83 214.56C411.97 207.48 417.84 201.85 424.92 201.99C427.49 202.05 422.36 201.94 424.92 201.99C432.01 202.14 437.63 208 437.49 215.09C437.39 219.6 437.38 220.31 437.29 224.82Z" id="a1oZIozTr"></path><path d="M90.57 190.1C87.09 196.28 79.26 198.46 73.09 194.98C70.85 193.72 75.33 196.24 73.09 194.98C66.91 191.51 64.73 183.68 68.21 177.51C70.42 173.57 70.77 172.96 72.98 169.02C76.46 162.85 84.29 160.66 90.46 164.14C92.7 165.4 88.23 162.88 90.46 164.14C96.64 167.62 98.82 175.45 95.34 181.62C93.13 185.55 92.78 186.17 90.57 190.1Z" id="c15JLqQFjU"></path><path d="M245.19 302.21C250.72 306.64 251.61 314.72 247.18 320.25C245.58 322.25 248.79 318.24 247.18 320.25C242.75 325.78 234.67 326.67 229.14 322.24C225.62 319.41 225.07 318.97 221.55 316.15C216.02 311.72 215.13 303.64 219.56 298.11C221.16 296.11 217.95 300.11 219.56 298.11C223.99 292.58 232.07 291.69 237.6 296.12C241.12 298.94 241.67 299.39 245.19 302.21Z" id="b8AtoXz3cP"></path></defs><g><g><g></g><g><use xlink:href="#f1fThBkzCF" opacity="1" fill="#ffde59" fill-opacity="0.79"></use></g><g><use xlink:href="#bn3srLUyt" opacity="1" fill="#ffde59" fill-opacity="0.79"></use></g><g><use xlink:href="#a3OtL2fPmI" opacity="1" fill="#ffde59" fill-opacity="0.79"></use></g><g><use xlink:href="#fe17lPZ4g" opacity="1" fill="#ffde59" fill-opacity="0.79"></use></g><g><use xlink:href="#e3nB6h5xCZ" opacity="1" fill="#ffde59" fill-opacity="0.79"></use></g><g><use xlink:href="#a1jC8ceiM" opacity="1" fill="#ffde59" fill-opacity="0.79"></use></g><g><use xlink:href="#a1oZIozTr" opacity="1" fill="#ffde59" fill-opacity="0.79"></use></g><g><use xlink:href="#c15JLqQFjU" opacity="1" fill="#ffde59" fill-opacity="0.79"></use></g><g><use xlink:href="#b8AtoXz3cP" opacity="1" fill="#ffde59" fill-opacity="0.79"></use></g></g></g></svg>