<?xml version="1.0" encoding="UTF-8" standalone="no"?>
<!DOCTYPE svg PUBLIC "-//W3C//DTD SVG 1.1//EN" "http://www.w3.org/Graphics/SVG/1.1/DTD/svg11.dtd">
<svg version="1.1" xmlns="http://www.w3.org/2000/svg" xmlns:xlink="http://www.w3.org/1999/xlink" preserveAspectRatio="xMidYMid meet" viewBox="0 0 500 500" width="500" height="500"><defs><path d="M336.91 149.53C338.17 150.42 338.46 152.17 337.57 153.42C336.59 154.79 335.3 156.61 334.32 157.97C333.43 159.23 331.68 159.52 330.43 158.62C323.44 153.64 304.77 140.32 297.78 135.33C296.53 134.44 296.23 132.69 297.13 131.44C298.1 130.07 299.4 128.25 300.38 126.89C301.27 125.63 303.02 125.34 304.27 126.24C311.25 131.22 329.93 144.55 336.91 149.53Z" id="cVzNb77Sf"></path><path d="M162.96 256.75C164.18 257.68 164.42 259.44 163.48 260.66C162.46 261.99 161.11 263.77 160.09 265.1C159.15 266.33 157.4 266.56 156.17 265.62C149.36 260.42 131.13 246.49 124.31 241.28C123.08 240.35 122.85 238.59 123.78 237.37C124.8 236.03 126.16 234.26 127.18 232.93C128.11 231.7 129.86 231.47 131.09 232.4C137.91 237.61 156.14 251.54 162.96 256.75Z" id="d4QlOlMa8u"></path><path d="M261.91 246.76C260.61 245.92 260.24 244.2 261.07 242.9C261.98 241.49 263.19 239.61 264.1 238.2C264.93 236.91 266.66 236.54 267.96 237.37C275.17 242.02 294.45 254.45 301.66 259.1C302.96 259.94 303.33 261.67 302.49 262.96C301.59 264.37 300.38 266.25 299.47 267.66C298.63 268.95 296.9 269.33 295.61 268.49C288.4 263.84 269.11 251.41 261.91 246.76Z" id="a19Is3jwd5"></path><path d="M164.75 386.76C163.21 386.6 162.1 385.23 162.26 383.69C162.44 382.03 162.67 379.8 162.84 378.14C163 376.6 164.38 375.49 165.91 375.65C174.44 376.55 197.26 378.94 205.79 379.83C207.33 379.99 208.44 381.37 208.28 382.9C208.11 384.57 207.87 386.79 207.7 388.46C207.54 389.99 206.16 391.1 204.63 390.94C196.1 390.05 173.28 387.66 164.75 386.76Z" id="gyYgzbsUa"></path><path d="M357.9 351.31C357.24 349.91 357.85 348.25 359.24 347.59C360.76 346.88 362.78 345.93 364.3 345.22C365.7 344.57 367.36 345.17 368.01 346.57C371.66 354.33 381.4 375.1 385.04 382.87C385.7 384.27 385.1 385.93 383.7 386.59C382.18 387.3 380.16 388.25 378.64 388.96C377.25 389.61 375.58 389.01 374.93 387.61C371.28 379.85 361.54 359.08 357.9 351.31Z" id="c3TGKcZsIN"></path><path d="M82.83 288.36C81.7 287.3 81.65 285.54 82.71 284.41C83.86 283.19 85.39 281.57 86.54 280.35C87.59 279.22 89.36 279.17 90.49 280.23C96.73 286.11 113.44 301.83 119.68 307.71C120.81 308.77 120.86 310.54 119.8 311.66C118.65 312.88 117.12 314.51 115.97 315.73C114.92 316.85 113.15 316.9 112.02 315.85C105.78 309.97 89.07 294.24 82.83 288.36Z" id="aziDupKEG"></path><path d="M144.54 126.06C143.21 125.28 142.76 123.57 143.54 122.23C144.39 120.79 145.52 118.86 146.36 117.41C147.14 116.08 148.85 115.63 150.18 116.41C157.59 120.75 177.39 132.33 184.79 136.67C186.13 137.44 186.57 139.16 185.79 140.49C184.95 141.93 183.82 143.86 182.97 145.31C182.19 146.64 180.48 147.09 179.15 146.31C171.75 141.98 151.95 130.39 144.54 126.06Z" id="a1SzBQVQQ"></path><path d="M384.55 173.46C383.01 173.3 381.9 171.93 382.06 170.39C382.24 168.72 382.47 166.5 382.64 164.84C382.8 163.3 384.18 162.19 385.71 162.35C394.24 163.24 417.06 165.63 425.59 166.53C427.13 166.69 428.24 168.06 428.08 169.6C427.91 171.26 427.67 173.49 427.5 175.15C427.34 176.69 425.96 177.8 424.43 177.64C415.9 176.75 393.08 174.35 384.55 173.46Z" id="a58okzHjdq"></path><path d="M442.48 274.6C444.02 274.66 445.23 275.96 445.17 277.5C445.11 279.17 445.03 281.4 444.97 283.08C444.91 284.62 443.62 285.83 442.08 285.77C433.51 285.46 410.58 284.64 402.01 284.33C400.46 284.27 399.26 282.98 399.31 281.44C399.37 279.76 399.45 277.53 399.52 275.85C399.57 274.31 400.87 273.11 402.41 273.16C410.98 273.47 433.91 274.3 442.48 274.6Z" id="j1BBZ9ifi4"></path><path d="M278.72 98.09C277.73 99.27 275.97 99.43 274.78 98.44C273.5 97.37 271.78 95.93 270.49 94.86C269.31 93.87 269.15 92.11 270.14 90.92C275.64 84.34 290.35 66.74 295.85 60.15C296.84 58.97 298.6 58.81 299.79 59.8C301.07 60.88 302.79 62.31 304.08 63.38C305.26 64.37 305.42 66.13 304.43 67.32C298.93 73.9 284.22 91.51 278.72 98.09Z" id="at5uk8gB"></path><path d="M78.34 224.94C78.53 226.47 77.45 227.86 75.92 228.06C74.26 228.27 72.04 228.55 70.38 228.76C68.85 228.96 67.45 227.88 67.26 226.35C66.17 217.84 63.27 195.08 62.19 186.57C62 185.04 63.08 183.64 64.61 183.44C66.27 183.23 68.49 182.95 70.15 182.74C71.68 182.54 73.08 183.63 73.27 185.16C74.36 193.67 77.26 216.43 78.34 224.94Z" id="b3OmCNO1TX"></path><path d="M270.07 401.07C268.72 400.32 268.24 398.62 268.99 397.27C269.8 395.81 270.89 393.86 271.71 392.39C272.46 391.04 274.16 390.56 275.5 391.31C283 395.48 303.04 406.65 310.54 410.82C311.89 411.57 312.37 413.27 311.62 414.62C310.8 416.08 309.72 418.03 308.9 419.5C308.15 420.85 306.45 421.33 305.1 420.58C297.61 416.41 277.56 405.25 270.07 401.07Z" id="dMGQ9wbRe"></path><path d="M243.68 353.92C243.84 355.46 242.72 356.83 241.18 356.98C239.51 357.15 237.29 357.37 235.62 357.54C234.09 357.69 232.72 356.57 232.56 355.03C231.71 346.5 229.43 323.67 228.57 315.13C228.42 313.6 229.54 312.23 231.08 312.08C232.74 311.91 234.97 311.69 236.63 311.52C238.17 311.37 239.54 312.49 239.69 314.02C240.54 322.56 242.83 345.39 243.68 353.92Z" id="c1lzoqG61"></path><path d="M394.29 86.1C395.77 85.69 397.31 86.56 397.72 88.05C398.17 89.66 398.76 91.82 399.21 93.43C399.62 94.92 398.75 96.46 397.26 96.87C388.99 99.15 366.88 105.26 358.61 107.54C357.12 107.95 355.58 107.08 355.17 105.6C354.73 103.98 354.13 101.83 353.69 100.21C353.28 98.72 354.15 97.19 355.64 96.77C363.9 94.49 386.02 88.38 394.29 86.1Z" id="agHtx0hv3"></path><path d="M394.7 203.4C396.21 203.06 397.7 204.01 398.04 205.52C398.4 207.16 398.88 209.34 399.25 210.97C399.58 212.48 398.63 213.97 397.12 214.31C388.75 216.16 366.35 221.13 357.98 222.99C356.47 223.33 354.98 222.38 354.64 220.87C354.28 219.23 353.8 217.05 353.43 215.42C353.1 213.91 354.05 212.42 355.56 212.08C363.93 210.23 386.33 205.26 394.7 203.4Z" id="b1HKVCXR6Y"></path><path d="M218.07 105.44C217.33 104.08 215.64 103.58 214.28 104.32C212.81 105.12 210.85 106.19 209.37 106.99C208.02 107.72 207.52 109.42 208.25 110.78C212.35 118.31 223.32 138.47 227.42 146C228.15 147.36 229.85 147.86 231.21 147.12C232.68 146.32 234.64 145.25 236.11 144.45C237.47 143.71 237.97 142.02 237.23 140.66C233.13 133.13 222.17 112.97 218.07 105.44Z" id="ap1KwmYkV"></path><path d="M125.24 70.62C125.97 69.26 127.67 68.76 129.02 69.5C130.5 70.3 132.46 71.37 133.93 72.17C135.29 72.91 135.79 74.6 135.05 75.96C130.95 83.49 119.99 103.65 115.89 111.18C115.15 112.54 113.45 113.04 112.1 112.3C110.63 111.5 108.66 110.43 107.19 109.63C105.84 108.9 105.34 107.2 106.07 105.84C110.17 98.31 121.14 78.16 125.24 70.62Z" id="a3XpxZ0lR"></path><path d="M275.39 316.4C273.96 316.98 272.33 316.29 271.76 314.85C271.13 313.3 270.3 311.23 269.68 309.67C269.1 308.24 269.79 306.61 271.23 306.04C279.19 302.84 300.47 294.28 308.43 291.08C309.86 290.51 311.49 291.2 312.07 292.63C312.69 294.19 313.52 296.26 314.15 297.82C314.72 299.25 314.03 300.88 312.6 301.45C304.64 304.65 283.35 313.21 275.39 316.4Z" id="aIhBfeGHL"></path><path d="M100.68 354.79C99.39 353.96 99.01 352.23 99.85 350.93C100.76 349.52 101.97 347.65 102.88 346.24C103.71 344.94 105.44 344.57 106.74 345.4C113.95 350.05 133.23 362.49 140.44 367.14C141.74 367.97 142.11 369.7 141.27 371C140.36 372.4 139.15 374.28 138.25 375.69C137.41 376.99 135.68 377.36 134.38 376.52C127.17 371.88 107.89 359.44 100.68 354.79Z" id="a4OyX5RDwQ"></path><path d="M412.62 328.2C411.33 329.04 410.95 330.77 411.79 332.06C412.7 333.47 413.91 335.35 414.82 336.76C415.65 338.05 417.38 338.43 418.68 337.59C425.89 332.94 445.17 320.51 452.38 315.86C453.68 315.02 454.05 313.3 453.21 312C452.31 310.59 451.09 308.71 450.19 307.3C449.35 306.01 447.62 305.63 446.32 306.47C439.12 311.12 419.83 323.55 412.62 328.2Z" id="aZK047em8"></path><path d="M202.47 200.86C201.68 199.53 199.97 199.1 198.64 199.89C197.2 200.74 195.28 201.88 193.84 202.74C192.51 203.53 192.08 205.24 192.87 206.57C197.25 213.94 208.98 233.66 213.36 241.03C214.15 242.36 215.86 242.8 217.19 242.01C218.63 241.15 220.55 240.01 221.99 239.15C223.32 238.36 223.75 236.65 222.96 235.32C218.58 227.95 206.85 208.23 202.47 200.86Z" id="c22CrDMeQl"></path><path d="M228.3 435.19C227.51 436.52 225.8 436.95 224.47 436.16C223.03 435.31 221.11 434.16 219.67 433.31C218.34 432.52 217.91 430.81 218.7 429.48C223.08 422.11 234.81 402.39 239.19 395.01C239.98 393.69 241.69 393.25 243.02 394.04C244.46 394.9 246.38 396.04 247.82 396.9C249.15 397.68 249.58 399.4 248.79 400.72C244.41 408.1 232.68 427.82 228.3 435.19Z" id="b5MYCPMNkV"></path><path d="M223.11 289.03C222.32 290.35 220.61 290.79 219.29 290C217.84 289.14 215.92 288 214.48 287.14C213.16 286.36 212.72 284.64 213.51 283.32C217.9 275.94 229.62 256.22 234.01 248.85C234.79 247.52 236.51 247.09 237.83 247.88C239.27 248.73 241.2 249.88 242.64 250.73C243.96 251.52 244.4 253.23 243.61 254.56C239.22 261.93 227.5 281.65 223.11 289.03Z" id="cMaAowwrJ"></path><path d="M142.15 215.17C141.29 216.45 139.56 216.8 138.28 215.94C136.88 215.01 135.02 213.78 133.63 212.85C132.34 211.99 131.99 210.26 132.85 208.97C137.6 201.83 150.32 182.74 155.07 175.6C155.93 174.31 157.66 173.97 158.95 174.82C160.34 175.75 162.2 176.99 163.6 177.92C164.88 178.77 165.23 180.51 164.37 181.79C159.62 188.93 146.9 208.03 142.15 215.17Z" id="a3R4qndbRX"></path><path d="M194.16 82.26C192.63 82.49 191.2 81.45 190.97 79.92C190.71 78.27 190.37 76.06 190.12 74.4C189.88 72.88 190.93 71.45 192.45 71.22C200.93 69.91 223.6 66.4 232.08 65.09C233.6 64.86 235.03 65.9 235.27 67.43C235.52 69.08 235.86 71.29 236.12 72.95C236.35 74.47 235.31 75.9 233.79 76.13C225.31 77.44 202.63 80.95 194.16 82.26Z" id="b5wXUemVhr"></path><path d="M299.63 225.84C298.84 227.17 297.13 227.6 295.8 226.81C294.36 225.96 292.44 224.81 291 223.96C289.68 223.17 289.24 221.46 290.03 220.13C294.41 212.76 306.14 193.04 310.52 185.66C311.31 184.34 313.03 183.9 314.35 184.69C315.79 185.55 317.71 186.69 319.15 187.55C320.48 188.33 320.92 190.05 320.13 191.37C315.74 198.75 304.02 218.47 299.63 225.84Z" id="a1ggCsN2ai"></path><path d="M421.34 243.15C420.55 244.47 418.84 244.91 417.51 244.12C416.07 243.26 414.15 242.12 412.71 241.26C411.38 240.48 410.95 238.76 411.74 237.44C416.12 230.06 427.85 210.34 432.23 202.97C433.02 201.64 434.74 201.21 436.06 202C437.5 202.85 439.42 204 440.86 204.85C442.19 205.64 442.62 207.35 441.84 208.68C437.45 216.05 425.72 235.77 421.34 243.15Z" id="gQK6Sf1S5"></path><path d="M164.38 339.58C163.59 340.9 161.88 341.34 160.55 340.55C159.11 339.7 157.19 338.55 155.75 337.7C154.43 336.91 153.99 335.19 154.78 333.87C159.16 326.5 170.89 306.78 175.27 299.4C176.06 298.08 177.78 297.64 179.1 298.43C180.54 299.29 182.46 300.43 183.9 301.28C185.23 302.07 185.67 303.79 184.88 305.11C180.49 312.49 168.77 332.21 164.38 339.58Z" id="gkBaF0lpL"></path><path d="M364.42 289.03C363.63 290.35 361.92 290.79 360.59 290C359.15 289.14 357.23 288 355.79 287.14C354.46 286.36 354.03 284.64 354.82 283.32C359.2 275.94 370.93 256.22 375.31 248.85C376.1 247.52 377.81 247.09 379.14 247.88C380.58 248.73 382.5 249.88 383.94 250.73C385.27 251.52 385.7 253.23 384.91 254.56C380.53 261.93 368.8 281.65 364.42 289.03Z" id="b3ybpslsS"></path><path d="M51.38 299.55C50.6 300.88 48.88 301.32 47.56 300.53C46.12 299.67 44.2 298.53 42.75 297.67C41.43 296.88 40.99 295.17 41.78 293.84C46.17 286.47 57.89 266.75 62.28 259.38C63.07 258.05 64.78 257.62 66.11 258.41C67.55 259.26 69.47 260.4 70.91 261.26C72.23 262.05 72.67 263.76 71.88 265.09C67.5 272.46 55.77 292.18 51.38 299.55Z" id="bzweFmRGH"></path><path d="M103.29 178.78C102.5 180.11 100.79 180.55 99.46 179.76C98.02 178.9 96.1 177.76 94.66 176.9C93.34 176.11 92.9 174.4 93.69 173.07C98.07 165.7 109.8 145.98 114.19 138.61C114.97 137.28 116.69 136.85 118.01 137.63C119.45 138.49 121.37 139.63 122.82 140.49C124.14 141.28 124.58 142.99 123.79 144.32C119.4 151.69 107.68 171.41 103.29 178.78Z" id="aPiG9K86"></path><path d="M318.03 337.46C317.24 336.14 315.53 335.7 314.2 336.49C312.76 337.34 310.84 338.49 309.4 339.34C308.08 340.13 307.64 341.85 308.43 343.17C312.81 350.55 324.54 370.26 328.93 377.64C329.71 378.96 331.43 379.4 332.75 378.61C334.19 377.75 336.11 376.61 337.56 375.76C338.88 374.97 339.32 373.25 338.53 371.93C334.14 364.55 322.42 344.83 318.03 337.46Z" id="dam4tPdpG"></path><path d="M216.61 190.58C215.15 191.09 213.56 190.31 213.06 188.85C212.51 187.27 211.78 185.16 211.24 183.57C210.73 182.11 211.51 180.52 212.97 180.02C221.08 177.23 242.77 169.76 250.88 166.97C252.34 166.46 253.93 167.24 254.43 168.7C254.98 170.28 255.71 172.4 256.25 173.98C256.76 175.44 255.98 177.03 254.52 177.53C246.41 180.32 224.72 187.79 216.61 190.58Z" id="p9YfZoq2x"></path></defs><g><g><g><use xlink:href="#cVzNb77Sf" opacity="1" fill="#ffffff" fill-opacity="1"></use></g><g><use xlink:href="#d4QlOlMa8u" opacity="1" fill="#ffffff" fill-opacity="1"></use></g><g><use xlink:href="#a19Is3jwd5" opacity="1" fill="#ffffff" fill-opacity="1"></use></g><g><use xlink:href="#gyYgzbsUa" opacity="1" fill="#ffffff" fill-opacity="1"></use></g><g><use xlink:href="#c3TGKcZsIN" opacity="1" fill="#ffffff" fill-opacity="1"></use></g><g><use xlink:href="#aziDupKEG" opacity="1" fill="#ffffff" fill-opacity="1"></use></g><g><use xlink:href="#a1SzBQVQQ" opacity="1" fill="#ffffff" fill-opacity="1"></use></g><g><use xlink:href="#a58okzHjdq" opacity="1" fill="#ffffff" fill-opacity="1"></use></g><g><use xlink:href="#j1BBZ9ifi4" opacity="1" fill="#ffffff" fill-opacity="1"></use></g><g><use xlink:href="#at5uk8gB" opacity="1" fill="#ffffff" fill-opacity="1"></use></g><g><use xlink:href="#b3OmCNO1TX" opacity="1" fill="#ffffff" fill-opacity="1"></use></g><g><use xlink:href="#dMGQ9wbRe" opacity="1" fill="#ffffff" fill-opacity="1"></use></g><g><use xlink:href="#c1lzoqG61" opacity="1" fill="#ffffff" fill-opacity="1"></use></g><g><use xlink:href="#agHtx0hv3" opacity="1" fill="#ffffff" fill-opacity="1"></use></g><g><use xlink:href="#b1HKVCXR6Y" opacity="1" fill="#ffffff" fill-opacity="1"></use></g><g><use xlink:href="#ap1KwmYkV" opacity="1" fill="#ffffff" fill-opacity="1"></use></g><g><use xlink:href="#a3XpxZ0lR" opacity="1" fill="#ffffff" fill-opacity="1"></use></g><g><use xlink:href="#aIhBfeGHL" opacity="1" fill="#ffffff" fill-opacity="1"></use></g><g><use xlink:href="#a4OyX5RDwQ" opacity="1" fill="#ffffff" fill-opacity="1"></use></g><g><use xlink:href="#aZK047em8" opacity="1" fill="#ffffff" fill-opacity="1"></use></g><g><use xlink:href="#c22CrDMeQl" opacity="1" fill="#ffffff" fill-opacity="1"></use></g><g><use xlink:href="#b5MYCPMNkV" opacity="1" fill="#ffffff" fill-opacity="1"></use></g><g><use xlink:href="#cMaAowwrJ" opacity="1" fill="#ffffff" fill-opacity="1"></use></g><g><use xlink:href="#a3R4qndbRX" opacity="1" fill="#ffffff" fill-opacity="1"></use></g><g><use xlink:href="#b5wXUemVhr" opacity="1" fill="#ffffff" fill-opacity="1"></use></g><g><use xlink:href="#a1ggCsN2ai" opacity="1" fill="#ffffff" fill-opacity="1"></use></g><g><use xlink:href="#gQK6Sf1S5" opacity="1" fill="#ffffff" fill-opacity="1"></use></g><g><use xlink:href="#gkBaF0lpL" opacity="1" fill="#ffffff" fill-opacity="1"></use></g><g><use xlink:href="#b3ybpslsS" opacity="1" fill="#ffffff" fill-opacity="1"></use></g><g><use xlink:href="#bzweFmRGH" opacity="1" fill="#ffffff" fill-opacity="1"></use></g><g><use xlink:href="#aPiG9K86" opacity="1" fill="#ffffff" fill-opacity="1"></use></g><g><use xlink:href="#dam4tPdpG" opacity="1" fill="#ffffff" fill-opacity="1"></use></g><g><use xlink:href="#p9YfZoq2x" opacity="1" fill="#ffffff" fill-opacity="1"></use></g></g></g></svg>