<?xml version="1.0" encoding="UTF-8" standalone="no"?>
<!DOCTYPE svg PUBLIC "-//W3C//DTD SVG 1.1//EN" "http://www.w3.org/Graphics/SVG/1.1/DTD/svg11.dtd">
<svg version="1.1" xmlns="http://www.w3.org/2000/svg" xmlns:xlink="http://www.w3.org/1999/xlink" preserveAspectRatio="xMidYMid meet" viewBox="0 0 500 500" width="500" height="500"><defs><path d="M125.6 423.25C118.8 433.24 107.11 439.3 94.45 439.3C81.78 439.3 70.09 433.24 63.29 423.25C56.91 413.87 72.16 404.77 78.54 414.15C82.01 419.25 88 422.3 94.45 422.3C100.89 422.3 106.88 419.25 110.35 414.15C110.35 414.15 110.35 414.15 110.35 414.15C124.77 413.96 129.85 417 125.6 423.25Z" id="bnqdmxOa"></path><path d="M94.45 439.3C81.78 439.3 70.09 433.24 63.29 423.25C60.12 418.59 62.29 414 66.06 411.71C65.91 413.37 66.28 415.17 67.35 416.99C73.27 426.98 83.44 433.04 94.45 433.04C105.46 433.04 115.62 426.98 121.54 416.99C122.61 415.17 122.98 413.37 122.84 411.71C126.6 414 128.77 418.59 125.6 423.25C118.8 433.24 107.11 439.3 94.45 439.3Z" id="b13vOyGrPZ"></path><path d="M71.78 423.05C71.52 423.23 71.23 423.32 70.93 423.32C70.5 423.32 70.07 423.14 69.79 422.78C69.58 422.52 69.38 422.25 69.18 421.98C68.73 421.38 68.89 420.54 69.54 420.12C70.18 419.7 71.07 419.85 71.52 420.46C71.69 420.7 71.88 420.94 72.06 421.18C72.54 421.77 72.41 422.61 71.78 423.05ZM77.42 426.18C76.79 425.74 75.9 425.87 75.44 426.46C74.97 427.06 75.1 427.9 75.73 428.34C81.02 432.03 87.67 434.06 94.45 434.06C95.23 434.06 95.87 433.46 95.87 432.72C95.87 431.98 95.23 431.38 94.45 431.38C88.27 431.38 82.23 429.54 77.42 426.18Z" id="ae9R2cVjf"></path><path d="M389.91 98.07C400.86 103.18 408.71 113.75 410.74 126.25C412.77 138.75 408.66 151.26 399.88 159.58C391.64 167.38 380.22 153.78 388.46 145.98C392.94 141.74 394.99 135.34 393.95 128.98C392.92 122.61 388.95 117.19 383.37 114.58C383.37 114.58 383.37 114.58 383.37 114.58C380.87 100.37 383.05 94.87 389.91 98.07Z" id="a2UZJ51Fht"></path><path d="M410.74 126.25C412.77 138.75 408.66 151.26 399.88 159.58C395.79 163.45 390.91 162.05 388.05 158.69C389.71 158.57 391.43 157.92 393.05 156.57C401.97 149.13 406.33 138.12 404.56 127.26C402.8 116.39 395.19 107.32 384.38 103.08C382.42 102.31 380.58 102.24 378.96 102.65C380.62 98.56 384.8 95.69 389.91 98.07C400.86 103.18 408.71 113.75 410.74 126.25Z" id="adLI5s0WW"></path><path d="M398.33 151.23C398.55 151.45 398.68 151.73 398.73 152.02C398.8 152.45 398.69 152.9 398.38 153.23C398.16 153.48 397.92 153.73 397.69 153.97C397.16 154.5 396.31 154.48 395.79 153.91C395.27 153.34 395.28 152.44 395.81 151.9C396.02 151.69 396.23 151.47 396.43 151.25C396.94 150.69 397.79 150.68 398.33 151.23ZM400.52 145.16C400.18 145.85 400.45 146.71 401.11 147.07C401.78 147.44 402.58 147.17 402.92 146.48C405.71 140.67 406.66 133.78 405.57 127.09C405.45 126.32 404.75 125.79 404.02 125.9C403.29 126.02 402.8 126.75 402.92 127.52C403.91 133.61 403.06 139.88 400.52 145.16Z" id="b1EzWWGEbf"></path><path d="M137.01 46.28C147.96 51.39 155.81 61.97 157.84 74.47C159.87 86.96 155.76 99.48 146.98 107.79C138.74 115.59 127.32 102 135.56 94.19C140.03 89.95 142.08 83.55 141.05 77.19C140.02 70.82 136.05 65.4 130.46 62.79C130.46 62.79 130.46 62.79 130.46 62.79C127.97 48.59 130.15 43.08 137.01 46.28Z" id="dLXwAtUYz"></path><path d="M157.84 74.47C159.87 86.96 155.76 99.48 146.98 107.79C142.89 111.66 138.01 110.26 135.15 106.91C136.81 106.78 138.53 106.13 140.15 104.78C149.07 97.34 153.42 86.34 151.66 75.47C149.9 64.6 142.29 55.53 131.48 51.3C129.51 50.53 127.67 50.45 126.06 50.86C127.71 46.77 131.9 43.9 137.01 46.28C147.96 51.39 155.81 61.97 157.84 74.47Z" id="f4xuMWfsVB"></path><path d="M145.43 99.44C145.65 99.66 145.78 99.94 145.83 100.24C145.9 100.66 145.78 101.11 145.48 101.45C145.26 101.69 145.02 101.94 144.79 102.18C144.26 102.72 143.41 102.69 142.89 102.12C142.37 101.55 142.38 100.66 142.91 100.12C143.12 99.9 143.33 99.68 143.53 99.46C144.04 98.9 144.89 98.89 145.43 99.44ZM147.62 93.37C147.28 94.06 147.55 94.92 148.21 95.28C148.87 95.65 149.68 95.38 150.01 94.69C152.81 88.88 153.75 81.99 152.67 75.3C152.54 74.53 151.85 74 151.12 74.12C150.39 74.23 149.9 74.96 150.02 75.73C151.01 81.83 150.16 88.09 147.62 93.37Z" id="a5kHI9pU9G"></path><path d="M353.12 381.88C365.21 381.9 376.78 388.17 383.89 398.65C391 409.12 392.55 422.2 388.1 433.44C383.92 443.99 367.83 436.48 372.01 425.93C374.28 420.2 373.44 413.53 369.82 408.2C366.2 402.86 360.32 399.61 354.15 399.61C354.15 399.61 354.15 399.61 354.15 399.61C345.9 387.78 345.55 381.87 353.12 381.88Z" id="bxCFOamju"></path><path d="M383.89 398.65C391 409.12 392.55 422.2 388.1 433.44C386.03 438.68 381.01 439.46 377 437.63C378.46 436.82 379.74 435.5 380.64 433.59C385.59 423.09 384.9 411.27 378.71 402.16C372.53 393.05 361.81 388.04 350.22 388.76C348.12 388.89 346.42 389.6 345.12 390.65C344.9 386.25 347.48 381.87 353.12 381.88C365.21 381.9 376.78 388.17 383.89 398.65Z" id="bsEB0Y4W"></path><path d="M383.18 426.53C383.47 426.64 383.71 426.83 383.87 427.08C384.12 427.44 384.2 427.89 384.07 428.32C383.97 428.64 383.86 428.96 383.75 429.28C383.5 429.99 382.72 430.33 382.01 430.03C381.29 429.73 380.92 428.91 381.17 428.2C381.27 427.92 381.37 427.63 381.46 427.34C381.69 426.62 382.45 426.26 383.18 426.53ZM382.6 420.1C382.59 420.87 383.19 421.53 383.95 421.58C384.7 421.64 385.32 421.05 385.33 420.28C385.41 413.84 383.36 407.2 379.56 401.59C379.12 400.94 378.27 400.75 377.65 401.16C377.04 401.58 376.9 402.44 377.34 403.09C380.81 408.2 382.67 414.24 382.6 420.1Z" id="a5K37LE31X"></path><path d="M218.54 233.81C223.44 222.76 233.86 214.7 246.32 212.44C258.77 210.17 271.36 214.04 279.84 222.65C287.8 230.74 274.43 242.42 266.47 234.34C262.14 229.94 255.7 228.01 249.36 229.17C243.02 230.32 237.67 234.39 235.17 240.03C235.17 240.03 235.17 240.03 235.17 240.03C221.01 242.8 215.47 240.72 218.54 233.81Z" id="cJuVQG5ux"></path><path d="M246.32 212.44C258.77 210.17 271.36 214.04 279.84 222.65C283.79 226.67 282.48 231.58 279.19 234.5C279.03 232.84 278.34 231.13 276.96 229.54C269.36 220.76 258.27 216.62 247.44 218.6C236.6 220.57 227.68 228.35 223.66 239.24C222.92 241.22 222.89 243.06 223.32 244.67C219.21 243.09 216.25 238.96 218.54 233.81C223.44 222.76 233.86 214.7 246.32 212.44Z" id="b4tD14DB0W"></path><path d="M271.52 224.37C271.74 224.14 272.02 224 272.31 223.95C272.74 223.87 273.19 223.98 273.53 224.27C273.78 224.5 274.03 224.72 274.27 224.95C274.82 225.47 274.81 226.32 274.25 226.85C273.7 227.38 272.8 227.39 272.25 226.87C272.03 226.67 271.81 226.46 271.58 226.26C271.01 225.76 270.99 224.91 271.52 224.37ZM265.41 222.3C266.11 222.62 266.96 222.33 267.32 221.66C267.67 220.99 267.39 220.19 266.69 219.87C260.82 217.19 253.92 216.38 247.25 217.59C246.48 217.73 245.96 218.44 246.09 219.16C246.23 219.89 246.96 220.37 247.73 220.23C253.81 219.12 260.08 219.86 265.41 222.3Z" id="c22wdnDtAK"></path><path d="M253.16 101.72C263.36 108.22 269.77 119.72 270.15 132.38C270.53 145.03 264.83 156.9 255.05 164C245.87 170.67 236.31 155.7 245.49 149.04C250.48 145.42 253.35 139.34 253.15 132.89C252.96 126.45 249.73 120.55 244.53 117.24C244.53 117.24 244.53 117.24 244.53 117.24C243.9 102.83 246.78 97.66 253.16 101.72Z" id="a2wg2lgdKp"></path><path d="M270.15 132.38C270.53 145.03 264.83 156.9 255.05 164C250.49 167.31 245.83 165.29 243.43 161.59C245.1 161.68 246.89 161.26 248.67 160.13C258.48 153.92 264.23 143.57 263.89 132.57C263.56 121.56 257.2 111.58 247.03 105.98C245.18 104.96 243.37 104.64 241.71 104.84C243.88 101 248.41 98.7 253.16 101.72C263.36 108.22 269.77 119.72 270.15 132.38Z" id="bgr6eDIVN"></path><path d="M254.6 155.53C254.78 155.78 254.88 156.07 254.89 156.37C254.9 156.8 254.73 157.23 254.39 157.52C254.13 157.74 253.87 157.95 253.61 158.16C253.01 158.62 252.17 158.49 251.73 157.86C251.29 157.22 251.41 156.33 252.01 155.87C252.24 155.68 252.48 155.49 252.71 155.3C253.29 154.81 254.13 154.91 254.6 155.53ZM257.55 149.79C257.13 150.43 257.29 151.32 257.9 151.77C258.51 152.21 259.34 152.06 259.76 151.41C263.29 146.01 265.12 139.31 264.91 132.54C264.89 131.75 264.27 131.13 263.53 131.16C262.79 131.18 262.21 131.83 262.23 132.62C262.42 138.79 260.76 144.89 257.55 149.79Z" id="a1DgfKbUrF"></path><path d="M265 359.48C253.9 364.26 240.78 363.1 230.09 356.31C219.41 349.51 212.8 338.13 212.42 326.04C212.07 314.7 229.82 315.21 230.17 326.55C230.36 332.71 233.78 338.5 239.22 341.96C244.66 345.42 251.35 346.06 257.01 343.62C257.01 343.62 257.01 343.62 257.01 343.62C269.28 351.2 271.94 356.49 265 359.48Z" id="biT6wZAWI"></path><path d="M230.09 356.31C219.41 349.51 212.8 338.13 212.42 326.04C212.24 320.41 216.54 317.7 220.95 317.79C219.93 319.12 219.27 320.84 219.21 322.94C218.83 334.55 224.16 345.12 233.45 351.03C242.74 356.93 254.58 357.28 264.93 352.02C266.81 351.06 268.09 349.74 268.86 348.26C270.81 352.21 270.17 357.25 265 359.48C253.9 364.26 240.78 363.1 230.09 356.31Z" id="e17GHpGsQW"></path><path d="M219.69 330.43C219.37 330.45 219.08 330.36 218.83 330.2C218.46 329.97 218.2 329.59 218.15 329.14C218.12 328.81 218.09 328.47 218.07 328.14C218.02 327.38 218.6 326.77 219.37 326.76C220.14 326.75 220.81 327.35 220.86 328.1C220.88 328.4 220.9 328.7 220.94 329C221.01 329.76 220.46 330.4 219.69 330.43ZM222.77 336.11C222.47 335.4 221.66 335.02 220.94 335.28C220.23 335.53 219.89 336.31 220.19 337.02C222.67 342.97 227.19 348.25 232.91 351.89C233.57 352.31 234.43 352.14 234.82 351.52C235.22 350.89 235.01 350.05 234.34 349.63C229.14 346.31 225.03 341.51 222.77 336.11Z" id="aCPGFRxRK"></path><path d="M375.33 219.59C381.88 229.76 382.89 242.89 377.94 254.54C373 266.2 362.85 274.6 351 276.96C339.87 279.17 337.45 261.58 348.57 259.36C354.62 258.16 359.77 253.84 362.29 247.9C364.8 241.97 364.34 235.26 361 230.08C361 230.08 361 230.08 361 230.08C366.46 216.73 371.23 213.23 375.33 219.59Z" id="i3SvxL7Qi7"></path><path d="M377.94 254.54C373 266.2 362.85 274.6 351 276.96C345.47 278.05 342.09 274.27 341.45 269.9C342.93 270.68 344.73 271.05 346.82 270.77C358.33 269.23 367.88 262.23 372.18 252.1C376.48 241.96 374.87 230.24 367.98 220.89C366.73 219.19 365.21 218.15 363.63 217.63C367.21 215.06 372.28 214.85 375.33 219.59C381.87 229.76 382.89 242.89 377.94 254.54Z" id="b2aSa70wjK"></path><path d="M354.13 269.06C354.2 269.37 354.16 269.68 354.05 269.95C353.88 270.35 353.54 270.67 353.11 270.79C352.79 270.88 352.46 270.96 352.13 271.04C351.4 271.21 350.69 270.74 350.56 269.98C350.42 269.22 350.9 268.47 351.64 268.29C351.93 268.22 352.22 268.15 352.52 268.07C353.25 267.87 353.97 268.31 354.13 269.06ZM359.22 265.09C358.57 265.5 358.34 266.37 358.7 267.03C359.07 267.69 359.89 267.9 360.55 267.49C366.01 264.06 370.47 258.74 373.12 252.5C373.43 251.77 373.12 250.95 372.44 250.67C371.76 250.38 370.96 250.73 370.65 251.45C368.24 257.13 364.18 261.98 359.22 265.09Z" id="bsdY6FRy9"></path><path d="M57.38 159.17C66.5 151.24 79.35 148.35 91.59 151.57C103.84 154.79 113.6 163.62 117.64 175.02C121.43 185.72 104.37 190.64 100.58 179.94C98.52 174.13 93.5 169.66 87.27 168.02C81.03 166.38 74.46 167.8 69.81 171.85C69.81 171.85 69.81 171.85 69.81 171.85C55.82 168.36 51.67 164.14 57.38 159.17Z" id="a3Btbh6qOz"></path><path d="M91.59 151.57C103.84 154.79 113.6 163.62 117.64 175.02C119.52 180.33 116.26 184.22 112.03 185.48C112.59 183.91 112.69 182.07 112.12 180.04C108.94 168.87 100.65 160.42 90 157.62C79.35 154.82 67.98 158.1 59.72 166.26C58.22 167.74 57.4 169.39 57.12 171.04C54.06 167.86 53.13 162.87 57.38 159.17C66.5 151.24 79.35 148.35 91.59 151.57Z" id="b46A4hqu3q"></path><path d="M109.38 173.05C109.67 172.94 109.98 172.93 110.27 173.01C110.69 173.12 111.05 173.4 111.24 173.82C111.37 174.12 111.5 174.44 111.62 174.74C111.9 175.45 111.53 176.21 110.8 176.46C110.07 176.7 109.25 176.33 108.98 175.63C108.87 175.35 108.75 175.07 108.63 174.79C108.32 174.1 108.66 173.32 109.38 173.05ZM104.72 168.59C105.22 169.17 106.11 169.28 106.71 168.82C107.31 168.36 107.4 167.52 106.9 166.93C102.72 162.02 96.81 158.36 90.26 156.64C89.5 156.44 88.73 156.86 88.55 157.57C88.36 158.29 88.82 159.03 89.58 159.23C95.55 160.8 100.92 164.12 104.72 168.59Z" id="bifJvLae1"></path><path d="M106.52 323.98C94.85 320.84 85.29 311.78 81.14 299.82C76.98 287.86 78.87 274.83 86.08 265.13C92.84 256.02 106.44 267.43 99.68 276.54C96 281.49 95.08 288.15 97.2 294.24C99.32 300.33 104.16 304.99 110.12 306.6C110.12 306.6 110.12 306.6 110.12 306.6C115.02 320.15 113.83 325.95 106.52 323.98Z" id="a1K5qbJ2eO"></path><path d="M81.14 299.82C76.98 287.86 78.87 274.83 86.08 265.13C89.44 260.6 94.49 261.14 97.89 263.95C96.27 264.36 94.68 265.3 93.32 266.91C85.82 275.78 83.43 287.37 87.05 297.77C90.66 308.17 99.72 315.79 111.1 318.09C113.17 318.51 114.99 318.27 116.52 317.59C115.59 321.9 111.97 325.45 106.52 323.98C94.85 320.84 85.29 311.78 81.14 299.82Z" id="b1fTaG0u7m"></path><path d="M89.05 273.08C88.79 272.9 88.61 272.64 88.51 272.36C88.37 271.96 88.41 271.49 88.65 271.11C88.83 270.83 89.01 270.55 89.2 270.27C89.63 269.65 90.47 269.53 91.08 270C91.69 270.47 91.84 271.36 91.41 271.98C91.24 272.22 91.08 272.48 90.91 272.73C90.51 273.37 89.67 273.53 89.05 273.08ZM87.94 279.44C88.15 278.7 87.74 277.9 87.02 277.65C86.31 277.41 85.56 277.81 85.35 278.55C83.6 284.76 83.86 291.7 86.08 298.1C86.34 298.85 87.12 299.25 87.82 299.01C88.52 298.76 88.87 297.97 88.62 297.22C86.59 291.39 86.35 285.08 87.94 279.44Z" id="b2L9CJVT21"></path></defs><g><g><g><use xlink:href="#bnqdmxOa" opacity="1" fill="#b93b3e" fill-opacity="1"></use><g><use xlink:href="#bnqdmxOa" opacity="1" fill-opacity="0" stroke="#000000" stroke-width="1" stroke-opacity="0"></use></g></g><g><use xlink:href="#b13vOyGrPZ" opacity="1" fill="#9d3632" fill-opacity="1"></use><g><use xlink:href="#b13vOyGrPZ" opacity="1" fill-opacity="0" stroke="#000000" stroke-width="1" stroke-opacity="0"></use></g></g><g><use xlink:href="#ae9R2cVjf" opacity="1" fill="#edd7c5" fill-opacity="1"></use><g><use xlink:href="#ae9R2cVjf" opacity="1" fill-opacity="0" stroke="#000000" stroke-width="1" stroke-opacity="0"></use></g></g><g><use xlink:href="#a2UZJ51Fht" opacity="1" fill="#b93b3e" fill-opacity="1"></use><g><use xlink:href="#a2UZJ51Fht" opacity="1" fill-opacity="0" stroke="#000000" stroke-width="1" stroke-opacity="0"></use></g></g><g><use xlink:href="#adLI5s0WW" opacity="1" fill="#9d3632" fill-opacity="1"></use><g><use xlink:href="#adLI5s0WW" opacity="1" fill-opacity="0" stroke="#000000" stroke-width="1" stroke-opacity="0"></use></g></g><g><use xlink:href="#b1EzWWGEbf" opacity="1" fill="#edd7c5" fill-opacity="1"></use><g><use xlink:href="#b1EzWWGEbf" opacity="1" fill-opacity="0" stroke="#000000" stroke-width="1" stroke-opacity="0"></use></g></g><g><use xlink:href="#dLXwAtUYz" opacity="1" fill="#b93b3e" fill-opacity="1"></use><g><use xlink:href="#dLXwAtUYz" opacity="1" fill-opacity="0" stroke="#000000" stroke-width="1" stroke-opacity="0"></use></g></g><g><use xlink:href="#f4xuMWfsVB" opacity="1" fill="#9d3632" fill-opacity="1"></use><g><use xlink:href="#f4xuMWfsVB" opacity="1" fill-opacity="0" stroke="#000000" stroke-width="1" stroke-opacity="0"></use></g></g><g><use xlink:href="#a5kHI9pU9G" opacity="1" fill="#edd7c5" fill-opacity="1"></use><g><use xlink:href="#a5kHI9pU9G" opacity="1" fill-opacity="0" stroke="#000000" stroke-width="1" stroke-opacity="0"></use></g></g><g><use xlink:href="#bxCFOamju" opacity="1" fill="#b93b3e" fill-opacity="1"></use><g><use xlink:href="#bxCFOamju" opacity="1" fill-opacity="0" stroke="#000000" stroke-width="1" stroke-opacity="0"></use></g></g><g><use xlink:href="#bsEB0Y4W" opacity="1" fill="#9d3632" fill-opacity="1"></use><g><use xlink:href="#bsEB0Y4W" opacity="1" fill-opacity="0" stroke="#000000" stroke-width="1" stroke-opacity="0"></use></g></g><g><use xlink:href="#a5K37LE31X" opacity="1" fill="#edd7c5" fill-opacity="1"></use><g><use xlink:href="#a5K37LE31X" opacity="1" fill-opacity="0" stroke="#000000" stroke-width="1" stroke-opacity="0"></use></g></g><g><use xlink:href="#cJuVQG5ux" opacity="1" fill="#b93b3e" fill-opacity="1"></use><g><use xlink:href="#cJuVQG5ux" opacity="1" fill-opacity="0" stroke="#000000" stroke-width="1" stroke-opacity="0"></use></g></g><g><use xlink:href="#b4tD14DB0W" opacity="1" fill="#9d3632" fill-opacity="1"></use><g><use xlink:href="#b4tD14DB0W" opacity="1" fill-opacity="0" stroke="#000000" stroke-width="1" stroke-opacity="0"></use></g></g><g><use xlink:href="#c22wdnDtAK" opacity="1" fill="#edd7c5" fill-opacity="1"></use><g><use xlink:href="#c22wdnDtAK" opacity="1" fill-opacity="0" stroke="#000000" stroke-width="1" stroke-opacity="0"></use></g></g><g><use xlink:href="#a2wg2lgdKp" opacity="1" fill="#b93b3e" fill-opacity="1"></use><g><use xlink:href="#a2wg2lgdKp" opacity="1" fill-opacity="0" stroke="#000000" stroke-width="1" stroke-opacity="0"></use></g></g><g><use xlink:href="#bgr6eDIVN" opacity="1" fill="#9d3632" fill-opacity="1"></use><g><use xlink:href="#bgr6eDIVN" opacity="1" fill-opacity="0" stroke="#000000" stroke-width="1" stroke-opacity="0"></use></g></g><g><use xlink:href="#a1DgfKbUrF" opacity="1" fill="#edd7c5" fill-opacity="1"></use><g><use xlink:href="#a1DgfKbUrF" opacity="1" fill-opacity="0" stroke="#000000" stroke-width="1" stroke-opacity="0"></use></g></g><g><use xlink:href="#biT6wZAWI" opacity="1" fill="#b93b3e" fill-opacity="1"></use><g><use xlink:href="#biT6wZAWI" opacity="1" fill-opacity="0" stroke="#000000" stroke-width="1" stroke-opacity="0"></use></g></g><g><use xlink:href="#e17GHpGsQW" opacity="1" fill="#9d3632" fill-opacity="1"></use><g><use xlink:href="#e17GHpGsQW" opacity="1" fill-opacity="0" stroke="#000000" stroke-width="1" stroke-opacity="0"></use></g></g><g><use xlink:href="#aCPGFRxRK" opacity="1" fill="#edd7c5" fill-opacity="1"></use><g><use xlink:href="#aCPGFRxRK" opacity="1" fill-opacity="0" stroke="#000000" stroke-width="1" stroke-opacity="0"></use></g></g><g><use xlink:href="#i3SvxL7Qi7" opacity="1" fill="#b93b3e" fill-opacity="1"></use><g><use xlink:href="#i3SvxL7Qi7" opacity="1" fill-opacity="0" stroke="#000000" stroke-width="1" stroke-opacity="0"></use></g></g><g><use xlink:href="#b2aSa70wjK" opacity="1" fill="#9d3632" fill-opacity="1"></use><g><use xlink:href="#b2aSa70wjK" opacity="1" fill-opacity="0" stroke="#000000" stroke-width="1" stroke-opacity="0"></use></g></g><g><use xlink:href="#bsdY6FRy9" opacity="1" fill="#edd7c5" fill-opacity="1"></use><g><use xlink:href="#bsdY6FRy9" opacity="1" fill-opacity="0" stroke="#000000" stroke-width="1" stroke-opacity="0"></use></g></g><g><use xlink:href="#a3Btbh6qOz" opacity="1" fill="#b93b3e" fill-opacity="1"></use><g><use xlink:href="#a3Btbh6qOz" opacity="1" fill-opacity="0" stroke="#000000" stroke-width="1" stroke-opacity="0"></use></g></g><g><use xlink:href="#b46A4hqu3q" opacity="1" fill="#9d3632" fill-opacity="1"></use><g><use xlink:href="#b46A4hqu3q" opacity="1" fill-opacity="0" stroke="#000000" stroke-width="1" stroke-opacity="0"></use></g></g><g><use xlink:href="#bifJvLae1" opacity="1" fill="#edd7c5" fill-opacity="1"></use><g><use xlink:href="#bifJvLae1" opacity="1" fill-opacity="0" stroke="#000000" stroke-width="1" stroke-opacity="0"></use></g></g><g><use xlink:href="#a1K5qbJ2eO" opacity="1" fill="#b93b3e" fill-opacity="1"></use><g><use xlink:href="#a1K5qbJ2eO" opacity="1" fill-opacity="0" stroke="#000000" stroke-width="1" stroke-opacity="0"></use></g></g><g><use xlink:href="#b1fTaG0u7m" opacity="1" fill="#9d3632" fill-opacity="1"></use><g><use xlink:href="#b1fTaG0u7m" opacity="1" fill-opacity="0" stroke="#000000" stroke-width="1" stroke-opacity="0"></use></g></g><g><use xlink:href="#b2L9CJVT21" opacity="1" fill="#edd7c5" fill-opacity="1"></use><g><use xlink:href="#b2L9CJVT21" opacity="1" fill-opacity="0" stroke="#000000" stroke-width="1" stroke-opacity="0"></use></g></g></g></g></svg>