<?xml version="1.0" encoding="UTF-8" standalone="no"?>
<!DOCTYPE svg PUBLIC "-//W3C//DTD SVG 1.1//EN" "http://www.w3.org/Graphics/SVG/1.1/DTD/svg11.dtd">
<svg version="1.1" xmlns="http://www.w3.org/2000/svg" xmlns:xlink="http://www.w3.org/1999/xlink" preserveAspectRatio="xMidYMid meet" viewBox="0 0 500 500" width="500" height="500"><defs><path d="M366.54 402.85C364.52 400.49 363.28 397.35 363.28 393.9C363.28 386.59 368.82 380.66 375.66 380.66C382.49 380.66 388.03 386.59 388.03 393.9C388.03 401.2 382.49 407.13 375.66 407.13C372.41 407.13 369.46 405.79 367.25 403.61" id="a1buBUhd4N"></path><path d="M366.99 403.91C367.05 403.85 367.46 403.37 367.51 403.31C369.73 405.51 372.63 406.72 375.66 406.72C378.86 406.72 381.87 405.39 384.14 402.97C386.41 400.54 387.65 397.32 387.65 393.9C387.65 390.47 386.41 387.25 384.14 384.82C381.87 382.4 378.86 381.07 375.66 381.07C372.45 381.07 369.44 382.4 367.17 384.82C364.91 387.25 363.66 390.47 363.66 393.9C363.66 397.12 364.78 400.2 366.82 402.57C366.76 402.63 366.32 403.06 366.26 403.12C364.1 400.6 362.9 397.32 362.9 393.9C362.9 390.25 364.23 386.83 366.64 384.25C369.05 381.68 372.25 380.26 375.66 380.26C379.06 380.26 382.27 381.68 384.68 384.25C387.08 386.83 388.41 390.25 388.41 393.9C388.41 397.54 387.08 400.96 384.68 403.54C382.27 406.12 379.06 407.54 375.66 407.54C372.43 407.54 369.36 406.25 366.99 403.91Z" id="a3etHzUN7h"></path><path d="M366.2 387.53C366.34 387.31 366.41 387.19 366.43 387.17C367.71 385.14 369.44 383.67 371.59 382.79C372.9 382.25 374.07 382.06 374.82 381.99C374.84 381.99 374.98 381.97 375.23 381.95L375.23 391.58C375.07 391.63 374.98 391.67 374.97 391.67C374.68 391.77 374.43 391.93 374.2 392.14C374.19 392.16 374.12 392.22 374 392.34L366.2 387.53ZM373.91 391.35C374.09 391.22 374.27 391.1 374.47 391.01C374.47 390.19 374.47 383.66 374.47 382.84C373.79 382.94 372.87 383.13 371.86 383.54C369.99 384.31 368.45 385.56 367.29 387.26C368.62 388.08 373.25 390.94 373.91 391.35Z" id="cUNYBDAHq"></path><path d="M365.59 399.08C364.52 396.73 364.23 394.22 364.71 391.62C364.94 390.37 365.32 389.35 365.59 388.72C365.61 388.7 365.66 388.56 365.77 388.32L373.57 393.14C373.53 393.31 373.51 393.4 373.51 393.42C373.48 393.58 373.47 393.74 373.47 393.9C373.47 394.05 373.48 394.21 373.51 394.37C373.51 394.39 373.53 394.48 373.57 394.66L365.77 399.47C365.66 399.23 365.61 399.1 365.59 399.08ZM365.45 391.78C365.03 394.06 365.25 396.26 366.1 398.33C366.77 397.92 372.06 394.65 372.73 394.24C372.71 394.12 372.71 394.01 372.71 393.9C372.71 393.78 372.71 393.67 372.73 393.55C372.28 393.28 370.08 391.92 366.11 389.47C365.79 390.39 365.57 391.16 365.45 391.78Z" id="biqgkS5DH"></path><path d="M374.82 405.81C370.08 405.45 367.38 402.07 366.44 400.63C366.42 400.6 366.34 400.48 366.2 400.27L374 395.45C374.12 395.57 374.19 395.63 374.2 395.65C374.43 395.86 374.68 396.02 374.97 396.12C374.98 396.13 375.07 396.16 375.23 396.21L375.23 405.84C374.98 405.82 374.85 405.81 374.82 405.81ZM374.47 404.96C374.47 404.14 374.47 397.6 374.47 396.78C374.27 396.69 374.09 396.58 373.91 396.44C373.47 396.71 371.27 398.07 367.3 400.52C369.53 403.18 371.92 404.66 374.47 404.96Z" id="a1gCkKDja"></path><path d="M376.09 396.21C376.24 396.16 376.33 396.13 376.35 396.12C376.63 396.02 376.89 395.86 377.11 395.65C377.13 395.63 377.19 395.57 377.32 395.45L385.11 400.26C384.98 400.48 384.9 400.6 384.88 400.62C383.61 402.65 381.87 404.12 379.72 405C378.42 405.54 377.25 405.73 376.5 405.8C376.47 405.81 376.33 405.82 376.09 405.84L376.09 396.21ZM376.84 404.95C377.53 404.86 378.45 404.66 379.45 404.25C381.32 403.48 382.86 402.23 384.02 400.53C383.36 400.12 378.06 396.85 377.4 396.44C377.23 396.58 377.04 396.69 376.84 396.78C376.84 398.42 376.84 404.13 376.84 404.95Z" id="c56eoJxcy"></path><path d="M377.75 394.66C377.78 394.48 377.8 394.39 377.8 394.37C377.83 394.21 377.85 394.05 377.85 393.9C377.85 393.74 377.83 393.58 377.8 393.42C377.8 393.4 377.78 393.31 377.75 393.14L385.54 388.32C385.65 388.56 385.71 388.69 385.72 388.71C386.79 391.06 387.09 393.57 386.6 396.17C386.37 397.43 385.99 398.44 385.72 399.07C385.71 399.1 385.65 399.23 385.54 399.47L377.75 394.66ZM385.2 398.32C385.43 397.74 385.69 396.95 385.86 396.01C386.29 393.73 386.07 391.53 385.21 389.46C384.55 389.87 379.25 393.14 378.59 393.55C378.6 393.67 378.61 393.78 378.61 393.9C378.61 394.01 378.6 394.12 378.59 394.24C379.91 395.06 384.54 397.91 385.2 398.32Z" id="fgKzqODNg"></path><path d="M377.11 392.14C376.89 391.93 376.63 391.77 376.35 391.67C376.33 391.67 376.24 391.63 376.09 391.58L376.09 381.95C376.33 381.97 376.47 381.98 376.49 381.99C381.24 382.35 383.94 385.73 384.88 387.16C384.89 387.19 384.97 387.31 385.11 387.53L377.32 392.34C377.19 392.22 377.13 392.16 377.11 392.14ZM377.4 391.35C378.06 390.94 383.35 387.68 384.01 387.27C382.99 385.85 380.67 383.28 376.84 382.83C376.84 383.38 376.84 386.1 376.84 391.01C377.1 391.15 377.28 391.26 377.4 391.35Z" id="ciGr0AtJj"></path><path d="M377.89 384.68C377.91 384.6 378.06 383.97 378.08 383.9C379.72 384.35 381.26 385.31 382.52 386.67C382.48 386.71 382.3 386.9 381.98 387.24C380.53 385.88 379.16 385.03 377.89 384.68Z" id="bI5RAcYd"></path><path d="M372.62 389.09C372.62 389.09 372.62 389.09 372.62 389.09C373.02 388.84 373.23 388.71 373.28 388.68C373.28 388.68 373.28 388.68 373.28 388.68C373.64 389.35 373.84 389.71 373.88 389.79C373.88 389.79 373.88 389.79 373.88 389.79C373.48 390.03 373.26 390.17 373.22 390.19C373.22 390.19 373.22 390.19 373.22 390.19C372.86 389.53 372.66 389.16 372.62 389.09Z" id="h1OTxmtG7g"></path><path d="M377.44 398C377.44 398 377.44 398 377.44 398C377.83 397.76 378.05 397.62 378.09 397.6C378.09 397.6 378.09 397.6 378.09 397.6C378.45 398.26 378.65 398.63 378.69 398.71C378.69 398.71 378.69 398.71 378.69 398.71C378.3 398.95 378.08 399.08 378.04 399.11C378.04 399.11 378.04 399.11 378.04 399.11C377.68 398.45 377.48 398.08 377.44 398Z" id="b26jCU18uE"></path><path d="M371.44 393.49C371.44 393.49 371.44 393.49 371.44 393.49C371.44 393.98 371.44 394.25 371.44 394.3C371.44 394.3 371.44 394.3 371.44 394.3C370.72 394.3 370.32 394.3 370.25 394.3C370.25 394.3 370.25 394.3 370.25 394.3C370.25 393.81 370.25 393.54 370.25 393.49C370.25 393.49 370.25 393.49 370.25 393.49C370.96 393.49 371.36 393.49 371.44 393.49Z" id="aFicu0Dz6"></path><path d="M381.07 393.49C381.07 393.49 381.07 393.49 381.07 393.49C381.07 393.98 381.07 394.25 381.07 394.3C381.07 394.3 381.07 394.3 381.07 394.3C380.35 394.3 379.95 394.3 379.87 394.3C379.87 394.3 379.87 394.3 379.87 394.3C379.87 393.81 379.87 393.54 379.87 393.49C379.87 393.49 379.87 393.49 379.87 393.49C380.59 393.49 380.99 393.49 381.07 393.49Z" id="c77hnm0Ke"></path><path d="M372.62 398.71C372.62 398.71 372.62 398.71 372.62 398.71C372.98 398.04 373.18 397.67 373.22 397.6C373.22 397.6 373.22 397.6 373.22 397.6C373.61 397.84 373.83 397.98 373.88 398C373.88 398 373.88 398 373.88 398C373.52 398.67 373.32 399.04 373.28 399.11C373.28 399.11 373.28 399.11 373.28 399.11C372.89 398.87 372.67 398.73 372.62 398.71Z" id="d2x8VunrOR"></path><path d="M377.44 389.79C377.44 389.79 377.44 389.79 377.44 389.79C377.8 389.12 377.99 388.75 378.03 388.68C378.03 388.68 378.03 388.68 378.03 388.68C378.43 388.92 378.65 389.06 378.69 389.09C378.69 389.09 378.69 389.09 378.69 389.09C378.33 389.75 378.13 390.12 378.09 390.19C378.09 390.19 378.09 390.19 378.09 390.19C377.7 389.95 377.48 389.82 377.44 389.79Z" id="d5rEah5BW"></path><path d="M179.33 272.59C177.3 270.23 176.07 267.09 176.07 263.64C176.07 256.33 181.61 250.41 188.44 250.41C195.28 250.41 200.82 256.33 200.82 263.64C200.82 270.95 195.28 276.87 188.44 276.87C185.2 276.87 182.25 275.54 180.04 273.35" id="b2LHXrxKK"></path><path d="M179.78 273.65C179.83 273.59 180.24 273.11 180.3 273.05C182.52 275.26 185.41 276.47 188.44 276.47C191.65 276.47 194.66 275.13 196.93 272.71C199.19 270.29 200.44 267.07 200.44 263.64C200.44 260.21 199.19 256.99 196.93 254.57C194.66 252.14 191.65 250.81 188.44 250.81C185.24 250.81 182.23 252.14 179.96 254.57C177.7 256.99 176.45 260.21 176.45 263.64C176.45 266.86 177.57 269.94 179.61 272.31C179.55 272.37 179.1 272.81 179.05 272.86C176.88 270.34 175.69 267.07 175.69 263.64C175.69 260 177.02 256.57 179.43 253.99C181.84 251.42 185.04 250 188.44 250C191.85 250 195.05 251.42 197.46 253.99C199.87 256.57 201.2 260 201.2 263.64C201.2 267.28 199.87 270.71 197.46 273.28C195.05 275.86 191.85 277.28 188.44 277.28C185.22 277.28 182.14 275.99 179.78 273.65Z" id="a1cQeFGCrb"></path><path d="M178.99 257.27C179.13 257.05 179.2 256.93 179.22 256.91C180.49 254.89 182.23 253.41 184.38 252.53C185.69 252 186.85 251.8 187.6 251.73C187.63 251.73 187.77 251.72 188.01 251.69L188.01 261.32C187.86 261.38 187.77 261.41 187.75 261.42C187.47 261.52 187.21 261.67 186.99 261.89C186.98 261.9 186.91 261.97 186.79 262.08L178.99 257.27ZM186.7 261.1C186.87 260.96 187.06 260.84 187.26 260.75C187.26 259.94 187.26 253.4 187.26 252.59C186.57 252.68 185.66 252.88 184.65 253.29C182.78 254.06 181.24 255.31 180.08 257.01C181.4 257.82 186.04 260.69 186.7 261.1Z" id="d5GBlLuTS9"></path><path d="M178.38 268.82C177.31 266.48 177.01 263.97 177.5 261.37C177.73 260.11 178.11 259.1 178.38 258.47C178.39 258.44 178.45 258.31 178.56 258.07L186.35 262.88C186.32 263.05 186.3 263.15 186.3 263.17C186.27 263.32 186.25 263.48 186.25 263.64C186.25 263.8 186.27 263.96 186.3 264.11C186.3 264.13 186.32 264.23 186.35 264.4L178.56 269.21C178.45 268.98 178.39 268.85 178.38 268.82ZM178.24 261.52C177.82 263.8 178.04 266 178.89 268.07C179.55 267.66 184.85 264.39 185.51 263.98C185.5 263.87 185.5 263.75 185.5 263.64C185.5 263.53 185.5 263.41 185.51 263.3C185.07 263.02 182.87 261.66 178.9 259.21C178.58 260.13 178.36 260.9 178.24 261.52Z" id="bqGA32j5o"></path><path d="M187.61 275.55C182.87 275.19 180.17 271.81 179.22 270.37C179.21 270.35 179.13 270.23 178.99 270.01L186.79 265.2C186.91 265.31 186.98 265.38 186.99 265.39C187.21 265.6 187.47 265.76 187.75 265.86C187.77 265.87 187.86 265.9 188.01 265.96L188.01 275.58C187.77 275.56 187.64 275.55 187.61 275.55ZM187.26 274.7C187.26 273.88 187.26 267.34 187.26 266.53C187.06 266.43 186.87 266.32 186.7 266.18C186.26 266.45 184.06 267.82 180.09 270.26C182.32 272.92 184.71 274.4 187.26 274.7Z" id="aT0Noq2kJ"></path><path d="M188.87 265.96C189.03 265.9 189.12 265.87 189.13 265.86C189.42 265.76 189.68 265.6 189.9 265.39C189.91 265.38 189.98 265.31 190.1 265.2L197.9 270.01C197.76 270.22 197.69 270.34 197.67 270.37C196.4 272.39 194.66 273.87 192.51 274.75C191.2 275.28 190.04 275.48 189.29 275.55C189.26 275.55 189.12 275.56 188.87 275.58L188.87 265.96ZM189.63 274.69C190.32 274.6 191.23 274.4 192.24 273.99C194.11 273.22 195.65 271.97 196.81 270.27C196.15 269.86 190.85 266.59 190.19 266.18C190.01 266.32 189.83 266.43 189.63 266.53C189.63 268.16 189.63 273.88 189.63 274.69Z" id="dn4pCVKs"></path><path d="M190.54 264.4C190.57 264.23 190.59 264.13 190.59 264.11C190.62 263.96 190.64 263.8 190.64 263.64C190.64 263.48 190.62 263.32 190.59 263.17C190.59 263.15 190.57 263.05 190.54 262.88L198.33 258.07C198.44 258.3 198.5 258.43 198.51 258.46C199.58 260.8 199.88 263.31 199.39 265.91C199.16 267.17 198.78 268.18 198.51 268.81C198.5 268.84 198.44 268.97 198.33 269.21L190.54 264.4ZM197.99 268.06C198.22 267.48 198.47 266.69 198.65 265.75C199.07 263.48 198.85 261.28 198 259.21C197.34 259.62 192.04 262.89 191.38 263.3C191.39 263.41 191.39 263.53 191.39 263.64C191.39 263.75 191.39 263.87 191.38 263.98C192.7 264.8 197.33 267.66 197.99 268.06Z" id="a1KmC5vgN"></path><path d="M189.9 261.89C189.68 261.67 189.42 261.52 189.13 261.42C189.12 261.41 189.03 261.38 188.88 261.32L188.87 251.7C189.12 251.72 189.25 251.73 189.28 251.73C194.02 252.09 196.72 255.47 197.67 256.91C197.68 256.93 197.76 257.05 197.9 257.27L190.1 262.08C189.98 261.97 189.91 261.9 189.9 261.89ZM190.19 261.1C190.85 260.69 196.14 257.42 196.8 257.01C195.78 255.59 193.45 253.03 189.63 252.58C189.63 253.12 189.63 255.85 189.63 260.75C189.89 260.89 190.07 261.01 190.19 261.1Z" id="c35iNTnxu2"></path><path d="M190.67 254.42C190.69 254.35 190.84 253.72 190.86 253.64C192.51 254.09 194.04 255.05 195.31 256.41C195.27 256.45 195.09 256.64 194.77 256.98C193.31 255.63 191.95 254.77 190.67 254.42Z" id="anlxJSyRn"></path><path d="M185.41 258.83C185.41 258.83 185.41 258.83 185.41 258.83C185.8 258.59 186.02 258.45 186.07 258.42C186.07 258.42 186.07 258.42 186.07 258.42C186.43 259.09 186.62 259.46 186.66 259.53C186.66 259.53 186.66 259.53 186.66 259.53C186.27 259.78 186.05 259.91 186.01 259.94C186.01 259.94 186.01 259.94 186.01 259.94C185.65 259.27 185.45 258.9 185.41 258.83Z" id="g436IjLsmo"></path><path d="M190.23 267.75C190.23 267.75 190.23 267.75 190.23 267.75C190.62 267.5 190.84 267.37 190.88 267.34C190.88 267.34 190.88 267.34 190.88 267.34C191.24 268.01 191.44 268.38 191.48 268.45C191.48 268.45 191.48 268.45 191.48 268.45C191.09 268.69 190.87 268.83 190.82 268.85C190.82 268.85 190.82 268.85 190.82 268.85C190.46 268.19 190.27 267.82 190.23 267.75Z" id="fID6NIWg5"></path><path d="M184.23 263.23C184.23 263.23 184.23 263.23 184.23 263.23C184.23 263.72 184.23 263.99 184.23 264.04C184.23 264.04 184.23 264.04 184.23 264.04C183.51 264.04 183.11 264.04 183.03 264.04C183.03 264.04 183.03 264.04 183.03 264.04C183.03 263.56 183.03 263.29 183.03 263.23C183.03 263.23 183.03 263.23 183.03 263.23C183.75 263.23 184.15 263.23 184.23 263.23Z" id="jSHeRYewT"></path><path d="M193.86 263.23C193.86 263.23 193.86 263.23 193.86 263.23C193.86 263.72 193.86 263.99 193.86 264.04C193.86 264.04 193.86 264.04 193.86 264.04C193.14 264.04 192.74 264.04 192.66 264.04C192.66 264.04 192.66 264.04 192.66 264.04C192.66 263.56 192.66 263.29 192.66 263.23C192.66 263.23 192.66 263.23 192.66 263.23C193.38 263.23 193.78 263.23 193.86 263.23Z" id="bhNynSmRq"></path><path d="M185.41 268.45C185.41 268.45 185.41 268.45 185.41 268.45C185.77 267.78 185.97 267.42 186.01 267.34C186.01 267.34 186.01 267.34 186.01 267.34C186.4 267.58 186.62 267.72 186.66 267.75C186.66 267.75 186.66 267.75 186.66 267.75C186.31 268.41 186.11 268.78 186.07 268.85C186.07 268.85 186.07 268.85 186.07 268.85C185.67 268.61 185.45 268.48 185.41 268.45Z" id="h1JeZfDpHP"></path><path d="M190.22 259.53C190.22 259.53 190.22 259.53 190.22 259.53C190.58 258.87 190.78 258.5 190.82 258.42C190.82 258.42 190.82 258.42 190.82 258.42C191.22 258.67 191.43 258.8 191.48 258.83C191.48 258.83 191.48 258.83 191.48 258.83C191.12 259.49 190.92 259.86 190.88 259.94C190.88 259.94 190.88 259.94 190.88 259.94C190.49 259.69 190.27 259.56 190.22 259.53Z" id="b1qSuY4hz"></path><path d="M293.38 122.89C291.36 120.53 290.12 117.39 290.12 113.94C290.12 106.63 295.66 100.7 302.5 100.7C309.33 100.7 314.87 106.63 314.87 113.94C314.87 121.25 309.33 127.17 302.5 127.17C299.25 127.17 296.3 125.84 294.09 123.65" id="dKnyhXNEo"></path><path d="M293.83 123.95C293.88 123.89 294.3 123.41 294.35 123.35C296.57 125.56 299.46 126.77 302.5 126.77C305.7 126.77 308.71 125.43 310.98 123.01C313.24 120.59 314.49 117.37 314.49 113.94C314.49 110.51 313.24 107.29 310.98 104.87C308.71 102.44 305.7 101.11 302.5 101.11C299.29 101.11 296.28 102.44 294.01 104.87C291.75 107.29 290.5 110.51 290.5 113.94C290.5 117.16 291.62 120.24 293.66 122.61C293.6 122.67 293.16 123.11 293.1 123.16C290.93 120.64 289.74 117.36 289.74 113.94C289.74 110.3 291.07 106.87 293.48 104.29C295.89 101.72 299.09 100.3 302.5 100.3C305.9 100.3 309.11 101.72 311.51 104.29C313.92 106.87 315.25 110.3 315.25 113.94C315.25 117.58 313.92 121.01 311.51 123.58C309.11 126.16 305.9 127.58 302.5 127.58C299.27 127.58 296.2 126.29 293.83 123.95Z" id="b1xJSw0Q3i"></path><path d="M293.04 107.57C293.18 107.35 293.25 107.23 293.27 107.21C294.54 105.19 296.28 103.71 298.43 102.83C299.74 102.29 300.9 102.1 301.65 102.03C301.68 102.03 301.82 102.02 302.07 101.99L302.07 111.62C301.91 111.68 301.82 111.71 301.81 111.71C301.52 111.81 301.27 111.97 301.04 112.19C301.03 112.2 300.96 112.27 300.84 112.38L293.04 107.57ZM300.75 111.4C300.93 111.26 301.11 111.14 301.31 111.05C301.31 110.23 301.31 103.7 301.31 102.89C300.62 102.98 299.71 103.17 298.7 103.59C296.83 104.36 295.29 105.61 294.13 107.31C295.45 108.12 300.09 110.99 300.75 111.4Z" id="b66EEyOlW6"></path><path d="M292.43 119.12C291.36 116.78 291.06 114.27 291.55 111.66C291.78 110.41 292.16 109.39 292.43 108.77C292.45 108.74 292.5 108.61 292.61 108.36L300.4 113.18C300.37 113.35 300.35 113.45 300.35 113.46C300.32 113.62 300.31 113.78 300.31 113.94C300.31 114.1 300.32 114.26 300.35 114.41C300.35 114.43 300.37 114.53 300.4 114.7L292.61 119.51C292.5 119.28 292.44 119.15 292.43 119.12ZM292.29 111.82C291.87 114.1 292.09 116.3 292.94 118.37C293.6 117.96 298.9 114.69 299.56 114.28C299.55 114.17 299.55 114.05 299.55 113.94C299.55 113.82 299.55 113.71 299.56 113.6C299.12 113.32 296.92 111.96 292.95 109.51C292.63 110.43 292.41 111.2 292.29 111.82Z" id="bITnEkyTy"></path><path d="M301.66 125.85C296.92 125.49 294.22 122.11 293.28 120.67C293.26 120.65 293.18 120.53 293.04 120.31L300.84 115.49C300.96 115.61 301.03 115.68 301.04 115.69C301.27 115.9 301.52 116.06 301.81 116.16C301.82 116.17 301.91 116.2 302.07 116.25L302.07 125.88C301.82 125.86 301.69 125.85 301.66 125.85ZM301.31 125C301.31 124.18 301.31 117.64 301.31 116.83C301.11 116.73 300.93 116.62 300.75 116.48C300.31 116.75 298.11 118.11 294.14 120.56C296.37 123.22 298.76 124.7 301.31 125Z" id="h1gVZ6ge9Z"></path><path d="M302.93 116.25C303.08 116.2 303.17 116.17 303.19 116.16C303.47 116.06 303.73 115.9 303.95 115.69C303.96 115.68 304.03 115.61 304.16 115.49L311.95 120.31C311.81 120.52 311.74 120.64 311.72 120.67C310.45 122.69 308.71 124.16 306.56 125.05C305.25 125.58 304.09 125.78 303.34 125.85C303.31 125.85 303.17 125.86 302.93 125.88L302.93 116.25ZM303.68 124.99C304.37 124.9 305.28 124.7 306.29 124.29C308.16 123.52 309.7 122.27 310.86 120.57C310.2 120.16 304.9 116.89 304.24 116.48C304.07 116.62 303.88 116.73 303.68 116.83C303.68 118.46 303.68 124.18 303.68 124.99Z" id="a8yNLWZS"></path><path d="M304.59 114.7C304.62 114.53 304.64 114.43 304.64 114.41C304.67 114.26 304.69 114.1 304.69 113.94C304.69 113.78 304.67 113.62 304.64 113.46C304.64 113.45 304.62 113.35 304.59 113.18L312.38 108.37C312.49 108.6 312.55 108.73 312.56 108.76C313.63 111.1 313.93 113.61 313.44 116.21C313.21 117.47 312.83 118.48 312.56 119.11C312.55 119.14 312.49 119.27 312.38 119.51L304.59 114.7ZM312.04 118.36C312.27 117.78 312.53 116.99 312.7 116.05C313.12 113.77 312.91 111.57 312.05 109.51C311.39 109.92 306.09 113.19 305.43 113.6C305.44 113.71 305.44 113.82 305.44 113.94C305.44 114.05 305.44 114.17 305.43 114.28C306.75 115.1 311.38 117.96 312.04 118.36Z" id="b18g8iDzdZ"></path><path d="M303.95 112.19C303.73 111.97 303.47 111.81 303.19 111.71C303.17 111.71 303.08 111.68 302.93 111.62L302.93 102C303.17 102.02 303.3 102.03 303.33 102.03C308.07 102.39 310.78 105.77 311.72 107.21C311.73 107.23 311.81 107.35 311.95 107.57L304.16 112.38C304.03 112.27 303.96 112.2 303.95 112.19ZM304.24 111.4C304.9 110.99 310.19 107.72 310.85 107.31C309.83 105.89 307.5 103.33 303.68 102.88C303.68 103.42 303.68 106.15 303.68 111.05C303.94 111.19 304.12 111.3 304.24 111.4Z" id="c12CWD2ewz"></path><path d="M304.73 104.72C304.74 104.64 304.9 104.02 304.91 103.94C306.56 104.39 308.1 105.35 309.36 106.71C309.32 106.75 309.14 106.94 308.82 107.28C307.36 105.93 306 105.07 304.73 104.72Z" id="b6ui9ar0c"></path><path d="M299.46 109.13C299.46 109.13 299.46 109.13 299.46 109.13C299.86 108.89 300.07 108.75 300.12 108.72C300.12 108.72 300.12 108.72 300.12 108.72C300.48 109.39 300.68 109.76 300.72 109.83C300.72 109.83 300.72 109.83 300.72 109.83C300.32 110.07 300.1 110.21 300.06 110.24C300.06 110.24 300.06 110.24 300.06 110.24C299.7 109.57 299.5 109.2 299.46 109.13Z" id="d6s8LqlEX"></path><path d="M304.28 118.05C304.28 118.05 304.28 118.05 304.28 118.05C304.67 117.8 304.89 117.67 304.93 117.64C304.93 117.64 304.93 117.64 304.93 117.64C305.29 118.31 305.49 118.67 305.53 118.75C305.53 118.75 305.53 118.75 305.53 118.75C305.14 118.99 304.92 119.13 304.87 119.15C304.87 119.15 304.87 119.15 304.87 119.15C304.52 118.49 304.32 118.12 304.28 118.05Z" id="barYAQNmV"></path><path d="M298.28 113.53C298.28 113.53 298.28 113.53 298.28 113.53C298.28 114.02 298.28 114.29 298.28 114.34C298.28 114.34 298.28 114.34 298.28 114.34C297.56 114.34 297.16 114.34 297.08 114.34C297.08 114.34 297.08 114.34 297.08 114.34C297.08 113.86 297.08 113.59 297.08 113.53C297.08 113.53 297.08 113.53 297.08 113.53C297.8 113.53 298.2 113.53 298.28 113.53Z" id="bqN4slaZQ"></path><path d="M307.91 113.53C307.91 113.53 307.91 113.53 307.91 113.53C307.91 114.02 307.91 114.29 307.91 114.34C307.91 114.34 307.91 114.34 307.91 114.34C307.19 114.34 306.79 114.34 306.71 114.34C306.71 114.34 306.71 114.34 306.71 114.34C306.71 113.86 306.71 113.59 306.71 113.53C306.71 113.53 306.71 113.53 306.71 113.53C307.43 113.53 307.83 113.53 307.91 113.53Z" id="a1l9mhFUCS"></path><path d="M299.46 118.75C299.46 118.75 299.46 118.75 299.46 118.75C299.82 118.08 300.02 117.71 300.06 117.64C300.06 117.64 300.06 117.64 300.06 117.64C300.45 117.88 300.67 118.02 300.72 118.05C300.72 118.05 300.72 118.05 300.72 118.05C300.36 118.71 300.16 119.08 300.12 119.15C300.12 119.15 300.12 119.15 300.12 119.15C299.72 118.91 299.51 118.78 299.46 118.75Z" id="bj6wER0Zf"></path><path d="M304.28 109.83C304.28 109.83 304.28 109.83 304.28 109.83C304.63 109.17 304.83 108.8 304.87 108.72C304.87 108.72 304.87 108.72 304.87 108.72C305.27 108.97 305.49 109.1 305.53 109.13C305.53 109.13 305.53 109.13 305.53 109.13C305.17 109.79 304.97 110.16 304.93 110.24C304.93 110.24 304.93 110.24 304.93 110.24C304.54 109.99 304.32 109.86 304.28 109.83Z" id="bIJ4PodSZ"></path><path d="M99.79 100.92C97.77 98.56 96.54 95.42 96.54 91.97C96.54 84.66 102.08 78.74 108.91 78.74C115.75 78.74 121.29 84.66 121.29 91.97C121.29 99.28 115.75 105.21 108.91 105.21C105.67 105.21 102.71 103.87 100.51 101.68" id="aatnakSlv"></path><path d="M100.25 101.98C100.3 101.92 100.71 101.45 100.76 101.39C102.99 103.59 105.88 104.8 108.91 104.8C112.12 104.8 115.13 103.47 117.39 101.04C119.66 98.62 120.91 95.4 120.91 91.97C120.91 88.54 119.66 85.32 117.39 82.9C115.13 80.48 112.12 79.14 108.91 79.14C105.71 79.14 102.69 80.48 100.43 82.9C98.16 85.32 96.92 88.54 96.92 91.97C96.92 95.19 98.04 98.27 100.07 100.65C100.02 100.7 99.57 101.14 99.52 101.19C97.35 98.67 96.16 95.4 96.16 91.97C96.16 88.33 97.48 84.9 99.89 82.33C102.3 79.75 105.5 78.33 108.91 78.33C112.32 78.33 115.52 79.75 117.93 82.33C120.34 84.9 121.67 88.33 121.67 91.97C121.67 95.61 120.34 99.04 117.93 101.62C115.52 104.19 112.32 105.61 108.91 105.61C105.69 105.61 102.61 104.32 100.25 101.98Z" id="jzlqBjv3j"></path><path d="M99.46 85.6C99.59 85.39 99.67 85.27 99.68 85.24C100.96 83.22 102.7 81.74 104.85 80.86C106.15 80.33 107.32 80.13 108.07 80.06C108.1 80.06 108.23 80.05 108.48 80.03L108.48 89.66C108.33 89.71 108.24 89.74 108.22 89.75C107.94 89.85 107.68 90.01 107.46 90.22C107.44 90.23 107.37 90.3 107.25 90.42L99.46 85.6ZM107.17 89.43C107.34 89.29 107.53 89.18 107.72 89.08C107.72 88.27 107.72 81.73 107.72 80.92C107.04 81.01 106.12 81.21 105.12 81.62C103.25 82.39 101.71 83.64 100.55 85.34C101.87 86.16 106.51 89.02 107.17 89.43Z" id="a7pIloqtqn"></path><path d="M98.85 97.15C97.78 94.81 97.48 92.3 97.96 89.7C98.2 88.44 98.57 87.43 98.85 86.8C98.86 86.77 98.92 86.64 99.02 86.4L106.82 91.21C106.79 91.38 106.77 91.48 106.77 91.5C106.74 91.65 106.72 91.81 106.72 91.97C106.72 92.13 106.74 92.29 106.77 92.45C106.77 92.46 106.79 92.56 106.82 92.73L99.03 97.54C98.92 97.31 98.86 97.18 98.85 97.15ZM98.71 89.86C98.28 92.13 98.5 94.34 99.36 96.4C100.02 95.99 105.32 92.72 105.98 92.31C105.97 92.2 105.96 92.09 105.96 91.97C105.96 91.86 105.97 91.74 105.98 91.63C105.54 91.36 103.34 90 99.37 87.55C99.04 88.46 98.82 89.23 98.71 89.86Z" id="b10eglCJ8v"></path><path d="M108.08 103.88C103.33 103.52 100.63 100.14 99.69 98.7C99.68 98.68 99.6 98.56 99.45 98.34L107.25 93.53C107.37 93.64 107.44 93.71 107.46 93.72C107.68 93.94 107.94 94.1 108.22 94.2C108.24 94.2 108.33 94.23 108.48 94.29L108.48 103.91C108.24 103.89 108.1 103.88 108.08 103.88ZM107.72 103.03C107.72 102.22 107.72 95.68 107.72 94.86C107.53 94.77 107.34 94.65 107.17 94.51C106.73 94.79 104.52 96.15 100.56 98.6C102.79 101.25 105.18 102.73 107.72 103.03Z" id="d20vWykm4Y"></path><path d="M109.34 94.29C109.5 94.23 109.58 94.2 109.6 94.2C109.89 94.1 110.14 93.94 110.37 93.72C110.38 93.71 110.45 93.64 110.57 93.53L118.37 98.34C118.23 98.56 118.15 98.68 118.14 98.7C116.86 100.72 115.13 102.2 112.98 103.08C111.67 103.62 110.5 103.81 109.75 103.88C109.73 103.88 109.59 103.89 109.34 103.92L109.34 94.29ZM110.1 103.02C110.78 102.93 111.7 102.74 112.7 102.32C114.58 101.55 116.11 100.3 117.28 98.6C116.62 98.19 111.32 94.92 110.65 94.51C110.48 94.65 110.3 94.77 110.1 94.86C110.1 96.49 110.1 102.21 110.1 103.02Z" id="c2bYKrMypS"></path><path d="M111 92.73C111.04 92.56 111.05 92.46 111.06 92.45C111.09 92.29 111.1 92.13 111.1 91.97C111.1 91.81 111.09 91.65 111.06 91.5C111.05 91.48 111.04 91.38 111 91.21L118.8 86.4C118.9 86.63 118.96 86.76 118.98 86.79C120.05 89.13 120.34 91.64 119.86 94.24C119.63 95.5 119.25 96.52 118.97 97.14C118.96 97.17 118.9 97.3 118.8 97.54L111 92.73ZM118.46 96.4C118.68 95.82 118.94 95.02 119.12 94.09C119.54 91.81 119.32 89.61 118.47 87.54C117.8 87.95 112.51 91.22 111.84 91.63C111.85 91.74 111.86 91.86 111.86 91.97C111.86 92.09 111.85 92.2 111.84 92.31C113.17 93.13 117.79 95.99 118.46 96.4Z" id="aXcl6imV"></path><path d="M110.37 90.22C110.14 90.01 109.89 89.85 109.6 89.75C109.58 89.74 109.5 89.71 109.34 89.66L109.34 80.03C109.59 80.05 109.72 80.06 109.75 80.06C114.49 80.42 117.19 83.8 118.13 85.24C118.15 85.26 118.23 85.38 118.37 85.6L110.57 90.42C110.45 90.3 110.38 90.23 110.37 90.22ZM110.66 89.43C111.32 89.02 116.61 85.75 117.27 85.35C116.25 83.92 113.92 81.36 110.1 80.91C110.1 81.45 110.1 84.18 110.1 89.08C110.35 89.22 110.54 89.34 110.66 89.43Z" id="b20W3DUnyX"></path><path d="M111.14 82.76C111.16 82.68 111.31 82.05 111.33 81.97C112.97 82.42 114.51 83.38 115.77 84.74C115.74 84.78 115.56 84.97 115.24 85.32C113.78 83.96 112.41 83.11 111.14 82.76Z" id="dxW9IWpDQ"></path><path d="M105.88 87.16C105.88 87.16 105.88 87.16 105.88 87.16C106.27 86.92 106.49 86.78 106.53 86.76C106.53 86.76 106.53 86.76 106.53 86.76C106.89 87.42 107.09 87.79 107.13 87.86C107.13 87.86 107.13 87.86 107.13 87.86C106.74 88.11 106.52 88.24 106.48 88.27C106.48 88.27 106.48 88.27 106.48 88.27C106.12 87.6 105.92 87.24 105.88 87.16Z" id="a2PFn42juF"></path><path d="M110.69 96.08C110.69 96.08 110.69 96.08 110.69 96.08C111.09 95.84 111.3 95.7 111.35 95.67C111.35 95.67 111.35 95.67 111.35 95.67C111.71 96.34 111.91 96.71 111.95 96.78C111.95 96.78 111.95 96.78 111.95 96.78C111.55 97.02 111.33 97.16 111.29 97.19C111.29 97.19 111.29 97.19 111.29 97.19C110.93 96.52 110.73 96.15 110.69 96.08Z" id="c2d2MV3LH5"></path><path d="M104.7 91.57C104.7 91.57 104.7 91.57 104.7 91.57C104.7 92.05 104.7 92.32 104.7 92.38C104.7 92.38 104.7 92.38 104.7 92.38C103.98 92.38 103.58 92.38 103.5 92.38C103.5 92.38 103.5 92.38 103.5 92.38C103.5 91.89 103.5 91.62 103.5 91.57C103.5 91.57 103.5 91.57 103.5 91.57C104.22 91.57 104.62 91.57 104.7 91.57Z" id="f7PBwDCY2"></path><path d="M114.32 91.57C114.32 91.57 114.32 91.57 114.32 91.57C114.32 92.05 114.32 92.32 114.32 92.38C114.32 92.38 114.32 92.38 114.32 92.38C113.61 92.38 113.21 92.38 113.13 92.38C113.13 92.38 113.13 92.38 113.13 92.38C113.13 91.89 113.13 91.62 113.13 91.57C113.13 91.57 113.13 91.57 113.13 91.57C113.85 91.57 114.24 91.57 114.32 91.57Z" id="a5L6xj2ooW"></path><path d="M105.88 96.78C105.88 96.78 105.88 96.78 105.88 96.78C106.24 96.12 106.44 95.75 106.48 95.67C106.48 95.67 106.48 95.67 106.48 95.67C106.87 95.92 107.09 96.05 107.13 96.08C107.13 96.08 107.13 96.08 107.13 96.08C106.77 96.74 106.57 97.11 106.53 97.19C106.53 97.19 106.53 97.19 106.53 97.19C106.14 96.94 105.92 96.81 105.88 96.78Z" id="b26YICSNrM"></path><path d="M110.69 87.86C110.69 87.86 110.69 87.86 110.69 87.86C111.05 87.2 111.25 86.83 111.29 86.76C111.29 86.76 111.29 86.76 111.29 86.76C111.68 87 111.9 87.13 111.95 87.16C111.95 87.16 111.95 87.16 111.95 87.16C111.59 87.83 111.39 88.2 111.35 88.27C111.35 88.27 111.35 88.27 111.35 88.27C110.95 88.03 110.74 87.89 110.69 87.86Z" id="a3JLv4EAeN"></path><path d="M377.2 235.45C375.18 233.1 373.94 229.95 373.94 226.5C373.94 219.19 379.48 213.27 386.32 213.27C393.15 213.27 398.69 219.19 398.69 226.5C398.69 233.81 393.15 239.74 386.32 239.74C383.07 239.74 380.12 238.4 377.91 236.22" id="ammzxWuzV"></path><path d="M377.66 236.51C377.71 236.45 378.12 235.98 378.17 235.92C380.39 238.12 383.29 239.33 386.32 239.33C389.52 239.33 392.54 238 394.8 235.57C397.07 233.15 398.32 229.93 398.32 226.5C398.32 223.08 397.07 219.85 394.8 217.43C392.54 215.01 389.52 213.67 386.32 213.67C383.12 213.67 380.1 215.01 377.84 217.43C375.57 219.85 374.32 223.08 374.32 226.5C374.32 229.73 375.44 232.81 377.48 235.18C377.43 235.23 376.98 235.67 376.92 235.73C374.76 233.2 373.57 229.93 373.57 226.5C373.57 222.86 374.89 219.43 377.3 216.86C379.71 214.28 382.91 212.86 386.32 212.86C389.73 212.86 392.93 214.28 395.34 216.86C397.75 219.43 399.07 222.86 399.07 226.5C399.07 230.15 397.75 233.57 395.34 236.15C392.93 238.72 389.73 240.14 386.32 240.14C383.1 240.14 380.02 238.85 377.66 236.51Z" id="d2G1yorsw2"></path><path d="M376.86 220.13C377 219.92 377.08 219.8 377.09 219.77C378.37 217.75 380.1 216.28 382.26 215.39C383.56 214.86 384.73 214.66 385.48 214.6C385.51 214.59 385.64 214.58 385.89 214.56L385.89 224.19C385.73 224.24 385.65 224.27 385.63 224.28C385.35 224.38 385.09 224.54 384.86 224.75C384.85 224.76 384.78 224.83 384.66 224.95L376.86 220.13ZM384.58 223.96C384.75 223.82 384.94 223.71 385.13 223.62C385.13 222.8 385.13 216.27 385.13 215.45C384.45 215.54 383.53 215.74 382.53 216.15C380.65 216.92 379.12 218.17 377.95 219.87C379.28 220.69 383.91 223.55 384.58 223.96Z" id="c1lXhaIDSx"></path><path d="M376.26 231.68C375.19 229.34 374.89 226.83 375.37 224.23C375.61 222.97 375.98 221.96 376.26 221.33C376.27 221.3 376.33 221.17 376.43 220.93L384.23 225.74C384.2 225.91 384.18 226.01 384.17 226.03C384.14 226.18 384.13 226.34 384.13 226.5C384.13 226.66 384.14 226.82 384.17 226.98C384.18 227 384.2 227.09 384.23 227.26L376.43 232.07C376.33 231.84 376.27 231.71 376.26 231.68ZM376.12 224.39C375.69 226.67 375.91 228.87 376.77 230.93C377.43 230.53 382.73 227.25 383.39 226.85C383.38 226.73 383.37 226.62 383.37 226.5C383.37 226.39 383.38 226.27 383.39 226.16C382.95 225.89 380.74 224.53 376.78 222.08C376.45 222.99 376.23 223.76 376.12 224.39Z" id="cixAP402d"></path><path d="M385.48 238.41C380.74 238.05 378.04 234.67 377.1 233.24C377.08 233.21 377 233.09 376.86 232.87L384.66 228.06C384.78 228.18 384.85 228.24 384.86 228.25C385.09 228.47 385.35 228.63 385.63 228.73C385.65 228.73 385.73 228.76 385.89 228.82L385.89 238.44C385.65 238.42 385.51 238.41 385.48 238.41ZM385.13 237.57C385.13 236.75 385.13 230.21 385.13 229.39C384.94 229.3 384.75 229.18 384.58 229.05C384.14 229.32 381.93 230.68 377.96 233.13C380.2 235.79 382.58 237.27 385.13 237.57Z" id="a4bY4ZYl9"></path><path d="M386.75 228.82C386.91 228.76 386.99 228.73 387.01 228.73C387.29 228.63 387.55 228.47 387.77 228.25C387.79 228.24 387.86 228.18 387.98 228.06L395.77 232.87C395.64 233.09 395.56 233.21 395.55 233.23C394.27 235.26 392.53 236.73 390.38 237.61C389.08 238.15 387.91 238.34 387.16 238.41C387.13 238.41 387 238.42 386.75 238.45L386.75 228.82ZM387.51 237.56C388.19 237.46 389.11 237.27 390.11 236.85C391.99 236.09 393.52 234.84 394.69 233.13C394.02 232.73 388.73 229.45 388.06 229.05C387.89 229.18 387.7 229.3 387.51 229.39C387.51 231.02 387.51 236.74 387.51 237.56Z" id="a2m9A3YhHZ"></path><path d="M388.41 227.26C388.44 227.09 388.46 227 388.47 226.98C388.5 226.82 388.51 226.66 388.51 226.5C388.51 226.34 388.5 226.18 388.47 226.03C388.46 226.01 388.44 225.91 388.41 225.74L396.2 220.93C396.31 221.16 396.37 221.29 396.38 221.32C397.45 223.67 397.75 226.17 397.27 228.78C397.03 230.03 396.66 231.05 396.38 231.68C396.37 231.7 396.31 231.84 396.21 232.08L388.41 227.26ZM395.86 230.93C396.09 230.35 396.35 229.55 396.52 228.62C396.95 226.34 396.73 224.14 395.87 222.07C395.21 222.48 389.91 225.75 389.25 226.16C389.26 226.27 389.27 226.39 389.27 226.5C389.27 226.62 389.26 226.73 389.25 226.85C390.57 227.66 395.2 230.52 395.86 230.93Z" id="c33k85Txh"></path><path d="M387.77 224.75C387.55 224.54 387.29 224.38 387.01 224.28C386.99 224.27 386.91 224.24 386.75 224.19L386.75 214.56C386.99 214.58 387.13 214.59 387.16 214.59C391.9 214.95 394.6 218.33 395.54 219.77C395.56 219.79 395.64 219.91 395.78 220.13L387.98 224.95C387.86 224.83 387.79 224.76 387.77 224.75ZM388.06 223.96C388.72 223.55 394.01 220.29 394.67 219.88C393.66 218.45 391.33 215.89 387.51 215.44C387.51 215.98 387.51 218.71 387.51 223.62C387.76 223.75 387.95 223.87 388.06 223.96Z" id="a1pz6Iq9N2"></path><path d="M388.55 217.29C388.57 217.21 388.72 216.58 388.74 216.5C390.38 216.96 391.92 217.91 393.18 219.28C393.15 219.31 392.97 219.5 392.64 219.85C391.19 218.49 389.82 217.64 388.55 217.29Z" id="bXhtidv1I"></path><path d="M383.29 221.69C383.29 221.69 383.29 221.69 383.29 221.69C383.68 221.45 383.9 221.32 383.94 221.29C383.94 221.29 383.94 221.29 383.94 221.29C384.3 221.95 384.5 222.32 384.54 222.4C384.54 222.4 384.54 222.4 384.54 222.4C384.15 222.64 383.93 222.77 383.88 222.8C383.88 222.8 383.88 222.8 383.88 222.8C383.52 222.14 383.32 221.77 383.29 221.69Z" id="a2QxETAvS5"></path><path d="M388.1 230.61C388.1 230.61 388.1 230.61 388.1 230.61C388.49 230.37 388.71 230.23 388.76 230.2C388.76 230.2 388.76 230.2 388.76 230.2C389.12 230.87 389.31 231.24 389.35 231.31C389.35 231.31 389.35 231.31 389.35 231.31C388.96 231.56 388.74 231.69 388.7 231.72C388.7 231.72 388.7 231.72 388.7 231.72C388.34 231.05 388.14 230.68 388.1 230.61Z" id="avlRdhPH8"></path><path d="M382.1 226.1C382.1 226.1 382.1 226.1 382.1 226.1C382.1 226.58 382.1 226.85 382.1 226.91C382.1 226.91 382.1 226.91 382.1 226.91C381.39 226.91 380.99 226.91 380.91 226.91C380.91 226.91 380.91 226.91 380.91 226.91C380.91 226.42 380.91 226.15 380.91 226.1C380.91 226.1 380.91 226.1 380.91 226.1C381.63 226.1 382.02 226.1 382.1 226.1Z" id="e70Qbxwwjr"></path><path d="M391.73 226.1C391.73 226.1 391.73 226.1 391.73 226.1C391.73 226.58 391.73 226.85 391.73 226.91C391.73 226.91 391.73 226.91 391.73 226.91C391.01 226.91 390.62 226.91 390.54 226.91C390.54 226.91 390.54 226.91 390.54 226.91C390.54 226.42 390.54 226.15 390.54 226.1C390.54 226.1 390.54 226.1 390.54 226.1C391.25 226.1 391.65 226.1 391.73 226.1Z" id="dHt8aBtKS"></path><path d="M383.29 231.31C383.29 231.31 383.29 231.31 383.29 231.31C383.64 230.65 383.84 230.28 383.88 230.2C383.88 230.2 383.88 230.2 383.88 230.2C384.28 230.45 384.5 230.58 384.54 230.61C384.54 230.61 384.54 230.61 384.54 230.61C384.18 231.27 383.98 231.64 383.94 231.72C383.94 231.72 383.94 231.72 383.94 231.72C383.55 231.47 383.33 231.34 383.29 231.31Z" id="f6XUOPJnhL"></path><path d="M388.1 222.4C388.1 222.4 388.1 222.4 388.1 222.4C388.46 221.73 388.66 221.36 388.7 221.29C388.7 221.29 388.7 221.29 388.7 221.29C389.09 221.53 389.31 221.67 389.35 221.69C389.35 221.69 389.35 221.69 389.35 221.69C388.99 222.36 388.8 222.73 388.76 222.8C388.76 222.8 388.76 222.8 388.76 222.8C388.36 222.56 388.14 222.42 388.1 222.4Z" id="egHXHKilV"></path><path d="M130.71 422.06C128.69 419.7 127.45 416.56 127.45 413.11C127.45 405.8 132.99 399.87 139.83 399.87C146.66 399.87 152.2 405.8 152.2 413.11C152.2 420.42 146.66 426.34 139.83 426.34C136.58 426.34 133.63 425.01 131.42 422.82" id="czwrgqmcP"></path><path d="M131.16 423.12C131.21 423.06 131.63 422.58 131.68 422.52C133.9 424.73 136.79 425.94 139.83 425.94C143.03 425.94 146.04 424.6 148.31 422.18C150.57 419.76 151.82 416.54 151.82 413.11C151.82 409.68 150.57 406.46 148.31 404.04C146.04 401.61 143.03 400.28 139.83 400.28C136.62 400.28 133.61 401.61 131.34 404.04C129.08 406.46 127.83 409.68 127.83 413.11C127.83 416.33 128.95 419.41 130.99 421.78C130.93 421.84 130.49 422.28 130.43 422.33C128.26 419.81 127.07 416.53 127.07 413.11C127.07 409.47 128.4 406.04 130.81 403.46C133.22 400.89 136.42 399.47 139.83 399.47C143.23 399.47 146.44 400.89 148.84 403.46C151.25 406.04 152.58 409.47 152.58 413.11C152.58 416.75 151.25 420.18 148.84 422.75C146.44 425.33 143.23 426.75 139.83 426.75C136.6 426.75 133.53 425.46 131.16 423.12Z" id="axXwN1GpW"></path><path d="M130.37 406.74C130.51 406.52 130.58 406.4 130.6 406.38C131.87 404.36 133.61 402.88 135.76 402C137.07 401.46 138.23 401.27 138.98 401.2C139.01 401.2 139.15 401.19 139.4 401.16L139.4 410.79C139.24 410.85 139.15 410.88 139.14 410.88C138.85 410.98 138.59 411.14 138.37 411.36C138.36 411.37 138.29 411.44 138.17 411.55L130.37 406.74ZM138.08 410.57C138.26 410.43 138.44 410.31 138.64 410.22C138.64 409.41 138.64 402.87 138.64 402.06C137.95 402.15 137.04 402.34 136.03 402.76C134.16 403.53 132.62 404.78 131.46 406.48C132.78 407.29 137.42 410.16 138.08 410.57Z" id="c1Lut5khDd"></path><path d="M129.76 418.29C128.69 415.95 128.39 413.44 128.88 410.83C129.11 409.58 129.49 408.56 129.76 407.94C129.78 407.91 129.83 407.78 129.94 407.54L137.73 412.35C137.7 412.52 137.68 412.62 137.68 412.63C137.65 412.79 137.63 412.95 137.63 413.11C137.63 413.27 137.65 413.43 137.68 413.58C137.68 413.6 137.7 413.7 137.73 413.87L129.94 418.68C129.83 418.45 129.77 418.32 129.76 418.29ZM129.62 410.99C129.2 413.27 129.42 415.47 130.27 417.54C130.93 417.13 136.23 413.86 136.89 413.45C136.88 413.34 136.88 413.22 136.88 413.11C136.88 412.99 136.88 412.88 136.89 412.77C136.45 412.49 134.25 411.13 130.28 408.68C129.96 409.6 129.74 410.37 129.62 410.99Z" id="g63Env8T2"></path><path d="M138.99 425.02C134.25 424.66 131.55 421.28 130.61 419.84C130.59 419.82 130.51 419.7 130.37 419.48L138.17 414.66C138.29 414.78 138.36 414.85 138.37 414.86C138.59 415.07 138.85 415.23 139.14 415.33C139.15 415.34 139.24 415.37 139.4 415.42L139.4 425.05C139.15 425.03 139.02 425.02 138.99 425.02ZM138.64 424.17C138.64 423.35 138.64 416.81 138.64 416C138.44 415.9 138.26 415.79 138.08 415.65C137.64 415.92 135.44 417.28 131.47 419.73C133.7 422.39 136.09 423.87 138.64 424.17Z" id="c3rDFZGdwx"></path><path d="M140.26 415.42C140.41 415.37 140.5 415.34 140.52 415.33C140.8 415.23 141.06 415.07 141.28 414.86C141.29 414.85 141.36 414.78 141.49 414.66L149.28 419.48C149.14 419.69 149.07 419.81 149.05 419.84C147.78 421.86 146.04 423.33 143.89 424.22C142.58 424.75 141.42 424.95 140.67 425.02C140.64 425.02 140.5 425.03 140.26 425.05L140.26 415.42ZM141.01 424.16C141.7 424.07 142.61 423.87 143.62 423.46C145.49 422.69 147.03 421.44 148.19 419.74C147.53 419.33 142.23 416.06 141.57 415.65C141.4 415.79 141.21 415.9 141.01 416C141.01 417.63 141.01 423.35 141.01 424.16Z" id="d3hikOhv4E"></path><path d="M141.92 413.87C141.95 413.7 141.97 413.6 141.97 413.58C142 413.43 142.02 413.27 142.02 413.11C142.02 412.95 142 412.79 141.97 412.63C141.97 412.62 141.95 412.52 141.92 412.35L149.71 407.54C149.82 407.77 149.88 407.9 149.89 407.93C150.96 410.27 151.26 412.78 150.77 415.38C150.54 416.64 150.16 417.65 149.89 418.28C149.88 418.31 149.82 418.44 149.71 418.68L141.92 413.87ZM149.37 417.53C149.6 416.95 149.86 416.16 150.03 415.22C150.45 412.94 150.23 410.74 149.38 408.68C148.72 409.09 143.42 412.36 142.76 412.77C142.77 412.88 142.77 412.99 142.77 413.11C142.77 413.22 142.77 413.34 142.76 413.45C144.08 414.27 148.71 417.13 149.37 417.53Z" id="e4DzLessa4"></path><path d="M141.28 411.36C141.06 411.14 140.8 410.98 140.52 410.88C140.5 410.88 140.41 410.85 140.26 410.79L140.26 401.17C140.5 401.19 140.63 401.2 140.66 401.2C145.4 401.56 148.11 404.94 149.05 406.38C149.06 406.4 149.14 406.52 149.28 406.74L141.49 411.55C141.36 411.44 141.29 411.37 141.28 411.36ZM141.57 410.57C142.23 410.16 147.52 406.89 148.18 406.48C147.16 405.06 144.83 402.5 141.01 402.05C141.01 402.59 141.01 405.32 141.01 410.22C141.27 410.36 141.45 410.47 141.57 410.57Z" id="a2VJH5MXYR"></path><path d="M142.06 403.89C142.07 403.81 142.23 403.19 142.24 403.11C143.89 403.56 145.43 404.52 146.69 405.88C146.65 405.92 146.47 406.11 146.15 406.45C144.69 405.1 143.33 404.24 142.06 403.89Z" id="b1Qo8wQEnV"></path><path d="M136.79 408.3C136.79 408.3 136.79 408.3 136.79 408.3C137.18 408.06 137.4 407.92 137.45 407.89C137.45 407.89 137.45 407.89 137.45 407.89C137.81 408.56 138.01 408.93 138.05 409C138.05 409 138.05 409 138.05 409C137.65 409.24 137.43 409.38 137.39 409.41C137.39 409.41 137.39 409.41 137.39 409.41C137.03 408.74 136.83 408.37 136.79 408.3Z" id="dBCmMPEDI"></path><path d="M141.61 417.22C141.61 417.22 141.61 417.22 141.61 417.22C142 416.97 142.22 416.84 142.26 416.81C142.26 416.81 142.26 416.81 142.26 416.81C142.62 417.48 142.82 417.84 142.86 417.92C142.86 417.92 142.86 417.92 142.86 417.92C142.47 418.16 142.25 418.3 142.2 418.32C142.2 418.32 142.2 418.32 142.2 418.32C141.85 417.66 141.65 417.29 141.61 417.22Z" id="c16v7chnIR"></path><path d="M135.61 412.7C135.61 412.7 135.61 412.7 135.61 412.7C135.61 413.19 135.61 413.46 135.61 413.51C135.61 413.51 135.61 413.51 135.61 413.51C134.89 413.51 134.49 413.51 134.41 413.51C134.41 413.51 134.41 413.51 134.41 413.51C134.41 413.03 134.41 412.76 134.41 412.7C134.41 412.7 134.41 412.7 134.41 412.7C135.13 412.7 135.53 412.7 135.61 412.7Z" id="cVnzKverc"></path><path d="M145.24 412.7C145.24 412.7 145.24 412.7 145.24 412.7C145.24 413.19 145.24 413.46 145.24 413.51C145.24 413.51 145.24 413.51 145.24 413.51C144.52 413.51 144.12 413.51 144.04 413.51C144.04 413.51 144.04 413.51 144.04 413.51C144.04 413.03 144.04 412.76 144.04 412.7C144.04 412.7 144.04 412.7 144.04 412.7C144.76 412.7 145.16 412.7 145.24 412.7Z" id="i26IGdQzQ"></path><path d="M136.79 417.92C136.79 417.92 136.79 417.92 136.79 417.92C137.15 417.25 137.35 416.88 137.39 416.81C137.39 416.81 137.39 416.81 137.39 416.81C137.78 417.05 138 417.19 138.05 417.22C138.05 417.22 138.05 417.22 138.05 417.22C137.69 417.88 137.49 418.25 137.45 418.32C137.45 418.32 137.45 418.32 137.45 418.32C137.05 418.08 136.84 417.95 136.79 417.92Z" id="d13b5aM0oV"></path><path d="M141.61 409C141.61 409 141.61 409 141.61 409C141.96 408.34 142.16 407.97 142.2 407.89C142.2 407.89 142.2 407.89 142.2 407.89C142.6 408.14 142.82 408.27 142.86 408.3C142.86 408.3 142.86 408.3 142.86 408.3C142.5 408.96 142.3 409.33 142.26 409.41C142.26 409.41 142.26 409.41 142.26 409.41C141.87 409.16 141.65 409.03 141.61 409Z" id="fEP58zn1X"></path><path d="M50.47 217.35C48.45 215 47.21 211.86 47.21 208.4C47.21 201.1 52.75 195.17 59.59 195.17C66.42 195.17 71.96 201.1 71.96 208.4C71.96 215.71 66.42 221.64 59.59 221.64C56.34 221.64 53.39 220.3 51.18 218.12" id="bvjPWMoOd"></path><path d="M50.92 218.41C50.97 218.36 51.39 217.88 51.44 217.82C53.66 220.02 56.55 221.23 59.59 221.23C62.79 221.23 65.8 219.9 68.07 217.48C70.33 215.05 71.58 211.83 71.58 208.4C71.58 204.98 70.33 201.76 68.07 199.33C65.8 196.91 62.79 195.58 59.59 195.58C56.38 195.58 53.37 196.91 51.1 199.33C48.84 201.76 47.59 204.98 47.59 208.4C47.59 211.63 48.71 214.71 50.75 217.08C50.69 217.13 50.25 217.57 50.19 217.63C48.02 215.11 46.83 211.83 46.83 208.4C46.83 204.76 48.16 201.34 50.57 198.76C52.98 196.18 56.18 194.77 59.59 194.77C62.99 194.77 66.2 196.18 68.6 198.76C71.01 201.34 72.34 204.76 72.34 208.4C72.34 212.05 71.01 215.47 68.6 218.05C66.2 220.63 62.99 222.04 59.59 222.04C56.36 222.04 53.29 220.76 50.92 218.41Z" id="e105077Db"></path><path d="M50.13 202.04C50.27 201.82 50.34 201.7 50.36 201.68C51.63 199.65 53.37 198.18 55.52 197.3C56.83 196.76 57.99 196.57 58.74 196.5C58.77 196.49 58.91 196.48 59.16 196.46L59.16 206.09C59 206.14 58.91 206.17 58.9 206.18C58.61 206.28 58.36 206.44 58.13 206.65C58.12 206.67 58.05 206.73 57.93 206.85L50.13 202.04ZM57.84 205.86C58.02 205.73 58.2 205.61 58.4 205.52C58.4 204.7 58.4 198.17 58.4 197.35C57.71 197.44 56.8 197.64 55.79 198.05C53.92 198.82 52.38 200.07 51.22 201.77C52.54 202.59 57.18 205.45 57.84 205.86Z" id="b3k9tovZFw"></path><path d="M49.52 213.59C48.45 211.24 48.15 208.73 48.64 206.13C48.87 204.87 49.25 203.86 49.52 203.23C49.54 203.2 49.59 203.07 49.7 202.83L57.49 207.64C57.46 207.82 57.44 207.91 57.44 207.93C57.41 208.09 57.4 208.25 57.4 208.4C57.4 208.56 57.41 208.72 57.44 208.88C57.44 208.9 57.46 208.99 57.49 209.16L49.7 213.98C49.59 213.74 49.53 213.61 49.52 213.59ZM49.38 206.29C48.96 208.57 49.18 210.77 50.03 212.84C50.69 212.43 55.99 209.16 56.65 208.75C56.64 208.63 56.64 208.52 56.64 208.4C56.64 208.29 56.64 208.18 56.65 208.06C56.21 207.79 54.01 206.43 50.04 203.98C49.72 204.89 49.5 205.66 49.38 206.29Z" id="b46dkXfOdb"></path><path d="M58.75 220.31C54.01 219.95 51.31 216.57 50.37 215.14C50.35 215.11 50.27 214.99 50.13 214.78L57.93 209.96C58.05 210.08 58.12 210.14 58.13 210.16C58.36 210.37 58.61 210.53 58.9 210.63C58.91 210.64 59 210.67 59.16 210.72L59.16 220.35C58.91 220.33 58.78 220.32 58.75 220.31ZM58.4 219.47C58.4 218.65 58.4 212.11 58.4 211.29C58.2 211.2 58.02 211.08 57.84 210.95C57.4 211.22 55.2 212.58 51.23 215.03C53.46 217.69 55.85 219.17 58.4 219.47Z" id="d1G4BHGFy"></path><path d="M60.02 210.72C60.17 210.67 60.26 210.64 60.28 210.63C60.56 210.53 60.82 210.37 61.04 210.16C61.05 210.14 61.12 210.08 61.25 209.96L69.04 214.77C68.9 214.99 68.83 215.11 68.81 215.13C67.54 217.16 65.8 218.63 63.65 219.51C62.34 220.05 61.18 220.24 60.43 220.31C60.4 220.31 60.26 220.33 60.02 220.35L60.02 210.72ZM60.77 219.46C61.46 219.37 62.37 219.17 63.38 218.76C65.25 217.99 66.79 216.74 67.95 215.04C67.29 214.63 61.99 211.36 61.33 210.95C61.16 211.08 60.97 211.2 60.77 211.29C60.77 212.93 60.77 218.64 60.77 219.46Z" id="eid4Hbi2J"></path><path d="M61.68 209.16C61.71 208.99 61.73 208.9 61.73 208.88C61.76 208.72 61.78 208.56 61.78 208.4C61.78 208.25 61.76 208.09 61.73 207.93C61.73 207.91 61.71 207.82 61.68 207.64L69.47 202.83C69.58 203.07 69.64 203.2 69.65 203.22C70.72 205.57 71.02 208.08 70.53 210.68C70.3 211.94 69.92 212.95 69.65 213.58C69.64 213.6 69.58 213.74 69.47 213.98L61.68 209.16ZM69.13 212.83C69.36 212.25 69.62 211.46 69.79 210.52C70.21 208.24 70 206.04 69.14 203.97C68.48 204.38 63.18 207.65 62.52 208.06C62.53 208.18 62.53 208.29 62.53 208.4C62.53 208.52 62.53 208.63 62.52 208.75C63.84 209.56 68.47 212.42 69.13 212.83Z" id="b1d92OLOOz"></path><path d="M61.04 206.65C60.82 206.44 60.56 206.28 60.28 206.18C60.26 206.17 60.17 206.14 60.02 206.09L60.02 196.46C60.26 196.48 60.39 196.49 60.42 196.49C65.17 196.86 67.87 200.24 68.81 201.67C68.82 201.7 68.9 201.82 69.04 202.03L61.25 206.85C61.12 206.73 61.05 206.67 61.04 206.65ZM61.33 205.86C61.99 205.45 67.28 202.19 67.94 201.78C66.92 200.35 64.59 197.79 60.77 197.34C60.77 197.89 60.77 200.61 60.77 205.52C61.03 205.66 61.21 205.77 61.33 205.86Z" id="bfxgJk7i7"></path><path d="M61.82 199.19C61.83 199.11 61.99 198.48 62.01 198.4C63.65 198.86 65.19 199.82 66.45 201.18C66.41 201.22 66.23 201.41 65.91 201.75C64.45 200.39 63.09 199.54 61.82 199.19Z" id="a7bvl1K0j"></path><path d="M56.55 203.6C56.55 203.6 56.55 203.6 56.55 203.6C56.95 203.35 57.16 203.22 57.21 203.19C57.21 203.19 57.21 203.19 57.21 203.19C57.57 203.85 57.77 204.22 57.81 204.3C57.81 204.3 57.81 204.3 57.81 204.3C57.41 204.54 57.19 204.68 57.15 204.7C57.15 204.7 57.15 204.7 57.15 204.7C56.79 204.04 56.59 203.67 56.55 203.6Z" id="aTehvrRio"></path><path d="M61.37 212.51C61.37 212.51 61.37 212.51 61.37 212.51C61.76 212.27 61.98 212.13 62.02 212.11C62.02 212.11 62.02 212.11 62.02 212.11C62.38 212.77 62.58 213.14 62.62 213.21C62.62 213.21 62.62 213.21 62.62 213.21C62.23 213.46 62.01 213.59 61.96 213.62C61.96 213.62 61.96 213.62 61.96 213.62C61.61 212.96 61.41 212.59 61.37 212.51Z" id="a3PYBkiNrP"></path><path d="M55.37 208C55.37 208 55.37 208 55.37 208C55.37 208.49 55.37 208.76 55.37 208.81C55.37 208.81 55.37 208.81 55.37 208.81C54.65 208.81 54.25 208.81 54.17 208.81C54.17 208.81 54.17 208.81 54.17 208.81C54.17 208.32 54.17 208.05 54.17 208C54.17 208 54.17 208 54.17 208C54.89 208 55.29 208 55.37 208Z" id="cNSoU2SVd"></path><path d="M65 208C65 208 65 208 65 208C65 208.49 65 208.76 65 208.81C65 208.81 65 208.81 65 208.81C64.28 208.81 63.88 208.81 63.8 208.81C63.8 208.81 63.8 208.81 63.8 208.81C63.8 208.32 63.8 208.05 63.8 208C63.8 208 63.8 208 63.8 208C64.52 208 64.92 208 65 208Z" id="dxKwTyIzn"></path><path d="M56.55 213.21C56.55 213.21 56.55 213.21 56.55 213.21C56.91 212.55 57.11 212.18 57.15 212.11C57.15 212.11 57.15 212.11 57.15 212.11C57.54 212.35 57.76 212.48 57.81 212.51C57.81 212.51 57.81 212.51 57.81 212.51C57.45 213.18 57.25 213.55 57.21 213.62C57.21 213.62 57.21 213.62 57.21 213.62C56.81 213.38 56.6 213.24 56.55 213.21Z" id="abwiC1ncQ"></path><path d="M61.37 204.3C61.37 204.3 61.37 204.3 61.37 204.3C61.72 203.63 61.92 203.26 61.96 203.19C61.96 203.19 61.96 203.19 61.96 203.19C62.36 203.43 62.58 203.57 62.62 203.6C62.62 203.6 62.62 203.6 62.62 203.6C62.26 204.26 62.06 204.63 62.02 204.7C62.02 204.7 62.02 204.7 62.02 204.7C61.63 204.46 61.41 204.32 61.37 204.3Z" id="a2kDJDpZ1l"></path><path d="M394.52 85.93C392.5 83.57 391.26 80.43 391.26 76.98C391.26 69.67 396.8 63.75 403.64 63.75C410.47 63.75 416.01 69.67 416.01 76.98C416.01 84.29 410.47 90.22 403.64 90.22C400.39 90.22 397.44 88.88 395.23 86.69" id="b5m07bQVMb"></path><path d="M394.97 86.99C395.03 86.93 395.44 86.46 395.49 86.4C397.71 88.6 400.61 89.81 403.64 89.81C406.84 89.81 409.85 88.48 412.12 86.05C414.39 83.63 415.63 80.41 415.63 76.98C415.63 73.55 414.39 70.33 412.12 67.91C409.85 65.49 406.84 64.15 403.64 64.15C400.43 64.15 397.42 65.49 395.15 67.91C392.89 70.33 391.64 73.55 391.64 76.98C391.64 80.2 392.76 83.29 394.8 85.66C394.74 85.71 394.3 86.15 394.24 86.2C392.08 83.68 390.88 80.41 390.88 76.98C390.88 73.34 392.21 69.91 394.62 67.34C397.03 64.76 400.23 63.34 403.64 63.34C407.04 63.34 410.25 64.76 412.66 67.34C415.06 69.91 416.39 73.34 416.39 76.98C416.39 80.62 415.06 84.05 412.66 86.63C410.25 89.2 407.04 90.62 403.64 90.62C400.41 90.62 397.34 89.33 394.97 86.99Z" id="h82iEiiAeC"></path><path d="M394.18 70.61C394.32 70.4 394.39 70.28 394.41 70.25C395.69 68.23 397.42 66.76 399.57 65.87C400.88 65.34 402.05 65.14 402.8 65.07C402.82 65.07 402.96 65.06 403.21 65.04L403.21 74.67C403.05 74.72 402.96 74.75 402.95 74.76C402.66 74.86 402.41 75.02 402.18 75.23C402.17 75.24 402.1 75.31 401.98 75.43L394.18 70.61ZM401.89 74.44C402.07 74.3 402.25 74.19 402.45 74.09C402.45 73.28 402.45 66.74 402.45 65.93C401.77 66.02 400.85 66.22 399.84 66.63C397.97 67.4 396.43 68.65 395.27 70.35C396.6 71.17 401.23 74.03 401.89 74.44Z" id="c12U08ub0z"></path><path d="M393.57 82.16C392.5 79.82 392.21 77.31 392.69 74.71C392.92 73.45 393.3 72.44 393.57 71.81C393.59 71.78 393.64 71.65 393.75 71.41L401.55 76.22C401.51 76.39 401.49 76.49 401.49 76.51C401.46 76.66 401.45 76.82 401.45 76.98C401.45 77.14 401.46 77.3 401.49 77.46C401.49 77.47 401.51 77.57 401.55 77.74L393.75 82.55C393.65 82.32 393.59 82.19 393.57 82.16ZM393.43 74.87C393.01 77.15 393.23 79.35 394.08 81.41C394.75 81 400.04 77.73 400.71 77.32C400.69 77.21 400.69 77.1 400.69 76.98C400.69 76.87 400.69 76.75 400.71 76.64C400.27 76.37 398.06 75.01 394.09 72.56C393.77 73.47 393.55 74.24 393.43 74.87Z" id="b1sZZjfFls"></path><path d="M402.8 88.89C398.06 88.53 395.36 85.15 394.42 83.71C394.4 83.69 394.32 83.57 394.18 83.35L401.98 78.54C402.1 78.65 402.17 78.72 402.18 78.73C402.41 78.95 402.66 79.11 402.95 79.21C402.96 79.21 403.05 79.24 403.21 79.3L403.21 88.92C402.96 88.9 402.83 88.89 402.8 88.89ZM402.45 88.04C402.45 87.23 402.45 80.69 402.45 79.87C402.25 79.78 402.07 79.66 401.89 79.52C401.45 79.8 399.25 81.16 395.28 83.61C397.51 86.27 399.9 87.74 402.45 88.04Z" id="cacB8IgHK"></path><path d="M404.07 79.3C404.22 79.24 404.31 79.21 404.33 79.21C404.61 79.11 404.87 78.95 405.09 78.73C405.11 78.72 405.17 78.65 405.3 78.54L413.09 83.35C412.96 83.57 412.88 83.69 412.87 83.71C411.59 85.73 409.85 87.21 407.7 88.09C406.4 88.63 405.23 88.82 404.48 88.89C404.45 88.89 404.31 88.9 404.07 88.93L404.07 79.3ZM404.83 88.03C405.51 87.94 406.43 87.75 407.43 87.33C409.3 86.57 410.84 85.31 412 83.61C411.34 83.2 406.04 79.93 405.38 79.52C405.21 79.66 405.02 79.78 404.83 79.87C404.83 81.5 404.83 87.22 404.83 88.03Z" id="a3IjxvJic"></path><path d="M405.73 77.74C405.76 77.57 405.78 77.47 405.78 77.46C405.81 77.3 405.83 77.14 405.83 76.98C405.83 76.82 405.81 76.66 405.78 76.51C405.78 76.49 405.76 76.39 405.73 76.22L413.52 71.41C413.63 71.64 413.69 71.77 413.7 71.8C414.77 74.14 415.07 76.65 414.58 79.26C414.35 80.51 413.97 81.53 413.7 82.15C413.69 82.18 413.63 82.31 413.52 82.56L405.73 77.74ZM413.18 81.41C413.41 80.83 413.67 80.03 413.84 79.1C414.27 76.82 414.05 74.62 413.19 72.55C412.53 72.96 407.23 76.23 406.57 76.64C406.58 76.75 406.59 76.87 406.59 76.98C406.59 77.1 406.58 77.21 406.57 77.32C407.89 78.14 412.52 81 413.18 81.41Z" id="cIUJ9BRND"></path><path d="M405.09 75.23C404.87 75.02 404.61 74.86 404.33 74.76C404.31 74.75 404.22 74.72 404.07 74.67L404.07 65.04C404.31 65.06 404.45 65.07 404.47 65.07C409.22 65.43 411.92 68.81 412.86 70.25C412.87 70.27 412.95 70.39 413.1 70.61L405.3 75.43C405.17 75.31 405.11 75.24 405.09 75.23ZM405.38 74.44C406.04 74.03 411.33 70.76 411.99 70.36C410.98 68.93 408.65 66.37 404.83 65.92C404.83 66.46 404.83 69.19 404.83 74.09C405.08 74.23 405.27 74.35 405.38 74.44Z" id="bn5HkOthE"></path><path d="M405.87 67.77C405.89 67.69 406.04 67.06 406.06 66.98C407.7 67.43 409.24 68.39 410.5 69.76C410.46 69.79 410.28 69.98 409.96 70.33C408.51 68.97 407.14 68.12 405.87 67.77Z" id="b5UVdbpVO"></path><path d="M400.6 72.17C400.6 72.17 400.6 72.17 400.6 72.17C401 71.93 401.22 71.79 401.26 71.77C401.26 71.77 401.26 71.77 401.26 71.77C401.62 72.43 401.82 72.8 401.86 72.87C401.86 72.87 401.86 72.87 401.86 72.87C401.46 73.12 401.24 73.25 401.2 73.28C401.2 73.28 401.2 73.28 401.2 73.28C400.84 72.62 400.64 72.25 400.6 72.17Z" id="a1PjQAQvQ2"></path><path d="M405.42 81.09C405.42 81.09 405.42 81.09 405.42 81.09C405.81 80.85 406.03 80.71 406.07 80.68C406.07 80.68 406.07 80.68 406.07 80.68C406.43 81.35 406.63 81.72 406.67 81.79C406.67 81.79 406.67 81.79 406.67 81.79C406.28 82.03 406.06 82.17 406.02 82.2C406.02 82.2 406.02 82.2 406.02 82.2C405.66 81.53 405.46 81.16 405.42 81.09Z" id="a1o3XmO5aM"></path><path d="M399.42 76.58C399.42 76.58 399.42 76.58 399.42 76.58C399.42 77.06 399.42 77.33 399.42 77.39C399.42 77.39 399.42 77.39 399.42 77.39C398.7 77.39 398.31 77.39 398.23 77.39C398.23 77.39 398.23 77.39 398.23 77.39C398.23 76.9 398.23 76.63 398.23 76.58C398.23 76.58 398.23 76.58 398.23 76.58C398.94 76.58 399.34 76.58 399.42 76.58Z" id="c2fyunTbe3"></path><path d="M409.05 76.58C409.05 76.58 409.05 76.58 409.05 76.58C409.05 77.06 409.05 77.33 409.05 77.39C409.05 77.39 409.05 77.39 409.05 77.39C408.33 77.39 407.93 77.39 407.85 77.39C407.85 77.39 407.85 77.39 407.85 77.39C407.85 76.9 407.85 76.63 407.85 76.58C407.85 76.58 407.85 76.58 407.85 76.58C408.57 76.58 408.97 76.58 409.05 76.58Z" id="bAraG8Yz0"></path><path d="M400.6 81.79C400.6 81.79 400.6 81.79 400.6 81.79C400.96 81.13 401.16 80.76 401.2 80.68C401.2 80.68 401.2 80.68 401.2 80.68C401.6 80.93 401.81 81.06 401.86 81.09C401.86 81.09 401.86 81.09 401.86 81.09C401.5 81.75 401.3 82.12 401.26 82.2C401.26 82.2 401.26 82.2 401.26 82.2C400.87 81.95 400.65 81.82 400.6 81.79Z" id="b27jKSa3rh"></path><path d="M405.42 72.87C405.42 72.87 405.42 72.87 405.42 72.87C405.78 72.21 405.98 71.84 406.02 71.77C406.02 71.77 406.02 71.77 406.02 71.77C406.41 72.01 406.63 72.14 406.67 72.17C406.67 72.17 406.67 72.17 406.67 72.17C406.31 72.84 406.11 73.21 406.07 73.28C406.07 73.28 406.07 73.28 406.07 73.28C405.68 73.04 405.46 72.9 405.42 72.87Z" id="dRvTsAEM"></path></defs><g><g><g><use xlink:href="#a1buBUhd4N" opacity="1" fill="#d53349" fill-opacity="1"></use><g><use xlink:href="#a1buBUhd4N" opacity="1" fill-opacity="0" stroke="#000000" stroke-width="1" stroke-opacity="0"></use></g></g><g><use xlink:href="#a3etHzUN7h" opacity="1" fill="#53180f" fill-opacity="1"></use><g><use xlink:href="#a3etHzUN7h" opacity="1" fill-opacity="0" stroke="#000000" stroke-width="1" stroke-opacity="0"></use></g></g><g><use xlink:href="#cUNYBDAHq" opacity="1" fill="#53180f" fill-opacity="1"></use><g><use xlink:href="#cUNYBDAHq" opacity="1" fill-opacity="0" stroke="#000000" stroke-width="1" stroke-opacity="0"></use></g></g><g><use xlink:href="#biqgkS5DH" opacity="1" fill="#53180f" fill-opacity="1"></use><g><use xlink:href="#biqgkS5DH" opacity="1" fill-opacity="0" stroke="#000000" stroke-width="1" stroke-opacity="0"></use></g></g><g><use xlink:href="#a1gCkKDja" opacity="1" fill="#53180f" fill-opacity="1"></use><g><use xlink:href="#a1gCkKDja" opacity="1" fill-opacity="0" stroke="#000000" stroke-width="1" stroke-opacity="0"></use></g></g><g><use xlink:href="#c56eoJxcy" opacity="1" fill="#53180f" fill-opacity="1"></use><g><use xlink:href="#c56eoJxcy" opacity="1" fill-opacity="0" stroke="#000000" stroke-width="1" stroke-opacity="0"></use></g></g><g><use xlink:href="#fgKzqODNg" opacity="1" fill="#53180f" fill-opacity="1"></use><g><use xlink:href="#fgKzqODNg" opacity="1" fill-opacity="0" stroke="#000000" stroke-width="1" stroke-opacity="0"></use></g></g><g><use xlink:href="#ciGr0AtJj" opacity="1" fill="#53180f" fill-opacity="1"></use><g><use xlink:href="#ciGr0AtJj" opacity="1" fill-opacity="0" stroke="#000000" stroke-width="1" stroke-opacity="0"></use></g></g><g><use xlink:href="#bI5RAcYd" opacity="1" fill="#53180f" fill-opacity="1"></use><g><use xlink:href="#bI5RAcYd" opacity="1" fill-opacity="0" stroke="#000000" stroke-width="1" stroke-opacity="0"></use></g></g><g><use xlink:href="#h1OTxmtG7g" opacity="1" fill="#53180f" fill-opacity="1"></use><g><use xlink:href="#h1OTxmtG7g" opacity="1" fill-opacity="0" stroke="#000000" stroke-width="1" stroke-opacity="0"></use></g></g><g><use xlink:href="#b26jCU18uE" opacity="1" fill="#53180f" fill-opacity="1"></use><g><use xlink:href="#b26jCU18uE" opacity="1" fill-opacity="0" stroke="#000000" stroke-width="1" stroke-opacity="0"></use></g></g><g><use xlink:href="#aFicu0Dz6" opacity="1" fill="#53180f" fill-opacity="1"></use><g><use xlink:href="#aFicu0Dz6" opacity="1" fill-opacity="0" stroke="#000000" stroke-width="1" stroke-opacity="0"></use></g></g><g><use xlink:href="#c77hnm0Ke" opacity="1" fill="#53180f" fill-opacity="1"></use><g><use xlink:href="#c77hnm0Ke" opacity="1" fill-opacity="0" stroke="#000000" stroke-width="1" stroke-opacity="0"></use></g></g><g><use xlink:href="#d2x8VunrOR" opacity="1" fill="#53180f" fill-opacity="1"></use><g><use xlink:href="#d2x8VunrOR" opacity="1" fill-opacity="0" stroke="#000000" stroke-width="1" stroke-opacity="0"></use></g></g><g><use xlink:href="#d5rEah5BW" opacity="1" fill="#53180f" fill-opacity="1"></use><g><use xlink:href="#d5rEah5BW" opacity="1" fill-opacity="0" stroke="#000000" stroke-width="1" stroke-opacity="0"></use></g></g><g><use xlink:href="#b2LHXrxKK" opacity="1" fill="#d53349" fill-opacity="1"></use><g><use xlink:href="#b2LHXrxKK" opacity="1" fill-opacity="0" stroke="#000000" stroke-width="1" stroke-opacity="0"></use></g></g><g><use xlink:href="#a1cQeFGCrb" opacity="1" fill="#53180f" fill-opacity="1"></use><g><use xlink:href="#a1cQeFGCrb" opacity="1" fill-opacity="0" stroke="#000000" stroke-width="1" stroke-opacity="0"></use></g></g><g><use xlink:href="#d5GBlLuTS9" opacity="1" fill="#53180f" fill-opacity="1"></use><g><use xlink:href="#d5GBlLuTS9" opacity="1" fill-opacity="0" stroke="#000000" stroke-width="1" stroke-opacity="0"></use></g></g><g><use xlink:href="#bqGA32j5o" opacity="1" fill="#53180f" fill-opacity="1"></use><g><use xlink:href="#bqGA32j5o" opacity="1" fill-opacity="0" stroke="#000000" stroke-width="1" stroke-opacity="0"></use></g></g><g><use xlink:href="#aT0Noq2kJ" opacity="1" fill="#53180f" fill-opacity="1"></use><g><use xlink:href="#aT0Noq2kJ" opacity="1" fill-opacity="0" stroke="#000000" stroke-width="1" stroke-opacity="0"></use></g></g><g><use xlink:href="#dn4pCVKs" opacity="1" fill="#53180f" fill-opacity="1"></use><g><use xlink:href="#dn4pCVKs" opacity="1" fill-opacity="0" stroke="#000000" stroke-width="1" stroke-opacity="0"></use></g></g><g><use xlink:href="#a1KmC5vgN" opacity="1" fill="#53180f" fill-opacity="1"></use><g><use xlink:href="#a1KmC5vgN" opacity="1" fill-opacity="0" stroke="#000000" stroke-width="1" stroke-opacity="0"></use></g></g><g><use xlink:href="#c35iNTnxu2" opacity="1" fill="#53180f" fill-opacity="1"></use><g><use xlink:href="#c35iNTnxu2" opacity="1" fill-opacity="0" stroke="#000000" stroke-width="1" stroke-opacity="0"></use></g></g><g><use xlink:href="#anlxJSyRn" opacity="1" fill="#53180f" fill-opacity="1"></use><g><use xlink:href="#anlxJSyRn" opacity="1" fill-opacity="0" stroke="#000000" stroke-width="1" stroke-opacity="0"></use></g></g><g><use xlink:href="#g436IjLsmo" opacity="1" fill="#53180f" fill-opacity="1"></use><g><use xlink:href="#g436IjLsmo" opacity="1" fill-opacity="0" stroke="#000000" stroke-width="1" stroke-opacity="0"></use></g></g><g><use xlink:href="#fID6NIWg5" opacity="1" fill="#53180f" fill-opacity="1"></use><g><use xlink:href="#fID6NIWg5" opacity="1" fill-opacity="0" stroke="#000000" stroke-width="1" stroke-opacity="0"></use></g></g><g><use xlink:href="#jSHeRYewT" opacity="1" fill="#53180f" fill-opacity="1"></use><g><use xlink:href="#jSHeRYewT" opacity="1" fill-opacity="0" stroke="#000000" stroke-width="1" stroke-opacity="0"></use></g></g><g><use xlink:href="#bhNynSmRq" opacity="1" fill="#53180f" fill-opacity="1"></use><g><use xlink:href="#bhNynSmRq" opacity="1" fill-opacity="0" stroke="#000000" stroke-width="1" stroke-opacity="0"></use></g></g><g><use xlink:href="#h1JeZfDpHP" opacity="1" fill="#53180f" fill-opacity="1"></use><g><use xlink:href="#h1JeZfDpHP" opacity="1" fill-opacity="0" stroke="#000000" stroke-width="1" stroke-opacity="0"></use></g></g><g><use xlink:href="#b1qSuY4hz" opacity="1" fill="#53180f" fill-opacity="1"></use><g><use xlink:href="#b1qSuY4hz" opacity="1" fill-opacity="0" stroke="#000000" stroke-width="1" stroke-opacity="0"></use></g></g><g><use xlink:href="#dKnyhXNEo" opacity="1" fill="#d53349" fill-opacity="1"></use><g><use xlink:href="#dKnyhXNEo" opacity="1" fill-opacity="0" stroke="#000000" stroke-width="1" stroke-opacity="0"></use></g></g><g><use xlink:href="#b1xJSw0Q3i" opacity="1" fill="#53180f" fill-opacity="1"></use><g><use xlink:href="#b1xJSw0Q3i" opacity="1" fill-opacity="0" stroke="#000000" stroke-width="1" stroke-opacity="0"></use></g></g><g><use xlink:href="#b66EEyOlW6" opacity="1" fill="#53180f" fill-opacity="1"></use><g><use xlink:href="#b66EEyOlW6" opacity="1" fill-opacity="0" stroke="#000000" stroke-width="1" stroke-opacity="0"></use></g></g><g><use xlink:href="#bITnEkyTy" opacity="1" fill="#53180f" fill-opacity="1"></use><g><use xlink:href="#bITnEkyTy" opacity="1" fill-opacity="0" stroke="#000000" stroke-width="1" stroke-opacity="0"></use></g></g><g><use xlink:href="#h1gVZ6ge9Z" opacity="1" fill="#53180f" fill-opacity="1"></use><g><use xlink:href="#h1gVZ6ge9Z" opacity="1" fill-opacity="0" stroke="#000000" stroke-width="1" stroke-opacity="0"></use></g></g><g><use xlink:href="#a8yNLWZS" opacity="1" fill="#53180f" fill-opacity="1"></use><g><use xlink:href="#a8yNLWZS" opacity="1" fill-opacity="0" stroke="#000000" stroke-width="1" stroke-opacity="0"></use></g></g><g><use xlink:href="#b18g8iDzdZ" opacity="1" fill="#53180f" fill-opacity="1"></use><g><use xlink:href="#b18g8iDzdZ" opacity="1" fill-opacity="0" stroke="#000000" stroke-width="1" stroke-opacity="0"></use></g></g><g><use xlink:href="#c12CWD2ewz" opacity="1" fill="#53180f" fill-opacity="1"></use><g><use xlink:href="#c12CWD2ewz" opacity="1" fill-opacity="0" stroke="#000000" stroke-width="1" stroke-opacity="0"></use></g></g><g><use xlink:href="#b6ui9ar0c" opacity="1" fill="#53180f" fill-opacity="1"></use><g><use xlink:href="#b6ui9ar0c" opacity="1" fill-opacity="0" stroke="#000000" stroke-width="1" stroke-opacity="0"></use></g></g><g><use xlink:href="#d6s8LqlEX" opacity="1" fill="#53180f" fill-opacity="1"></use><g><use xlink:href="#d6s8LqlEX" opacity="1" fill-opacity="0" stroke="#000000" stroke-width="1" stroke-opacity="0"></use></g></g><g><use xlink:href="#barYAQNmV" opacity="1" fill="#53180f" fill-opacity="1"></use><g><use xlink:href="#barYAQNmV" opacity="1" fill-opacity="0" stroke="#000000" stroke-width="1" stroke-opacity="0"></use></g></g><g><use xlink:href="#bqN4slaZQ" opacity="1" fill="#53180f" fill-opacity="1"></use><g><use xlink:href="#bqN4slaZQ" opacity="1" fill-opacity="0" stroke="#000000" stroke-width="1" stroke-opacity="0"></use></g></g><g><use xlink:href="#a1l9mhFUCS" opacity="1" fill="#53180f" fill-opacity="1"></use><g><use xlink:href="#a1l9mhFUCS" opacity="1" fill-opacity="0" stroke="#000000" stroke-width="1" stroke-opacity="0"></use></g></g><g><use xlink:href="#bj6wER0Zf" opacity="1" fill="#53180f" fill-opacity="1"></use><g><use xlink:href="#bj6wER0Zf" opacity="1" fill-opacity="0" stroke="#000000" stroke-width="1" stroke-opacity="0"></use></g></g><g><use xlink:href="#bIJ4PodSZ" opacity="1" fill="#53180f" fill-opacity="1"></use><g><use xlink:href="#bIJ4PodSZ" opacity="1" fill-opacity="0" stroke="#000000" stroke-width="1" stroke-opacity="0"></use></g></g><g><use xlink:href="#aatnakSlv" opacity="1" fill="#d53349" fill-opacity="1"></use><g><use xlink:href="#aatnakSlv" opacity="1" fill-opacity="0" stroke="#000000" stroke-width="1" stroke-opacity="0"></use></g></g><g><use xlink:href="#jzlqBjv3j" opacity="1" fill="#53180f" fill-opacity="1"></use><g><use xlink:href="#jzlqBjv3j" opacity="1" fill-opacity="0" stroke="#000000" stroke-width="1" stroke-opacity="0"></use></g></g><g><use xlink:href="#a7pIloqtqn" opacity="1" fill="#53180f" fill-opacity="1"></use><g><use xlink:href="#a7pIloqtqn" opacity="1" fill-opacity="0" stroke="#000000" stroke-width="1" stroke-opacity="0"></use></g></g><g><use xlink:href="#b10eglCJ8v" opacity="1" fill="#53180f" fill-opacity="1"></use><g><use xlink:href="#b10eglCJ8v" opacity="1" fill-opacity="0" stroke="#000000" stroke-width="1" stroke-opacity="0"></use></g></g><g><use xlink:href="#d20vWykm4Y" opacity="1" fill="#53180f" fill-opacity="1"></use><g><use xlink:href="#d20vWykm4Y" opacity="1" fill-opacity="0" stroke="#000000" stroke-width="1" stroke-opacity="0"></use></g></g><g><use xlink:href="#c2bYKrMypS" opacity="1" fill="#53180f" fill-opacity="1"></use><g><use xlink:href="#c2bYKrMypS" opacity="1" fill-opacity="0" stroke="#000000" stroke-width="1" stroke-opacity="0"></use></g></g><g><use xlink:href="#aXcl6imV" opacity="1" fill="#53180f" fill-opacity="1"></use><g><use xlink:href="#aXcl6imV" opacity="1" fill-opacity="0" stroke="#000000" stroke-width="1" stroke-opacity="0"></use></g></g><g><use xlink:href="#b20W3DUnyX" opacity="1" fill="#53180f" fill-opacity="1"></use><g><use xlink:href="#b20W3DUnyX" opacity="1" fill-opacity="0" stroke="#000000" stroke-width="1" stroke-opacity="0"></use></g></g><g><use xlink:href="#dxW9IWpDQ" opacity="1" fill="#53180f" fill-opacity="1"></use><g><use xlink:href="#dxW9IWpDQ" opacity="1" fill-opacity="0" stroke="#000000" stroke-width="1" stroke-opacity="0"></use></g></g><g><use xlink:href="#a2PFn42juF" opacity="1" fill="#53180f" fill-opacity="1"></use><g><use xlink:href="#a2PFn42juF" opacity="1" fill-opacity="0" stroke="#000000" stroke-width="1" stroke-opacity="0"></use></g></g><g><use xlink:href="#c2d2MV3LH5" opacity="1" fill="#53180f" fill-opacity="1"></use><g><use xlink:href="#c2d2MV3LH5" opacity="1" fill-opacity="0" stroke="#000000" stroke-width="1" stroke-opacity="0"></use></g></g><g><use xlink:href="#f7PBwDCY2" opacity="1" fill="#53180f" fill-opacity="1"></use><g><use xlink:href="#f7PBwDCY2" opacity="1" fill-opacity="0" stroke="#000000" stroke-width="1" stroke-opacity="0"></use></g></g><g><use xlink:href="#a5L6xj2ooW" opacity="1" fill="#53180f" fill-opacity="1"></use><g><use xlink:href="#a5L6xj2ooW" opacity="1" fill-opacity="0" stroke="#000000" stroke-width="1" stroke-opacity="0"></use></g></g><g><use xlink:href="#b26YICSNrM" opacity="1" fill="#53180f" fill-opacity="1"></use><g><use xlink:href="#b26YICSNrM" opacity="1" fill-opacity="0" stroke="#000000" stroke-width="1" stroke-opacity="0"></use></g></g><g><use xlink:href="#a3JLv4EAeN" opacity="1" fill="#53180f" fill-opacity="1"></use><g><use xlink:href="#a3JLv4EAeN" opacity="1" fill-opacity="0" stroke="#000000" stroke-width="1" stroke-opacity="0"></use></g></g><g><use xlink:href="#ammzxWuzV" opacity="1" fill="#d53349" fill-opacity="1"></use><g><use xlink:href="#ammzxWuzV" opacity="1" fill-opacity="0" stroke="#000000" stroke-width="1" stroke-opacity="0"></use></g></g><g><use xlink:href="#d2G1yorsw2" opacity="1" fill="#53180f" fill-opacity="1"></use><g><use xlink:href="#d2G1yorsw2" opacity="1" fill-opacity="0" stroke="#000000" stroke-width="1" stroke-opacity="0"></use></g></g><g><use xlink:href="#c1lXhaIDSx" opacity="1" fill="#53180f" fill-opacity="1"></use><g><use xlink:href="#c1lXhaIDSx" opacity="1" fill-opacity="0" stroke="#000000" stroke-width="1" stroke-opacity="0"></use></g></g><g><use xlink:href="#cixAP402d" opacity="1" fill="#53180f" fill-opacity="1"></use><g><use xlink:href="#cixAP402d" opacity="1" fill-opacity="0" stroke="#000000" stroke-width="1" stroke-opacity="0"></use></g></g><g><use xlink:href="#a4bY4ZYl9" opacity="1" fill="#53180f" fill-opacity="1"></use><g><use xlink:href="#a4bY4ZYl9" opacity="1" fill-opacity="0" stroke="#000000" stroke-width="1" stroke-opacity="0"></use></g></g><g><use xlink:href="#a2m9A3YhHZ" opacity="1" fill="#53180f" fill-opacity="1"></use><g><use xlink:href="#a2m9A3YhHZ" opacity="1" fill-opacity="0" stroke="#000000" stroke-width="1" stroke-opacity="0"></use></g></g><g><use xlink:href="#c33k85Txh" opacity="1" fill="#53180f" fill-opacity="1"></use><g><use xlink:href="#c33k85Txh" opacity="1" fill-opacity="0" stroke="#000000" stroke-width="1" stroke-opacity="0"></use></g></g><g><use xlink:href="#a1pz6Iq9N2" opacity="1" fill="#53180f" fill-opacity="1"></use><g><use xlink:href="#a1pz6Iq9N2" opacity="1" fill-opacity="0" stroke="#000000" stroke-width="1" stroke-opacity="0"></use></g></g><g><use xlink:href="#bXhtidv1I" opacity="1" fill="#53180f" fill-opacity="1"></use><g><use xlink:href="#bXhtidv1I" opacity="1" fill-opacity="0" stroke="#000000" stroke-width="1" stroke-opacity="0"></use></g></g><g><use xlink:href="#a2QxETAvS5" opacity="1" fill="#53180f" fill-opacity="1"></use><g><use xlink:href="#a2QxETAvS5" opacity="1" fill-opacity="0" stroke="#000000" stroke-width="1" stroke-opacity="0"></use></g></g><g><use xlink:href="#avlRdhPH8" opacity="1" fill="#53180f" fill-opacity="1"></use><g><use xlink:href="#avlRdhPH8" opacity="1" fill-opacity="0" stroke="#000000" stroke-width="1" stroke-opacity="0"></use></g></g><g><use xlink:href="#e70Qbxwwjr" opacity="1" fill="#53180f" fill-opacity="1"></use><g><use xlink:href="#e70Qbxwwjr" opacity="1" fill-opacity="0" stroke="#000000" stroke-width="1" stroke-opacity="0"></use></g></g><g><use xlink:href="#dHt8aBtKS" opacity="1" fill="#53180f" fill-opacity="1"></use><g><use xlink:href="#dHt8aBtKS" opacity="1" fill-opacity="0" stroke="#000000" stroke-width="1" stroke-opacity="0"></use></g></g><g><use xlink:href="#f6XUOPJnhL" opacity="1" fill="#53180f" fill-opacity="1"></use><g><use xlink:href="#f6XUOPJnhL" opacity="1" fill-opacity="0" stroke="#000000" stroke-width="1" stroke-opacity="0"></use></g></g><g><use xlink:href="#egHXHKilV" opacity="1" fill="#53180f" fill-opacity="1"></use><g><use xlink:href="#egHXHKilV" opacity="1" fill-opacity="0" stroke="#000000" stroke-width="1" stroke-opacity="0"></use></g></g><g><use xlink:href="#czwrgqmcP" opacity="1" fill="#d53349" fill-opacity="1"></use><g><use xlink:href="#czwrgqmcP" opacity="1" fill-opacity="0" stroke="#000000" stroke-width="1" stroke-opacity="0"></use></g></g><g><use xlink:href="#axXwN1GpW" opacity="1" fill="#53180f" fill-opacity="1"></use><g><use xlink:href="#axXwN1GpW" opacity="1" fill-opacity="0" stroke="#000000" stroke-width="1" stroke-opacity="0"></use></g></g><g><use xlink:href="#c1Lut5khDd" opacity="1" fill="#53180f" fill-opacity="1"></use><g><use xlink:href="#c1Lut5khDd" opacity="1" fill-opacity="0" stroke="#000000" stroke-width="1" stroke-opacity="0"></use></g></g><g><use xlink:href="#g63Env8T2" opacity="1" fill="#53180f" fill-opacity="1"></use><g><use xlink:href="#g63Env8T2" opacity="1" fill-opacity="0" stroke="#000000" stroke-width="1" stroke-opacity="0"></use></g></g><g><use xlink:href="#c3rDFZGdwx" opacity="1" fill="#53180f" fill-opacity="1"></use><g><use xlink:href="#c3rDFZGdwx" opacity="1" fill-opacity="0" stroke="#000000" stroke-width="1" stroke-opacity="0"></use></g></g><g><use xlink:href="#d3hikOhv4E" opacity="1" fill="#53180f" fill-opacity="1"></use><g><use xlink:href="#d3hikOhv4E" opacity="1" fill-opacity="0" stroke="#000000" stroke-width="1" stroke-opacity="0"></use></g></g><g><use xlink:href="#e4DzLessa4" opacity="1" fill="#53180f" fill-opacity="1"></use><g><use xlink:href="#e4DzLessa4" opacity="1" fill-opacity="0" stroke="#000000" stroke-width="1" stroke-opacity="0"></use></g></g><g><use xlink:href="#a2VJH5MXYR" opacity="1" fill="#53180f" fill-opacity="1"></use><g><use xlink:href="#a2VJH5MXYR" opacity="1" fill-opacity="0" stroke="#000000" stroke-width="1" stroke-opacity="0"></use></g></g><g><use xlink:href="#b1Qo8wQEnV" opacity="1" fill="#53180f" fill-opacity="1"></use><g><use xlink:href="#b1Qo8wQEnV" opacity="1" fill-opacity="0" stroke="#000000" stroke-width="1" stroke-opacity="0"></use></g></g><g><use xlink:href="#dBCmMPEDI" opacity="1" fill="#53180f" fill-opacity="1"></use><g><use xlink:href="#dBCmMPEDI" opacity="1" fill-opacity="0" stroke="#000000" stroke-width="1" stroke-opacity="0"></use></g></g><g><use xlink:href="#c16v7chnIR" opacity="1" fill="#53180f" fill-opacity="1"></use><g><use xlink:href="#c16v7chnIR" opacity="1" fill-opacity="0" stroke="#000000" stroke-width="1" stroke-opacity="0"></use></g></g><g><use xlink:href="#cVnzKverc" opacity="1" fill="#53180f" fill-opacity="1"></use><g><use xlink:href="#cVnzKverc" opacity="1" fill-opacity="0" stroke="#000000" stroke-width="1" stroke-opacity="0"></use></g></g><g><use xlink:href="#i26IGdQzQ" opacity="1" fill="#53180f" fill-opacity="1"></use><g><use xlink:href="#i26IGdQzQ" opacity="1" fill-opacity="0" stroke="#000000" stroke-width="1" stroke-opacity="0"></use></g></g><g><use xlink:href="#d13b5aM0oV" opacity="1" fill="#53180f" fill-opacity="1"></use><g><use xlink:href="#d13b5aM0oV" opacity="1" fill-opacity="0" stroke="#000000" stroke-width="1" stroke-opacity="0"></use></g></g><g><use xlink:href="#fEP58zn1X" opacity="1" fill="#53180f" fill-opacity="1"></use><g><use xlink:href="#fEP58zn1X" opacity="1" fill-opacity="0" stroke="#000000" stroke-width="1" stroke-opacity="0"></use></g></g><g><use xlink:href="#bvjPWMoOd" opacity="1" fill="#d53349" fill-opacity="1"></use><g><use xlink:href="#bvjPWMoOd" opacity="1" fill-opacity="0" stroke="#000000" stroke-width="1" stroke-opacity="0"></use></g></g><g><use xlink:href="#e105077Db" opacity="1" fill="#53180f" fill-opacity="1"></use><g><use xlink:href="#e105077Db" opacity="1" fill-opacity="0" stroke="#000000" stroke-width="1" stroke-opacity="0"></use></g></g><g><use xlink:href="#b3k9tovZFw" opacity="1" fill="#53180f" fill-opacity="1"></use><g><use xlink:href="#b3k9tovZFw" opacity="1" fill-opacity="0" stroke="#000000" stroke-width="1" stroke-opacity="0"></use></g></g><g><use xlink:href="#b46dkXfOdb" opacity="1" fill="#53180f" fill-opacity="1"></use><g><use xlink:href="#b46dkXfOdb" opacity="1" fill-opacity="0" stroke="#000000" stroke-width="1" stroke-opacity="0"></use></g></g><g><use xlink:href="#d1G4BHGFy" opacity="1" fill="#53180f" fill-opacity="1"></use><g><use xlink:href="#d1G4BHGFy" opacity="1" fill-opacity="0" stroke="#000000" stroke-width="1" stroke-opacity="0"></use></g></g><g><use xlink:href="#eid4Hbi2J" opacity="1" fill="#53180f" fill-opacity="1"></use><g><use xlink:href="#eid4Hbi2J" opacity="1" fill-opacity="0" stroke="#000000" stroke-width="1" stroke-opacity="0"></use></g></g><g><use xlink:href="#b1d92OLOOz" opacity="1" fill="#53180f" fill-opacity="1"></use><g><use xlink:href="#b1d92OLOOz" opacity="1" fill-opacity="0" stroke="#000000" stroke-width="1" stroke-opacity="0"></use></g></g><g><use xlink:href="#bfxgJk7i7" opacity="1" fill="#53180f" fill-opacity="1"></use><g><use xlink:href="#bfxgJk7i7" opacity="1" fill-opacity="0" stroke="#000000" stroke-width="1" stroke-opacity="0"></use></g></g><g><use xlink:href="#a7bvl1K0j" opacity="1" fill="#53180f" fill-opacity="1"></use><g><use xlink:href="#a7bvl1K0j" opacity="1" fill-opacity="0" stroke="#000000" stroke-width="1" stroke-opacity="0"></use></g></g><g><use xlink:href="#aTehvrRio" opacity="1" fill="#53180f" fill-opacity="1"></use><g><use xlink:href="#aTehvrRio" opacity="1" fill-opacity="0" stroke="#000000" stroke-width="1" stroke-opacity="0"></use></g></g><g><use xlink:href="#a3PYBkiNrP" opacity="1" fill="#53180f" fill-opacity="1"></use><g><use xlink:href="#a3PYBkiNrP" opacity="1" fill-opacity="0" stroke="#000000" stroke-width="1" stroke-opacity="0"></use></g></g><g><use xlink:href="#cNSoU2SVd" opacity="1" fill="#53180f" fill-opacity="1"></use><g><use xlink:href="#cNSoU2SVd" opacity="1" fill-opacity="0" stroke="#000000" stroke-width="1" stroke-opacity="0"></use></g></g><g><use xlink:href="#dxKwTyIzn" opacity="1" fill="#53180f" fill-opacity="1"></use><g><use xlink:href="#dxKwTyIzn" opacity="1" fill-opacity="0" stroke="#000000" stroke-width="1" stroke-opacity="0"></use></g></g><g><use xlink:href="#abwiC1ncQ" opacity="1" fill="#53180f" fill-opacity="1"></use><g><use xlink:href="#abwiC1ncQ" opacity="1" fill-opacity="0" stroke="#000000" stroke-width="1" stroke-opacity="0"></use></g></g><g><use xlink:href="#a2kDJDpZ1l" opacity="1" fill="#53180f" fill-opacity="1"></use><g><use xlink:href="#a2kDJDpZ1l" opacity="1" fill-opacity="0" stroke="#000000" stroke-width="1" stroke-opacity="0"></use></g></g><g><use xlink:href="#b5m07bQVMb" opacity="1" fill="#d53349" fill-opacity="1"></use><g><use xlink:href="#b5m07bQVMb" opacity="1" fill-opacity="0" stroke="#000000" stroke-width="1" stroke-opacity="0"></use></g></g><g><use xlink:href="#h82iEiiAeC" opacity="1" fill="#53180f" fill-opacity="1"></use><g><use xlink:href="#h82iEiiAeC" opacity="1" fill-opacity="0" stroke="#000000" stroke-width="1" stroke-opacity="0"></use></g></g><g><use xlink:href="#c12U08ub0z" opacity="1" fill="#53180f" fill-opacity="1"></use><g><use xlink:href="#c12U08ub0z" opacity="1" fill-opacity="0" stroke="#000000" stroke-width="1" stroke-opacity="0"></use></g></g><g><use xlink:href="#b1sZZjfFls" opacity="1" fill="#53180f" fill-opacity="1"></use><g><use xlink:href="#b1sZZjfFls" opacity="1" fill-opacity="0" stroke="#000000" stroke-width="1" stroke-opacity="0"></use></g></g><g><use xlink:href="#cacB8IgHK" opacity="1" fill="#53180f" fill-opacity="1"></use><g><use xlink:href="#cacB8IgHK" opacity="1" fill-opacity="0" stroke="#000000" stroke-width="1" stroke-opacity="0"></use></g></g><g><use xlink:href="#a3IjxvJic" opacity="1" fill="#53180f" fill-opacity="1"></use><g><use xlink:href="#a3IjxvJic" opacity="1" fill-opacity="0" stroke="#000000" stroke-width="1" stroke-opacity="0"></use></g></g><g><use xlink:href="#cIUJ9BRND" opacity="1" fill="#53180f" fill-opacity="1"></use><g><use xlink:href="#cIUJ9BRND" opacity="1" fill-opacity="0" stroke="#000000" stroke-width="1" stroke-opacity="0"></use></g></g><g><use xlink:href="#bn5HkOthE" opacity="1" fill="#53180f" fill-opacity="1"></use><g><use xlink:href="#bn5HkOthE" opacity="1" fill-opacity="0" stroke="#000000" stroke-width="1" stroke-opacity="0"></use></g></g><g><use xlink:href="#b5UVdbpVO" opacity="1" fill="#53180f" fill-opacity="1"></use><g><use xlink:href="#b5UVdbpVO" opacity="1" fill-opacity="0" stroke="#000000" stroke-width="1" stroke-opacity="0"></use></g></g><g><use xlink:href="#a1PjQAQvQ2" opacity="1" fill="#53180f" fill-opacity="1"></use><g><use xlink:href="#a1PjQAQvQ2" opacity="1" fill-opacity="0" stroke="#000000" stroke-width="1" stroke-opacity="0"></use></g></g><g><use xlink:href="#a1o3XmO5aM" opacity="1" fill="#53180f" fill-opacity="1"></use><g><use xlink:href="#a1o3XmO5aM" opacity="1" fill-opacity="0" stroke="#000000" stroke-width="1" stroke-opacity="0"></use></g></g><g><use xlink:href="#c2fyunTbe3" opacity="1" fill="#53180f" fill-opacity="1"></use><g><use xlink:href="#c2fyunTbe3" opacity="1" fill-opacity="0" stroke="#000000" stroke-width="1" stroke-opacity="0"></use></g></g><g><use xlink:href="#bAraG8Yz0" opacity="1" fill="#53180f" fill-opacity="1"></use><g><use xlink:href="#bAraG8Yz0" opacity="1" fill-opacity="0" stroke="#000000" stroke-width="1" stroke-opacity="0"></use></g></g><g><use xlink:href="#b27jKSa3rh" opacity="1" fill="#53180f" fill-opacity="1"></use><g><use xlink:href="#b27jKSa3rh" opacity="1" fill-opacity="0" stroke="#000000" stroke-width="1" stroke-opacity="0"></use></g></g><g><use xlink:href="#dRvTsAEM" opacity="1" fill="#53180f" fill-opacity="1"></use><g><use xlink:href="#dRvTsAEM" opacity="1" fill-opacity="0" stroke="#000000" stroke-width="1" stroke-opacity="0"></use></g></g></g></g></svg>